<svg version="1.1" viewBox="0.0 0.0 960.0 540.0" fill="none" stroke="none" stroke-linecap="square" stroke-miterlimit="10" xmlns:xlink="http://www.w3.org/1999/xlink" xmlns="http://www.w3.org/2000/svg"><clipPath id="slide_06.0"><path d="m0 0l960.0 0l0 540.0l-960.0 0l0 -540.0z" clip-rule="nonzero"/></clipPath><g clip-path="url(#slide_06.0)"><g id="slide_06"><path fill="#ffffff" d="m0 0l960.0 0l0 540.0l-960.0 0l0 -540.0z" fill-rule="nonzero"/><path fill="#ffffff" d="m0 0l960.0 0l0 540.0l-960.0 0z" fill-rule="evenodd"/><g id="a11y-dsl_t06" role="img" aria-label="The math does not need to be big.&#xa;" tabindex="0"><path fill="#000000" fill-opacity="0.0" d="m80.0 117.333336l0 160.0l800.0 0l0 -160.0z" fill-rule="nonzero"/></g><path fill="#000000" fill-opacity="0.0" d="m80.0 117.333336l800.0 0l0 160.0l-800.0 0z" fill-rule="evenodd"/><path fill="#000000" d="m107.31952 174.97333l0 -31.984375l-11.953125 0l0 -4.28125l28.734375 0l0 4.28125l-11.984375 0l0 31.984375l-4.796875 0zm21.14598 0l0 -36.265625l4.453125 0l0 13.015625q3.109375 -3.609375 7.859375 -3.609375q2.921875 0 5.0625 1.15625q2.15625 1.140625 3.078125 3.171875q0.9375 2.03125 0.9375 5.890625l0 16.640625l-4.453125 0l0 -16.640625q0 -3.34375 -1.453125 -4.859375q-1.4375 -1.53125 -4.09375 -1.53125q-1.96875 0 -3.71875 1.03125q-1.734375 1.03125 -2.484375 2.78125q-0.734375 1.75 -0.734375 4.84375l0 14.375l-4.453125 0zm46.156967 -8.453125l4.59375 0.5625q-1.09375 4.03125 -4.03125 6.265625q-2.9375 2.21875 -7.515625 2.21875q-5.765625 0 -9.140625 -3.546875q-3.375 -3.546875 -3.375 -9.953125q0 -6.640625 3.40625 -10.296875q3.421875 -3.65625 8.859375 -3.65625q5.265625 0 8.59375 3.59375q3.34375 3.578125 3.34375 10.078125q0 0.40625 -0.015625 1.1875l-19.59375 0q0.25 4.328125 2.453125 6.640625q2.203125 2.296875 5.484375 2.296875q2.453125 0 4.1875 -1.28125q1.734375 -1.296875 2.75 -4.109375zm-14.625 -7.203125l14.671875 0q-0.296875 -3.3125 -1.6875 -4.96875q-2.125 -2.578125 -5.515625 -2.578125q-3.0625 0 -5.15625 2.0625q-2.09375 2.046875 -2.3125 5.484375zm38.887146 15.65625l0 -26.265625l3.984375 0l0 3.6875q1.234375 -1.9375 3.28125 -3.109375q2.0625 -1.171875 4.671875 -1.171875q2.921875 0 4.78125 1.21875q1.875 1.203125 2.640625 3.375q3.125 -4.59375 8.109375 -4.59375q3.921875 0 6.015625 2.171875q2.109375 2.15625 2.109375 6.65625l0 18.03125l-4.4375 0l0 -16.546875q0 -2.671875 -0.4375 -3.84375q-0.421875 -1.171875 -1.5625 -1.890625q-1.140625 -0.71875 -2.671875 -0.71875q-2.765625 0 -4.59375 1.84375q-1.828125 1.84375 -1.828125 5.890625l0 15.265625l-4.453125 0l0 -17.0625q0 -2.96875 -1.09375 -4.453125q-1.09375 -1.484375 -3.5625 -1.484375q-1.875 0 -3.484375 0.984375q-1.59375 0.984375 -2.3125 2.890625q-0.703125 1.90625 -0.703125 5.5l0 13.625l-4.453125 0zm59.337677 -3.234375q-2.484375 2.09375 -4.765625 2.96875q-2.28125 0.859375 -4.90625 0.859375q-4.328125 0 -6.65625 -2.109375q-2.328125 -2.125 -2.328125 -5.40625q0 -1.9375 0.875 -3.53125q0.890625 -1.59375 2.3125 -2.546875q1.421875 -0.96875 3.203125 -1.46875q1.296875 -0.34375 3.953125 -0.671875q5.390625 -0.640625 7.9375 -1.53125q0.03125 -0.921875 0.03125 -1.15625q0 -2.71875 -1.265625 -3.84375q-1.703125 -1.5 -5.078125 -1.5q-3.140625 0 -4.640625 1.109375q-1.484375 1.09375 -2.203125 3.875l-4.359375 -0.59375q0.59375 -2.78125 1.953125 -4.5q1.359375 -1.71875 3.9375 -2.640625q2.578125 -0.9375 5.953125 -0.9375q3.375 0 5.46875 0.796875q2.109375 0.78125 3.09375 1.984375q1.0 1.203125 1.390625 3.03125q0.21875 1.140625 0.21875 4.109375l0 5.9375q0 6.203125 0.28125 7.84375q0.296875 1.640625 1.125 3.15625l-4.640625 0q-0.703125 -1.390625 -0.890625 -3.234375zm-0.375 -9.953125q-2.421875 1.0 -7.265625 1.6875q-2.75 0.390625 -3.890625 0.890625q-1.140625 0.5 -1.765625 1.453125q-0.609375 0.9375 -0.609375 2.109375q0 1.78125 1.34375 2.96875q1.359375 1.1875 3.953125 1.1875q2.5625 0 4.5625 -1.125q2.015625 -1.125 2.953125 -3.078125q0.71875 -1.515625 0.71875 -4.453125l0 -1.640625zm21.125732 9.203125l0.640625 3.9375q-1.875 0.390625 -3.359375 0.390625q-2.421875 0 -3.765625 -0.765625q-1.328125 -0.765625 -1.875 -2.015625q-0.546875 -1.25 -0.546875 -5.25l0 -15.125l-3.265625 0l0 -3.453125l3.265625 0l0 -6.5l4.421875 -2.671875l0 9.171875l4.484375 0l0 3.453125l-4.484375 0l0 15.375q0 1.890625 0.234375 2.4375q0.234375 0.546875 0.765625 0.875q0.53125 0.3125 1.53125 0.3125q0.734375 0 1.953125 -0.171875zm4.3551636 3.984375l0 -36.265625l4.453125 0l0 13.015625q3.109375 -3.609375 7.859375 -3.609375q2.921875 0 5.0625 1.15625q2.15625 1.140625 3.078125 3.171875q0.9375 2.03125 0.9375 5.890625l0 16.640625l-4.453125 0l0 -16.640625q0 -3.34375 -1.453125 -4.859375q-1.4375 -1.53125 -4.09375 -1.53125q-1.96875 0 -3.71875 1.03125q-1.734375 1.03125 -2.484375 2.78125q-0.734375 1.75 -0.734375 4.84375l0 14.375l-4.453125 0zm59.27777 0l0 -3.3125q-2.484375 3.90625 -7.34375 3.90625q-3.140625 0 -5.78125 -1.734375q-2.625 -1.734375 -4.078125 -4.828125q-1.4375 -3.109375 -1.4375 -7.140625q0 -3.9375 1.3125 -7.140625q1.3125 -3.203125 3.921875 -4.90625q2.625 -1.703125 5.875 -1.703125q2.375 0 4.21875 1.0q1.859375 1.0 3.015625 2.609375l0 -13.015625l4.4375 0l0 36.265625l-4.140625 0zm-14.0625 -13.109375q0 5.046875 2.125 7.546875q2.125 2.5 5.015625 2.5q2.921875 0 4.953125 -2.390625q2.046875 -2.390625 2.046875 -7.28125q0 -5.390625 -2.078125 -7.90625q-2.078125 -2.53125 -5.125 -2.53125q-2.953125 0 -4.953125 2.421875q-1.984375 2.421875 -1.984375 7.640625zm23.547607 -0.03125q0 -7.296875 4.046875 -10.796875q3.390625 -2.921875 8.265625 -2.921875q5.421875 0 8.859375 3.546875q3.4375 3.546875 3.4375 9.8125q0 5.0625 -1.53125 7.96875q-1.515625 2.90625 -4.421875 4.515625q-2.90625 1.609375 -6.34375 1.609375q-5.515625 0 -8.921875 -3.53125q-3.390625 -3.546875 -3.390625 -10.203125zm4.578125 0q0 5.046875 2.1875 7.5625q2.203125 2.515625 5.546875 2.515625q3.3125 0 5.515625 -2.515625q2.203125 -2.53125 2.203125 -7.703125q0 -4.875 -2.21875 -7.375q-2.203125 -2.515625 -5.5 -2.515625q-3.34375 0 -5.546875 2.5q-2.1875 2.484375 -2.1875 7.53125zm43.235107 4.6875l4.59375 0.5625q-1.09375 4.03125 -4.03125 6.265625q-2.9375 2.21875 -7.515625 2.21875q-5.765625 0 -9.140625 -3.546875q-3.375 -3.546875 -3.375 -9.953125q0 -6.640625 3.40625 -10.296875q3.421875 -3.65625 8.859375 -3.65625q5.265625 0 8.59375 3.59375q3.34375 3.578125 3.34375 10.078125q0 0.40625 -0.015625 1.1875l-19.59375 0q0.25 4.328125 2.453125 6.640625q2.203125 2.296875 5.484375 2.296875q2.453125 0 4.1875 -1.28125q1.734375 -1.296875 2.75 -4.109375zm-14.625 -7.203125l14.671875 0q-0.296875 -3.3125 -1.6875 -4.96875q-2.125 -2.578125 -5.515625 -2.578125q-3.0625 0 -5.15625 2.0625q-2.09375 2.046875 -2.3125 5.484375zm23.031982 7.8125l4.40625 -0.6875q0.359375 2.640625 2.046875 4.0625q1.703125 1.40625 4.75 1.40625q3.0625 0 4.546875 -1.25q1.484375 -1.25 1.484375 -2.9375q0 -1.5 -1.3125 -2.375q-0.90625 -0.59375 -4.546875 -1.5q-4.90625 -1.25 -6.796875 -2.140625q-1.890625 -0.90625 -2.875 -2.5q-0.96875 -1.59375 -0.96875 -3.53125q0 -1.75 0.796875 -3.25q0.8125 -1.5 2.203125 -2.484375q1.03125 -0.765625 2.828125 -1.296875q1.796875 -0.53125 3.84375 -0.53125q3.09375 0 5.421875 0.890625q2.34375 0.890625 3.453125 2.421875q1.125 1.515625 1.546875 4.0625l-4.359375 0.59375q-0.296875 -2.03125 -1.71875 -3.171875q-1.421875 -1.140625 -4.015625 -1.140625q-3.078125 0 -4.390625 1.015625q-1.296875 1.015625 -1.296875 2.375q0 0.859375 0.53125 1.5625q0.546875 0.71875 1.71875 1.1875q0.65625 0.25 3.921875 1.140625q4.734375 1.25 6.59375 2.0625q1.875 0.796875 2.9375 2.328125q1.0625 1.53125 1.0625 3.8125q0 2.234375 -1.296875 4.203125q-1.296875 1.953125 -3.75 3.03125q-2.453125 1.078125 -5.546875 1.078125q-5.109375 0 -7.796875 -2.125q-2.6875 -2.125 -3.421875 -6.3125zm41.18329 7.84375l0 -26.265625l4.0 0l0 3.734375q2.890625 -4.328125 8.359375 -4.328125q2.375 0 4.359375 0.859375q2.0 0.84375 2.984375 2.234375q1.0 1.375 1.390625 3.28125q0.25 1.234375 0.25 4.328125l0 16.15625l-4.453125 0l0 -15.984375q0 -2.71875 -0.53125 -4.0625q-0.515625 -1.34375 -1.84375 -2.140625q-1.3125 -0.8125 -3.09375 -0.8125q-2.84375 0 -4.90625 1.8125q-2.0625 1.796875 -2.0625 6.84375l0 14.34375l-4.453125 0zm26.516357 -13.140625q0 -7.296875 4.046875 -10.796875q3.390625 -2.921875 8.265625 -2.921875q5.421875 0 8.859375 3.546875q3.4375 3.546875 3.4375 9.8125q0 5.0625 -1.53125 7.96875q-1.515625 2.90625 -4.421875 4.515625q-2.90625 1.609375 -6.34375 1.609375q-5.515625 0 -8.921875 -3.53125q-3.390625 -3.546875 -3.390625 -10.203125zm4.578125 0q0 5.046875 2.1875 7.5625q2.203125 2.515625 5.546875 2.515625q3.3125 0 5.515625 -2.515625q2.203125 -2.53125 2.203125 -7.703125q0 -4.875 -2.21875 -7.375q-2.203125 -2.515625 -5.5 -2.515625q-3.34375 0 -5.546875 2.5q-2.1875 2.484375 -2.1875 7.53125zm34.969482 9.15625l0.640625 3.9375q-1.875 0.390625 -3.359375 0.390625q-2.421875 0 -3.765625 -0.765625q-1.328125 -0.765625 -1.875 -2.015625q-0.546875 -1.25 -0.546875 -5.25l0 -15.125l-3.265625 0l0 -3.453125l3.265625 0l0 -6.5l4.421875 -2.671875l0 9.171875l4.484375 0l0 3.453125l-4.484375 0l0 15.375q0 1.890625 0.234375 2.4375q0.234375 0.546875 0.765625 0.875q0.53125 0.3125 1.53125 0.3125q0.734375 0 1.953125 -0.171875zm18.429077 3.984375l0 -26.265625l4.0 0l0 3.734375q2.890625 -4.328125 8.359375 -4.328125q2.375 0 4.359375 0.859375q2.0 0.84375 2.984375 2.234375q1.0 1.375 1.390625 3.28125q0.25 1.234375 0.25 4.328125l0 16.15625l-4.453125 0l0 -15.984375q0 -2.71875 -0.53125 -4.0625q-0.515625 -1.34375 -1.84375 -2.140625q-1.3125 -0.8125 -3.09375 -0.8125q-2.84375 0 -4.90625 1.8125q-2.0625 1.796875 -2.0625 6.84375l0 14.34375l-4.453125 0zm46.156982 -8.453125l4.59375 0.5625q-1.09375 4.03125 -4.03125 6.265625q-2.9375 2.21875 -7.515625 2.21875q-5.765625 0 -9.140625 -3.546875q-3.375 -3.546875 -3.375 -9.953125q0 -6.640625 3.40625 -10.296875q3.421875 -3.65625 8.859375 -3.65625q5.265625 0 8.59375 3.59375q3.34375 3.578125 3.34375 10.078125q0 0.40625 -0.015625 1.1875l-19.59375 0q0.25 4.328125 2.453125 6.640625q2.203125 2.296875 5.484375 2.296875q2.453125 0 4.1875 -1.28125q1.734375 -1.296875 2.75 -4.109375zm-14.625 -7.203125l14.671875 0q-0.296875 -3.3125 -1.6875 -4.96875q-2.125 -2.578125 -5.515625 -2.578125q-3.0625 0 -5.15625 2.0625q-2.09375 2.046875 -2.3125 5.484375zm42.797607 7.203125l4.59375 0.5625q-1.09375 4.03125 -4.03125 6.265625q-2.9375 2.21875 -7.515625 2.21875q-5.765625 0 -9.140625 -3.546875q-3.375 -3.546875 -3.375 -9.953125q0 -6.640625 3.40625 -10.296875q3.421875 -3.65625 8.859375 -3.65625q5.265625 0 8.59375 3.59375q3.34375 3.578125 3.34375 10.078125q0 0.40625 -0.015625 1.1875l-19.59375 0q0.25 4.328125 2.453125 6.640625q2.203125 2.296875 5.484375 2.296875q2.453125 0 4.1875 -1.28125q1.734375 -1.296875 2.75 -4.109375zm-14.625 -7.203125l14.671875 0q-0.296875 -3.3125 -1.6875 -4.96875q-2.125 -2.578125 -5.515625 -2.578125q-3.0625 0 -5.15625 2.0625q-2.09375 2.046875 -2.3125 5.484375zm41.844482 15.65625l0 -3.3125q-2.484375 3.90625 -7.34375 3.90625q-3.140625 0 -5.78125 -1.734375q-2.625 -1.734375 -4.078125 -4.828125q-1.4375 -3.109375 -1.4375 -7.140625q0 -3.9375 1.3125 -7.140625q1.3125 -3.203125 3.921875 -4.90625q2.625 -1.703125 5.875 -1.703125q2.375 0 4.21875 1.0q1.859375 1.0 3.015625 2.609375l0 -13.015625l4.4375 0l0 36.265625l-4.140625 0zm-14.0625 -13.109375q0 5.046875 2.125 7.546875q2.125 2.5 5.015625 2.5q2.921875 0 4.953125 -2.390625q2.046875 -2.390625 2.046875 -7.28125q0 -5.390625 -2.078125 -7.90625q-2.078125 -2.53125 -5.125 -2.53125q-2.953125 0 -4.953125 2.421875q-1.984375 2.421875 -1.984375 7.640625zm48.99652 9.125l0.640625 3.9375q-1.875 0.390625 -3.359375 0.390625q-2.421875 0 -3.765625 -0.765625q-1.328125 -0.765625 -1.875 -2.015625q-0.546875 -1.25 -0.546875 -5.25l0 -15.125l-3.265625 0l0 -3.453125l3.265625 0l0 -6.5l4.421875 -2.671875l0 9.171875l4.484375 0l0 3.453125l-4.484375 0l0 15.375q0 1.890625 0.234375 2.4375q0.234375 0.546875 0.765625 0.875q0.53125 0.3125 1.53125 0.3125q0.734375 0 1.953125 -0.171875zm2.6989136 -9.15625q0 -7.296875 4.046875 -10.796875q3.390625 -2.921875 8.265625 -2.921875q5.421875 0 8.859375 3.546875q3.4375 3.546875 3.4375 9.8125q0 5.0625 -1.53125 7.96875q-1.515625 2.90625 -4.421875 4.515625q-2.90625 1.609375 -6.34375 1.609375q-5.515625 0 -8.921875 -3.53125q-3.390625 -3.546875 -3.390625 -10.203125zm4.578125 0q0 5.046875 2.1875 7.5625q2.203125 2.515625 5.546875 2.515625q3.3125 0 5.515625 -2.515625q2.203125 -2.53125 2.203125 -7.703125q0 -4.875 -2.21875 -7.375q-2.203125 -2.515625 -5.5 -2.515625q-3.34375 0 -5.546875 2.5q-2.1875 2.484375 -2.1875 7.53125zm43.418396 13.140625l-4.125 0l0 -36.265625l4.453125 0l0 12.9375q2.828125 -3.53125 7.203125 -3.53125q2.421875 0 4.578125 0.984375q2.171875 0.96875 3.5625 2.734375q1.40625 1.765625 2.1875 4.265625q0.796875 2.5 0.796875 5.34375q0 6.75 -3.34375 10.4375q-3.328125 3.6875 -8.015625 3.6875q-4.640625 0 -7.296875 -3.890625l0 3.296875zm-0.046875 -13.328125q0 4.71875 1.296875 6.828125q2.09375 3.4375 5.6875 3.4375q2.921875 0 5.046875 -2.53125q2.125 -2.546875 2.125 -7.5625q0 -5.140625 -2.046875 -7.59375q-2.03125 -2.453125 -4.9375 -2.453125q-2.90625 0 -5.046875 2.546875q-2.125 2.53125 -2.125 7.328125zm42.110107 4.875l4.59375 0.5625q-1.09375 4.03125 -4.03125 6.265625q-2.9375 2.21875 -7.515625 2.21875q-5.765625 0 -9.140625 -3.546875q-3.375 -3.546875 -3.375 -9.953125q0 -6.640625 3.40625 -10.296875q3.421875 -3.65625 8.859375 -3.65625q5.265625 0 8.59375 3.59375q3.34375 3.578125 3.34375 10.078125q0 0.40625 -0.015625 1.1875l-19.59375 0q0.25 4.328125 2.453125 6.640625q2.203125 2.296875 5.484375 2.296875q2.453125 0 4.1875 -1.28125q1.734375 -1.296875 2.75 -4.109375zm-14.625 -7.203125l14.671875 0q-0.296875 -3.3125 -1.6875 -4.96875q-2.125 -2.578125 -5.515625 -2.578125q-3.0625 0 -5.15625 2.0625q-2.09375 2.046875 -2.3125 5.484375zm42.980896 15.65625l-4.125 0l0 -36.265625l4.453125 0l0 12.9375q2.828125 -3.53125 7.203125 -3.53125q2.421875 0 4.578125 0.984375q2.171875 0.96875 3.5625 2.734375q1.40625 1.765625 2.1875 4.265625q0.796875 2.5 0.796875 5.34375q0 6.75 -3.34375 10.4375q-3.328125 3.6875 -8.015625 3.6875q-4.640625 0 -7.296875 -3.890625l0 3.296875zm-0.046875 -13.328125q0 4.71875 1.296875 6.828125q2.09375 3.4375 5.6875 3.4375q2.921875 0 5.046875 -2.53125q2.125 -2.546875 2.125 -7.5625q0 -5.140625 -2.046875 -7.59375q-2.03125 -2.453125 -4.9375 -2.453125q-2.90625 0 -5.046875 2.546875q-2.125 2.53125 -2.125 7.328125zm24.141357 -17.8125l0 -5.125l4.453125 0l0 5.125l-4.453125 0zm0 31.140625l0 -26.265625l4.453125 0l0 26.265625l-4.453125 0zm10.410461 2.171875l4.328125 0.640625q0.28125 2.015625 1.515625 2.921875q1.65625 1.234375 4.53125 1.234375q3.09375 0 4.765625 -1.234375q1.6875 -1.234375 2.28125 -3.453125q0.34375 -1.359375 0.3125 -5.71875q-2.90625 3.4375 -7.265625 3.4375q-5.421875 0 -8.390625 -3.90625q-2.96875 -3.90625 -2.96875 -9.375q0 -3.765625 1.359375 -6.9375q1.375 -3.1875 3.953125 -4.90625q2.578125 -1.734375 6.078125 -1.734375q4.640625 0 7.65625 3.75l0 -3.15625l4.109375 0l0 22.703125q0 6.140625 -1.25 8.6875q-1.25 2.5625 -3.953125 4.046875q-2.703125 1.484375 -6.671875 1.484375q-4.6875 0 -7.59375 -2.109375q-2.890625 -2.109375 -2.796875 -6.375zm3.6875 -15.78125q0 5.171875 2.046875 7.546875q2.0625 2.375 5.15625 2.375q3.0625 0 5.140625 -2.359375q2.078125 -2.359375 2.078125 -7.40625q0 -4.828125 -2.140625 -7.265625q-2.140625 -2.453125 -5.15625 -2.453125q-2.96875 0 -5.046875 2.40625q-2.078125 2.40625 -2.078125 7.15625zm26.563232 13.609375l0 -5.078125l5.078125 0l0 5.078125l-5.078125 0z" fill-rule="nonzero"/><g id="a11y-dsl_b06" role="img" aria-label="5 qualified prospects.&#xa;2 customers.&#xa;A profitable month.&#xa;" tabindex="0"><path fill="#000000" fill-opacity="0.0" d="m106.666664 313.33334l0 193.32281l746.6771 0l0 -193.32281z" fill-rule="nonzero"/></g><path fill="#000000" fill-opacity="0.0" d="m106.666664 313.33334l746.6771 0l0 193.32281l-746.6771 0z" fill-rule="evenodd"/><path fill="#000000" d="m317.6886 349.11334l3.203125 -0.265625q0.34375 2.328125 1.640625 3.515625q1.296875 1.171875 3.125 1.171875q2.203125 0 3.71875 -1.65625q1.53125 -1.65625 1.53125 -4.40625q0 -2.609375 -1.46875 -4.109375q-1.453125 -1.5 -3.828125 -1.5q-1.46875 0 -2.65625 0.671875q-1.1875 0.65625 -1.859375 1.71875l-2.859375 -0.375l2.390625 -12.734375l12.34375 0l0 2.90625l-9.90625 0l-1.328125 6.671875q2.234375 -1.5625 4.6875 -1.5625q3.25 0 5.484375 2.25q2.234375 2.25 2.234375 5.796875q0 3.359375 -1.96875 5.8125q-2.390625 3.015625 -6.515625 3.015625q-3.375 0 -5.515625 -1.890625q-2.140625 -1.90625 -2.453125 -5.03125zm41.199646 13.390625l0 -8.796875q-0.703125 1.0 -1.984375 1.65625q-1.28125 0.65625 -2.71875 0.65625q-3.1875 0 -5.5 -2.546875q-2.3125 -2.5625 -2.3125 -7.015625q0 -2.703125 0.9375 -4.84375q0.9375 -2.15625 2.71875 -3.265625q1.796875 -1.109375 3.921875 -1.109375q3.34375 0 5.25 2.8125l0 -2.40625l2.734375 0l0 24.859375l-3.046875 0zm-9.390625 -15.921875q0 3.46875 1.453125 5.203125q1.46875 1.734375 3.5 1.734375q1.9375 0 3.34375 -1.640625q1.40625 -1.65625 1.40625 -5.03125q0 -3.59375 -1.484375 -5.390625q-1.484375 -1.8125 -3.46875 -1.8125q-1.984375 0 -3.375 1.6875q-1.375 1.671875 -1.375 5.25zm28.99289 9.03125l0 -2.640625q-2.09375 3.046875 -5.703125 3.046875q-1.59375 0 -2.96875 -0.609375q-1.375 -0.609375 -2.046875 -1.53125q-0.671875 -0.921875 -0.9375 -2.265625q-0.1875 -0.890625 -0.1875 -2.84375l0 -11.125l3.046875 0l0 9.96875q0 2.375 0.1875 3.21875q0.28125 1.1875 1.203125 1.875q0.9375 0.6875 2.3125 0.6875q1.375 0 2.578125 -0.703125q1.203125 -0.703125 1.6875 -1.90625q0.5 -1.21875 0.5 -3.515625l0 -9.625l3.046875 0l0 17.96875l-2.71875 0zm19.227295 -2.21875q-1.703125 1.4375 -3.265625 2.03125q-1.5625 0.59375 -3.359375 0.59375q-2.953125 0 -4.546875 -1.4375q-1.59375 -1.453125 -1.59375 -3.703125q0 -1.328125 0.59375 -2.40625q0.609375 -1.09375 1.578125 -1.75q0.984375 -0.671875 2.203125 -1.015625q0.890625 -0.234375 2.703125 -0.453125q3.6875 -0.4375 5.421875 -1.046875q0.03125 -0.625 0.03125 -0.796875q0 -1.859375 -0.875 -2.625q-1.15625 -1.03125 -3.46875 -1.03125q-2.140625 0 -3.171875 0.765625q-1.015625 0.75 -1.515625 2.65625l-2.96875 -0.40625q0.40625 -1.90625 1.328125 -3.078125q0.9375 -1.1875 2.6875 -1.8125q1.765625 -0.640625 4.078125 -0.640625q2.3125 0 3.75 0.546875q1.4375 0.53125 2.109375 1.359375q0.6875 0.8125 0.953125 2.0625q0.15625 0.78125 0.15625 2.8125l0 4.0625q0 4.25 0.1875 5.375q0.203125 1.125 0.765625 2.15625l-3.171875 0q-0.484375 -0.953125 -0.609375 -2.21875zm-0.265625 -6.796875q-1.65625 0.671875 -4.96875 1.140625q-1.875 0.28125 -2.65625 0.625q-0.78125 0.328125 -1.203125 0.984375q-0.421875 0.640625 -0.421875 1.4375q0 1.21875 0.921875 2.03125q0.921875 0.8125 2.703125 0.8125q1.75 0 3.125 -0.765625q1.375 -0.765625 2.015625 -2.109375q0.484375 -1.03125 0.484375 -3.046875l0 -1.109375zm7.74292 9.015625l0 -24.8125l3.046875 0l0 24.8125l-3.046875 0zm7.7776184 -21.3125l0 -3.5l3.046875 0l0 3.5l-3.046875 0zm0 21.3125l0 -17.96875l3.046875 0l0 17.96875l-3.046875 0zm8.418243 0l0 -15.609375l-2.6875 0l0 -2.359375l2.6875 0l0 -1.921875q0 -1.796875 0.3125 -2.6875q0.453125 -1.1875 1.546875 -1.921875q1.109375 -0.734375 3.109375 -0.734375q1.28125 0 2.84375 0.3125l-0.453125 2.65625q-0.953125 -0.171875 -1.796875 -0.171875q-1.390625 0 -1.96875 0.59375q-0.5625 0.59375 -0.5625 2.21875l0 1.65625l3.5 0l0 2.359375l-3.5 0l0 15.609375l-3.03125 0zm8.909882 -21.3125l0 -3.5l3.046875 0l0 3.5l-3.046875 0zm0 21.3125l0 -17.96875l3.046875 0l0 17.96875l-3.046875 0zm19.996368 -5.78125l3.140625 0.390625q-0.75 2.75 -2.765625 4.28125q-2.0 1.515625 -5.140625 1.515625q-3.9375 0 -6.25 -2.421875q-2.3125 -2.4375 -2.3125 -6.8125q0 -4.546875 2.328125 -7.046875q2.34375 -2.5 6.0625 -2.5q3.609375 0 5.890625 2.453125q2.28125 2.453125 2.28125 6.90625q0 0.265625 -0.015625 0.8125l-13.390625 0q0.15625 2.953125 1.65625 4.53125q1.515625 1.578125 3.765625 1.578125q1.6875 0 2.859375 -0.875q1.1875 -0.890625 1.890625 -2.8125zm-10.015625 -4.9375l10.046875 0q-0.203125 -2.265625 -1.15625 -3.390625q-1.453125 -1.765625 -3.765625 -1.765625q-2.109375 0 -3.546875 1.40625q-1.421875 1.40625 -1.578125 3.75zm28.633545 10.71875l0 -2.265625q-1.703125 2.671875 -5.015625 2.671875q-2.15625 0 -3.953125 -1.1875q-1.796875 -1.1875 -2.796875 -3.296875q-0.984375 -2.125 -0.984375 -4.890625q0 -2.6875 0.890625 -4.875q0.90625 -2.203125 2.6875 -3.359375q1.796875 -1.171875 4.015625 -1.171875q1.625 0 2.890625 0.6875q1.28125 0.6875 2.0625 1.78125l0 -8.90625l3.03125 0l0 24.8125l-2.828125 0zm-9.625 -8.96875q0 3.453125 1.453125 5.171875q1.453125 1.703125 3.4375 1.703125q2.0 0 3.390625 -1.625q1.40625 -1.640625 1.40625 -5.0q0 -3.6875 -1.421875 -5.40625q-1.421875 -1.734375 -3.515625 -1.734375q-2.015625 0 -3.390625 1.65625q-1.359375 1.65625 -1.359375 5.234375zm26.871521 15.859375l0 -24.859375l2.78125 0l0 2.328125q0.984375 -1.359375 2.21875 -2.046875q1.234375 -0.6875 2.984375 -0.6875q2.3125 0 4.0625 1.1875q1.765625 1.171875 2.65625 3.34375q0.90625 2.15625 0.90625 4.71875q0 2.765625 -1.0 4.96875q-0.984375 2.203125 -2.875 3.390625q-1.875 1.171875 -3.96875 1.171875q-1.515625 0 -2.734375 -0.640625q-1.203125 -0.640625 -1.984375 -1.625l0 8.75l-3.046875 0zm2.765625 -15.78125q0 3.46875 1.40625 5.140625q1.40625 1.65625 3.390625 1.65625q2.03125 0 3.46875 -1.71875q1.453125 -1.71875 1.453125 -5.328125q0 -3.4375 -1.40625 -5.140625q-1.40625 -1.703125 -3.375 -1.703125q-1.953125 0 -3.453125 1.8125q-1.484375 1.8125 -1.484375 5.28125zm16.477295 8.890625l0 -17.96875l2.734375 0l0 2.71875q1.0625 -1.90625 1.9375 -2.515625q0.890625 -0.609375 1.9687805 -0.609375q1.53125 0 3.125 0.984375l-1.046875 2.828125q-1.125 -0.671875 -2.2344055 -0.671875q-1.0 0 -1.796875 0.609375q-0.796875 0.59375 -1.140625 1.65625q-0.5 1.625 -0.5 3.5625l0 9.40625l-3.046875 0zm10.447052 -8.984375q0 -5.0 2.765625 -7.390625q2.328125 -2.0 5.65625 -2.0q3.703125 0 6.046875 2.4375q2.359375 2.421875 2.359375 6.703125q0 3.46875 -1.046875 5.453125q-1.03125 1.984375 -3.015625 3.09375q-1.984375 1.09375 -4.34375 1.09375q-3.78125 0 -6.109375 -2.421875q-2.3125 -2.421875 -2.3125 -6.96875zm3.125 0q0 3.453125 1.5 5.171875q1.515625 1.71875 3.796875 1.71875q2.265625 0 3.765625 -1.71875q1.515625 -1.734375 1.515625 -5.28125q0 -3.328125 -1.515625 -5.046875q-1.515625 -1.71875 -3.765625 -1.71875q-2.28125 0 -3.796875 1.71875q-1.5 1.703125 -1.5 5.15625zm16.05542 3.625l3.015625 -0.484375q0.25 1.8125 1.40625 2.78125q1.171875 0.96875 3.25 0.96875q2.09375 0 3.109375 -0.859375q1.015625 -0.859375 1.015625 -2.0q0 -1.03125 -0.890625 -1.625q-0.625 -0.40625 -3.125 -1.03125q-3.34375 -0.859375 -4.640625 -1.46875q-1.296875 -0.625 -1.96875 -1.703125q-0.65625 -1.09375 -0.65625 -2.421875q0 -1.203125 0.546875 -2.21875q0.546875 -1.03125 1.5 -1.703125q0.703125 -0.53125 1.921875 -0.890625q1.234375 -0.359375 2.640625 -0.359375q2.125 0 3.71875 0.609375q1.59375 0.609375 2.359375 1.65625q0.765625 1.03125 1.046875 2.78125l-2.96875 0.40625q-0.203125 -1.390625 -1.1875 -2.171875q-0.96875 -0.78125 -2.75 -0.78125q-2.09375 0 -3.0 0.703125q-0.890625 0.6875 -0.890625 1.625q0 0.578125 0.375 1.0625q0.375 0.484375 1.171875 0.8125q0.453125 0.171875 2.6875 0.78125q3.234375 0.859375 4.5 1.40625q1.28125 0.546875 2.0 1.59375q0.734375 1.046875 0.734375 2.609375q0 1.53125 -0.890625 2.875q-0.875 1.34375 -2.5625 2.078125q-1.671875 0.734375 -3.78125 0.734375q-3.5 0 -5.34375 -1.453125q-1.828125 -1.453125 -2.34375 -4.3125zm18.546875 12.25l0 -24.859375l2.78125 0l0 2.328125q0.984375 -1.359375 2.21875 -2.046875q1.234375 -0.6875 2.984375 -0.6875q2.3125 0 4.0625 1.1875q1.765625 1.171875 2.65625 3.34375q0.90625 2.15625 0.90625 4.71875q0 2.765625 -1.0 4.96875q-0.984375 2.203125 -2.875 3.390625q-1.875 1.171875 -3.96875 1.171875q-1.515625 0 -2.734375 -0.640625q-1.203125 -0.640625 -1.984375 -1.625l0 8.75l-3.046875 0zm2.765625 -15.78125q0 3.46875 1.40625 5.140625q1.40625 1.65625 3.390625 1.65625q2.03125 0 3.46875 -1.71875q1.453125 -1.71875 1.453125 -5.328125q0 -3.4375 -1.40625 -5.140625q-1.40625 -1.703125 -3.375 -1.703125q-1.953125 0 -3.453125 1.8125q-1.484375 1.8125 -1.484375 5.28125zm28.821045 3.109375l3.140625 0.390625q-0.75 2.75 -2.765625 4.28125q-2.0 1.515625 -5.140625 1.515625q-3.9375 0 -6.25 -2.421875q-2.3125 -2.4375 -2.3125 -6.8125q0 -4.546875 2.328125 -7.046875q2.34375 -2.5 6.0625 -2.5q3.609375 0 5.890625 2.453125q2.28125 2.453125 2.28125 6.90625q0 0.265625 -0.015625 0.8125l-13.390625 0q0.15625 2.953125 1.65625 4.53125q1.515625 1.578125 3.765625 1.578125q1.6875 0 2.859375 -0.875q1.1875 -0.890625 1.890625 -2.8125zm-10.015625 -4.9375l10.046875 0q-0.203125 -2.265625 -1.15625 -3.390625q-1.453125 -1.765625 -3.765625 -1.765625q-2.109375 0 -3.546875 1.40625q-1.421875 1.40625 -1.578125 3.75zm28.711609 4.140625l2.984375 0.390625q-0.484375 3.09375 -2.515625 4.84375q-2.015625 1.75 -4.953125 1.75q-3.6875 0 -5.9375 -2.40625q-2.234375 -2.421875 -2.234375 -6.921875q0 -2.90625 0.953125 -5.078125q0.96875 -2.1875 2.9375 -3.28125q1.96875 -1.09375 4.296875 -1.09375q2.921875 0 4.78125 1.484375q1.859375 1.46875 2.390625 4.203125l-2.96875 0.453125q-0.421875 -1.8125 -1.5 -2.71875q-1.0625 -0.921875 -2.59375 -0.921875q-2.296875 0 -3.734375 1.65625q-1.4375 1.640625 -1.4375 5.21875q0 3.625 1.390625 5.265625q1.390625 1.640625 3.625 1.640625q1.78125 0 2.984375 -1.09375q1.203125 -1.109375 1.53125 -3.390625zm12.25 3.859375l0.4375 2.6875q-1.28125 0.265625 -2.296875 0.265625q-1.65625 0 -2.578125 -0.515625q-0.90625 -0.53125 -1.28125 -1.375q-0.375 -0.859375 -0.375 -3.609375l0 -10.34375l-2.234375 0l0 -2.359375l2.234375 0l0 -4.453125l3.03125 -1.828125l0 6.28125l3.0625 0l0 2.359375l-3.0625 0l0 10.515625q0 1.296875 0.15625 1.671875q0.15625 0.375 0.515625 0.59375q0.375 0.21875 1.046875 0.21875q0.515625 0 1.34375 -0.109375zm1.7536011 -2.640625l3.015625 -0.484375q0.25 1.8125 1.40625 2.78125q1.171875 0.96875 3.25 0.96875q2.09375 0 3.109375 -0.859375q1.015625 -0.859375 1.015625 -2.0q0 -1.03125 -0.890625 -1.625q-0.625 -0.40625 -3.125 -1.03125q-3.34375 -0.859375 -4.640625 -1.46875q-1.296875 -0.625 -1.96875 -1.703125q-0.65625 -1.09375 -0.65625 -2.421875q0 -1.203125 0.546875 -2.21875q0.546875 -1.03125 1.5 -1.703125q0.703125 -0.53125 1.921875 -0.890625q1.234375 -0.359375 2.640625 -0.359375q2.125 0 3.71875 0.609375q1.59375 0.609375 2.359375 1.65625q0.765625 1.03125 1.046875 2.78125l-2.96875 0.40625q-0.203125 -1.390625 -1.1875 -2.171875q-0.96875 -0.78125 -2.75 -0.78125q-2.09375 0 -3.0 0.703125q-0.890625 0.6875 -0.890625 1.625q0 0.578125 0.375 1.0625q0.375 0.484375 1.171875 0.8125q0.453125 0.171875 2.6875 0.78125q3.234375 0.859375 4.5 1.40625q1.28125 0.546875 2.0 1.59375q0.734375 1.046875 0.734375 2.609375q0 1.53125 -0.890625 2.875q-0.875 1.34375 -2.5625 2.078125q-1.671875 0.734375 -3.78125 0.734375q-3.5 0 -5.34375 -1.453125q-1.828125 -1.453125 -2.34375 -4.3125zm19.40625 5.359375l0 -3.46875l3.46875 0l0 3.46875l-3.46875 0z" fill-rule="nonzero"/><path fill="#000000" d="m398.27008 394.69147l0 2.921875l-16.40625 0q-0.03125 -1.09375 0.359375 -2.109375q0.625 -1.6875 2.0 -3.3125q1.375 -1.625 3.984375 -3.75q4.046875 -3.3125 5.46875 -5.25q1.421875 -1.9375 1.421875 -3.671875q0 -1.8125 -1.296875 -3.046875q-1.296875 -1.25 -3.375 -1.25q-2.203125 0 -3.53125 1.328125q-1.3125 1.3125 -1.328125 3.65625l-3.125 -0.328125q0.328125 -3.5 2.421875 -5.328125q2.09375 -1.84375 5.625 -1.84375q3.578125 0 5.65625 1.984375q2.078125 1.96875 2.078125 4.90625q0 1.484375 -0.609375 2.921875q-0.609375 1.4375 -2.015625 3.03125q-1.40625 1.59375 -4.703125 4.359375q-2.734375 2.3125 -3.515625 3.140625q-0.78125 0.8125 -1.28125 1.640625l12.171875 0zm25.465271 -3.65625l2.984375 0.390625q-0.484375 3.09375 -2.515625 4.84375q-2.015625 1.75 -4.953125 1.75q-3.6875 0 -5.9375 -2.40625q-2.234375 -2.421875 -2.234375 -6.921875q0 -2.90625 0.953125 -5.078125q0.96875 -2.1875 2.9375 -3.28125q1.96875 -1.09375 4.296875 -1.09375q2.921875 0 4.78125 1.484375q1.859375 1.46875 2.390625 4.203125l-2.96875 0.453125q-0.421875 -1.8125 -1.5 -2.71875q-1.0625 -0.921875 -2.59375 -0.921875q-2.296875 0 -3.734375 1.65625q-1.4375 1.640625 -1.4375 5.21875q0 3.625 1.390625 5.265625q1.390625 1.640625 3.625 1.640625q1.78125 0 2.984375 -1.09375q1.203125 -1.109375 1.53125 -3.390625zm17.375 6.578125l0 -2.640625q-2.09375 3.046875 -5.703125 3.046875q-1.59375 0 -2.96875 -0.609375q-1.375 -0.609375 -2.046875 -1.53125q-0.671875 -0.921875 -0.9375 -2.265625q-0.1875 -0.890625 -0.1875 -2.84375l0 -11.125l3.046875 0l0 9.96875q0 2.375 0.1875 3.21875q0.28125 1.1875 1.203125 1.875q0.9375 0.6875 2.3125 0.6875q1.375 0 2.578125 -0.703125q1.203125 -0.703125 1.6875 -1.90625q0.5 -1.21875 0.5 -3.515625l0 -9.625l3.046875 0l0 17.96875l-2.71875 0zm6.2741394 -5.359375l3.015625 -0.484375q0.25 1.8125 1.40625 2.78125q1.171875 0.96875 3.25 0.96875q2.09375 0 3.109375 -0.859375q1.015625 -0.859375 1.015625 -2.0q0 -1.03125 -0.890625 -1.625q-0.625 -0.40625 -3.125 -1.03125q-3.34375 -0.859375 -4.640625 -1.46875q-1.296875 -0.625 -1.96875 -1.703125q-0.65625 -1.09375 -0.65625 -2.421875q0 -1.203125 0.546875 -2.21875q0.546875 -1.03125 1.5 -1.703125q0.703125 -0.53125 1.921875 -0.890625q1.234375 -0.359375 2.640625 -0.359375q2.125 0 3.71875 0.609375q1.59375 0.609375 2.359375 1.65625q0.765625 1.03125 1.046875 2.78125l-2.96875 0.40625q-0.203125 -1.390625 -1.1875 -2.171875q-0.96875 -0.78125 -2.75 -0.78125q-2.09375 0 -3.0 0.703125q-0.890625 0.6875 -0.890625 1.625q0 0.578125 0.375 1.0625q0.375 0.484375 1.171875 0.8125q0.453125 0.171875 2.6875 0.78125q3.234375 0.859375 4.5 1.40625q1.28125 0.546875 2.0 1.59375q0.734375 1.046875 0.734375 2.609375q0 1.53125 -0.890625 2.875q-0.875 1.34375 -2.5625 2.078125q-1.671875 0.734375 -3.78125 0.734375q-3.5 0 -5.34375 -1.453125q-1.828125 -1.453125 -2.34375 -4.3125zm25.203125 2.640625l0.4375 2.6875q-1.28125 0.265625 -2.296875 0.265625q-1.65625 0 -2.578125 -0.515625q-0.90625 -0.53125 -1.28125 -1.375q-0.375 -0.859375 -0.375 -3.609375l0 -10.34375l-2.234375 0l0 -2.359375l2.234375 0l0 -4.453125l3.03125 -1.828125l0 6.28125l3.0625 0l0 2.359375l-3.0625 0l0 10.515625q0 1.296875 0.15625 1.671875q0.15625 0.375 0.515625 0.59375q0.375 0.21875 1.046875 0.21875q0.515625 0 1.34375 -0.109375zm1.8473816 -6.265625q0 -5.0 2.765625 -7.390625q2.328125 -2.0 5.65625 -2.0q3.703125 0 6.046875 2.4375q2.359375 2.421875 2.359375 6.703125q0 3.46875 -1.046875 5.453125q-1.03125 1.984375 -3.015625 3.09375q-1.984375 1.09375 -4.34375 1.09375q-3.78125 0 -6.109375 -2.421875q-2.3125 -2.421875 -2.3125 -6.96875zm3.125 0q0 3.453125 1.5 5.171875q1.515625 1.71875 3.796875 1.71875q2.265625 0 3.765625 -1.71875q1.515625 -1.734375 1.515625 -5.28125q0 -3.328125 -1.515625 -5.046875q-1.515625 -1.71875 -3.765625 -1.71875q-2.28125 0 -3.796875 1.71875q-1.5 1.703125 -1.5 5.15625zm17.27414 8.984375l0 -17.96875l2.734375 0l0 2.515625q0.84375 -1.3125 2.25 -2.109375q1.40625 -0.8125 3.1875 -0.8125q2.0 0 3.28125 0.828125q1.28125 0.828125 1.796875 2.3125q2.140625 -3.140625 5.5469055 -3.140625q2.6875 0 4.125 1.484375q1.4375 1.46875 1.4375 4.546875l0 12.34375l-3.03125 0l0 -11.328125q0 -1.8125 -0.296875 -2.609375q-0.296875 -0.8125 -1.078125 -1.296875q-0.78125 -0.5 -1.828125 -0.5q-1.8906555 0 -3.1406555 1.265625q-1.25 1.25 -1.25 4.03125l0 10.4375l-3.046875 0l0 -11.671875q0 -2.03125 -0.75 -3.046875q-0.75 -1.015625 -2.4375 -1.015625q-1.28125 0 -2.375 0.671875q-1.09375 0.671875 -1.59375 1.984375q-0.484375 1.296875 -0.484375 3.75l0 9.328125l-3.046875 0zm41.181488 -5.78125l3.140625 0.390625q-0.75 2.75 -2.765625 4.28125q-2.0 1.515625 -5.140625 1.515625q-3.9375 0 -6.25 -2.421875q-2.3125 -2.4375 -2.3125 -6.8125q0 -4.546875 2.328125 -7.046875q2.34375 -2.5 6.0625 -2.5q3.609375 0 5.890625 2.453125q2.28125 2.453125 2.28125 6.90625q0 0.265625 -0.015625 0.8125l-13.390625 0q0.15625 2.953125 1.65625 4.53125q1.515625 1.578125 3.765625 1.578125q1.6875 0 2.859375 -0.875q1.1875 -0.890625 1.890625 -2.8125zm-10.015625 -4.9375l10.046875 0q-0.203125 -2.265625 -1.15625 -3.390625q-1.453125 -1.765625 -3.765625 -1.765625q-2.109375 0 -3.546875 1.40625q-1.421875 1.40625 -1.578125 3.75zm16.945984 10.71875l0 -17.96875l2.734375 0l0 2.71875q1.0625 -1.90625 1.9375 -2.515625q0.890625 -0.609375 1.96875 -0.609375q1.53125 0 3.125 0.984375l-1.046875 2.828125q-1.125 -0.671875 -2.234375 -0.671875q-1.0 0 -1.796875 0.609375q-0.796875 0.59375 -1.140625 1.65625q-0.5 1.625 -0.5 3.5625l0 9.40625l-3.046875 0zm10.3533325 -5.359375l3.015625 -0.484375q0.25 1.8125 1.40625 2.78125q1.171875 0.96875 3.25 0.96875q2.09375 0 3.109375 -0.859375q1.015625 -0.859375 1.015625 -2.0q0 -1.03125 -0.890625 -1.625q-0.625 -0.40625 -3.125 -1.03125q-3.34375 -0.859375 -4.640625 -1.46875q-1.296875 -0.625 -1.96875 -1.703125q-0.65625 -1.09375 -0.65625 -2.421875q0 -1.203125 0.546875 -2.21875q0.546875 -1.03125 1.5 -1.703125q0.703125 -0.53125 1.921875 -0.890625q1.234375 -0.359375 2.640625 -0.359375q2.125 0 3.71875 0.609375q1.59375 0.609375 2.359375 1.65625q0.765625 1.03125 1.046875 2.78125l-2.96875 0.40625q-0.203125 -1.390625 -1.1875 -2.171875q-0.96875 -0.78125 -2.75 -0.78125q-2.09375 0 -3.0 0.703125q-0.890625 0.6875 -0.890625 1.625q0 0.578125 0.375 1.0625q0.375 0.484375 1.171875 0.8125q0.453125 0.171875 2.6875 0.78125q3.234375 0.859375 4.5 1.40625q1.28125 0.546875 2.0 1.59375q0.734375 1.046875 0.734375 2.609375q0 1.53125 -0.890625 2.875q-0.875 1.34375 -2.5625 2.078125q-1.671875 0.734375 -3.78125 0.734375q-3.5 0 -5.34375 -1.453125q-1.828125 -1.453125 -2.34375 -4.3125zm19.40625 5.359375l0 -3.46875l3.46875 0l0 3.46875l-3.46875 0z" fill-rule="nonzero"/><path fill="#000000" d="m335.47018 439.61334l9.515625 -24.8125l3.546875 0l10.15625 24.8125l-3.75 0l-2.890625 -7.515625l-10.375 0l-2.71875 7.515625l-3.484375 0zm7.15625 -10.1875l8.40625 0l-2.59375 -6.875q-1.171875 -3.125 -1.75 -5.140625q-0.484375 2.390625 -1.34375 4.734375l-2.71875 7.28125zm26.003174 17.078125l0 -24.859375l2.78125 0l0 2.328125q0.984375 -1.359375 2.21875 -2.046875q1.234375 -0.6875 2.984375 -0.6875q2.3125 0 4.0625 1.1875q1.765625 1.171875 2.65625 3.34375q0.90625 2.15625 0.90625 4.71875q0 2.765625 -1.0 4.96875q-0.984375 2.203125 -2.875 3.390625q-1.875 1.171875 -3.96875 1.171875q-1.515625 0 -2.734375 -0.640625q-1.203125 -0.640625 -1.984375 -1.625l0 8.75l-3.046875 0zm2.765625 -15.78125q0 3.46875 1.40625 5.140625q1.40625 1.65625 3.390625 1.65625q2.03125 0 3.46875 -1.71875q1.453125 -1.71875 1.453125 -5.328125q0 -3.4375 -1.40625 -5.140625q-1.40625 -1.703125 -3.375 -1.703125q-1.953125 0 -3.453125 1.8125q-1.484375 1.8125 -1.484375 5.28125zm16.477295 8.890625l0 -17.96875l2.734375 0l0 2.71875q1.0625 -1.90625 1.9375 -2.515625q0.890625 -0.609375 1.96875 -0.609375q1.53125 0 3.125 0.984375l-1.046875 2.828125q-1.125 -0.671875 -2.234375 -0.671875q-1.0 0 -1.796875 0.609375q-0.796875 0.59375 -1.140625 1.65625q-0.5 1.625 -0.5 3.5625l0 9.40625l-3.046875 0zm10.4470215 -8.984375q0 -5.0 2.765625 -7.390625q2.328125 -2.0 5.65625 -2.0q3.703125 0 6.046875 2.4375q2.359375 2.421875 2.359375 6.703125q0 3.46875 -1.046875 5.453125q-1.03125 1.984375 -3.015625 3.09375q-1.984375 1.09375 -4.34375 1.09375q-3.78125 0 -6.109375 -2.421875q-2.3125 -2.421875 -2.3125 -6.96875zm3.125 0q0 3.453125 1.5 5.171875q1.515625 1.71875 3.796875 1.71875q2.265625 0 3.765625 -1.71875q1.515625 -1.734375 1.515625 -5.28125q0 -3.328125 -1.515625 -5.046875q-1.515625 -1.71875 -3.765625 -1.71875q-2.28125 0 -3.796875 1.71875q-1.5 1.703125 -1.5 5.15625zm18.008545 8.984375l0 -15.609375l-2.6875 0l0 -2.359375l2.6875 0l0 -1.921875q0 -1.796875 0.3125 -2.6875q0.453125 -1.1875 1.546875 -1.921875q1.109375 -0.734375 3.109375 -0.734375q1.28125 0 2.84375 0.3125l-0.453125 2.65625q-0.953125 -0.171875 -1.796875 -0.171875q-1.390625 0 -1.96875 0.59375q-0.5625 0.59375 -0.5625 2.21875l0 1.65625l3.5 0l0 2.359375l-3.5 0l0 15.609375l-3.03125 0zm8.909851 -21.3125l0 -3.5l3.046875 0l0 3.5l-3.046875 0zm0 21.3125l0 -17.96875l3.046875 0l0 17.96875l-3.046875 0zm14.340149 -2.71875l0.4375 2.6875q-1.28125 0.265625 -2.296875 0.265625q-1.65625 0 -2.578125 -0.515625q-0.90625 -0.53125 -1.28125 -1.375q-0.375 -0.859375 -0.375 -3.609375l0 -10.34375l-2.234375 0l0 -2.359375l2.234375 0l0 -4.453125l3.03125 -1.828125l0 6.28125l3.0625 0l0 2.359375l-3.0625 0l0 10.515625q0 1.296875 0.15625 1.671875q0.15625 0.375 0.515625 0.59375q0.375 0.21875 1.046875 0.21875q0.515625 0 1.34375 -0.109375zm14.706726 0.5q-1.703125 1.4375 -3.265625 2.03125q-1.5625 0.59375 -3.359375 0.59375q-2.953125 0 -4.546875 -1.4375q-1.59375 -1.453125 -1.59375 -3.703125q0 -1.328125 0.59375 -2.40625q0.609375 -1.09375 1.578125 -1.75q0.984375 -0.671875 2.203125 -1.015625q0.890625 -0.234375 2.703125 -0.453125q3.6875 -0.4375 5.421875 -1.046875q0.03125 -0.625 0.03125 -0.796875q0 -1.859375 -0.875 -2.625q-1.15625 -1.03125 -3.46875 -1.03125q-2.140625 0 -3.171875 0.765625q-1.015625 0.75 -1.515625 2.65625l-2.96875 -0.40625q0.40625 -1.90625 1.328125 -3.078125q0.9375 -1.1875 2.6875 -1.8125q1.765625 -0.640625 4.078125 -0.640625q2.3125 0 3.75 0.546875q1.4375 0.53125 2.109375 1.359375q0.6875 0.8125 0.953125 2.0625q0.15625 0.78125 0.15625 2.8125l0 4.0625q0 4.25 0.1875 5.375q0.203125 1.125 0.765625 2.15625l-3.171875 0q-0.484375 -0.953125 -0.609375 -2.21875zm-0.265625 -6.796875q-1.65625 0.671875 -4.96875 1.140625q-1.875 0.28125 -2.65625 0.625q-0.78125 0.328125 -1.203125 0.984375q-0.421875 0.640625 -0.421875 1.4375q0 1.21875 0.921875 2.03125q0.921875 0.8125 2.703125 0.8125q1.75 0 3.125 -0.765625q1.375 -0.765625 2.015625 -2.109375q0.484375 -1.03125 0.484375 -3.046875l0 -1.109375zm10.61792 9.015625l-2.828125 0l0 -24.8125l3.046875 0l0 8.859375q1.9375 -2.421875 4.921875 -2.421875q1.65625 0 3.140625 0.671875q1.484375 0.65625 2.4375 1.875q0.953125 1.203125 1.5 2.921875q0.546875 1.703125 0.546875 3.65625q0 4.609375 -2.296875 7.140625q-2.28125 2.515625 -5.484375 2.515625q-3.171875 0 -4.984375 -2.65625l0 2.25zm-0.03125 -9.125q0 3.234375 0.875 4.671875q1.4375 2.359375 3.890625 2.359375q2.0 0 3.453125 -1.734375q1.453125 -1.734375 1.453125 -5.171875q0 -3.515625 -1.390625 -5.1875q-1.390625 -1.6875 -3.375 -1.6875q-2.0 0 -3.453125 1.734375q-1.453125 1.734375 -1.453125 5.015625zm16.43042 9.125l0 -24.8125l3.046875 0l0 24.8125l-3.046875 0zm20.074493 -5.78125l3.140625 0.390625q-0.75 2.75 -2.765625 4.28125q-2.0 1.515625 -5.140625 1.515625q-3.9375 0 -6.25 -2.421875q-2.3125 -2.4375 -2.3125 -6.8125q0 -4.546875 2.328125 -7.046875q2.34375 -2.5 6.0625 -2.5q3.609375 0 5.890625 2.453125q2.28125 2.453125 2.28125 6.90625q0 0.265625 -0.015625 0.8125l-13.390625 0q0.15625 2.953125 1.65625 4.53125q1.515625 1.578125 3.765625 1.578125q1.6875 0 2.859375 -0.875q1.1875 -0.890625 1.890625 -2.8125zm-10.015625 -4.9375l10.046875 0q-0.203125 -2.265625 -1.15625 -3.390625q-1.453125 -1.765625 -3.765625 -1.765625q-2.109375 0 -3.546875 1.40625q-1.421875 1.40625 -1.578125 3.75zm26.605896 10.71875l0 -17.96875l2.734375 0l0 2.515625q0.84375 -1.3125 2.25 -2.109375q1.40625 -0.8125 3.1875 -0.8125q2.0 0 3.28125 0.828125q1.28125 0.828125 1.796875 2.3125q2.140625 -3.140625 5.546875 -3.140625q2.6875 0 4.125 1.484375q1.4375 1.46875 1.4375 4.546875l0 12.34375l-3.03125 0l0 -11.328125q0 -1.8125 -0.296875 -2.609375q-0.296875 -0.8125 -1.078125 -1.296875q-0.78125 -0.5 -1.828125 -0.5q-1.890625 0 -3.140625 1.265625q-1.25 1.25 -1.25 4.03125l0 10.4375l-3.046875 0l0 -11.671875q0 -2.03125 -0.75 -3.046875q-0.75 -1.015625 -2.4375 -1.015625q-1.28125 0 -2.375 0.671875q-1.09375 0.671875 -1.59375 1.984375q-0.484375 1.296875 -0.484375 3.75l0 9.328125l-3.046875 0zm27.743958 -8.984375q0 -5.0 2.765625 -7.390625q2.328125 -2.0 5.65625 -2.0q3.703125 0 6.046875 2.4375q2.359375 2.421875 2.359375 6.703125q0 3.46875 -1.046875 5.453125q-1.03125 1.984375 -3.015625 3.09375q-1.984375 1.09375 -4.34375 1.09375q-3.78125 0 -6.109375 -2.421875q-2.3125 -2.421875 -2.3125 -6.96875zm3.125 0q0 3.453125 1.5 5.171875q1.515625 1.71875 3.796875 1.71875q2.265625 0 3.765625 -1.71875q1.515625 -1.734375 1.515625 -5.28125q0 -3.328125 -1.515625 -5.046875q-1.515625 -1.71875 -3.765625 -1.71875q-2.28125 0 -3.796875 1.71875q-1.5 1.703125 -1.5 5.15625zm17.27417 8.984375l0 -17.96875l2.75 0l0 2.546875q1.96875 -2.953125 5.71875 -2.953125q1.625 0 2.984375 0.59375q1.359375 0.578125 2.03125 1.53125q0.6875 0.9375 0.953125 2.234375q0.171875 0.84375 0.171875 2.96875l0 11.046875l-3.046875 0l0 -10.9375q0 -1.859375 -0.359375 -2.78125q-0.359375 -0.921875 -1.265625 -1.46875q-0.890625 -0.546875 -2.109375 -0.546875q-1.953125 0 -3.375 1.234375q-1.40625 1.234375 -1.40625 4.6875l0 9.8125l-3.046875 0zm25.930359 -2.71875l0.4375 2.6875q-1.28125 0.265625 -2.296875 0.265625q-1.65625 0 -2.578125 -0.515625q-0.90625 -0.53125 -1.28125 -1.375q-0.375 -0.859375 -0.375 -3.609375l0 -10.34375l-2.234375 0l0 -2.359375l2.234375 0l0 -4.453125l3.03125 -1.828125l0 6.28125l3.0625 0l0 2.359375l-3.0625 0l0 10.515625q0 1.296875 0.15625 1.671875q0.15625 0.375 0.515625 0.59375q0.375 0.21875 1.046875 0.21875q0.515625 0 1.34375 -0.109375zm2.972412 2.71875l0 -24.8125l3.046875 0l0 8.90625q2.140625 -2.46875 5.390625 -2.46875q1.984375 0 3.453125 0.796875q1.484375 0.78125 2.109375 2.171875q0.640625 1.375 0.640625 4.015625l0 11.390625l-3.046875 0l0 -11.390625q0 -2.28125 -1.0 -3.3125q-0.984375 -1.046875 -2.796875 -1.046875q-1.34375 0 -2.546875 0.703125q-1.1875 0.703125 -1.703125 1.90625q-0.5 1.1875 -0.5 3.3125l0 9.828125l-3.046875 0zm20.133545 0l0 -3.46875l3.46875 0l0 3.46875l-3.46875 0z" fill-rule="nonzero"/></g></g></svg>