<svg version="1.1" viewBox="0.0 0.0 960.0 540.0" fill="none" stroke="none" stroke-linecap="square" stroke-miterlimit="10" xmlns:xlink="http://www.w3.org/1999/xlink" xmlns="http://www.w3.org/2000/svg"><clipPath id="slide_20.0"><path d="m0 0l960.0 0l0 540.0l-960.0 0l0 -540.0z" clip-rule="nonzero"/></clipPath><g clip-path="url(#slide_20.0)"><g id="slide_20"><path fill="#ffffff" d="m0 0l960.0 0l0 540.0l-960.0 0l0 -540.0z" fill-rule="nonzero"/><path fill="#ffffff" d="m0 0l960.0 0l0 540.0l-960.0 0z" fill-rule="evenodd"/><g id="a11y-dsl_t20" role="img" aria-label="Sounds too good to be true?&#xa;" tabindex="0"><path fill="#000000" fill-opacity="0.0" d="m80.0 122.666664l0 153.32285l800.0 0l0 -153.32285z" fill-rule="nonzero"/></g><path fill="#000000" fill-opacity="0.0" d="m80.0 122.666664l800.0 0l0 153.32285l-800.0 0z" fill-rule="evenodd"/><path fill="#000000" d="m145.86087 170.60104l4.765625 -0.421875q0.34375 2.875 1.578125 4.71875q1.234375 1.828125 3.84375 2.96875q2.609375 1.125 5.859375 1.125q2.890625 0 5.09375 -0.859375q2.21875 -0.859375 3.296875 -2.359375q1.078125 -1.5 1.078125 -3.265625q0 -1.796875 -1.046875 -3.140625q-1.03125 -1.34375 -3.421875 -2.25q-1.53125 -0.609375 -6.796875 -1.859375q-5.265625 -1.265625 -7.375 -2.390625q-2.734375 -1.4375 -4.078125 -3.546875q-1.328125 -2.125 -1.328125 -4.75q0 -2.890625 1.640625 -5.40625q1.640625 -2.515625 4.78125 -3.8125q3.15625 -1.3125 7.015625 -1.3125q4.234375 0 7.46875 1.375q3.25 1.359375 4.984375 4.015625q1.75 2.65625 1.890625 6.015625l-4.84375 0.375q-0.390625 -3.625 -2.640625 -5.46875q-2.25 -1.859375 -6.65625 -1.859375q-4.578125 0 -6.6875 1.6875q-2.09375 1.671875 -2.09375 4.046875q0 2.046875 1.484375 3.375q1.46875 1.328125 7.625 2.734375q6.15625 1.390625 8.453125 2.421875q3.328125 1.546875 4.90625 3.90625q1.59375 2.34375 1.59375 5.421875q0 3.046875 -1.75 5.75q-1.734375 2.6875 -5.0 4.1875q-3.265625 1.5 -7.359375 1.5q-5.1875 0 -8.6875 -1.515625q-3.5 -1.515625 -5.5 -4.546875q-1.984375 -3.03125 -2.09375 -6.859375zm34.944443 -1.5625q0 -7.6875 4.28125 -11.375q3.5625 -3.078125 8.6875 -3.078125q5.703125 0 9.3125 3.734375q3.625 3.734375 3.625 10.328125q0 5.34375 -1.59375 8.40625q-1.59375 3.046875 -4.65625 4.75q-3.0625 1.6875 -6.6875 1.6875q-5.796875 0 -9.390625 -3.71875q-3.578125 -3.734375 -3.578125 -10.734375zm4.828125 0q0 5.3125 2.3125 7.953125q2.3125 2.640625 5.828125 2.640625q3.5 0 5.8125 -2.65625q2.3125 -2.65625 2.3125 -8.09375q0 -5.125 -2.328125 -7.765625q-2.328125 -2.65625 -5.796875 -2.65625q-3.515625 0 -5.828125 2.640625q-2.3125 2.625 -2.3125 7.9375zm44.705444 13.828125l0 -4.0625q-3.234375 4.6875 -8.78125 4.6875q-2.4375 0 -4.5625 -0.9375q-2.125 -0.9375 -3.15625 -2.359375q-1.03125 -1.421875 -1.4375 -3.46875q-0.296875 -1.390625 -0.296875 -4.375l0 -17.140625l4.6875 0l0 15.34375q0 3.671875 0.296875 4.9375q0.4375 1.859375 1.859375 2.921875q1.4375 1.046875 3.546875 1.046875q2.109375 0 3.953125 -1.078125q1.859375 -1.09375 2.625 -2.953125q0.765625 -1.859375 0.765625 -5.40625l0 -14.8125l4.6875 0l0 27.65625l-4.1875 0zm11.533569 0l0 -27.65625l4.21875 0l0 3.9375q3.046875 -4.5625 8.796875 -4.5625q2.4999847 0 4.5937347 0.90625q2.109375 0.890625 3.140625 2.359375q1.046875 1.453125 1.46875 3.453125q0.25 1.296875 0.25 4.5625l0 17.0l-4.6875 0l0 -16.828125q0 -2.859375 -0.546875 -4.28125q-0.546875 -1.421875 -1.9375 -2.265625q-1.3906097 -0.84375 -3.2656097 -0.84375q-3.0 0 -5.171875 1.90625q-2.171875 1.890625 -2.171875 7.203125l0 15.109375l-4.6875 0zm47.596054 0l0 -3.484375q-2.625 4.109375 -7.734375 4.109375q-3.296875 0 -6.078125 -1.8125q-2.765625 -1.828125 -4.296875 -5.09375q-1.515625 -3.28125 -1.515625 -7.515625q0 -4.140625 1.375 -7.515625q1.375 -3.375 4.140625 -5.171875q2.765625 -1.796875 6.171875 -1.796875q2.5 0 4.453125 1.0625q1.953125 1.046875 3.171875 2.734375l0 -13.6875l4.671875 0l0 38.171875l-4.359375 0zm-14.8125 -13.796875q0 5.3125 2.234375 7.9375q2.25 2.625 5.296875 2.625q3.0625 0 5.203125 -2.5q2.15625 -2.515625 2.15625 -7.671875q0 -5.6875 -2.1875 -8.34375q-2.1875 -2.65625 -5.390625 -2.65625q-3.125 0 -5.21875 2.5625q-2.09375 2.546875 -2.09375 8.046875zm24.65857 5.546875l4.640625 -0.734375q0.390625 2.78125 2.171875 4.265625q1.78125 1.484375 4.984375 1.484375q3.234375 0 4.796875 -1.3125q1.5625 -1.3125 1.5625 -3.078125q0 -1.59375 -1.390625 -2.5q-0.953125 -0.625 -4.78125 -1.59375q-5.15625 -1.296875 -7.15625 -2.25q-1.984375 -0.953125 -3.015625 -2.625q-1.03125 -1.6875 -1.03125 -3.71875q0 -1.84375 0.84375 -3.421875q0.84375 -1.578125 2.3125 -2.625q1.09375 -0.796875 2.96875 -1.359375q1.890625 -0.5625 4.0625 -0.5625q3.25 0 5.703125 0.9375q2.46875 0.9375 3.640625 2.546875q1.171875 1.59375 1.609375 4.28125l-4.578125 0.625q-0.3125 -2.140625 -1.8125 -3.328125q-1.5 -1.203125 -4.234375 -1.203125q-3.21875 0 -4.609375 1.0625q-1.375 1.0625 -1.375 2.5q0 0.90625 0.578125 1.640625q0.5625 0.75 1.796875 1.25q0.703125 0.265625 4.140625 1.203125q4.96875 1.328125 6.9375 2.171875q1.96875 0.84375 3.078125 2.46875q1.125 1.609375 1.125 4.0q0 2.34375 -1.375 4.421875q-1.359375 2.0625 -3.9375 3.203125q-2.578125 1.125 -5.828125 1.125q-5.390625 0 -8.21875 -2.234375q-2.828125 -2.25 -3.609375 -6.640625zm53.58972 4.0625l0.671875 4.140625q-1.96875 0.40625 -3.53125 0.40625q-2.5625 0 -3.96875 -0.796875q-1.40625 -0.8125 -1.984375 -2.125q-0.5625 -1.3125 -0.5625 -5.53125l0 -15.921875l-3.4375 0l0 -3.640625l3.4375 0l0 -6.84375l4.65625 -2.8125l0 9.65625l4.71875 0l0 3.640625l-4.71875 0l0 16.171875q0 2.015625 0.25 2.59375q0.25 0.5625 0.8125 0.90625q0.5625 0.328125 1.59375 0.328125q0.78125 0 2.0625 -0.171875zm2.8319092 -9.640625q0 -7.6875 4.28125 -11.375q3.5625 -3.078125 8.6875 -3.078125q5.703125 0 9.3125 3.734375q3.625 3.734375 3.625 10.328125q0 5.34375 -1.59375 8.40625q-1.59375 3.046875 -4.65625 4.75q-3.0625 1.6875 -6.6875 1.6875q-5.796875 0 -9.390625 -3.71875q-3.578125 -3.734375 -3.578125 -10.734375zm4.828125 0q0 5.3125 2.3125 7.953125q2.3125 2.640625 5.828125 2.640625q3.5 0 5.8125 -2.65625q2.3125 -2.65625 2.3125 -8.09375q0 -5.125 -2.328125 -7.765625q-2.328125 -2.65625 -5.796875 -2.65625q-3.515625 0 -5.828125 2.640625q-2.3125 2.625 -2.3125 7.9375zm24.830444 0q0 -7.6875 4.28125 -11.375q3.5625 -3.078125 8.6875 -3.078125q5.703125 0 9.3125 3.734375q3.625 3.734375 3.625 10.328125q0 5.34375 -1.59375 8.40625q-1.59375 3.046875 -4.65625 4.75q-3.0625 1.6875 -6.6875 1.6875q-5.796875 0 -9.390625 -3.71875q-3.578125 -3.734375 -3.578125 -10.734375zm4.828125 0q0 5.3125 2.3125 7.953125q2.3125 2.640625 5.828125 2.640625q3.5 0 5.8125 -2.65625q2.3125 -2.65625 2.3125 -8.09375q0 -5.125 -2.328125 -7.765625q-2.328125 -2.65625 -5.796875 -2.65625q-3.515625 0 -5.828125 2.640625q-2.3125 2.625 -2.3125 7.9375zm40.537323 16.125l4.5625 0.671875q0.28125 2.109375 1.578125 3.078125q1.75 1.296875 4.765625 1.296875q3.265625 0 5.03125 -1.3125q1.765625 -1.296875 2.390625 -3.640625q0.375 -1.421875 0.34375 -6.015625q-3.078125 3.625 -7.65625 3.625q-5.703125 0 -8.828125 -4.109375q-3.125 -4.125 -3.125 -9.875q0 -3.953125 1.421875 -7.296875q1.4375 -3.359375 4.15625 -5.171875q2.734375 -1.828125 6.40625 -1.828125q4.890625 0 8.0625 3.953125l0 -3.328125l4.328125 0l0 23.90625q0 6.453125 -1.3125 9.140625q-1.3125 2.703125 -4.171875 4.265625q-2.84375 1.5625 -7.015625 1.5625q-4.953125 0 -8.0 -2.234375q-3.046875 -2.21875 -2.9375 -6.6875zm3.875 -16.625q0 5.453125 2.15625 7.953125q2.171875 2.5 5.421875 2.5q3.234375 0 5.421875 -2.484375q2.1875 -2.5 2.1875 -7.8125q0 -5.078125 -2.25 -7.65625q-2.25 -2.578125 -5.4375 -2.578125q-3.125 0 -5.3125 2.546875q-2.1875 2.53125 -2.1875 7.53125zm24.892944 0.5q0 -7.6875 4.28125 -11.375q3.5625 -3.078125 8.6875 -3.078125q5.703125 0 9.3125 3.734375q3.625 3.734375 3.625 10.328125q0 5.34375 -1.59375 8.40625q-1.59375 3.046875 -4.65625 4.75q-3.0625 1.6875 -6.6875 1.6875q-5.796875 0 -9.390625 -3.71875q-3.578125 -3.734375 -3.578125 -10.734375zm4.828125 0q0 5.3125 2.3125 7.953125q2.3125 2.640625 5.828125 2.640625q3.5 0 5.8125 -2.65625q2.3125 -2.65625 2.3125 -8.09375q0 -5.125 -2.328125 -7.765625q-2.328125 -2.65625 -5.796875 -2.65625q-3.515625 0 -5.828125 2.640625q-2.3125 2.625 -2.3125 7.9375zm24.830444 0q0 -7.6875 4.28125 -11.375q3.5625 -3.078125 8.6875 -3.078125q5.703125 0 9.3125 3.734375q3.6250305 3.734375 3.6250305 10.328125q0 5.34375 -1.59375 8.40625q-1.5937805 3.046875 -4.6562805 4.75q-3.0625 1.6875 -6.6875 1.6875q-5.796875 0 -9.390625 -3.71875q-3.578125 -3.734375 -3.578125 -10.734375zm4.828125 0q0 5.3125 2.3125 7.953125q2.3125 2.640625 5.828125 2.640625q3.5 0 5.8125 -2.65625q2.3125 -2.65625 2.3125 -8.09375q0 -5.125 -2.328125 -7.765625q-2.328125 -2.65625 -5.796875 -2.65625q-3.515625 0 -5.828125 2.640625q-2.3125 2.625 -2.3125 7.9375zm44.517975 13.828125l0 -3.484375q-2.625 4.109375 -7.734375 4.109375q-3.296875 0 -6.078125 -1.8125q-2.765625 -1.828125 -4.296875 -5.09375q-1.515625 -3.28125 -1.515625 -7.515625q0 -4.140625 1.375 -7.515625q1.375 -3.375 4.140625 -5.171875q2.765625 -1.796875 6.171875 -1.796875q2.5 0 4.453125 1.0625q1.953125 1.046875 3.171875 2.734375l0 -13.6875l4.671875 0l0 38.171875l-4.359375 0zm-14.8125 -13.796875q0 5.3125 2.234375 7.9375q2.25 2.625 5.296875 2.625q3.0625 0 5.203125 -2.5q2.15625 -2.515625 2.15625 -7.671875q0 -5.6875 -2.1875 -8.34375q-2.1875 -2.65625 -5.390625 -2.65625q-3.125 0 -5.21875 2.5625q-2.09375 2.546875 -2.09375 8.046875zm51.58423 9.609375l0.671875 4.140625q-1.96875 0.40625 -3.53125 0.40625q-2.5625 0 -3.96875 -0.796875q-1.40625 -0.8125 -1.984375 -2.125q-0.5625 -1.3125 -0.5625 -5.53125l0 -15.921875l-3.4375 0l0 -3.640625l3.4375 0l0 -6.84375l4.65625 -2.8125l0 9.65625l4.71875 0l0 3.640625l-4.71875 0l0 16.171875q0 2.015625 0.25 2.59375q0.25 0.5625 0.8125 0.90625q0.5625 0.328125 1.59375 0.328125q0.78125 0 2.0625 -0.171875zm2.8319092 -9.640625q0 -7.6875 4.28125 -11.375q3.5625 -3.078125 8.6875 -3.078125q5.703125 0 9.3125 3.734375q3.625 3.734375 3.625 10.328125q0 5.34375 -1.59375 8.40625q-1.59375 3.046875 -4.65625 4.75q-3.0625 1.6875 -6.6875 1.6875q-5.796875 0 -9.390625 -3.71875q-3.578125 -3.734375 -3.578125 -10.734375zm4.828125 0q0 5.3125 2.3125 7.953125q2.3125 2.640625 5.828125 2.640625q3.5 0 5.8125 -2.65625q2.3125 -2.65625 2.3125 -8.09375q0 -5.125 -2.328125 -7.765625q-2.328125 -2.65625 -5.796875 -2.65625q-3.515625 0 -5.828125 2.640625q-2.3125 2.625 -2.3125 7.9375zm45.724854 13.828125l-4.359375 0l0 -38.171875l4.6875 0l0 13.609375q2.96875 -3.71875 7.578125 -3.71875q2.5625 0 4.828125 1.03125q2.28125 1.03125 3.75 2.890625q1.484375 1.859375 2.3125 4.5q0.828125 2.625 0.828125 5.609375q0 7.109375 -3.515625 11.0q-3.515625 3.875 -8.4375 3.875q-4.890625 0 -7.671875 -4.09375l0 3.46875zm-0.0625 -14.03125q0 4.96875 1.359375 7.1875q2.21875 3.609375 5.984375 3.609375q3.078125 0 5.3125 -2.65625q2.25 -2.671875 2.25 -7.96875q0 -5.40625 -2.15625 -7.984375q-2.140625 -2.578125 -5.1875 -2.578125q-3.078125 0 -5.328125 2.671875q-2.234375 2.65625 -2.234375 7.71875zm44.330444 5.125l4.828125 0.59375q-1.140625 4.25 -4.234375 6.59375q-3.09375 2.34375 -7.921875 2.34375q-6.0625 0 -9.625 -3.734375q-3.546875 -3.734375 -3.546875 -10.484375q0 -6.984375 3.59375 -10.828125q3.59375 -3.859375 9.328125 -3.859375q5.546875 0 9.046875 3.78125q3.515625 3.765625 3.515625 10.625q0 0.40625 -0.015625 1.25l-20.625 0q0.265625 4.546875 2.578125 6.96875q2.3125 2.421875 5.78125 2.421875q2.578125 0 4.390625 -1.34375q1.828125 -1.359375 2.90625 -4.328125zm-15.390625 -7.578125l15.4375 0q-0.3125 -3.484375 -1.765625 -5.234375q-2.25 -2.703125 -5.8125 -2.703125q-3.234375 0 -5.4375 2.15625q-2.1875 2.15625 -2.421875 5.78125zm51.162354 12.296875l0.671875 4.140625q-1.96875 0.40625 -3.53125 0.40625q-2.5625 0 -3.96875 -0.796875q-1.40625 -0.8125 -1.984375 -2.125q-0.5625 -1.3125 -0.5625 -5.53125l0 -15.921875l-3.4375 0l0 -3.640625l3.4375 0l0 -6.84375l4.65625 -2.8125l0 9.65625l4.71875 0l0 3.640625l-4.71875 0l0 16.171875q0 2.015625 0.25 2.59375q0.25 0.5625 0.8125 0.90625q0.5625 0.328125 1.59375 0.328125q0.78125 0 2.0625 -0.171875zm4.535034 4.1875l0 -27.65625l4.21875 0l0 4.1875q1.609375 -2.9375 2.96875 -3.875q1.375 -0.9375 3.015625 -0.9375q2.375 0 4.8125 1.515625l-1.609375 4.34375q-1.71875 -1.015625 -3.4375 -1.015625q-1.53125 0 -2.765625 0.921875q-1.21875 0.921875 -1.734375 2.5625q-0.78125 2.5 -0.78125 5.46875l0 14.484375l-4.6875 0zm35.930542 0l0 -4.0625q-3.234375 4.6875 -8.78125 4.6875q-2.4375 0 -4.5625 -0.9375q-2.125 -0.9375 -3.15625 -2.359375q-1.03125 -1.421875 -1.4375 -3.46875q-0.296875 -1.390625 -0.296875 -4.375l0 -17.140625l4.6875 0l0 15.34375q0 3.671875 0.296875 4.9375q0.4375 1.859375 1.859375 2.921875q1.4375 1.046875 3.546875 1.046875q2.109375 0 3.953125 -1.078125q1.859375 -1.09375 2.625 -2.953125q0.765625 -1.859375 0.765625 -5.40625l0 -14.8125l4.6875 0l0 27.65625l-4.1875 0zm30.47107 -8.90625l4.828125 0.59375q-1.140625 4.25 -4.234375 6.59375q-3.09375 2.34375 -7.921875 2.34375q-6.0625 0 -9.625 -3.734375q-3.546875 -3.734375 -3.546875 -10.484375q0 -6.984375 3.59375 -10.828125q3.59375 -3.859375 9.328125 -3.859375q5.546875 0 9.046875 3.78125q3.515625 3.765625 3.515625 10.625q0 0.40625 -0.015625 1.25l-20.625 0q0.265625 4.546875 2.578125 6.96875q2.3125 2.421875 5.78125 2.421875q2.578125 0 4.390625 -1.34375q1.828125 -1.359375 2.90625 -4.328125zm-15.390625 -7.578125l15.4375 0q-0.3125 -3.484375 -1.765625 -5.234375q-2.25 -2.703125 -5.8125 -2.703125q-3.234375 0 -5.4375 2.15625q-2.1875 2.15625 -2.421875 5.78125zm34.892944 7.078125q-0.03125 -0.9375 -0.03125 -1.40625q0 -2.75 0.78125 -4.765625q0.578125 -1.5 1.84375 -3.046875q0.9375 -1.109375 3.375 -3.25q2.4375 -2.15625 3.15625 -3.4375q0.734375 -1.28125 0.734375 -2.78125q0 -2.734375 -2.140625 -4.796875q-2.125 -2.078125 -5.21875 -2.078125q-3.0 0 -5.015625 1.875q-2.0 1.875 -2.625 5.859375l-4.8125 -0.578125q0.65625 -5.328125 3.859375 -8.171875q3.21875 -2.84375 8.515625 -2.84375q5.59375 0 8.921875 3.046875q3.328125 3.046875 3.328125 7.375q0 2.5 -1.171875 4.609375q-1.15625 2.109375 -4.578125 5.125q-2.28125 2.03125 -2.984375 3.0q-0.703125 0.953125 -1.046875 2.203125q-0.34375 1.25 -0.390625 4.0625l-4.5 0zm-0.296875 9.40625l0 -5.34375l5.34375 0l0 5.34375l-5.34375 0z" fill-rule="nonzero"/><g id="a11y-dsl_b20" role="img" aria-label="The scope is narrow.&#xa;The price is low.&#xa;The measurement is clear.&#xa;" tabindex="0"><path fill="#000000" fill-opacity="0.0" d="m106.666664 313.33334l0 193.32281l746.6771 0l0 -193.32281z" fill-rule="nonzero"/></g><path fill="#000000" fill-opacity="0.0" d="m106.666664 313.33334l746.6771 0l0 193.32281l-746.6771 0z" fill-rule="evenodd"/><path fill="#000000" d="m334.89395 354.33334l0 -21.046875l-7.859375 0l0 -2.8125l18.90625 0l0 2.8125l-7.890625 0l0 21.046875l-3.15625 0zm13.920654 0l0 -23.859375l2.921875 0l0 8.5625q2.046875 -2.375 5.171875 -2.375q1.921875 0 3.328125 0.765625q1.421875 0.75 2.03125 2.09375q0.625 1.328125 0.625 3.859375l0 10.953125l-2.9375 0l0 -10.953125q0 -2.203125 -0.953125 -3.203125q-0.953125 -1.0 -2.6875 -1.0q-1.3125 0 -2.453125 0.6875q-1.140625 0.671875 -1.640625 1.828125q-0.484375 1.15625 -0.484375 3.1875l0 9.453125l-2.921875 0zm30.363647 -5.5625l3.015625 0.375q-0.703125 2.65625 -2.640625 4.125q-1.9375 1.453125 -4.953125 1.453125q-3.796875 0 -6.015625 -2.328125q-2.21875 -2.34375 -2.21875 -6.5625q0 -4.359375 2.25 -6.765625q2.25 -2.40625 5.828125 -2.40625q3.46875 0 5.65625 2.359375q2.203125 2.359375 2.203125 6.640625q0 0.265625 -0.015625 0.78125l-12.890625 0q0.15625 2.84375 1.609375 4.359375q1.453125 1.515625 3.609375 1.515625q1.609375 0 2.75 -0.84375q1.140625 -0.84375 1.8125 -2.703125zm-9.625 -4.734375l9.65625 0q-0.203125 -2.1875 -1.109375 -3.28125q-1.40625 -1.6875 -3.625 -1.6875q-2.015625 0 -3.390625 1.359375q-1.375 1.34375 -1.53125 3.609375zm24.420166 5.140625l2.890625 -0.453125q0.25 1.734375 1.359375 2.671875q1.109375 0.921875 3.109375 0.921875q2.03125 0 3.0 -0.8125q0.984375 -0.828125 0.984375 -1.9375q0 -1.0 -0.875 -1.5625q-0.59375 -0.390625 -2.984375 -1.0q-3.234375 -0.8125 -4.484375 -1.40625q-1.234375 -0.59375 -1.875 -1.640625q-0.640625 -1.046875 -0.640625 -2.3125q0 -1.15625 0.53125 -2.140625q0.53125 -0.984375 1.4375 -1.640625q0.6875 -0.5 1.859375 -0.84375q1.1875 -0.359375 2.53125 -0.359375q2.03125 0 3.5625 0.59375q1.546875 0.578125 2.28125 1.578125q0.734375 1.0 1.015625 2.671875l-2.875 0.390625q-0.1875 -1.328125 -1.125 -2.078125q-0.9375 -0.75 -2.640625 -0.75q-2.03125 0 -2.890625 0.671875q-0.859375 0.65625 -0.859375 1.5625q0 0.5625 0.359375 1.015625q0.359375 0.484375 1.125 0.78125q0.4375 0.171875 2.578125 0.75q3.109375 0.828125 4.34375 1.359375q1.234375 0.53125 1.921875 1.546875q0.703125 1.0 0.703125 2.5q0 1.46875 -0.859375 2.765625q-0.84375 1.28125 -2.453125 2.0q-1.609375 0.703125 -3.65625 0.703125q-3.359375 0 -5.125 -1.390625q-1.765625 -1.40625 -2.25 -4.15625zm29.101562 -1.171875l2.890625 0.375q-0.46875 2.96875 -2.421875 4.65625q-1.9375 1.6875 -4.78125 1.6875q-3.546875 0 -5.703125 -2.3125q-2.15625 -2.328125 -2.15625 -6.65625q0 -2.796875 0.921875 -4.890625q0.9375 -2.109375 2.828125 -3.15625q1.90625 -1.046875 4.125 -1.046875q2.828125 0 4.609375 1.421875q1.796875 1.421875 2.296875 4.046875l-2.84375 0.4375q-0.40625 -1.734375 -1.453125 -2.609375q-1.03125 -0.890625 -2.484375 -0.890625q-2.21875 0 -3.609375 1.59375q-1.375 1.578125 -1.375 5.015625q0 3.484375 1.328125 5.0625q1.34375 1.578125 3.484375 1.578125q1.734375 0 2.890625 -1.0625q1.15625 -1.0625 1.453125 -3.25zm4.3046875 -2.3125q0 -4.796875 2.671875 -7.109375q2.21875 -1.921875 5.421875 -1.921875q3.578125 0 5.828125 2.34375q2.265625 2.328125 2.265625 6.4375q0 3.34375 -1.0 5.265625q-1.0 1.90625 -2.921875 2.96875q-1.90625 1.046875 -4.171875 1.046875q-3.625 0 -5.859375 -2.328125q-2.234375 -2.328125 -2.234375 -6.703125zm3.015625 0q0 3.3125 1.4375 4.96875q1.453125 1.65625 3.640625 1.65625q2.1875 0 3.625 -1.65625q1.453125 -1.671875 1.453125 -5.0625q0 -3.203125 -1.453125 -4.859375q-1.453125 -1.65625 -3.625 -1.65625q-2.1875 0 -3.640625 1.640625q-1.4375 1.640625 -1.4375 4.96875zm16.613647 15.265625l0 -23.90625l2.65625 0l0 2.25q0.953125 -1.328125 2.140625 -1.984375q1.1875 -0.65625 2.875 -0.65625q2.21875 0 3.90625 1.140625q1.6875 1.140625 2.546875 3.21875q0.875 2.0625 0.875 4.546875q0 2.640625 -0.953125 4.765625q-0.953125 2.125 -2.765625 3.265625q-1.8125 1.125 -3.8125 1.125q-1.46875 0 -2.640625 -0.609375q-1.15625 -0.625 -1.90625 -1.578125l0 8.421875l-2.921875 0zm2.640625 -15.171875q0 3.34375 1.34375 4.9375q1.359375 1.59375 3.28125 1.59375q1.953125 0 3.34375 -1.65625q1.390625 -1.65625 1.390625 -5.109375q0 -3.3125 -1.359375 -4.953125q-1.359375 -1.640625 -3.25 -1.640625q-1.859375 0 -3.3125 1.75q-1.4375 1.75 -1.4375 5.078125zm27.723022 2.984375l3.015625 0.375q-0.703125 2.65625 -2.640625 4.125q-1.9375 1.453125 -4.953125 1.453125q-3.796875 0 -6.015625 -2.328125q-2.21875 -2.34375 -2.21875 -6.5625q0 -4.359375 2.25 -6.765625q2.25 -2.40625 5.828125 -2.40625q3.46875 0 5.65625 2.359375q2.203125 2.359375 2.203125 6.640625q0 0.265625 -0.015625 0.78125l-12.890625 0q0.15625 2.84375 1.609375 4.359375q1.453125 1.515625 3.609375 1.515625q1.609375 0 2.75 -0.84375q1.140625 -0.84375 1.8125 -2.703125zm-9.625 -4.734375l9.65625 0q-0.203125 -2.1875 -1.109375 -3.28125q-1.40625 -1.6875 -3.625 -1.6875q-2.015625 0 -3.390625 1.359375q-1.375 1.34375 -1.53125 3.609375zm25.607635 -10.1875l0 -3.375l2.921875 0l0 3.375l-2.921875 0zm0 20.484375l0 -17.28125l2.921875 0l0 17.28125l-2.921875 0zm6.2169495 -5.15625l2.890625 -0.453125q0.25 1.734375 1.359375 2.671875q1.109375 0.921875 3.109375 0.921875q2.03125 0 3.0 -0.8125q0.984375 -0.828125 0.984375 -1.9375q0 -1.0 -0.875 -1.5625q-0.59375 -0.390625 -2.984375 -1.0q-3.234375 -0.8125 -4.484375 -1.40625q-1.234375 -0.59375 -1.875 -1.640625q-0.640625 -1.046875 -0.640625 -2.3125q0 -1.15625 0.53125 -2.140625q0.53125 -0.984375 1.4375 -1.640625q0.6875 -0.5 1.859375 -0.84375q1.1875 -0.359375 2.53125 -0.359375q2.03125 0 3.5625 0.59375q1.546875 0.578125 2.2812805 1.578125q0.734375 1.0 1.015625 2.671875l-2.8750305 0.390625q-0.1875 -1.328125 -1.125 -2.078125q-0.9375 -0.75 -2.640625 -0.75q-2.03125 0 -2.890625 0.671875q-0.859375 0.65625 -0.859375 1.5625q0 0.5625 0.359375 1.015625q0.359375 0.484375 1.125 0.78125q0.4375 0.171875 2.578125 0.75q3.109375 0.828125 4.34375 1.359375q1.2344055 0.53125 1.9219055 1.546875q0.703125 1.0 0.703125 2.5q0 1.46875 -0.859375 2.765625q-0.84375 1.28125 -2.4531555 2.0q-1.609375 0.703125 -3.65625 0.703125q-3.359375 0 -5.125 -1.390625q-1.765625 -1.40625 -2.25 -4.15625zm27.095612 5.15625l0 -17.28125l2.625 0l0 2.453125q1.90625 -2.84375 5.5 -2.84375q1.5625 0 2.875 0.5625q1.3125 0.5625 1.953125 1.46875q0.65625 0.90625 0.921875 2.171875q0.15625 0.8125 0.15625 2.84375l0 10.625l-2.921875 0l0 -10.515625q0 -1.78125 -0.34375 -2.671875q-0.34375 -0.890625 -1.21875 -1.421875q-0.859375 -0.53125 -2.03125 -0.53125q-1.875 0 -3.234375 1.1875q-1.359375 1.1875 -1.359375 4.515625l0 9.4375l-2.921875 0zm29.801147 -2.125q-1.625 1.375 -3.125 1.953125q-1.5 0.5625 -3.234375 0.5625q-2.84375 0 -4.375 -1.390625q-1.53125 -1.390625 -1.53125 -3.5625q0 -1.265625 0.578125 -2.3125q0.578125 -1.046875 1.515625 -1.671875q0.9375 -0.640625 2.109375 -0.96875q0.859375 -0.234375 2.59375 -0.4375q3.546875 -0.421875 5.234375 -1.015625q0.015625 -0.609375 0.015625 -0.765625q0 -1.78125 -0.828125 -2.515625q-1.125 -1.0 -3.34375 -1.0q-2.0625 0 -3.046875 0.734375q-0.984375 0.71875 -1.453125 2.546875l-2.875 -0.390625q0.390625 -1.828125 1.28125 -2.953125q0.90625 -1.140625 2.59375 -1.75q1.703125 -0.609375 3.921875 -0.609375q2.21875 0 3.59375 0.53125q1.390625 0.515625 2.03125 1.3125q0.65625 0.78125 0.921875 1.984375q0.140625 0.75 0.140625 2.703125l0 3.90625q0 4.078125 0.1875 5.15625q0.1875 1.078125 0.75 2.078125l-3.0625 0q-0.453125 -0.90625 -0.59375 -2.125zm-0.234375 -6.546875q-1.59375 0.65625 -4.78125 1.109375q-1.8125 0.25 -2.5625 0.578125q-0.75 0.328125 -1.15625 0.953125q-0.40625 0.625 -0.40625 1.390625q0 1.171875 0.890625 1.953125q0.890625 0.78125 2.59375 0.78125q1.6875 0 3.0 -0.734375q1.328125 -0.75 1.953125 -2.03125q0.46875 -0.984375 0.46875 -2.921875l0 -1.078125zm7.4730225 8.671875l0 -17.28125l2.625 0l0 2.625q1.015625 -1.84375 1.859375 -2.421875q0.859375 -0.59375 1.890625 -0.59375q1.484375 0 3.0 0.9375l-1.0 2.71875q-1.078125 -0.625 -2.15625 -0.625q-0.953125 0 -1.71875 0.578125q-0.765625 0.578125 -1.09375 1.59375q-0.484375 1.5625 -0.484375 3.421875l0 9.046875l-2.921875 0zm11.098511 0l0 -17.28125l2.625 0l0 2.625q1.015625 -1.84375 1.859375 -2.421875q0.859375 -0.59375 1.890625 -0.59375q1.484375 0 3.0 0.9375l-1.0 2.71875q-1.078125 -0.625 -2.15625 -0.625q-0.953125 0 -1.71875 0.578125q-0.765625 0.578125 -1.09375 1.59375q-0.484375 1.5625 -0.484375 3.421875l0 9.046875l-2.921875 0zm10.036011 -8.640625q0 -4.796875 2.671875 -7.109375q2.21875 -1.921875 5.421875 -1.921875q3.578125 0 5.828125 2.34375q2.265625 2.328125 2.265625 6.4375q0 3.34375 -1.0 5.265625q-1.0 1.90625 -2.921875 2.96875q-1.90625 1.046875 -4.171875 1.046875q-3.625 0 -5.859375 -2.328125q-2.234375 -2.328125 -2.234375 -6.703125zm3.015625 0q0 3.3125 1.4375 4.96875q1.453125 1.65625 3.640625 1.65625q2.1875 0 3.625 -1.65625q1.453125 -1.671875 1.453125 -5.0625q0 -3.203125 -1.453125 -4.859375q-1.453125 -1.65625 -3.625 -1.65625q-2.1875 0 -3.640625 1.640625q-1.4375 1.640625 -1.4375 4.96875zm19.801147 8.640625l-5.296875 -17.28125l3.03125 0l2.75 9.96875l1.03125 3.71875q0.0625 -0.28125 0.890625 -3.5625l2.75 -10.125l3.015625 0l2.578125 10.015625l0.859375 3.3125l1.0 -3.34375l2.953125 -9.984375l2.859375 0l-5.40625 17.28125l-3.046875 0l-2.75 -10.34375l-0.671875 -2.953125l-3.484375 13.296875l-3.0625 0zm19.869934 0l0 -3.34375l3.328125 0l0 3.34375l-3.328125 0z" fill-rule="nonzero"/><path fill="#000000" d="m369.17407 394.33334l0 -21.046875l-7.859375 0l0 -2.8125l18.90625 0l0 2.8125l-7.890625 0l0 21.046875l-3.15625 0zm13.920654 0l0 -23.859375l2.921875 0l0 8.5625q2.046875 -2.375 5.171875 -2.375q1.921875 0 3.328125 0.765625q1.421875 0.75 2.03125 2.09375q0.625 1.328125 0.625 3.859375l0 10.953125l-2.9375 0l0 -10.953125q0 -2.203125 -0.953125 -3.203125q-0.953125 -1.0 -2.6875 -1.0q-1.3125 0 -2.453125 0.6875q-1.140625 0.671875 -1.640625 1.828125q-0.484375 1.15625 -0.484375 3.1875l0 9.453125l-2.921875 0zm30.363647 -5.5625l3.015625 0.375q-0.703125 2.65625 -2.640625 4.125q-1.9375 1.453125 -4.953125 1.453125q-3.796875 0 -6.015625 -2.328125q-2.21875 -2.34375 -2.21875 -6.5625q0 -4.359375 2.25 -6.765625q2.25 -2.40625 5.828125 -2.40625q3.46875 0 5.65625 2.359375q2.203125 2.359375 2.203125 6.640625q0 0.265625 -0.015625 0.78125l-12.890625 0q0.15625 2.84375 1.609375 4.359375q1.453125 1.515625 3.609375 1.515625q1.609375 0 2.75 -0.84375q1.140625 -0.84375 1.8125 -2.703125zm-9.625 -4.734375l9.65625 0q-0.203125 -2.1875 -1.109375 -3.28125q-1.40625 -1.6875 -3.625 -1.6875q-2.015625 0 -3.390625 1.359375q-1.375 1.34375 -1.53125 3.609375zm25.59201 16.921875l0 -23.90625l2.65625 0l0 2.25q0.953125 -1.328125 2.140625 -1.984375q1.1875 -0.65625 2.875 -0.65625q2.21875 0 3.90625 1.140625q1.6875 1.140625 2.546875 3.21875q0.875 2.0625 0.875 4.546875q0 2.640625 -0.953125 4.765625q-0.953125 2.125 -2.765625 3.265625q-1.8125 1.125 -3.8125 1.125q-1.46875 0 -2.640625 -0.609375q-1.15625 -0.625 -1.90625 -1.578125l0 8.421875l-2.921875 0zm2.640625 -15.171875q0 3.34375 1.34375 4.9375q1.359375 1.59375 3.28125 1.59375q1.953125 0 3.34375 -1.65625q1.390625 -1.65625 1.390625 -5.109375q0 -3.3125 -1.359375 -4.953125q-1.359375 -1.640625 -3.25 -1.640625q-1.859375 0 -3.3125 1.75q-1.4375 1.75 -1.4375 5.078125zm15.863647 8.546875l0 -17.28125l2.625 0l0 2.625q1.015625 -1.84375 1.859375 -2.421875q0.859375 -0.59375 1.890625 -0.59375q1.484375 0 3.0 0.9375l-1.0 2.71875q-1.078125 -0.625 -2.15625 -0.625q-0.953125 0 -1.71875 0.578125q-0.765625 0.578125 -1.09375 1.59375q-0.484375 1.5625 -0.484375 3.421875l0 9.046875l-2.921875 0zm11.145416 -20.484375l0 -3.375l2.921875 0l0 3.375l-2.921875 0zm0 20.484375l0 -17.28125l2.921875 0l0 17.28125l-2.921875 0zm18.65445 -6.328125l2.890625 0.375q-0.46875 2.96875 -2.421875 4.65625q-1.9375 1.6875 -4.78125 1.6875q-3.546875 0 -5.703125 -2.3125q-2.15625 -2.328125 -2.15625 -6.65625q0 -2.796875 0.921875 -4.890625q0.9375 -2.109375 2.828125 -3.15625q1.90625 -1.046875 4.125 -1.046875q2.828125 0 4.609375 1.421875q1.796875 1.421875 2.296875 4.046875l-2.84375 0.4375q-0.40625 -1.734375 -1.453125 -2.609375q-1.03125 -0.890625 -2.484375 -0.890625q-2.21875 0 -3.609375 1.59375q-1.375 1.578125 -1.375 5.015625q0 3.484375 1.328125 5.0625q1.34375 1.578125 3.484375 1.578125q1.734375 0 2.890625 -1.0625q1.15625 -1.0625 1.453125 -3.25zm17.226562 0.765625l3.015625 0.375q-0.703125 2.65625 -2.640625 4.125q-1.9375 1.453125 -4.953125 1.453125q-3.796875 0 -6.015625 -2.328125q-2.21875 -2.34375 -2.21875 -6.5625q0 -4.359375 2.25 -6.765625q2.25 -2.40625 5.828125 -2.40625q3.46875 0 5.65625 2.359375q2.203125 2.359375 2.203125 6.640625q0 0.265625 -0.015625 0.78125l-12.890625 0q0.15625 2.84375 1.609375 4.359375q1.453125 1.515625 3.609375 1.515625q1.609375 0 2.75 -0.84375q1.140625 -0.84375 1.8125 -2.703125zm-9.625 -4.734375l9.65625 0q-0.203125 -2.1875 -1.109375 -3.28125q-1.40625 -1.6875 -3.625 -1.6875q-2.015625 0 -3.390625 1.359375q-1.375 1.34375 -1.53125 3.609375zm25.607666 -10.1875l0 -3.375l2.9219055 0l0 3.375l-2.9219055 0zm0 20.484375l0 -17.28125l2.9219055 0l0 17.28125l-2.9219055 0zm6.2169495 -5.15625l2.890625 -0.453125q0.25 1.734375 1.359375 2.671875q1.109375 0.921875 3.109375 0.921875q2.03125 0 3.0 -0.8125q0.984375 -0.828125 0.984375 -1.9375q0 -1.0 -0.875 -1.5625q-0.59375 -0.390625 -2.984375 -1.0q-3.234375 -0.8125 -4.484375 -1.40625q-1.234375 -0.59375 -1.875 -1.640625q-0.640625 -1.046875 -0.640625 -2.3125q0 -1.15625 0.53125 -2.140625q0.53125 -0.984375 1.4375 -1.640625q0.6875 -0.5 1.859375 -0.84375q1.1875 -0.359375 2.53125 -0.359375q2.03125 0 3.5625 0.59375q1.546875 0.578125 2.28125 1.578125q0.734375 1.0 1.015625 2.671875l-2.875 0.390625q-0.1875 -1.328125 -1.125 -2.078125q-0.9375 -0.75 -2.640625 -0.75q-2.03125 0 -2.890625 0.671875q-0.859375 0.65625 -0.859375 1.5625q0 0.5625 0.359375 1.015625q0.359375 0.484375 1.125 0.78125q0.4375 0.171875 2.578125 0.75q3.109375 0.828125 4.34375 1.359375q1.234375 0.53125 1.921875 1.546875q0.703125 1.0 0.703125 2.5q0 1.46875 -0.859375 2.765625q-0.84375 1.28125 -2.453125 2.0q-1.609375 0.703125 -3.65625 0.703125q-3.359375 0 -5.125 -1.390625q-1.765625 -1.40625 -2.25 -4.15625zm27.017456 5.15625l0 -23.859375l2.9375 0l0 23.859375l-2.9375 0zm6.388794 -8.640625q0 -4.796875 2.671875 -7.109375q2.21875 -1.921875 5.421875 -1.921875q3.578125 0 5.828125 2.34375q2.265625 2.328125 2.265625 6.4375q0 3.34375 -1.0 5.265625q-1.0 1.90625 -2.921875 2.96875q-1.90625 1.046875 -4.171875 1.046875q-3.625 0 -5.859375 -2.328125q-2.234375 -2.328125 -2.234375 -6.703125zm3.015625 0q0 3.3125 1.4375 4.96875q1.453125 1.65625 3.640625 1.65625q2.1875 0 3.625 -1.65625q1.453125 -1.671875 1.453125 -5.0625q0 -3.203125 -1.453125 -4.859375q-1.453125 -1.65625 -3.625 -1.65625q-2.1875 0 -3.640625 1.640625q-1.4375 1.640625 -1.4375 4.96875zm19.801147 8.640625l-5.296875 -17.28125l3.03125 0l2.75 9.96875l1.03125 3.71875q0.0625 -0.28125 0.890625 -3.5625l2.75 -10.125l3.015625 0l2.578125 10.015625l0.859375 3.3125l1.0 -3.34375l2.953125 -9.984375l2.859375 0l-5.40625 17.28125l-3.046875 0l-2.75 -10.34375l-0.671875 -2.953125l-3.484375 13.296875l-3.0625 0zm19.869995 0l0 -3.34375l3.328125 0l0 3.34375l-3.328125 0z" fill-rule="nonzero"/><path fill="#000000" d="m292.29807 434.33334l0 -21.046875l-7.859375 0l0 -2.8125l18.90625 0l0 2.8125l-7.890625 0l0 21.046875l-3.15625 0zm13.920654 0l0 -23.859375l2.921875 0l0 8.5625q2.046875 -2.375 5.171875 -2.375q1.921875 0 3.328125 0.765625q1.421875 0.75 2.03125 2.09375q0.625 1.328125 0.625 3.859375l0 10.953125l-2.9375 0l0 -10.953125q0 -2.203125 -0.953125 -3.203125q-0.953125 -1.0 -2.6875 -1.0q-1.3125 0 -2.453125 0.6875q-1.140625 0.671875 -1.640625 1.828125q-0.484375 1.15625 -0.484375 3.1875l0 9.453125l-2.921875 0zm30.363647 -5.5625l3.015625 0.375q-0.703125 2.65625 -2.640625 4.125q-1.9375 1.453125 -4.953125 1.453125q-3.796875 0 -6.015625 -2.328125q-2.21875 -2.34375 -2.21875 -6.5625q0 -4.359375 2.25 -6.765625q2.25 -2.40625 5.828125 -2.40625q3.46875 0 5.65625 2.359375q2.203125 2.359375 2.203125 6.640625q0 0.265625 -0.015625 0.78125l-12.890625 0q0.15625 2.84375 1.609375 4.359375q1.453125 1.515625 3.609375 1.515625q1.609375 0 2.75 -0.84375q1.140625 -0.84375 1.8125 -2.703125zm-9.625 -4.734375l9.65625 0q-0.203125 -2.1875 -1.109375 -3.28125q-1.40625 -1.6875 -3.625 -1.6875q-2.015625 0 -3.390625 1.359375q-1.375 1.34375 -1.53125 3.609375zm25.592041 10.296875l0 -17.28125l2.609375 0l0 2.421875q0.8125 -1.265625 2.15625 -2.03125q1.359375 -0.78125 3.09375 -0.78125q1.921875 0 3.140625 0.796875q1.234375 0.796875 1.734375 2.234375q2.046875 -3.03125 5.34375 -3.03125q2.5625 0 3.9375 1.421875q1.390625 1.421875 1.390625 4.390625l0 11.859375l-2.90625 0l0 -10.890625q0 -1.75 -0.296875 -2.515625q-0.28125 -0.78125 -1.03125 -1.25q-0.734375 -0.484375 -1.75 -0.484375q-1.828125 0 -3.03125 1.21875q-1.203125 1.21875 -1.203125 3.875l0 10.046875l-2.921875 0l0 -11.234375q0 -1.953125 -0.71875 -2.921875q-0.71875 -0.984375 -2.34375 -0.984375q-1.234375 0 -2.296875 0.65625q-1.046875 0.65625 -1.515625 1.90625q-0.46875 1.25 -0.46875 3.609375l0 8.96875l-2.921875 0zm39.5907 -5.5625l3.015625 0.375q-0.703125 2.65625 -2.640625 4.125q-1.9375 1.453125 -4.953125 1.453125q-3.796875 0 -6.015625 -2.328125q-2.21875 -2.34375 -2.21875 -6.5625q0 -4.359375 2.25 -6.765625q2.25 -2.40625 5.828125 -2.40625q3.46875 0 5.65625 2.359375q2.203125 2.359375 2.203125 6.640625q0 0.265625 -0.015625 0.78125l-12.890625 0q0.15625 2.84375 1.609375 4.359375q1.453125 1.515625 3.609375 1.515625q1.609375 0 2.75 -0.84375q1.140625 -0.84375 1.8125 -2.703125zm-9.625 -4.734375l9.65625 0q-0.203125 -2.1875 -1.109375 -3.28125q-1.40625 -1.6875 -3.625 -1.6875q-2.015625 0 -3.390625 1.359375q-1.375 1.34375 -1.53125 3.609375zm27.598022 8.171875q-1.625 1.375 -3.125 1.953125q-1.5 0.5625 -3.234375 0.5625q-2.84375 0 -4.375 -1.390625q-1.53125 -1.390625 -1.53125 -3.5625q0 -1.265625 0.578125 -2.3125q0.578125 -1.046875 1.515625 -1.671875q0.9375 -0.640625 2.109375 -0.96875q0.859375 -0.234375 2.59375 -0.4375q3.546875 -0.421875 5.234375 -1.015625q0.015625 -0.609375 0.015625 -0.765625q0 -1.78125 -0.828125 -2.515625q-1.125 -1.0 -3.34375 -1.0q-2.0625 0 -3.046875 0.734375q-0.984375 0.71875 -1.453125 2.546875l-2.875 -0.390625q0.390625 -1.828125 1.28125 -2.953125q0.90625 -1.140625 2.59375 -1.75q1.703125 -0.609375 3.921875 -0.609375q2.21875 0 3.59375 0.53125q1.390625 0.515625 2.03125 1.3125q0.65625 0.78125 0.921875 1.984375q0.140625 0.75 0.140625 2.703125l0 3.90625q0 4.078125 0.1875 5.15625q0.1875 1.078125 0.75 2.078125l-3.0625 0q-0.453125 -0.90625 -0.59375 -2.125zm-0.234375 -6.546875q-1.59375 0.65625 -4.78125 1.109375q-1.8125 0.25 -2.5625 0.578125q-0.75 0.328125 -1.15625 0.953125q-0.40625 0.625 -0.40625 1.390625q0 1.171875 0.890625 1.953125q0.890625 0.78125 2.59375 0.78125q1.6875 0 3.0 -0.734375q1.328125 -0.75 1.953125 -2.03125q0.46875 -0.984375 0.46875 -2.921875l0 -1.078125zm6.3323975 3.515625l2.890625 -0.453125q0.25 1.734375 1.359375 2.671875q1.109375 0.921875 3.109375 0.921875q2.03125 0 3.0 -0.8125q0.984375 -0.828125 0.984375 -1.9375q0 -1.0 -0.875 -1.5625q-0.59375 -0.390625 -2.984375 -1.0q-3.234375 -0.8125 -4.484375 -1.40625q-1.234375 -0.59375 -1.875 -1.640625q-0.640625 -1.046875 -0.640625 -2.3125q0 -1.15625 0.53125 -2.140625q0.53125 -0.984375 1.4375 -1.640625q0.6875 -0.5 1.859375 -0.84375q1.1875 -0.359375 2.53125 -0.359375q2.03125 0 3.5625 0.59375q1.546875 0.578125 2.28125 1.578125q0.734375 1.0 1.015625 2.671875l-2.875 0.390625q-0.1875 -1.328125 -1.125 -2.078125q-0.9375 -0.75 -2.640625 -0.75q-2.03125 0 -2.890625 0.671875q-0.859375 0.65625 -0.859375 1.5625q0 0.5625 0.359375 1.015625q0.359375 0.484375 1.125 0.78125q0.4375 0.171875 2.578125 0.75q3.109375 0.828125 4.34375 1.359375q1.234375 0.53125 1.921875 1.546875q0.703125 1.0 0.703125 2.5q0 1.46875 -0.859375 2.765625q-0.84375 1.28125 -2.453125 2.0q-1.609375 0.703125 -3.65625 0.703125q-3.359375 0 -5.125 -1.390625q-1.765625 -1.40625 -2.25 -4.15625zm29.148438 5.15625l0 -2.53125q-2.015625 2.921875 -5.46875 2.921875q-1.53125 0 -2.859375 -0.578125q-1.328125 -0.59375 -1.96875 -1.484375q-0.640625 -0.890625 -0.90625 -2.171875q-0.1875 -0.859375 -0.1875 -2.734375l0 -10.703125l2.9375 0l0 9.578125q0 2.296875 0.171875 3.09375q0.28125 1.15625 1.171875 1.828125q0.90625 0.65625 2.21875 0.65625q1.3125 0 2.46875 -0.671875q1.15625 -0.6875 1.640625 -1.84375q0.484375 -1.171875 0.484375 -3.375l0 -9.265625l2.921875 0l0 17.28125l-2.625 0zm7.1917725 0l0 -17.28125l2.625 0l0 2.625q1.015625 -1.84375 1.859375 -2.421875q0.859375 -0.59375 1.890625 -0.59375q1.484375 0 3.0 0.9375l-1.0 2.71875q-1.078125 -0.625 -2.15625 -0.625q-0.953125 0 -1.71875 0.578125q-0.765625 0.578125 -1.09375 1.59375q-0.484375 1.5625 -0.484375 3.421875l0 9.046875l-2.921875 0zm22.957886 -5.5625l3.015625 0.375q-0.703125 2.65625 -2.640625 4.125q-1.9375 1.453125 -4.953125 1.453125q-3.796875 0 -6.015625 -2.328125q-2.21875 -2.34375 -2.21875 -6.5625q0 -4.359375 2.25 -6.765625q2.25 -2.40625 5.828125 -2.40625q3.46875 0 5.65625 2.359375q2.203125 2.359375 2.203125 6.640625q0 0.265625 -0.015625 0.78125l-12.890625 0q0.15625 2.84375 1.609375 4.359375q1.453125 1.515625 3.609375 1.515625q1.609375 0 2.75 -0.84375q1.140625 -0.84375 1.8125 -2.703125zm-9.625 -4.734375l9.65625 0q-0.203125 -2.1875 -1.109375 -3.28125q-1.40625 -1.6875 -3.625 -1.6875q-2.015625 0 -3.390625 1.359375q-1.375 1.34375 -1.53125 3.609375zm16.332397 10.296875l0 -17.28125l2.609375 0l0 2.421875q0.8125 -1.265625 2.15625 -2.03125q1.359375 -0.78125 3.09375 -0.78125q1.921875 0 3.140625 0.796875q1.234375 0.796875 1.734375 2.234375q2.046875 -3.03125 5.34375 -3.03125q2.5625 0 3.9375 1.421875q1.390625 1.421875 1.390625 4.390625l0 11.859375l-2.90625 0l0 -10.890625q0 -1.75 -0.296875 -2.515625q-0.28125 -0.78125 -1.03125 -1.25q-0.734375 -0.484375 -1.75 -0.484375q-1.828125 0 -3.03125 1.21875q-1.203125 1.21875 -1.203125 3.875l0 10.046875l-2.921875 0l0 -11.234375q0 -1.953125 -0.71875 -2.921875q-0.71875 -0.984375 -2.34375 -0.984375q-1.234375 0 -2.296875 0.65625q-1.046875 0.65625 -1.515625 1.90625q-0.46875 1.25 -0.46875 3.609375l0 8.96875l-2.921875 0zm39.59073 -5.5625l3.015625 0.375q-0.703125 2.65625 -2.640625 4.125q-1.9375 1.453125 -4.953125 1.453125q-3.796875 0 -6.015625 -2.328125q-2.21875 -2.34375 -2.21875 -6.5625q0 -4.359375 2.25 -6.765625q2.25 -2.40625 5.828125 -2.40625q3.46875 0 5.65625 2.359375q2.203125 2.359375 2.203125 6.640625q0 0.265625 -0.015625 0.78125l-12.890625 0q0.15625 2.84375 1.609375 4.359375q1.453125 1.515625 3.609375 1.515625q1.609375 0 2.75 -0.84375q1.140625 -0.84375 1.8125 -2.703125zm-9.625 -4.734375l9.65625 0q-0.203125 -2.1875 -1.109375 -3.28125q-1.40625 -1.6875 -3.625 -1.6875q-2.015625 0 -3.390625 1.359375q-1.375 1.34375 -1.53125 3.609375zm16.332397 10.296875l0 -17.28125l2.625 0l0 2.453125q1.90625 -2.84375 5.5 -2.84375q1.5625 0 2.875 0.5625q1.3125 0.5625 1.953125 1.46875q0.65625 0.90625 0.921875 2.171875q0.15625 0.8125 0.15625 2.84375l0 10.625l-2.921875 0l0 -10.515625q0 -1.78125 -0.34375 -2.671875q-0.34375 -0.890625 -1.21875 -1.421875q-0.859375 -0.53125 -2.03125 -0.53125q-1.875 0 -3.234375 1.1875q-1.359375 1.1875 -1.359375 4.515625l0 9.4375l-2.921875 0zm24.926147 -2.625l0.421875 2.59375q-1.234375 0.265625 -2.21875 0.265625q-1.59375 0 -2.46875 -0.5q-0.875 -0.515625 -1.234375 -1.328125q-0.359375 -0.828125 -0.359375 -3.46875l0 -9.9375l-2.15625 0l0 -2.28125l2.15625 0l0 -4.28125l2.90625 -1.75l0 6.03125l2.953125 0l0 2.28125l-2.953125 0l0 10.109375q0 1.25 0.15625 1.609375q0.15625 0.359375 0.5 0.578125q0.359375 0.203125 1.015625 0.203125q0.484375 0 1.28125 -0.125zm12.144287 -17.859375l0 -3.375l2.921875 0l0 3.375l-2.921875 0zm0 20.484375l0 -17.28125l2.921875 0l0 17.28125l-2.921875 0zm6.216919 -5.15625l2.890625 -0.453125q0.25 1.734375 1.359375 2.671875q1.109375 0.921875 3.109375 0.921875q2.03125 0 3.0 -0.8125q0.984375 -0.828125 0.984375 -1.9375q0 -1.0 -0.875 -1.5625q-0.59375 -0.390625 -2.984375 -1.0q-3.234375 -0.8125 -4.484375 -1.40625q-1.234375 -0.59375 -1.875 -1.640625q-0.640625 -1.046875 -0.640625 -2.3125q0 -1.15625 0.53125 -2.140625q0.53125 -0.984375 1.4375 -1.640625q0.6875 -0.5 1.859375 -0.84375q1.1875 -0.359375 2.53125 -0.359375q2.03125 0 3.5625 0.59375q1.546875 0.578125 2.28125 1.578125q0.734375 1.0 1.015625 2.671875l-2.875 0.390625q-0.1875 -1.328125 -1.125 -2.078125q-0.9375 -0.75 -2.640625 -0.75q-2.03125 0 -2.890625 0.671875q-0.859375 0.65625 -0.859375 1.5625q0 0.5625 0.359375 1.015625q0.359375 0.484375 1.125 0.78125q0.4375 0.171875 2.578125 0.75q3.109375 0.828125 4.34375 1.359375q1.234375 0.53125 1.921875 1.546875q0.703125 1.0 0.703125 2.5q0 1.46875 -0.859375 2.765625q-0.84375 1.28125 -2.453125 2.0q-1.609375 0.703125 -3.65625 0.703125q-3.359375 0 -5.125 -1.390625q-1.765625 -1.40625 -2.25 -4.15625zm38.361206 -1.171875l2.890625 0.375q-0.46875 2.96875 -2.421875 4.65625q-1.9375 1.6875 -4.78125 1.6875q-3.546875 0 -5.703125 -2.3125q-2.15625 -2.328125 -2.15625 -6.65625q0 -2.796875 0.921875 -4.890625q0.9375 -2.109375 2.828125 -3.15625q1.90625 -1.046875 4.125 -1.046875q2.828125 0 4.609375 1.421875q1.796875 1.421875 2.296875 4.046875l-2.84375 0.4375q-0.40625 -1.734375 -1.453125 -2.609375q-1.03125 -0.890625 -2.484375 -0.890625q-2.21875 0 -3.609375 1.59375q-1.375 1.578125 -1.375 5.015625q0 3.484375 1.328125 5.0625q1.34375 1.578125 3.484375 1.578125q1.734375 0 2.890625 -1.0625q1.15625 -1.0625 1.453125 -3.25zm5.3203125 6.328125l0 -23.859375l2.9375 0l0 23.859375l-2.9375 0zm19.31073 -5.5625l3.015625 0.375q-0.703125 2.65625 -2.640625 4.125q-1.9375 1.453125 -4.953125 1.453125q-3.796875 0 -6.015625 -2.328125q-2.21875 -2.34375 -2.21875 -6.5625q0 -4.359375 2.25 -6.765625q2.25 -2.40625 5.828125 -2.40625q3.46875 0 5.65625 2.359375q2.203125 2.359375 2.203125 6.640625q0 0.265625 -0.015625 0.78125l-12.890625 0q0.15625 2.84375 1.609375 4.359375q1.453125 1.515625 3.609375 1.515625q1.609375 0 2.75 -0.84375q1.140625 -0.84375 1.8125 -2.703125zm-9.625 -4.734375l9.65625 0q-0.203125 -2.1875 -1.109375 -3.28125q-1.40625 -1.6875 -3.625 -1.6875q-2.015625 0 -3.390625 1.359375q-1.375 1.34375 -1.53125 3.609375zm27.598022 8.171875q-1.625 1.375 -3.125 1.953125q-1.5 0.5625 -3.234375 0.5625q-2.84375 0 -4.375 -1.390625q-1.53125 -1.390625 -1.53125 -3.5625q0 -1.265625 0.578125 -2.3125q0.578125 -1.046875 1.515625 -1.671875q0.9375 -0.640625 2.109375 -0.96875q0.859375 -0.234375 2.59375 -0.4375q3.546875 -0.421875 5.234375 -1.015625q0.015625 -0.609375 0.015625 -0.765625q0 -1.78125 -0.828125 -2.515625q-1.125 -1.0 -3.34375 -1.0q-2.0625 0 -3.046875 0.734375q-0.984375 0.71875 -1.453125 2.546875l-2.875 -0.390625q0.390625 -1.828125 1.28125 -2.953125q0.90625 -1.140625 2.59375 -1.75q1.703125 -0.609375 3.921875 -0.609375q2.21875 0 3.59375 0.53125q1.390625 0.515625 2.03125 1.3125q0.65625 0.78125 0.921875 1.984375q0.140625 0.75 0.140625 2.703125l0 3.90625q0 4.078125 0.1875 5.15625q0.1875 1.078125 0.75 2.078125l-3.0625 0q-0.453125 -0.90625 -0.59375 -2.125zm-0.234375 -6.546875q-1.59375 0.65625 -4.78125 1.109375q-1.8125 0.25 -2.5625 0.578125q-0.75 0.328125 -1.15625 0.953125q-0.40625 0.625 -0.40625 1.390625q0 1.171875 0.890625 1.953125q0.890625 0.78125 2.59375 0.78125q1.6875 0 3.0 -0.734375q1.328125 -0.75 1.953125 -2.03125q0.46875 -0.984375 0.46875 -2.921875l0 -1.078125zm7.4730225 8.671875l0 -17.28125l2.625 0l0 2.625q1.015625 -1.84375 1.859375 -2.421875q0.859375 -0.59375 1.890625 -0.59375q1.484375 0 3.0 0.9375l-1.0 2.71875q-1.078125 -0.625 -2.15625 -0.625q-0.953125 0 -1.71875 0.578125q-0.765625 0.578125 -1.09375 1.59375q-0.484375 1.5625 -0.484375 3.421875l0 9.046875l-2.921875 0zm10.118652 0l0 -3.34375l3.328125 0l0 3.34375l-3.328125 0z" fill-rule="nonzero"/></g></g></svg>