<svg version="1.1" viewBox="0.0 0.0 960.0 540.0" fill="none" stroke="none" stroke-linecap="square" stroke-miterlimit="10" xmlns:xlink="http://www.w3.org/1999/xlink" xmlns="http://www.w3.org/2000/svg"><clipPath id="slide_19.0"><path d="m0 0l960.0 0l0 540.0l-960.0 0l0 -540.0z" clip-rule="nonzero"/></clipPath><g clip-path="url(#slide_19.0)"><g id="slide_19"><path fill="#ffffff" d="m0 0l960.0 0l0 540.0l-960.0 0l0 -540.0z" fill-rule="nonzero"/><path fill="#ffffff" d="m0 0l960.0 0l0 540.0l-960.0 0z" fill-rule="evenodd"/><g id="a11y-dsl_t19" role="img" aria-label="Do I need to change anything?&#xa;" tabindex="0"><path fill="#000000" fill-opacity="0.0" d="m80.0 122.666664l0 153.32285l800.0 0l0 -153.32285z" fill-rule="nonzero"/></g><path fill="#000000" fill-opacity="0.0" d="m80.0 122.666664l800.0 0l0 153.32285l-800.0 0z" fill-rule="evenodd"/><path fill="#000000" d="m120.90253 182.86667l0 -38.171875l13.15625 0q4.453125 0 6.796875 0.546875q3.28125 0.75 5.59375 2.734375q3.015625 2.546875 4.515625 6.515625q1.5 3.96875 1.5 9.078125q0 4.34375 -1.015625 7.703125q-1.015625 3.359375 -2.609375 5.5625q-1.578125 2.203125 -3.46875 3.46875q-1.890625 1.265625 -4.5625 1.921875q-2.65625 0.640625 -6.125 0.640625l-13.78125 0zm5.0625 -4.5l8.140625 0q3.78125 0 5.921875 -0.703125q2.15625 -0.703125 3.4375 -1.984375q1.78125 -1.796875 2.78125 -4.828125q1.015625 -3.03125 1.015625 -7.359375q0 -5.984375 -1.96875 -9.203125q-1.96875 -3.21875 -4.78125 -4.3125q-2.03125 -0.78125 -6.53125 -0.78125l-8.015625 0l0 29.171875zm31.105621 -9.328125q0 -7.6875 4.28125 -11.375q3.5625 -3.078125 8.6875 -3.078125q5.703125 0 9.3125 3.734375q3.625 3.734375 3.625 10.328125q0 5.34375 -1.59375 8.40625q-1.59375 3.046875 -4.65625 4.75q-3.0625 1.6875 -6.6875 1.6875q-5.796875 0 -9.390625 -3.71875q-3.578125 -3.734375 -3.578125 -10.734375zm4.828125 0q0 5.3125 2.3125 7.953125q2.3125 2.640625 5.828125 2.640625q3.5 0 5.8125 -2.65625q2.3125 -2.65625 2.3125 -8.09375q0 -5.125 -2.328125 -7.765625q-2.328125 -2.65625 -5.796875 -2.65625q-3.515625 0 -5.828125 2.640625q-2.3125 2.625 -2.3125 7.9375zm42.84984 13.828125l0 -38.171875l5.0625 0l0 38.171875l-5.0625 0zm28.179413 0l0 -27.65625l4.21875 0l0 3.9375q3.046875 -4.5625 8.796875 -4.5625q2.5 0 4.59375 0.90625q2.109375 0.890625 3.140625 2.359375q1.046875 1.453125 1.46875 3.453125q0.25 1.296875 0.25 4.5625l0 17.0l-4.6875 0l0 -16.828125q0 -2.859375 -0.546875 -4.28125q-0.546875 -1.421875 -1.9375 -2.265625q-1.390625 -0.84375 -3.265625 -0.84375q-3.0 0 -5.171875 1.90625q-2.171875 1.890625 -2.171875 7.203125l0 15.109375l-4.6875 0zm48.596085 -8.90625l4.828125 0.59375q-1.140625 4.25 -4.234375 6.59375q-3.09375 2.34375 -7.921875 2.34375q-6.0625 0 -9.625 -3.734375q-3.546875 -3.734375 -3.546875 -10.484375q0 -6.984375 3.59375 -10.828125q3.59375 -3.859375 9.328125 -3.859375q5.546875 0 9.046875 3.78125q3.515625 3.765625 3.515625 10.625q0 0.40625 -0.015625 1.25l-20.625 0q0.265625 4.546875 2.578125 6.96875q2.3125 2.421875 5.78125 2.421875q2.578125 0 4.390625 -1.34375q1.828125 -1.359375 2.90625 -4.328125zm-15.390625 -7.578125l15.4375 0q-0.3125 -3.484375 -1.765625 -5.234375q-2.25 -2.703125 -5.8125 -2.703125q-3.234375 0 -5.4375 2.15625q-2.1875 2.15625 -2.421875 5.78125zm45.049194 7.578125l4.828125 0.59375q-1.140625 4.25 -4.234375 6.59375q-3.09375 2.34375 -7.921875 2.34375q-6.0625 0 -9.625 -3.734375q-3.546875 -3.734375 -3.546875 -10.484375q0 -6.984375 3.59375 -10.828125q3.59375 -3.859375 9.328125 -3.859375q5.546875 0 9.046875 3.78125q3.515625 3.765625 3.515625 10.625q0 0.40625 -0.015625 1.25l-20.625 0q0.265625 4.546875 2.578125 6.96875q2.3125 2.421875 5.78125 2.421875q2.578125 0 4.390625 -1.34375q1.828125 -1.359375 2.90625 -4.328125zm-15.390625 -7.578125l15.4375 0q-0.3125 -3.484375 -1.765625 -5.234375q-2.25 -2.703125 -5.8125 -2.703125q-3.234375 0 -5.4375 2.15625q-2.1875 2.15625 -2.421875 5.78125zm44.049194 16.484375l0 -3.484375q-2.625 4.109375 -7.734375 4.109375q-3.296875 0 -6.078125 -1.8125q-2.765625 -1.828125 -4.296875 -5.09375q-1.515625 -3.28125 -1.515625 -7.515625q0 -4.140625 1.375 -7.515625q1.375 -3.375 4.140625 -5.171875q2.765625 -1.796875 6.171875 -1.796875q2.5 0 4.453125 1.0625q1.953125 1.046875 3.171875 2.734375l0 -13.6875l4.671875 0l0 38.171875l-4.359375 0zm-14.8125 -13.796875q0 5.3125 2.234375 7.9375q2.25 2.625 5.296875 2.625q3.0625 0 5.203125 -2.5q2.15625 -2.515625 2.15625 -7.671875q0 -5.6875 -2.1875 -8.34375q-2.1875 -2.65625 -5.390625 -2.65625q-3.125 0 -5.21875 2.5625q-2.09375 2.546875 -2.09375 8.046875zm51.584198 9.609375l0.671875 4.140625q-1.96875 0.40625 -3.53125 0.40625q-2.5625 0 -3.96875 -0.796875q-1.40625 -0.8125 -1.984375 -2.125q-0.5625 -1.3125 -0.5625 -5.53125l0 -15.921875l-3.4375 0l0 -3.640625l3.4375 0l0 -6.84375l4.65625 -2.8125l0 9.65625l4.71875 0l0 3.640625l-4.71875 0l0 16.171875q0 2.015625 0.25 2.59375q0.25 0.5625 0.8125 0.90625q0.5625 0.328125 1.59375 0.328125q0.78125 0 2.0625 -0.171875zm2.8318787 -9.640625q0 -7.6875 4.28125 -11.375q3.5625 -3.078125 8.6875 -3.078125q5.703125 0 9.3125 3.734375q3.625 3.734375 3.625 10.328125q0 5.34375 -1.59375 8.40625q-1.59375 3.046875 -4.65625 4.75q-3.0625 1.6875 -6.6875 1.6875q-5.796875 0 -9.390625 -3.71875q-3.578125 -3.734375 -3.578125 -10.734375zm4.828125 0q0 5.3125 2.3125 7.953125q2.3125 2.640625 5.828125 2.640625q3.5 0 5.8125 -2.65625q2.3125 -2.65625 2.3125 -8.09375q0 -5.125 -2.328125 -7.765625q-2.328125 -2.65625 -5.796875 -2.65625q-3.515625 0 -5.828125 2.640625q-2.3125 2.625 -2.3125 7.9375zm59.443604 3.703125l4.609375 0.59375q-0.75 4.765625 -3.875 7.46875q-3.109375 2.6875 -7.640625 2.6875q-5.671875 0 -9.125 -3.703125q-3.453125 -3.71875 -3.453125 -10.640625q0 -4.484375 1.484375 -7.84375q1.484375 -3.359375 4.515625 -5.03125q3.046875 -1.6875 6.609375 -1.6875q4.5 0 7.359375 2.28125q2.875 2.28125 3.6875 6.46875l-4.5625 0.703125q-0.65625 -2.78125 -2.3125 -4.1875q-1.640625 -1.40625 -3.984375 -1.40625q-3.546875 0 -5.765625 2.546875q-2.203125 2.53125 -2.203125 8.015625q0 5.578125 2.125 8.109375q2.140625 2.515625 5.578125 2.515625q2.765625 0 4.609375 -1.6875q1.84375 -1.6875 2.34375 -5.203125zm8.6171875 10.125l0 -38.171875l4.6875 0l0 13.6875q3.28125 -3.796875 8.28125 -3.796875q3.078125 0 5.34375 1.21875q2.265625 1.203125 3.234375 3.34375q0.984375 2.125 0.984375 6.1875l0 17.53125l-4.6875 0l0 -17.53125q0 -3.515625 -1.53125 -5.109375q-1.515625 -1.609375 -4.3125 -1.609375q-2.078125 0 -3.921875 1.09375q-1.828125 1.078125 -2.609375 2.921875q-0.78125 1.84375 -0.78125 5.109375l0 15.125l-4.6875 0zm47.705444 -3.40625q-2.609375 2.203125 -5.015625 3.125q-2.40625 0.90625 -5.171875 0.90625q-4.546875 0 -7.0 -2.21875q-2.453125 -2.234375 -2.453125 -5.703125q0 -2.03125 0.921875 -3.703125q0.9375 -1.6875 2.421875 -2.703125q1.5 -1.015625 3.375 -1.53125q1.390625 -0.359375 4.171875 -0.703125q5.671875 -0.671875 8.359375 -1.609375q0.03125 -0.96875 0.03125 -1.234375q0 -2.859375 -1.328125 -4.03125q-1.796875 -1.59375 -5.34375 -1.59375q-3.3125 0 -4.890625 1.171875q-1.5625 1.15625 -2.328125 4.09375l-4.578125 -0.625q0.625 -2.9375 2.046875 -4.75q1.4375 -1.8125 4.140625 -2.78125q2.71875 -0.984375 6.28125 -0.984375q3.546875 0 5.75 0.84375q2.21875 0.828125 3.265625 2.09375q1.046875 1.25 1.453125 3.1875q0.234375 1.1875 0.234375 4.3125l0 6.25q0 6.546875 0.296875 8.28125q0.3125 1.71875 1.1875 3.3125l-4.890625 0q-0.734375 -1.453125 -0.9375 -3.40625zm-0.390625 -10.46875q-2.546875 1.03125 -7.65625 1.765625q-2.890625 0.421875 -4.09375 0.9375q-1.1875 0.515625 -1.84375 1.53125q-0.65625 1.0 -0.65625 2.21875q0 1.875 1.421875 3.125q1.421875 1.25 4.15625 1.25q2.703125 0 4.8125 -1.1875q2.109375 -1.1875 3.109375 -3.234375q0.75 -1.59375 0.75 -4.6875l0 -1.71875zm12.002319 13.875l0 -27.65625l4.21875 0l0 3.9375q3.046875 -4.5625 8.796875 -4.5625q2.5 0 4.59375 0.90625q2.109375 0.890625 3.140625 2.359375q1.046875 1.453125 1.46875 3.453125q0.25 1.296875 0.25 4.5625l0 17.0l-4.6875 0l0 -16.828125q0 -2.859375 -0.546875 -4.28125q-0.546875 -1.421875 -1.9375 -2.265625q-1.390625 -0.84375 -3.265625 -0.84375q-3.0 0 -5.171875 1.90625q-2.171875 1.890625 -2.171875 7.203125l0 15.109375l-4.6875 0zm28.799194 2.296875l4.5625 0.671875q0.28125 2.109375 1.578125 3.078125q1.75 1.296875 4.765625 1.296875q3.265625 0 5.03125 -1.3125q1.765625 -1.296875 2.390625 -3.640625q0.375 -1.421875 0.34375 -6.015625q-3.078125 3.625 -7.65625 3.625q-5.703125 0 -8.828125 -4.109375q-3.125 -4.125 -3.125 -9.875q0 -3.953125 1.421875 -7.296875q1.4375 -3.359375 4.15625 -5.171875q2.734375 -1.828125 6.40625 -1.828125q4.890625 0 8.0625 3.953125l0 -3.328125l4.328125 0l0 23.90625q0 6.453125 -1.3125 9.140625q-1.3125 2.703125 -4.171875 4.265625q-2.84375 1.5625 -7.015625 1.5625q-4.953125 0 -8.0 -2.234375q-3.046875 -2.21875 -2.9375 -6.6875zm3.875 -16.625q0 5.453125 2.15625 7.953125q2.171875 2.5 5.421875 2.5q3.234375 0 5.421875 -2.484375q2.1875 -2.5 2.1875 -7.8125q0 -5.078125 -2.25 -7.65625q-2.25 -2.578125 -5.4375 -2.578125q-3.125 0 -5.3125 2.546875q-2.1875 2.53125 -2.1875 7.53125zm45.580444 5.421875l4.828125 0.59375q-1.140625 4.25 -4.234375 6.59375q-3.09375 2.34375 -7.921875 2.34375q-6.0625 0 -9.625 -3.734375q-3.546875 -3.734375 -3.546875 -10.484375q0 -6.984375 3.59375 -10.828125q3.59375 -3.859375 9.328125 -3.859375q5.546875 0 9.046875 3.78125q3.515625 3.765625 3.515625 10.625q0 0.40625 -0.015625 1.25l-20.625 0q0.265625 4.546875 2.578125 6.96875q2.3125 2.421875 5.78125 2.421875q2.578125 0 4.390625 -1.34375q1.828125 -1.359375 2.90625 -4.328125zm-15.390625 -7.578125l15.4375 0q-0.3125 -3.484375 -1.765625 -5.234375q-2.25 -2.703125 -5.8125 -2.703125q-3.234375 0 -5.4375 2.15625q-2.1875 2.15625 -2.421875 5.78125zm58.974854 13.078125q-2.609375 2.203125 -5.015625 3.125q-2.40625 0.90625 -5.171875 0.90625q-4.546875 0 -7.0 -2.21875q-2.453125 -2.234375 -2.453125 -5.703125q0 -2.03125 0.921875 -3.703125q0.9375 -1.6875 2.421875 -2.703125q1.5 -1.015625 3.375 -1.53125q1.390625 -0.359375 4.171875 -0.703125q5.671875 -0.671875 8.359375 -1.609375q0.03125 -0.96875 0.03125 -1.234375q0 -2.859375 -1.328125 -4.03125q-1.796875 -1.59375 -5.34375 -1.59375q-3.3125 0 -4.890625 1.171875q-1.5625 1.15625 -2.328125 4.09375l-4.578125 -0.625q0.625 -2.9375 2.046875 -4.75q1.4375 -1.8125 4.140625 -2.78125q2.71875 -0.984375 6.28125 -0.984375q3.546875 0 5.75 0.84375q2.21875 0.828125 3.265625 2.09375q1.046875 1.25 1.453125 3.1875q0.234375 1.1875 0.234375 4.3125l0 6.25q0 6.546875 0.296875 8.28125q0.3125 1.71875 1.1875 3.3125l-4.890625 0q-0.734375 -1.453125 -0.9375 -3.40625zm-0.390625 -10.46875q-2.546875 1.03125 -7.65625 1.765625q-2.890625 0.421875 -4.09375 0.9375q-1.1875 0.515625 -1.84375 1.53125q-0.65625 1.0 -0.65625 2.21875q0 1.875 1.421875 3.125q1.421875 1.25 4.15625 1.25q2.703125 0 4.8125 -1.1875q2.109375 -1.1875 3.109375 -3.234375q0.75 -1.59375 0.75 -4.6875l0 -1.71875zm12.002319 13.875l0 -27.65625l4.21875 0l0 3.9375q3.046875 -4.5625 8.796875 -4.5625q2.5 0 4.59375 0.90625q2.109375 0.890625 3.140625 2.359375q1.046875 1.453125 1.46875 3.453125q0.25 1.296875 0.25 4.5625l0 17.0l-4.6875 0l0 -16.828125q0 -2.859375 -0.546875 -4.28125q-0.546875 -1.421875 -1.9375 -2.265625q-1.390625 -0.84375 -3.265625 -0.84375q-3.0 0 -5.171875 1.90625q-2.171875 1.890625 -2.171875 7.203125l0 15.109375l-4.6875 0zm29.455444 10.65625l-0.53125 -4.40625q1.546875 0.421875 2.6875 0.421875q1.5625 0 2.5 -0.53125q0.9375 -0.515625 1.53125 -1.453125q0.453125 -0.703125 1.4375 -3.484375q0.125 -0.390625 0.421875 -1.15625l-10.5 -27.703125l5.046875 0l5.765625 16.015625q1.109375 3.046875 2.0 6.40625q0.8125 -3.234375 1.921875 -6.296875l5.921875 -16.125l4.6875 0l-10.53125 28.125q-1.6875 4.5625 -2.625 6.28125q-1.25 2.3125 -2.875 3.390625q-1.609375 1.078125 -3.84375 1.078125q-1.359375 0 -3.015625 -0.5625zm37.101562 -14.84375l0.671875 4.140625q-1.96875 0.40625 -3.53125 0.40625q-2.5625 0 -3.96875 -0.796875q-1.40625 -0.8125 -1.984375 -2.125q-0.5625 -1.3125 -0.5625 -5.53125l0 -15.921875l-3.4375 0l0 -3.640625l3.4375 0l0 -6.84375l4.65625 -2.8125l0 9.65625l4.71875 0l0 3.640625l-4.71875 0l0 16.171875q0 2.015625 0.25 2.59375q0.25 0.5625 0.8125 0.90625q0.5625 0.328125 1.59375 0.328125q0.78125 0 2.0625 -0.171875zm4.581909 4.1875l0 -38.171875l4.6875 0l0 13.6875q3.28125 -3.796875 8.28125 -3.796875q3.078125 0 5.34375 1.21875q2.265625 1.203125 3.234375 3.34375q0.984375 2.125 0.984375 6.1875l0 17.53125l-4.6875 0l0 -17.53125q0 -3.515625 -1.53125 -5.109375q-1.515625 -1.609375 -4.3125 -1.609375q-2.078125 0 -3.921875 1.09375q-1.828125 1.078125 -2.609375 2.921875q-0.78125 1.84375 -0.78125 5.109375l0 15.125l-4.6875 0zm29.68982 -32.78125l0 -5.390625l4.6875 0l0 5.390625l-4.6875 0zm0 32.78125l0 -27.65625l4.6875 0l0 27.65625l-4.6875 0zm11.816589 0l0 -27.65625l4.21875 0l0 3.9375q3.046875 -4.5625 8.796875 -4.5625q2.5 0 4.59375 0.90625q2.109375 0.890625 3.140625 2.359375q1.046875 1.453125 1.46875 3.453125q0.25 1.296875 0.25 4.5625l0 17.0l-4.6875 0l0 -16.828125q0 -2.859375 -0.546875 -4.28125q-0.546875 -1.421875 -1.9375 -2.265625q-1.390625 -0.84375 -3.265625 -0.84375q-3.0 0 -5.171875 1.90625q-2.171875 1.890625 -2.171875 7.203125l0 15.109375l-4.6875 0zm28.799194 2.296875l4.5625 0.671875q0.28125 2.109375 1.578125 3.078125q1.75 1.296875 4.765625 1.296875q3.265625 0 5.03125 -1.3125q1.765625 -1.296875 2.390625 -3.640625q0.375 -1.421875 0.34375 -6.015625q-3.078125 3.625 -7.65625 3.625q-5.703125 0 -8.828125 -4.109375q-3.125 -4.125 -3.125 -9.875q0 -3.953125 1.421875 -7.296875q1.4375 -3.359375 4.15625 -5.171875q2.734375 -1.828125 6.40625 -1.828125q4.890625 0 8.0625 3.953125l0 -3.328125l4.328125 0l0 23.90625q0 6.453125 -1.3125 9.140625q-1.3125 2.703125 -4.171875 4.265625q-2.84375 1.5625 -7.015625 1.5625q-4.953125 0 -8.0 -2.234375q-3.046875 -2.21875 -2.9375 -6.6875zm3.875 -16.625q0 5.453125 2.15625 7.953125q2.171875 2.5 5.421875 2.5q3.234375 0 5.421875 -2.484375q2.1875 -2.5 2.1875 -7.8125q0 -5.078125 -2.25 -7.65625q-2.25 -2.578125 -5.4375 -2.578125q-3.125 0 -5.3125 2.546875q-2.1875 2.53125 -2.1875 7.53125zm35.424194 4.921875q-0.03125 -0.9375 -0.03125 -1.40625q0 -2.75 0.78125 -4.765625q0.578125 -1.5 1.84375 -3.046875q0.9375 -1.109375 3.375 -3.25q2.4375 -2.15625 3.15625 -3.4375q0.734375 -1.28125 0.734375 -2.78125q0 -2.734375 -2.140625 -4.796875q-2.125 -2.078125 -5.21875 -2.078125q-3.0 0 -5.015625 1.875q-2.0 1.875 -2.625 5.859375l-4.8125 -0.578125q0.65625 -5.328125 3.859375 -8.171875q3.21875 -2.84375 8.515625 -2.84375q5.59375 0 8.921875 3.046875q3.328125 3.046875 3.328125 7.375q0 2.5 -1.171875 4.609375q-1.15625 2.109375 -4.578125 5.125q-2.28125 2.03125 -2.984375 3.0q-0.703125 0.953125 -1.046875 2.203125q-0.34375 1.25 -0.390625 4.0625l-4.5 0zm-0.296875 9.40625l0 -5.34375l5.34375 0l0 5.34375l-5.34375 0z" fill-rule="nonzero"/><g id="a11y-dsl_b19" role="img" aria-label="No tech work from you.&#xa;Review the site.&#xa;Tell us what to change.&#xa;" tabindex="0"><path fill="#000000" fill-opacity="0.0" d="m106.666664 313.33334l0 193.32281l746.6771 0l0 -193.32281z" fill-rule="nonzero"/></g><path fill="#000000" fill-opacity="0.0" d="m106.666664 313.33334l746.6771 0l0 193.32281l-746.6771 0z" fill-rule="evenodd"/><path fill="#000000" d="m311.20905 354.33334l0 -23.859375l3.25 0l12.53125 18.734375l0 -18.734375l3.015625 0l0 23.859375l-3.234375 0l-12.53125 -18.75l0 18.75l-3.03125 0zm22.646637 -8.640625q0 -4.796875 2.671875 -7.109375q2.21875 -1.921875 5.421875 -1.921875q3.578125 0 5.828125 2.34375q2.265625 2.328125 2.265625 6.4375q0 3.34375 -1.0 5.265625q-1.0 1.90625 -2.921875 2.96875q-1.90625 1.046875 -4.171875 1.046875q-3.625 0 -5.859375 -2.328125q-2.234375 -2.328125 -2.234375 -6.703125zm3.015625 0q0 3.3125 1.4375 4.96875q1.453125 1.65625 3.640625 1.65625q2.1875 0 3.625 -1.65625q1.453125 -1.671875 1.453125 -5.0625q0 -3.203125 -1.453125 -4.859375q-1.453125 -1.65625 -3.625 -1.65625q-2.1875 0 -3.640625 1.640625q-1.4375 1.640625 -1.4375 4.96875zm32.263916 6.015625l0.421875 2.59375q-1.234375 0.265625 -2.21875 0.265625q-1.59375 0 -2.46875 -0.5q-0.875 -0.515625 -1.234375 -1.328125q-0.359375 -0.828125 -0.359375 -3.46875l0 -9.9375l-2.15625 0l0 -2.28125l2.15625 0l0 -4.28125l2.90625 -1.75l0 6.03125l2.953125 0l0 2.28125l-2.953125 0l0 10.109375q0 1.25 0.15625 1.609375q0.15625 0.359375 0.5 0.578125q0.359375 0.203125 1.015625 0.203125q0.484375 0 1.28125 -0.125zm14.697113 -2.9375l3.015625 0.375q-0.703125 2.65625 -2.640625 4.125q-1.9375 1.453125 -4.953125 1.453125q-3.796875 0 -6.015625 -2.328125q-2.21875 -2.34375 -2.21875 -6.5625q0 -4.359375 2.25 -6.765625q2.25 -2.40625 5.828125 -2.40625q3.46875 0 5.65625 2.359375q2.203125 2.359375 2.203125 6.640625q0 0.265625 -0.015625 0.78125l-12.890625 0q0.15625 2.84375 1.609375 4.359375q1.453125 1.515625 3.609375 1.515625q1.609375 0 2.75 -0.84375q1.140625 -0.84375 1.8125 -2.703125zm-9.625 -4.734375l9.65625 0q-0.203125 -2.1875 -1.109375 -3.28125q-1.40625 -1.6875 -3.625 -1.6875q-2.015625 0 -3.390625 1.359375q-1.375 1.34375 -1.53125 3.609375zm27.598022 3.96875l2.890625 0.375q-0.46875 2.96875 -2.421875 4.65625q-1.9375 1.6875 -4.78125 1.6875q-3.546875 0 -5.703125 -2.3125q-2.15625 -2.328125 -2.15625 -6.65625q0 -2.796875 0.921875 -4.890625q0.9375 -2.109375 2.828125 -3.15625q1.90625 -1.046875 4.125 -1.046875q2.828125 0 4.609375 1.421875q1.796875 1.421875 2.296875 4.046875l-2.84375 0.4375q-0.40625 -1.734375 -1.453125 -2.609375q-1.03125 -0.890625 -2.484375 -0.890625q-2.21875 0 -3.609375 1.59375q-1.375 1.578125 -1.375 5.015625q0 3.484375 1.328125 5.0625q1.34375 1.578125 3.484375 1.578125q1.734375 0 2.890625 -1.0625q1.15625 -1.0625 1.453125 -3.25zm5.3984375 6.328125l0 -23.859375l2.921875 0l0 8.5625q2.046875 -2.375 5.171875 -2.375q1.921875 0 3.328125 0.765625q1.421875 0.75 2.03125 2.09375q0.625 1.328125 0.625 3.859375l0 10.953125l-2.9375 0l0 -10.953125q0 -2.203125 -0.953125 -3.203125q-0.953125 -1.0 -2.6875 -1.0q-1.3125 0 -2.453125 0.6875q-1.140625 0.671875 -1.640625 1.828125q-0.484375 1.15625 -0.484375 3.1875l0 9.453125l-2.921875 0zm30.982635 0l-5.296875 -17.28125l3.03125 0l2.75 9.96875l1.03125 3.71875q0.0625 -0.28125 0.890625 -3.5625l2.75 -10.125l3.015625 0l2.578125 10.015625l0.859375 3.3125l1.0 -3.34375l2.953125 -9.984375l2.859375 0l-5.40625 17.28125l-3.046875 0l-2.75 -10.34375l-0.671875 -2.953125l-3.484375 13.296875l-3.0625 0zm19.787292 -8.640625q0 -4.796875 2.671875 -7.109375q2.21875 -1.921875 5.421875 -1.921875q3.578125 0 5.828125 2.34375q2.265625 2.328125 2.265625 6.4375q0 3.34375 -1.0 5.265625q-1.0 1.90625 -2.921875 2.96875q-1.90625 1.046875 -4.171875 1.046875q-3.625 0 -5.859375 -2.328125q-2.234375 -2.328125 -2.234375 -6.703125zm3.015625 0q0 3.3125 1.4375 4.96875q1.453125 1.65625 3.640625 1.65625q2.1875 0 3.625 -1.65625q1.453125 -1.671875 1.453125 -5.0625q0 -3.203125 -1.453125 -4.859375q-1.453125 -1.65625 -3.625 -1.65625q-2.1875 0 -3.640625 1.640625q-1.4375 1.640625 -1.4375 4.96875zm16.582397 8.640625l0 -17.28125l2.625 0l0 2.625q1.015625 -1.84375 1.859375 -2.421875q0.859375 -0.59375 1.890625 -0.59375q1.484375 0 3.0 0.9375l-1.0 2.71875q-1.078125 -0.625 -2.15625 -0.625q-0.953125 0 -1.71875 0.578125q-0.765625 0.578125 -1.09375 1.59375q-0.484375 1.5625 -0.484375 3.421875l0 9.046875l-2.921875 0zm11.145386 0l0 -23.859375l2.921875 0l0 13.609375l6.9375 -7.03125l3.78125 0l-6.59375 6.40625l7.265625 10.875l-3.609375 0l-5.71875 -8.84375l-2.0625 2.0l0 6.84375l-2.921875 0zm26.595612 0l0 -15.0l-2.578125 0l0 -2.28125l2.578125 0l0 -1.84375q0 -1.734375 0.3125 -2.578125q0.421875 -1.140625 1.484375 -1.84375q1.078125 -0.71875 3.0 -0.71875q1.234375 0 2.734375 0.296875l-0.453125 2.546875q-0.90625 -0.15625 -1.71875 -0.15625q-1.328125 0 -1.890625 0.578125q-0.546875 0.5625 -0.546875 2.125l0 1.59375l3.359375 0l0 2.28125l-3.359375 0l0 15.0l-2.921875 0zm8.5408325 0l0 -17.28125l2.625 0l0 2.625q1.015625 -1.84375 1.859375 -2.421875q0.859375 -0.59375 1.890625 -0.59375q1.484375 0 3.0 0.9375l-1.0 2.71875q-1.078125 -0.625 -2.15625 -0.625q-0.953125 0 -1.71875 0.578125q-0.765625 0.578125 -1.09375 1.59375q-0.484375 1.5625 -0.484375 3.421875l0 9.046875l-2.921875 0zm10.036072 -8.640625q0 -4.796875 2.671875 -7.109375q2.21875 -1.921875 5.421875 -1.921875q3.578125 0 5.828125 2.34375q2.265625 2.328125 2.265625 6.4375q0 3.34375 -1.0 5.265625q-1.0 1.90625 -2.921875 2.96875q-1.90625 1.046875 -4.171875 1.046875q-3.625 0 -5.859375 -2.328125q-2.234375 -2.328125 -2.234375 -6.703125zm3.015625 0q0 3.3125 1.4375 4.96875q1.453125 1.65625 3.640625 1.65625q2.1875 0 3.625 -1.65625q1.453125 -1.671875 1.453125 -5.0625q0 -3.203125 -1.453125 -4.859375q-1.453125 -1.65625 -3.625 -1.65625q-2.1875 0 -3.640625 1.640625q-1.4375 1.640625 -1.4375 4.96875zm16.613647 8.640625l0 -17.28125l2.609375 0l0 2.421875q0.8125 -1.265625 2.15625 -2.03125q1.359375 -0.78125 3.09375 -0.78125q1.921875 0 3.140625 0.796875q1.234375 0.796875 1.734375 2.234375q2.046875 -3.03125 5.34375 -3.03125q2.5625 0 3.9375 1.421875q1.390625 1.421875 1.390625 4.390625l0 11.859375l-2.90625 0l0 -10.890625q0 -1.75 -0.296875 -2.515625q-0.28125 -0.78125 -1.03125 -1.25q-0.734375 -0.484375 -1.75 -0.484375q-1.828125 0 -3.03125 1.21875q-1.203125 1.21875 -1.203125 3.875l0 10.046875l-2.921875 0l0 -11.234375q0 -1.953125 -0.71875 -2.921875q-0.71875 -0.984375 -2.34375 -0.984375q-1.234375 0 -2.296875 0.65625q-1.046875 0.65625 -1.515625 1.90625q-0.46875 1.25 -0.46875 3.609375l0 8.96875l-2.921875 0zm36.88153 6.65625l-0.328125 -2.75q0.96875 0.265625 1.6875 0.265625q0.96875 0 1.546875 -0.328125q0.59375 -0.328125 0.96875 -0.921875q0.28125 -0.4375 0.890625 -2.171875q0.09375 -0.25 0.265625 -0.71875l-6.5625 -17.3125l3.15625 0l3.609375 10.0q0.6875 1.90625 1.25 4.015625q0.5 -2.015625 1.203125 -3.9375l3.6875 -10.078125l2.9375 0l-6.578125 17.578125q-1.0625 2.84375 -1.640625 3.921875q-0.78125 1.4375 -1.796875 2.109375q-1.0 0.6875 -2.40625 0.6875q-0.84375 0 -1.890625 -0.359375zm15.7109375 -15.296875q0 -4.796875 2.671875 -7.109375q2.21875 -1.921875 5.421875 -1.921875q3.578125 0 5.828125 2.34375q2.265625 2.328125 2.265625 6.4375q0 3.34375 -1.0 5.265625q-1.0 1.90625 -2.921875 2.96875q-1.90625 1.046875 -4.171875 1.046875q-3.625 0 -5.859375 -2.328125q-2.234375 -2.328125 -2.234375 -6.703125zm3.015625 0q0 3.3125 1.4375 4.96875q1.453125 1.65625 3.640625 1.65625q2.1875 0 3.625 -1.65625q1.453125 -1.671875 1.453125 -5.0625q0 -3.203125 -1.453125 -4.859375q-1.453125 -1.65625 -3.625 -1.65625q-2.1875 0 -3.640625 1.640625q-1.4375 1.640625 -1.4375 4.96875zm27.926147 8.640625l0 -2.53125q-2.015625 2.921875 -5.46875 2.921875q-1.53125 0 -2.859375 -0.578125q-1.328125 -0.59375 -1.96875 -1.484375q-0.640625 -0.890625 -0.90625 -2.171875q-0.1875 -0.859375 -0.1875 -2.734375l0 -10.703125l2.9375 0l0 9.578125q0 2.296875 0.171875 3.09375q0.28125 1.15625 1.171875 1.828125q0.90625 0.65625 2.21875 0.65625q1.3125 0 2.46875 -0.671875q1.15625 -0.6875 1.640625 -1.84375q0.484375 -1.171875 0.484375 -3.375l0 -9.265625l2.921875 0l0 17.28125l-2.625 0zm8.051147 0l0 -3.34375l3.328125 0l0 3.34375l-3.328125 0z" fill-rule="nonzero"/><path fill="#000000" d="m365.00534 394.33334l0 -23.859375l10.578125 0q3.1875 0 4.84375 0.640625q1.65625 0.640625 2.640625 2.28125q1.0 1.625 1.0 3.59375q0 2.53125 -1.640625 4.28125q-1.640625 1.734375 -5.078125 2.203125q1.25 0.609375 1.90625 1.1875q1.390625 1.28125 2.625 3.171875l4.140625 6.5l-3.96875 0l-3.15625 -4.96875q-1.375 -2.140625 -2.28125 -3.28125q-0.890625 -1.140625 -1.609375 -1.59375q-0.703125 -0.453125 -1.421875 -0.640625q-0.546875 -0.109375 -1.765625 -0.109375l-3.65625 0l0 10.59375l-3.15625 0zm3.15625 -13.328125l6.78125 0q2.171875 0 3.390625 -0.4375q1.21875 -0.453125 1.84375 -1.4375q0.640625 -0.984375 0.640625 -2.140625q0 -1.703125 -1.234375 -2.78125q-1.21875 -1.09375 -3.875 -1.09375l-7.546875 0l0 7.890625zm32.318512 7.765625l3.015625 0.375q-0.703125 2.65625 -2.640625 4.125q-1.9375 1.453125 -4.953125 1.453125q-3.796875 0 -6.015625 -2.328125q-2.21875 -2.34375 -2.21875 -6.5625q0 -4.359375 2.25 -6.765625q2.25 -2.40625 5.828125 -2.40625q3.46875 0 5.65625 2.359375q2.203125 2.359375 2.203125 6.640625q0 0.265625 -0.015625 0.78125l-12.890625 0q0.15625 2.84375 1.609375 4.359375q1.453125 1.515625 3.609375 1.515625q1.609375 0 2.75 -0.84375q1.140625 -0.84375 1.8125 -2.703125zm-9.625 -4.734375l9.65625 0q-0.203125 -2.1875 -1.109375 -3.28125q-1.40625 -1.6875 -3.625 -1.6875q-2.015625 0 -3.390625 1.359375q-1.375 1.34375 -1.53125 3.609375zm21.129272 10.296875l-6.578125 -17.28125l3.09375 0l3.703125 10.34375q0.609375 1.6875 1.109375 3.484375q0.390625 -1.359375 1.09375 -3.28125l3.84375 -10.546875l3.015625 0l-6.546875 17.28125l-2.734375 0zm11.8828125 -20.484375l0 -3.375l2.921875 0l0 3.375l-2.921875 0zm0 20.484375l0 -17.28125l2.921875 0l0 17.28125l-2.921875 0zm19.21695 -5.5625l3.015625 0.375q-0.703125 2.65625 -2.640625 4.125q-1.9375 1.453125 -4.953125 1.453125q-3.796875 0 -6.015625 -2.328125q-2.21875 -2.34375 -2.21875 -6.5625q0 -4.359375 2.25 -6.765625q2.25 -2.40625 5.828125 -2.40625q3.46875 0 5.65625 2.359375q2.203125 2.359375 2.203125 6.640625q0 0.265625 -0.015625 0.78125l-12.890625 0q0.15625 2.84375 1.609375 4.359375q1.453125 1.515625 3.609375 1.515625q1.609375 0 2.75 -0.84375q1.140625 -0.84375 1.8125 -2.703125zm-9.625 -4.734375l9.65625 0q-0.203125 -2.1875 -1.109375 -3.28125q-1.40625 -1.6875 -3.625 -1.6875q-2.015625 0 -3.390625 1.359375q-1.375 1.34375 -1.53125 3.609375zm19.519897 10.296875l-5.296875 -17.28125l3.03125 0l2.75 9.96875l1.03125 3.71875q0.0625 -0.28125 0.890625 -3.5625l2.75 -10.125l3.015625 0l2.578125 10.015625l0.859375 3.3125l1.0 -3.34375l2.953125 -9.984375l2.859375 0l-5.40625 17.28125l-3.046875 0l-2.75 -10.34375l-0.671875 -2.953125l-3.484375 13.296875l-3.0625 0zm36.53125 -2.625l0.421875 2.59375q-1.234375 0.265625 -2.21875 0.265625q-1.59375 0 -2.46875 -0.5q-0.875 -0.515625 -1.234375 -1.328125q-0.359375 -0.828125 -0.359375 -3.46875l0 -9.9375l-2.15625 0l0 -2.28125l2.15625 0l0 -4.28125l2.90625 -1.75l0 6.03125l2.953125 0l0 2.28125l-2.953125 0l0 10.109375q0 1.25 0.15625 1.609375q0.15625 0.359375 0.5 0.578125q0.359375 0.203125 1.015625 0.203125q0.484375 0 1.28125 -0.125zm2.8690186 2.625l0 -23.859375l2.921875 0l0 8.5625q2.046875 -2.375 5.171875 -2.375q1.921875 0 3.328125 0.765625q1.421875 0.75 2.03125 2.09375q0.625 1.328125 0.625 3.859375l0 10.953125l-2.9375 0l0 -10.953125q0 -2.203125 -0.953125 -3.203125q-0.953125 -1.0 -2.6875 -1.0q-1.3125 0 -2.453125 0.6875q-1.140625 0.671875 -1.640625 1.828125q-0.484375 1.15625 -0.484375 3.1875l0 9.453125l-2.921875 0zm30.363678 -5.5625l3.015625 0.375q-0.703125 2.65625 -2.640625 4.125q-1.9375 1.453125 -4.953125 1.453125q-3.796875 0 -6.015625 -2.328125q-2.2187805 -2.34375 -2.2187805 -6.5625q0 -4.359375 2.2500305 -6.765625q2.25 -2.40625 5.828125 -2.40625q3.46875 0 5.65625 2.359375q2.203125 2.359375 2.203125 6.640625q0 0.265625 -0.015625 0.78125l-12.890625 0q0.15625 2.84375 1.609375 4.359375q1.453125 1.515625 3.609375 1.515625q1.609375 0 2.75 -0.84375q1.140625 -0.84375 1.8125 -2.703125zm-9.625 -4.734375l9.65625 0q-0.203125 -2.1875 -1.109375 -3.28125q-1.40625 -1.6875 -3.625 -1.6875q-2.015625 0 -3.390625 1.359375q-1.375 1.34375 -1.53125 3.609375zm24.420166 5.140625l2.890625 -0.453125q0.25 1.734375 1.359375 2.671875q1.109375 0.921875 3.109375 0.921875q2.03125 0 3.0 -0.8125q0.984375 -0.828125 0.984375 -1.9375q0 -1.0 -0.875 -1.5625q-0.59375 -0.390625 -2.984375 -1.0q-3.234375 -0.8125 -4.484375 -1.40625q-1.234375 -0.59375 -1.875 -1.640625q-0.640625 -1.046875 -0.640625 -2.3125q0 -1.15625 0.53125 -2.140625q0.53125 -0.984375 1.4375 -1.640625q0.6875 -0.5 1.859375 -0.84375q1.1875 -0.359375 2.53125 -0.359375q2.03125 0 3.5625 0.59375q1.546875 0.578125 2.28125 1.578125q0.734375 1.0 1.015625 2.671875l-2.875 0.390625q-0.1875 -1.328125 -1.125 -2.078125q-0.9375 -0.75 -2.640625 -0.75q-2.03125 0 -2.890625 0.671875q-0.859375 0.65625 -0.859375 1.5625q0 0.5625 0.359375 1.015625q0.359375 0.484375 1.125 0.78125q0.4375 0.171875 2.578125 0.75q3.109375 0.828125 4.34375 1.359375q1.234375 0.53125 1.921875 1.546875q0.703125 1.0 0.703125 2.5q0 1.46875 -0.859375 2.765625q-0.84375 1.28125 -2.453125 2.0q-1.609375 0.703125 -3.65625 0.703125q-3.359375 0 -5.125 -1.390625q-1.765625 -1.40625 -2.25 -4.15625zm17.851562 -15.328125l0 -3.375l2.921875 0l0 3.375l-2.921875 0zm0 20.484375l0 -17.28125l2.921875 0l0 17.28125l-2.921875 0zm13.779419 -2.625l0.421875 2.59375q-1.234375 0.265625 -2.21875 0.265625q-1.59375 0 -2.46875 -0.5q-0.875 -0.515625 -1.234375 -1.328125q-0.359375 -0.828125 -0.359375 -3.46875l0 -9.9375l-2.15625 0l0 -2.28125l2.15625 0l0 -4.28125l2.90625 -1.75l0 6.03125l2.953125 0l0 2.28125l-2.953125 0l0 10.109375q0 1.25 0.15625 1.609375q0.15625 0.359375 0.5 0.578125q0.359375 0.203125 1.015625 0.203125q0.484375 0 1.28125 -0.125zm14.697144 -2.9375l3.015625 0.375q-0.703125 2.65625 -2.640625 4.125q-1.9375 1.453125 -4.953125 1.453125q-3.796875 0 -6.015625 -2.328125q-2.21875 -2.34375 -2.21875 -6.5625q0 -4.359375 2.25 -6.765625q2.25 -2.40625 5.828125 -2.40625q3.46875 0 5.65625 2.359375q2.203125 2.359375 2.203125 6.640625q0 0.265625 -0.015625 0.78125l-12.890625 0q0.15625 2.84375 1.609375 4.359375q1.453125 1.515625 3.609375 1.515625q1.609375 0 2.75 -0.84375q1.140625 -0.84375 1.8125 -2.703125zm-9.625 -4.734375l9.65625 0q-0.203125 -2.1875 -1.109375 -3.28125q-1.40625 -1.6875 -3.625 -1.6875q-2.015625 0 -3.390625 1.359375q-1.375 1.34375 -1.53125 3.609375zm17.160522 10.296875l0 -3.34375l3.328125 0l0 3.34375l-3.328125 0z" fill-rule="nonzero"/><path fill="#000000" d="m319.12503 434.33334l0 -21.046875l-7.859375 0l0 -2.8125l18.90625 0l0 2.8125l-7.890625 0l0 21.046875l-3.15625 0zm22.054138 -5.5625l3.015625 0.375q-0.703125 2.65625 -2.640625 4.125q-1.9375 1.453125 -4.953125 1.453125q-3.796875 0 -6.015625 -2.328125q-2.21875 -2.34375 -2.21875 -6.5625q0 -4.359375 2.25 -6.765625q2.25 -2.40625 5.828125 -2.40625q3.46875 0 5.65625 2.359375q2.203125 2.359375 2.203125 6.640625q0 0.265625 -0.015625 0.78125l-12.890625 0q0.15625 2.84375 1.609375 4.359375q1.453125 1.515625 3.609375 1.515625q1.609375 0 2.75 -0.84375q1.140625 -0.84375 1.8125 -2.703125zm-9.625 -4.734375l9.65625 0q-0.203125 -2.1875 -1.109375 -3.28125q-1.40625 -1.6875 -3.625 -1.6875q-2.015625 0 -3.390625 1.359375q-1.375 1.34375 -1.53125 3.609375zm16.254272 10.296875l0 -23.859375l2.9375 0l0 23.859375l-2.9375 0zm7.4044495 0l0 -23.859375l2.9375 0l0 23.859375l-2.9375 0zm28.054688 0l0 -2.53125q-2.015625 2.921875 -5.46875 2.921875q-1.53125 0 -2.859375 -0.578125q-1.328125 -0.59375 -1.96875 -1.484375q-0.640625 -0.890625 -0.90625 -2.171875q-0.1875 -0.859375 -0.1875 -2.734375l0 -10.703125l2.9375 0l0 9.578125q0 2.296875 0.171875 3.09375q0.28125 1.15625 1.171875 1.828125q0.90625 0.65625 2.21875 0.65625q1.3125 0 2.46875 -0.671875q1.15625 -0.6875 1.640625 -1.84375q0.484375 -1.171875 0.484375 -3.375l0 -9.265625l2.921875 0l0 17.28125l-2.625 0zm6.0511475 -5.15625l2.890625 -0.453125q0.25 1.734375 1.359375 2.671875q1.109375 0.921875 3.109375 0.921875q2.03125 0 3.0 -0.8125q0.984375 -0.828125 0.984375 -1.9375q0 -1.0 -0.875 -1.5625q-0.59375 -0.390625 -2.984375 -1.0q-3.234375 -0.8125 -4.484375 -1.40625q-1.234375 -0.59375 -1.875 -1.640625q-0.640625 -1.046875 -0.640625 -2.3125q0 -1.15625 0.53125 -2.140625q0.53125 -0.984375 1.4375 -1.640625q0.6875 -0.5 1.859375 -0.84375q1.1875 -0.359375 2.53125 -0.359375q2.03125 0 3.5625 0.59375q1.546875 0.578125 2.28125 1.578125q0.734375 1.0 1.015625 2.671875l-2.875 0.390625q-0.1875 -1.328125 -1.125 -2.078125q-0.9375 -0.75 -2.640625 -0.75q-2.03125 0 -2.890625 0.671875q-0.859375 0.65625 -0.859375 1.5625q0 0.5625 0.359375 1.015625q0.359375 0.484375 1.125 0.78125q0.4375 0.171875 2.578125 0.75q3.109375 0.828125 4.34375 1.359375q1.234375 0.53125 1.921875 1.546875q0.703125 1.0 0.703125 2.5q0 1.46875 -0.859375 2.765625q-0.84375 1.28125 -2.453125 2.0q-1.609375 0.703125 -3.65625 0.703125q-3.359375 0 -5.125 -1.390625q-1.765625 -1.40625 -2.25 -4.15625zm30.28305 5.15625l-5.296875 -17.28125l3.03125 0l2.75 9.96875l1.03125 3.71875q0.0625 -0.28125 0.890625 -3.5625l2.75 -10.125l3.015625 0l2.578125 10.015625l0.859375 3.3125l1.0 -3.34375l2.953125 -9.984375l2.859375 0l-5.40625 17.28125l-3.046875 0l-2.75 -10.34375l-0.671875 -2.953125l-3.484375 13.296875l-3.0625 0zm20.881042 0l0 -23.859375l2.921875 0l0 8.5625q2.046875 -2.375 5.171875 -2.375q1.921875 0 3.328125 0.765625q1.421875 0.75 2.03125 2.09375q0.625 1.328125 0.625 3.859375l0 10.953125l-2.9375 0l0 -10.953125q0 -2.203125 -0.953125 -3.203125q-0.953125 -1.0 -2.6875 -1.0q-1.3125 0 -2.453125 0.6875q-1.140625 0.671875 -1.640625 1.828125q-0.484375 1.15625 -0.484375 3.1875l0 9.453125l-2.921875 0zm29.801147 -2.125q-1.625 1.375 -3.125 1.953125q-1.5 0.5625 -3.234375 0.5625q-2.84375 0 -4.375 -1.390625q-1.53125 -1.390625 -1.53125 -3.5625q0 -1.265625 0.578125 -2.3125q0.578125 -1.046875 1.515625 -1.671875q0.9375 -0.640625 2.109375 -0.96875q0.859375 -0.234375 2.59375 -0.4375q3.546875 -0.421875 5.234375 -1.015625q0.015625 -0.609375 0.015625 -0.765625q0 -1.78125 -0.828125 -2.515625q-1.125 -1.0 -3.34375 -1.0q-2.0625 0 -3.046875 0.734375q-0.984375 0.71875 -1.453125 2.546875l-2.875 -0.390625q0.390625 -1.828125 1.28125 -2.953125q0.90625 -1.140625 2.59375 -1.75q1.703125 -0.609375 3.921875 -0.609375q2.21875 0 3.59375 0.53125q1.390625 0.515625 2.03125 1.3125q0.65625 0.78125 0.921875 1.984375q0.140625 0.75 0.140625 2.703125l0 3.90625q0 4.078125 0.1875 5.15625q0.1875 1.078125 0.75 2.078125l-3.0625 0q-0.453125 -0.90625 -0.59375 -2.125zm-0.234375 -6.546875q-1.59375 0.65625 -4.78125 1.109375q-1.8125 0.25 -2.5625 0.578125q-0.75 0.328125 -1.15625 0.953125q-0.40625 0.625 -0.40625 1.390625q0 1.171875 0.890625 1.953125q0.890625 0.78125 2.59375 0.78125q1.6875 0 3.0 -0.734375q1.328125 -0.75 1.953125 -2.03125q0.46875 -0.984375 0.46875 -2.921875l0 -1.078125zm13.894897 6.046875l0.421875 2.59375q-1.234375 0.265625 -2.21875 0.265625q-1.59375 0 -2.46875 -0.5q-0.875 -0.515625 -1.234375 -1.328125q-0.359375 -0.828125 -0.359375 -3.46875l0 -9.9375l-2.15625 0l0 -2.28125l2.15625 0l0 -4.28125l2.90625 -1.75l0 6.03125l2.953125 0l0 2.28125l-2.953125 0l0 10.109375q0 1.25 0.15625 1.609375q0.15625 0.359375 0.5 0.578125q0.359375 0.203125 1.015625 0.203125q0.484375 0 1.28125 -0.125zm18.519226 0l0.421875 2.59375q-1.234375 0.265625 -2.21875 0.265625q-1.59375 0 -2.46875 -0.5q-0.875 -0.515625 -1.234375 -1.328125q-0.359375 -0.828125 -0.359375 -3.46875l0 -9.9375l-2.15625 0l0 -2.28125l2.15625 0l0 -4.28125l2.90625 -1.75l0 6.03125l2.953125 0l0 2.28125l-2.953125 0l0 10.109375q0 1.25 0.15625 1.609375q0.15625 0.359375 0.5 0.578125q0.359375 0.203125 1.015625 0.203125q0.484375 0 1.28125 -0.125zm1.7752686 -6.015625q0 -4.796875 2.671875 -7.109375q2.21875 -1.921875 5.4219055 -1.921875q3.578125 0 5.828125 2.34375q2.265625 2.328125 2.265625 6.4375q0 3.34375 -1.0 5.265625q-1.0 1.90625 -2.921875 2.96875q-1.90625 1.046875 -4.171875 1.046875q-3.6250305 0 -5.8594055 -2.328125q-2.234375 -2.328125 -2.234375 -6.703125zm3.015625 0q0 3.3125 1.4375 4.96875q1.453125 1.65625 3.6406555 1.65625q2.1875 0 3.625 -1.65625q1.453125 -1.671875 1.453125 -5.0625q0 -3.203125 -1.453125 -4.859375q-1.453125 -1.65625 -3.625 -1.65625q-2.1875305 0 -3.6406555 1.640625q-1.4375 1.640625 -1.4375 4.96875zm37.138947 2.3125l2.890625 0.375q-0.46875 2.96875 -2.421875 4.65625q-1.9375 1.6875 -4.78125 1.6875q-3.546875 0 -5.703125 -2.3125q-2.15625 -2.328125 -2.15625 -6.65625q0 -2.796875 0.921875 -4.890625q0.9375 -2.109375 2.828125 -3.15625q1.90625 -1.046875 4.125 -1.046875q2.828125 0 4.609375 1.421875q1.796875 1.421875 2.296875 4.046875l-2.84375 0.4375q-0.40625 -1.734375 -1.453125 -2.609375q-1.03125 -0.890625 -2.484375 -0.890625q-2.21875 0 -3.609375 1.59375q-1.375 1.578125 -1.375 5.015625q0 3.484375 1.328125 5.0625q1.34375 1.578125 3.484375 1.578125q1.734375 0 2.890625 -1.0625q1.15625 -1.0625 1.453125 -3.25zm5.3984375 6.328125l0 -23.859375l2.921875 0l0 8.5625q2.046875 -2.375 5.171875 -2.375q1.921875 0 3.328125 0.765625q1.421875 0.75 2.03125 2.09375q0.625 1.328125 0.625 3.859375l0 10.953125l-2.9375 0l0 -10.953125q0 -2.203125 -0.953125 -3.203125q-0.953125 -1.0 -2.6875 -1.0q-1.3125 0 -2.453125 0.6875q-1.140625 0.671875 -1.640625 1.828125q-0.484375 1.15625 -0.484375 3.1875l0 9.453125l-2.921875 0zm29.801147 -2.125q-1.625 1.375 -3.125 1.953125q-1.5 0.5625 -3.234375 0.5625q-2.84375 0 -4.375 -1.390625q-1.53125 -1.390625 -1.53125 -3.5625q0 -1.265625 0.578125 -2.3125q0.578125 -1.046875 1.515625 -1.671875q0.9375 -0.640625 2.109375 -0.96875q0.859375 -0.234375 2.59375 -0.4375q3.546875 -0.421875 5.234375 -1.015625q0.015625 -0.609375 0.015625 -0.765625q0 -1.78125 -0.828125 -2.515625q-1.125 -1.0 -3.34375 -1.0q-2.0625 0 -3.046875 0.734375q-0.984375 0.71875 -1.453125 2.546875l-2.875 -0.390625q0.390625 -1.828125 1.28125 -2.953125q0.90625 -1.140625 2.59375 -1.75q1.703125 -0.609375 3.921875 -0.609375q2.21875 0 3.59375 0.53125q1.390625 0.515625 2.03125 1.3125q0.65625 0.78125 0.921875 1.984375q0.140625 0.75 0.140625 2.703125l0 3.90625q0 4.078125 0.1875 5.15625q0.1875 1.078125 0.75 2.078125l-3.0625 0q-0.453125 -0.90625 -0.59375 -2.125zm-0.234375 -6.546875q-1.59375 0.65625 -4.78125 1.109375q-1.8125 0.25 -2.5625 0.578125q-0.75 0.328125 -1.15625 0.953125q-0.40625 0.625 -0.40625 1.390625q0 1.171875 0.890625 1.953125q0.890625 0.78125 2.59375 0.78125q1.6875 0 3.0 -0.734375q1.328125 -0.75 1.953125 -2.03125q0.46875 -0.984375 0.46875 -2.921875l0 -1.078125zm7.5042725 8.671875l0 -17.28125l2.625 0l0 2.453125q1.90625 -2.84375 5.5 -2.84375q1.5625 0 2.875 0.5625q1.3125 0.5625 1.953125 1.46875q0.65625 0.90625 0.921875 2.171875q0.15625 0.8125 0.15625 2.84375l0 10.625l-2.921875 0l0 -10.515625q0 -1.78125 -0.34375 -2.671875q-0.34375 -0.890625 -1.21875 -1.421875q-0.859375 -0.53125 -2.03125 -0.53125q-1.875 0 -3.234375 1.1875q-1.359375 1.1875 -1.359375 4.515625l0 9.4375l-2.921875 0zm17.988647 1.4375l2.84375 0.421875q0.1875 1.3125 1.0 1.921875q1.09375 0.8125 2.984375 0.8125q2.03125 0 3.125 -0.8125q1.109375 -0.8125 1.5 -2.28125q0.234375 -0.890625 0.21875 -3.765625q-1.921875 2.265625 -4.78125 2.265625q-3.5625 0 -5.515625 -2.5625q-1.953125 -2.578125 -1.953125 -6.171875q0 -2.484375 0.890625 -4.5625q0.890625 -2.09375 2.59375 -3.234375q1.703125 -1.140625 4.0 -1.140625q3.0625 0 5.046875 2.46875l0 -2.078125l2.703125 0l0 14.9375q0 4.03125 -0.828125 5.71875q-0.828125 1.6875 -2.609375 2.65625q-1.78125 0.984375 -4.375 0.984375q-3.09375 0 -5.0 -1.390625q-1.90625 -1.390625 -1.84375 -4.1875zm2.421875 -10.390625q0 3.40625 1.34375 4.96875q1.359375 1.5625 3.390625 1.5625q2.03125 0 3.390625 -1.546875q1.375 -1.5625 1.375 -4.890625q0 -3.171875 -1.421875 -4.78125q-1.40625 -1.609375 -3.390625 -1.609375q-1.953125 0 -3.328125 1.59375q-1.359375 1.578125 -1.359375 4.703125zm28.488647 3.390625l3.015625 0.375q-0.703125 2.65625 -2.640625 4.125q-1.9375 1.453125 -4.953125 1.453125q-3.796875 0 -6.015625 -2.328125q-2.21875 -2.34375 -2.21875 -6.5625q0 -4.359375 2.25 -6.765625q2.25 -2.40625 5.828125 -2.40625q3.46875 0 5.65625 2.359375q2.203125 2.359375 2.203125 6.640625q0 0.265625 -0.015625 0.78125l-12.890625 0q0.15625 2.84375 1.609375 4.359375q1.453125 1.515625 3.609375 1.515625q1.609375 0 2.75 -0.84375q1.140625 -0.84375 1.8125 -2.703125zm-9.625 -4.734375l9.65625 0q-0.203125 -2.1875 -1.109375 -3.28125q-1.40625 -1.6875 -3.625 -1.6875q-2.015625 0 -3.390625 1.359375q-1.375 1.34375 -1.53125 3.609375zm17.160522 10.296875l0 -3.34375l3.328125 0l0 3.34375l-3.328125 0z" fill-rule="nonzero"/></g></g></svg>