<svg version="1.1" viewBox="0.0 0.0 960.0 540.0" fill="none" stroke="none" stroke-linecap="square" stroke-miterlimit="10" xmlns:xlink="http://www.w3.org/1999/xlink" xmlns="http://www.w3.org/2000/svg"><clipPath id="slide_04.0"><path d="m0 0l960.0 0l0 540.0l-960.0 0l0 -540.0z" clip-rule="nonzero"/></clipPath><g clip-path="url(#slide_04.0)"><g id="slide_04"><path fill="#ffffff" d="m0 0l960.0 0l0 540.0l-960.0 0l0 -540.0z" fill-rule="nonzero"/><path fill="#ffffff" d="m0 0l960.0 0l0 540.0l-960.0 0z" fill-rule="evenodd"/><g id="a11y-dsl_t04" role="img" aria-label="The promise is simple.&#xa;" tabindex="0"><path fill="#000000" fill-opacity="0.0" d="m80.0 126.666664l0 140.0l800.0 0l0 -140.0z" fill-rule="nonzero"/></g><path fill="#000000" fill-opacity="0.0" d="m80.0 126.666664l800.0 0l0 140.0l-800.0 0z" fill-rule="evenodd"/><path fill="#000000" d="m214.4336 189.42667l0 -35.359375l-13.203125 0l0 -4.734375l31.78125 0l0 4.734375l-13.265625 0l0 35.359375l-5.3125 0zm23.378906 0l0 -40.09375l4.921875 0l0 14.390625q3.453125 -4.0 8.703125 -4.0q3.21875 0 5.59375 1.28125q2.390625 1.265625 3.40625 3.515625q1.03125 2.234375 1.03125 6.5l0 18.40625l-4.921875 0l0 -18.40625q0 -3.6875 -1.609375 -5.359375q-1.59375 -1.6875 -4.515625 -1.6875q-2.1875 0 -4.125 1.140625q-1.921875 1.125 -2.75 3.0625q-0.8125 1.9375 -0.8125 5.359375l0 15.890625l-4.921875 0zm51.035156 -9.359375l5.078125 0.640625q-1.203125 4.453125 -4.453125 6.921875q-3.25 2.453125 -8.3125 2.453125q-6.375 0 -10.109375 -3.921875q-3.734375 -3.921875 -3.734375 -11.015625q0 -7.328125 3.765625 -11.375q3.78125 -4.046875 9.796875 -4.046875q5.828125 0 9.515625 3.96875q3.703125 3.96875 3.703125 11.15625q0 0.4375 -0.03125 1.3125l-21.65625 0q0.265625 4.78125 2.703125 7.328125q2.4375 2.546875 6.078125 2.546875q2.703125 0 4.609375 -1.421875q1.921875 -1.421875 3.046875 -4.546875zm-16.171875 -7.953125l16.21875 0q-0.328125 -3.65625 -1.859375 -5.5q-2.34375 -2.84375 -6.09375 -2.84375q-3.390625 0 -5.703125 2.28125q-2.3125 2.265625 -2.5625 6.0625zm42.984375 28.4375l0 -40.171875l4.484375 0l0 3.78125q1.59375 -2.21875 3.578125 -3.328125q2.0 -1.109375 4.84375 -1.109375q3.71875 0 6.5625 1.921875q2.84375 1.90625 4.296875 5.40625q1.453125 3.484375 1.453125 7.640625q0 4.453125 -1.609375 8.03125q-1.59375 3.5625 -4.640625 5.46875q-3.046875 1.890625 -6.40625 1.890625q-2.46875 0 -4.421875 -1.03125q-1.953125 -1.046875 -3.21875 -2.640625l0 14.140625l-4.921875 0zm4.46875 -25.484375q0 5.609375 2.265625 8.296875q2.265625 2.671875 5.5 2.671875q3.28125 0 5.609375 -2.765625q2.34375 -2.78125 2.34375 -8.609375q0 -5.546875 -2.28125 -8.3125q-2.28125 -2.765625 -5.453125 -2.765625q-3.15625 0 -5.578125 2.9375q-2.40625 2.9375 -2.40625 8.546875zm26.628906 14.359375l0 -29.046875l4.421875 0l0 4.40625q1.703125 -3.09375 3.140625 -4.078125q1.4375 -0.984375 3.15625 -0.984375q2.484375 0 5.0625 1.59375l-1.703125 4.5625q-1.796875 -1.0625 -3.609375 -1.0625q-1.609375 0 -2.90625 0.96875q-1.28125 0.96875 -1.828125 2.6875q-0.8125 2.625 -0.8125 5.75l0 15.203125l-4.921875 0zm16.867188 -14.515625q0 -8.078125 4.484375 -11.953125q3.75 -3.234375 9.140625 -3.234375q5.984375 0 9.78125 3.9375q3.796875 3.921875 3.796875 10.828125q0 5.609375 -1.6875 8.828125q-1.671875 3.203125 -4.890625 4.984375q-3.203125 1.78125 -7.0 1.78125q-6.109375 0 -9.875 -3.90625q-3.75 -3.921875 -3.75 -11.265625zm5.0625 0q0 5.578125 2.421875 8.359375q2.4375 2.765625 6.140625 2.765625q3.65625 0 6.09375 -2.78125q2.4375 -2.796875 2.4375 -8.515625q0 -5.390625 -2.453125 -8.15625q-2.453125 -2.78125 -6.078125 -2.78125q-3.703125 0 -6.140625 2.765625q-2.421875 2.765625 -2.421875 8.34375zm27.910156 14.515625l0 -29.046875l4.40625 0l0 4.078125q1.375 -2.125 3.640625 -3.421875q2.265625 -1.3125 5.171875 -1.3125q3.21875 0 5.28125 1.34375q2.0625 1.34375 2.921875 3.75q3.4375 -5.09375 8.96875 -5.09375q4.3125 0 6.640625 2.40625q2.328125 2.390625 2.328125 7.359375l0 19.9375l-4.90625 0l0 -18.296875q0 -2.953125 -0.484375 -4.25q-0.46875 -1.296875 -1.734375 -2.09375q-1.25 -0.796875 -2.9375 -0.796875q-3.0625 0 -5.09375 2.046875q-2.015625 2.03125 -2.015625 6.515625l0 16.875l-4.921875 0l0 -18.875q0 -3.28125 -1.203125 -4.921875q-1.203125 -1.640625 -3.9375 -1.640625q-2.078125 0 -3.84375 1.09375q-1.765625 1.09375 -2.5625 3.203125q-0.796875 2.109375 -0.796875 6.078125l0 15.0625l-4.921875 0zm46.679688 -34.421875l0 -5.671875l4.921875 0l0 5.671875l-4.921875 0zm0 34.421875l0 -29.046875l4.921875 0l0 29.046875l-4.921875 0zm10.441406 -8.671875l4.875 -0.765625q0.40625 2.921875 2.28125 4.484375q1.875 1.5625 5.234375 1.5625q3.390625 0 5.03125 -1.375q1.640625 -1.390625 1.640625 -3.25q0 -1.671875 -1.453125 -2.625q-1.0 -0.65625 -5.03125 -1.671875q-5.40625 -1.359375 -7.5 -2.359375q-2.09375 -1.0 -3.171875 -2.765625q-1.078125 -1.765625 -1.078125 -3.890625q0 -1.9375 0.890625 -3.59375q0.890625 -1.65625 2.421875 -2.75q1.140625 -0.84375 3.125 -1.4375q1.984375 -0.59375 4.25 -0.59375q3.421875 0 6.0 0.984375q2.59375 0.984375 3.8125 2.671875q1.234375 1.6875 1.703125 4.5l-4.8125 0.65625q-0.328125 -2.25 -1.90625 -3.5q-1.5625 -1.265625 -4.4375 -1.265625q-3.390625 0 -4.84375 1.125q-1.453125 1.125 -1.453125 2.625q0 0.953125 0.609375 1.71875q0.59375 0.796875 1.890625 1.3125q0.734375 0.28125 4.34375 1.265625q5.21875 1.390625 7.28125 2.28125q2.0625 0.890625 3.234375 2.59375q1.1875 1.6875 1.1875 4.203125q0 2.453125 -1.4375 4.640625q-1.4375 2.171875 -4.140625 3.359375q-2.703125 1.1875 -6.125 1.1875q-5.65625 0 -8.625 -2.34375q-2.96875 -2.359375 -3.796875 -6.984375zm49.859375 -0.6875l5.078125 0.640625q-1.203125 4.453125 -4.453125 6.921875q-3.25 2.453125 -8.3125 2.453125q-6.375 0 -10.109375 -3.921875q-3.734375 -3.921875 -3.734375 -11.015625q0 -7.328125 3.765625 -11.375q3.78125 -4.046875 9.796875 -4.046875q5.828125 0 9.515625 3.96875q3.703125 3.96875 3.703125 11.15625q0 0.4375 -0.03125 1.3125l-21.65625 0q0.265625 4.78125 2.703125 7.328125q2.4375 2.546875 6.078125 2.546875q2.703125 0 4.609375 -1.421875q1.921875 -1.421875 3.046875 -4.546875zm-16.171875 -7.953125l16.21875 0q-0.328125 -3.65625 -1.859375 -5.5q-2.34375 -2.84375 -6.09375 -2.84375q-3.390625 0 -5.703125 2.28125q-2.3125 2.265625 -2.5625 6.0625zm43.015625 -17.109375l0 -5.671875l4.921875 0l0 5.671875l-4.921875 0zm0 34.421875l0 -29.046875l4.921875 0l0 29.046875l-4.921875 0zm10.441406 -8.671875l4.875 -0.765625q0.40625 2.921875 2.28125 4.484375q1.875 1.5625 5.234375 1.5625q3.390625 0 5.03125 -1.375q1.640625 -1.390625 1.640625 -3.25q0 -1.671875 -1.453125 -2.625q-1.0 -0.65625 -5.03125 -1.671875q-5.40625 -1.359375 -7.5 -2.359375q-2.09375 -1.0 -3.171875 -2.765625q-1.078125 -1.765625 -1.078125 -3.890625q0 -1.9375 0.890625 -3.59375q0.890625 -1.65625 2.421875 -2.75q1.140625 -0.84375 3.125 -1.4375q1.984375 -0.59375 4.25 -0.59375q3.421875 0 6.0 0.984375q2.59375 0.984375 3.8125 2.671875q1.234375 1.6875 1.703125 4.5l-4.8125 0.65625q-0.328125 -2.25 -1.90625 -3.5q-1.5625 -1.265625 -4.4375 -1.265625q-3.390625 0 -4.84375 1.125q-1.453125 1.125 -1.453125 2.625q0 0.953125 0.609375 1.71875q0.59375 0.796875 1.890625 1.3125q0.734375 0.28125 4.34375 1.265625q5.21875 1.390625 7.28125 2.28125q2.0625 0.890625 3.234375 2.59375q1.1875 1.6875 1.1875 4.203125q0 2.453125 -1.4375 4.640625q-1.4375 2.171875 -4.140625 3.359375q-2.703125 1.1875 -6.125 1.1875q-5.65625 0 -8.625 -2.34375q-2.96875 -2.359375 -3.796875 -6.984375zm43.558594 0l4.875 -0.765625q0.40625 2.921875 2.28125 4.484375q1.875 1.5625 5.234375 1.5625q3.390625 0 5.03125 -1.375q1.640625 -1.390625 1.640625 -3.25q0 -1.671875 -1.453125 -2.625q-1.0 -0.65625 -5.03125 -1.671875q-5.40625 -1.359375 -7.5 -2.359375q-2.09375 -1.0 -3.171875 -2.765625q-1.078125 -1.765625 -1.078125 -3.890625q0 -1.9375 0.890625 -3.59375q0.890625 -1.65625 2.421875 -2.75q1.140625 -0.84375 3.125 -1.4375q1.984375 -0.59375 4.25 -0.59375q3.421875 0 6.0 0.984375q2.59375 0.984375 3.8125 2.671875q1.234375 1.6875 1.703125 4.5l-4.8125 0.65625q-0.328125 -2.25 -1.90625 -3.5q-1.5625 -1.265625 -4.4375 -1.265625q-3.390625 0 -4.84375 1.125q-1.453125 1.125 -1.453125 2.625q0 0.953125 0.609375 1.71875q0.59375 0.796875 1.890625 1.3125q0.734375 0.28125 4.34375 1.265625q5.21875 1.390625 7.28125 2.28125q2.0625 0.890625 3.234375 2.59375q1.1875 1.6875 1.1875 4.203125q0 2.453125 -1.4375 4.640625q-1.4375 2.171875 -4.140625 3.359375q-2.703125 1.1875 -6.125 1.1875q-5.65625 0 -8.625 -2.34375q-2.96875 -2.359375 -3.796875 -6.984375zm30.0 -25.75l0 -5.671875l4.921875 0l0 5.671875l-4.921875 0zm0 34.421875l0 -29.046875l4.921875 0l0 29.046875l-4.921875 0zm12.410156 0l0 -29.046875l4.40625 0l0 4.078125q1.375 -2.125 3.640625 -3.421875q2.265625 -1.3125 5.171875 -1.3125q3.21875 0 5.28125 1.34375q2.0625 1.34375 2.921875 3.75q3.4375 -5.09375 8.96875 -5.09375q4.3125 0 6.640625 2.40625q2.328125 2.390625 2.328125 7.359375l0 19.9375l-4.90625 0l0 -18.296875q0 -2.953125 -0.484375 -4.25q-0.46875 -1.296875 -1.734375 -2.09375q-1.25 -0.796875 -2.9375 -0.796875q-3.0625 0 -5.09375 2.046875q-2.015625 2.03125 -2.015625 6.515625l0 16.875l-4.921875 0l0 -18.875q0 -3.28125 -1.203125 -4.921875q-1.203125 -1.640625 -3.9375 -1.640625q-2.078125 0 -3.84375 1.09375q-1.765625 1.09375 -2.5625 3.203125q-0.796875 2.109375 -0.796875 6.078125l0 15.0625l-4.921875 0zm46.648438 11.125l0 -40.171875l4.484375 0l0 3.78125q1.59375 -2.21875 3.578125 -3.328125q2.0 -1.109375 4.84375 -1.109375q3.71875 0 6.5625 1.921875q2.84375 1.90625 4.296875 5.40625q1.453125 3.484375 1.453125 7.640625q0 4.453125 -1.609375 8.03125q-1.59375 3.5625 -4.640625 5.46875q-3.046875 1.890625 -6.40625 1.890625q-2.46875 0 -4.421875 -1.03125q-1.953125 -1.046875 -3.21875 -2.640625l0 14.140625l-4.921875 0zm4.46875 -25.484375q0 5.609375 2.265625 8.296875q2.265625 2.671875 5.5 2.671875q3.28125 0 5.609375 -2.765625q2.34375 -2.78125 2.34375 -8.609375q0 -5.546875 -2.28125 -8.3125q-2.28125 -2.765625 -5.453125 -2.765625q-3.15625 0 -5.578125 2.9375q-2.40625 2.9375 -2.40625 8.546875zm26.566406 14.359375l0 -40.09375l4.921875 0l0 40.09375l-4.921875 0zm32.441406 -9.359375l5.078125 0.640625q-1.203125 4.453125 -4.453125 6.921875q-3.25 2.453125 -8.3125 2.453125q-6.375 0 -10.109375 -3.921875q-3.734375 -3.921875 -3.734375 -11.015625q0 -7.328125 3.765625 -11.375q3.78125 -4.046875 9.796875 -4.046875q5.828125 0 9.515625 3.96875q3.703125 3.96875 3.703125 11.15625q0 0.4375 -0.03125 1.3125l-21.65625 0q0.265625 4.78125 2.703125 7.328125q2.4375 2.546875 6.078125 2.546875q2.703125 0 4.609375 -1.421875q1.921875 -1.421875 3.046875 -4.546875zm-16.171875 -7.953125l16.21875 0q-0.328125 -3.65625 -1.859375 -5.5q-2.34375 -2.84375 -6.09375 -2.84375q-3.390625 0 -5.703125 2.28125q-2.3125 2.265625 -2.5625 6.0625zm28.832031 17.3125l0 -5.609375l5.59375 0l0 5.609375l-5.59375 0z" fill-rule="nonzero"/><g id="a11y-dsl_b04" role="img" aria-label="Minimum 5-8 qualified prospects.&#xa;Not clicks.&#xa;Not traffic.&#xa;People contacting your business directly.&#xa;" tabindex="0"><path fill="#000000" fill-opacity="0.0" d="m106.666664 304.0l0 200.0l746.6771 0l0 -200.0z" fill-rule="nonzero"/></g><path fill="#000000" fill-opacity="0.0" d="m106.666664 304.0l746.6771 0l0 200.0l-746.6771 0z" fill-rule="evenodd"/><path fill="#000000" d="m257.37918 342.44l0 -21.9375l4.359375 0l5.203125 15.53125q0.71875 2.171875 1.046875 3.25q0.375 -1.203125 1.171875 -3.515625l5.25 -15.265625l3.90625 0l0 21.9375l-2.796875 0l0 -18.359375l-6.375 18.359375l-2.625 0l-6.34375 -18.6875l0 18.6875l-2.796875 0zm25.286896 -18.84375l0 -3.09375l2.703125 0l0 3.09375l-2.703125 0zm0 18.84375l0 -15.890625l2.703125 0l0 15.890625l-2.703125 0zm6.795227 0l0 -15.890625l2.4375 0l0 2.25q1.75 -2.609375 5.046875 -2.609375q1.4375 0 2.640625 0.515625q1.21875 0.515625 1.8125 1.359375q0.59375 0.828125 0.84375 1.984375q0.140625 0.75 0.140625 2.609375l0 9.78125l-2.6875 0l0 -9.671875q0 -1.640625 -0.328125 -2.453125q-0.3125 -0.828125 -1.109375 -1.3125q-0.796875 -0.484375 -1.875 -0.484375q-1.71875 0 -2.96875 1.09375q-1.25 1.09375 -1.25 4.140625l0 8.6875l-2.703125 0zm17.065155 -18.84375l0 -3.09375l2.703125 0l0 3.09375l-2.703125 0zm0 18.84375l0 -15.890625l2.703125 0l0 15.890625l-2.703125 0zm6.795227 0l0 -15.890625l2.421875 0l0 2.21875q0.734375 -1.15625 1.984375 -1.859375q1.25 -0.71875 2.828125 -0.71875q1.765625 0 2.890625 0.734375q1.140625 0.71875 1.59375 2.046875q1.890625 -2.78125 4.921875 -2.78125q2.359375 0 3.625 1.3125q1.28125 1.296875 1.28125 4.03125l0 10.90625l-2.6875 0l0 -10.015625q0 -1.609375 -0.265625 -2.3125q-0.25 -0.71875 -0.9375 -1.15625q-0.6875 -0.4375 -1.625 -0.4375q-1.671875 0 -2.78125 1.125q-1.109375 1.109375 -1.109375 3.5625l0 9.234375l-2.6875 0l0 -10.328125q0 -1.796875 -0.65625 -2.6875q-0.65625 -0.90625 -2.15625 -0.90625q-1.140625 0 -2.109375 0.609375q-0.96875 0.59375 -1.40625 1.75q-0.421875 1.140625 -0.421875 3.3125l0 8.25l-2.703125 0zm35.95877 0l0 -2.328125q-1.859375 2.6875 -5.046875 2.6875q-1.40625 0 -2.625 -0.53125q-1.21875 -0.546875 -1.8125 -1.359375q-0.59375 -0.8125 -0.828125 -2.0q-0.171875 -0.796875 -0.171875 -2.515625l0 -9.84375l2.703125 0l0 8.8125q0 2.109375 0.15625 2.84375q0.265625 1.0625 1.078125 1.671875q0.828125 0.609375 2.046875 0.609375q1.203125 0 2.265625 -0.625q1.0625 -0.625 1.5 -1.6875q0.453125 -1.078125 0.453125 -3.109375l0 -8.515625l2.6875 0l0 15.890625l-2.40625 0zm6.627655 0l0 -15.890625l2.421875 0l0 2.21875q0.734375 -1.15625 1.984375 -1.859375q1.25 -0.71875 2.828125 -0.71875q1.765625 0 2.890625 0.734375q1.140625 0.71875 1.59375 2.046875q1.890625 -2.78125 4.921875 -2.78125q2.359375 0 3.625 1.3125q1.28125 1.296875 1.28125 4.03125l0 10.90625l-2.6875 0l0 -10.015625q0 -1.609375 -0.265625 -2.3125q-0.25 -0.71875 -0.9375 -1.15625q-0.6875 -0.4375 -1.625 -0.4375q-1.671875 0 -2.78125 1.125q-1.109375 1.109375 -1.109375 3.5625l0 9.234375l-2.6875 0l0 -10.328125q0 -1.796875 -0.65625 -2.6875q-0.65625 -0.90625 -2.15625 -0.90625q-1.140625 0 -2.109375 0.609375q-0.96875 0.59375 -1.40625 1.75q-0.421875 1.140625 -0.421875 3.3125l0 8.25l-2.703125 0zm33.3042 -5.75l2.828125 -0.234375q0.328125 2.0625 1.46875 3.109375q1.140625 1.03125 2.765625 1.03125q1.9375 0 3.28125 -1.46875q1.359375 -1.46875 1.359375 -3.890625q0 -2.296875 -1.296875 -3.625q-1.296875 -1.34375 -3.390625 -1.34375q-1.3125 0 -2.359375 0.59375q-1.046875 0.59375 -1.640625 1.53125l-2.53125 -0.328125l2.125 -11.265625l10.921875 0l0 2.5625l-8.765625 0l-1.1875 5.90625q1.984375 -1.375 4.15625 -1.375q2.875 0 4.84375 2.0q1.984375 1.984375 1.984375 5.109375q0 2.984375 -1.75 5.140625q-2.109375 2.671875 -5.75 2.671875q-3.0 0 -4.890625 -1.671875q-1.890625 -1.6875 -2.171875 -4.453125zm16.752655 -0.84375l0 -2.703125l8.28125 0l0 2.703125l-8.28125 0zm14.661896 -5.3125q-1.671875 -0.609375 -2.484375 -1.75q-0.8125 -1.140625 -0.8125 -2.71875q0 -2.390625 1.71875 -4.015625q1.71875 -1.640625 4.578125 -1.640625q2.875 0 4.625 1.671875q1.75 1.65625 1.75 4.0625q0 1.515625 -0.796875 2.65625q-0.796875 1.125 -2.421875 1.734375q2.015625 0.671875 3.0625 2.140625q1.0625 1.453125 1.0625 3.5q0 2.8125 -2.0 4.734375q-1.984375 1.90625 -5.234375 1.90625q-3.25 0 -5.234375 -1.921875q-1.984375 -1.921875 -1.984375 -4.796875q0 -2.140625 1.078125 -3.578125q1.078125 -1.453125 3.09375 -1.984375zm-0.546875 -4.5625q0 1.5625 1.0 2.546875q1.015625 0.984375 2.609375 0.984375q1.5625 0 2.546875 -0.96875q1.0 -0.984375 1.0 -2.40625q0 -1.484375 -1.03125 -2.484375q-1.015625 -1.015625 -2.546875 -1.015625q-1.53125 0 -2.5625 0.984375q-1.015625 0.984375 -1.015625 2.359375zm-0.859375 10.140625q0 1.15625 0.546875 2.234375q0.546875 1.0625 1.625 1.65625q1.078125 0.59375 2.3125 0.59375q1.9375 0 3.1875 -1.234375q1.265625 -1.25 1.265625 -3.15625q0 -1.953125 -1.296875 -3.21875q-1.296875 -1.28125 -3.25 -1.28125q-1.890625 0 -3.140625 1.265625q-1.25 1.25 -1.25 3.140625zm33.70746 12.421875l0 -7.78125q-0.625 0.875 -1.765625 1.46875q-1.125 0.578125 -2.390625 0.578125q-2.828125 0 -4.875 -2.25q-2.046875 -2.265625 -2.046875 -6.203125q0 -2.40625 0.828125 -4.296875q0.828125 -1.90625 2.40625 -2.875q1.578125 -0.984375 3.46875 -0.984375q2.953125 0 4.640625 2.484375l0 -2.125l2.421875 0l0 21.984375l-2.6875 0zm-8.3125 -14.09375q0 3.078125 1.28125 4.609375q1.296875 1.53125 3.09375 1.53125q1.71875 0 2.953125 -1.453125q1.25 -1.46875 1.25 -4.4375q0 -3.171875 -1.3125 -4.765625q-1.3125 -1.609375 -3.078125 -1.609375q-1.75 0 -2.96875 1.484375q-1.21875 1.484375 -1.21875 4.640625zm25.64331 8.0l0 -2.328125q-1.859375 2.6875 -5.046875 2.6875q-1.40625 0 -2.625 -0.53125q-1.21875 -0.546875 -1.8125 -1.359375q-0.59375 -0.8125 -0.828125 -2.0q-0.171875 -0.796875 -0.171875 -2.515625l0 -9.84375l2.703125 0l0 8.8125q0 2.109375 0.15625 2.84375q0.265625 1.0625 1.078125 1.671875q0.828125 0.609375 2.046875 0.609375q1.203125 0 2.265625 -0.625q1.0625 -0.625 1.5 -1.6875q0.453125 -1.078125 0.453125 -3.109375l0 -8.515625l2.6875 0l0 15.890625l-2.40625 0zm17.002655 -1.953125q-1.5 1.265625 -2.890625 1.796875q-1.375 0.515625 -2.953125 0.515625q-2.625 0 -4.03125 -1.28125q-1.40625 -1.28125 -1.40625 -3.265625q0 -1.171875 0.53125 -2.140625q0.53125 -0.96875 1.390625 -1.546875q0.859375 -0.578125 1.9375 -0.875q0.796875 -0.21875 2.390625 -0.40625q3.265625 -0.390625 4.8125 -0.9375q0.015625 -0.546875 0.015625 -0.703125q0 -1.640625 -0.765625 -2.3125q-1.03125 -0.921875 -3.0625 -0.921875q-1.90625 0 -2.8125 0.671875q-0.90625 0.671875 -1.34375 2.359375l-2.625 -0.359375q0.359375 -1.6875 1.171875 -2.734375q0.828125 -1.046875 2.375 -1.59375q1.5625 -0.5625 3.609375 -0.5625q2.046875 0 3.3125 0.484375q1.28125 0.46875 1.875 1.203125q0.59375 0.71875 0.84375 1.828125q0.125 0.6875 0.125 2.484375l0 3.59375q0 3.75 0.171875 4.75q0.171875 1.0 0.6875 1.90625l-2.8125 0q-0.421875 -0.84375 -0.546875 -1.953125zm-0.21875 -6.03125q-1.46875 0.609375 -4.40625 1.03125q-1.65625 0.234375 -2.34375 0.53125q-0.6875 0.296875 -1.0625 0.875q-0.375 0.578125 -0.375 1.28125q0 1.078125 0.8125 1.796875q0.8125 0.71875 2.390625 0.71875q1.546875 0 2.765625 -0.671875q1.21875 -0.6875 1.78125 -1.875q0.4375 -0.90625 0.4375 -2.6875l0 -1.0zm6.83078 7.984375l0 -21.9375l2.703125 0l0 21.9375l-2.703125 0zm6.888977 -18.84375l0 -3.09375l2.703125 0l0 3.09375l-2.703125 0zm0 18.84375l0 -15.890625l2.703125 0l0 15.890625l-2.703125 0zm7.451477 0l0 -13.796875l-2.390625 0l0 -2.09375l2.390625 0l0 -1.703125q0 -1.59375 0.28125 -2.375q0.390625 -1.046875 1.359375 -1.6875q0.984375 -0.65625 2.7500305 -0.65625q1.140625 0 2.515625 0.265625l-0.40625 2.34375q-0.828125 -0.140625 -1.578125 -0.140625q-1.2344055 0 -1.7500305 0.53125q-0.5 0.515625 -0.5 1.953125l0 1.46875l3.0937805 0l0 2.09375l-3.0937805 0l0 13.796875l-2.671875 0zm7.8766785 -18.84375l0 -3.09375l2.703125 0l0 3.09375l-2.703125 0zm0 18.84375l0 -15.890625l2.703125 0l0 15.890625l-2.703125 0zm17.685852 -5.125l2.78125 0.34375q-0.65625 2.453125 -2.4375 3.796875q-1.78125 1.34375 -4.546875 1.34375q-3.5 0 -5.546875 -2.140625q-2.03125 -2.15625 -2.03125 -6.03125q0 -4.015625 2.0625 -6.21875q2.0625 -2.21875 5.359375 -2.21875q3.1875 0 5.203125 2.171875q2.03125 2.15625 2.03125 6.09375q0 0.25 -0.015625 0.71875l-11.859375 0q0.15625 2.625 1.484375 4.015625q1.328125 1.390625 3.328125 1.390625q1.46875 0 2.515625 -0.765625q1.0625 -0.78125 1.671875 -2.5zm-8.84375 -4.34375l8.875 0q-0.1875 -2.015625 -1.015625 -3.015625q-1.296875 -1.5625 -3.34375 -1.5625q-1.859375 0 -3.125 1.25q-1.265625 1.234375 -1.390625 3.328125zm25.315186 9.46875l0 -2.0q-1.5 2.359375 -4.4375 2.359375q-1.90625 0 -3.5 -1.046875q-1.59375 -1.046875 -2.46875 -2.921875q-0.875 -1.890625 -0.875 -4.328125q0 -2.375 0.796875 -4.3125q0.796875 -1.9375 2.375 -2.96875q1.59375 -1.03125 3.546875 -1.03125q1.4375 0 2.5625 0.609375q1.125 0.59375 1.828125 1.5625l0 -7.859375l2.671875 0l0 21.9375l-2.5 0zm-8.515625 -7.9375q0 3.0625 1.28125 4.578125q1.296875 1.5 3.046875 1.5q1.765625 0 3.0 -1.4375q1.234375 -1.453125 1.234375 -4.40625q0 -3.265625 -1.265625 -4.796875q-1.25 -1.53125 -3.09375 -1.53125q-1.78125 0 -3.0 1.46875q-1.203125 1.46875 -1.203125 4.625zm23.769958 14.03125l0 -21.984375l2.453125 0l0 2.0625q0.875 -1.21875 1.96875 -1.8125q1.09375 -0.609375 2.65625 -0.609375q2.03125 0 3.578125 1.046875q1.5625 1.046875 2.359375 2.953125q0.796875 1.90625 0.796875 4.1875q0 2.4375 -0.875 4.390625q-0.875 1.953125 -2.546875 3.0q-1.671875 1.03125 -3.515625 1.03125q-1.34375 0 -2.421875 -0.5625q-1.0625 -0.578125 -1.75 -1.4375l0 7.734375l-2.703125 0zm2.4375 -13.953125q0 3.0625 1.25 4.53125q1.25 1.46875 3.015625 1.46875q1.796875 0 3.0625 -1.515625q1.28125 -1.515625 1.28125 -4.703125q0 -3.046875 -1.25 -4.546875q-1.25 -1.515625 -2.984375 -1.515625q-1.71875 0 -3.046875 1.609375q-1.328125 1.609375 -1.328125 4.671875zm14.580811 7.859375l0 -15.890625l2.4375 0l0 2.40625q0.921875 -1.6875 1.703125 -2.21875q0.796875 -0.546875 1.734375 -0.546875q1.359375 0 2.765625 0.859375l-0.921875 2.5q-0.984375 -0.578125 -1.984375 -0.578125q-0.875 0 -1.578125 0.53125q-0.703125 0.53125 -1.0 1.46875q-0.453125 1.4375 -0.453125 3.140625l0 8.328125l-2.703125 0zm9.23999 -7.953125q0 -4.40625 2.453125 -6.53125q2.0625 -1.765625 5.0 -1.765625q3.28125 0 5.359375 2.15625q2.078125 2.140625 2.078125 5.921875q0 3.0625 -0.921875 4.828125q-0.90625 1.75 -2.671875 2.734375q-1.765625 0.96875 -3.84375 0.96875q-3.328125 0 -5.390625 -2.140625q-2.0625 -2.140625 -2.0625 -6.171875zm2.765625 0q0 3.0625 1.328125 4.578125q1.34375 1.515625 3.359375 1.515625q2.015625 0 3.34375 -1.515625q1.328125 -1.53125 1.328125 -4.65625q0 -2.953125 -1.34375 -4.46875q-1.328125 -1.53125 -3.328125 -1.53125q-2.015625 0 -3.359375 1.515625q-1.328125 1.515625 -1.328125 4.5625zm14.205811 3.203125l2.671875 -0.421875q0.21875 1.609375 1.234375 2.46875q1.03125 0.84375 2.875 0.84375q1.859375 0 2.75 -0.75q0.90625 -0.765625 0.90625 -1.78125q0 -0.90625 -0.796875 -1.4375q-0.546875 -0.359375 -2.75 -0.90625q-2.96875 -0.75 -4.109375 -1.296875q-1.140625 -0.546875 -1.734375 -1.515625q-0.59375 -0.96875 -0.59375 -2.125q0 -1.0625 0.484375 -1.96875q0.484375 -0.90625 1.328125 -1.515625q0.625 -0.453125 1.703125 -0.765625q1.09375 -0.328125 2.34375 -0.328125q1.859375 0 3.265625 0.546875q1.421875 0.53125 2.09375 1.453125q0.6875 0.90625 0.9375 2.453125l-2.640625 0.359375q-0.171875 -1.21875 -1.03125 -1.90625q-0.859375 -0.703125 -2.4375 -0.703125q-1.859375 0 -2.65625 0.625q-0.78125 0.609375 -0.78125 1.4375q0 0.515625 0.328125 0.9375q0.328125 0.4375 1.03125 0.71875q0.40625 0.15625 2.375 0.6875q2.859375 0.765625 3.984375 1.25q1.140625 0.484375 1.78125 1.421875q0.640625 0.921875 0.640625 2.296875q0 1.34375 -0.78125 2.546875q-0.78125 1.1875 -2.265625 1.84375q-1.484375 0.640625 -3.359375 0.640625q-3.09375 0 -4.71875 -1.28125q-1.625 -1.296875 -2.078125 -3.828125zm16.40625 10.84375l0 -21.984375l2.453125 0l0 2.0625q0.875 -1.21875 1.96875 -1.8125q1.09375 -0.609375 2.65625 -0.609375q2.03125 0 3.578125 1.046875q1.5625 1.046875 2.359375 2.953125q0.796875 1.90625 0.796875 4.1875q0 2.4375 -0.875 4.390625q-0.875 1.953125 -2.546875 3.0q-1.671875 1.03125 -3.515625 1.03125q-1.34375 0 -2.421875 -0.5625q-1.0625 -0.578125 -1.75 -1.4375l0 7.734375l-2.703125 0zm2.4375 -13.953125q0 3.0625 1.25 4.53125q1.25 1.46875 3.015625 1.46875q1.796875 0 3.0625 -1.515625q1.28125 -1.515625 1.28125 -4.703125q0 -3.046875 -1.25 -4.546875q-1.25 -1.515625 -2.984375 -1.515625q-1.71875 0 -3.046875 1.609375q-1.328125 1.609375 -1.328125 4.671875zm25.502686 2.734375l2.78125 0.34375q-0.65625 2.453125 -2.4375 3.796875q-1.78125 1.34375 -4.546875 1.34375q-3.5 0 -5.546875 -2.140625q-2.03125 -2.15625 -2.03125 -6.03125q0 -4.015625 2.0625 -6.21875q2.0625 -2.21875 5.359375 -2.21875q3.1875 0 5.203125 2.171875q2.03125 2.15625 2.03125 6.09375q0 0.25 -0.015625 0.71875l-11.859375 0q0.15625 2.625 1.484375 4.015625q1.328125 1.390625 3.328125 1.390625q1.46875 0 2.515625 -0.765625q1.0625 -0.78125 1.671875 -2.5zm-8.84375 -4.34375l8.875 0q-0.1875 -2.015625 -1.015625 -3.015625q-1.296875 -1.5625 -3.34375 -1.5625q-1.859375 0 -3.125 1.25q-1.265625 1.234375 -1.390625 3.328125zm25.377686 3.640625l2.65625 0.34375q-0.4375 2.75 -2.234375 4.296875q-1.78125 1.546875 -4.390625 1.546875q-3.25 0 -5.234375 -2.125q-1.984375 -2.140625 -1.984375 -6.125q0 -2.578125 0.84375 -4.5q0.859375 -1.9375 2.59375 -2.890625q1.75 -0.96875 3.796875 -0.96875q2.59375 0 4.234375 1.3125q1.65625 1.296875 2.125 3.703125l-2.625 0.40625q-0.375 -1.59375 -1.328125 -2.40625q-0.953125 -0.8125 -2.296875 -0.8125q-2.03125 0 -3.3125 1.46875q-1.265625 1.453125 -1.265625 4.609375q0 3.203125 1.21875 4.65625q1.234375 1.453125 3.203125 1.453125q1.59375 0 2.65625 -0.96875q1.0625 -0.96875 1.34375 -3.0zm10.84375 3.421875l0.390625 2.375q-1.140625 0.234375 -2.046875 0.234375q-1.453125 0 -2.265625 -0.453125q-0.8125 -0.46875 -1.140625 -1.21875q-0.328125 -0.765625 -0.328125 -3.1875l0 -9.140625l-1.984375 0l0 -2.09375l1.984375 0l0 -3.9375l2.671875 -1.625l0 5.5625l2.71875 0l0 2.09375l-2.71875 0l0 9.296875q0 1.140625 0.140625 1.484375q0.15625 0.328125 0.46875 0.515625q0.328125 0.1875 0.921875 0.1875q0.453125 0 1.1875 -0.09375zm1.548523 -2.34375l2.671875 -0.421875q0.21875 1.609375 1.234375 2.46875q1.03125 0.84375 2.875 0.84375q1.859375 0 2.75 -0.75q0.90625 -0.765625 0.90625 -1.78125q0 -0.90625 -0.796875 -1.4375q-0.546875 -0.359375 -2.75 -0.90625q-2.96875 -0.75 -4.109375 -1.296875q-1.140625 -0.546875 -1.734375 -1.515625q-0.59375 -0.96875 -0.59375 -2.125q0 -1.0625 0.484375 -1.96875q0.484375 -0.90625 1.328125 -1.515625q0.625 -0.453125 1.703125 -0.765625q1.09375 -0.328125 2.34375 -0.328125q1.859375 0 3.265625 0.546875q1.421875 0.53125 2.09375 1.453125q0.6875 0.90625 0.9375 2.453125l-2.640625 0.359375q-0.171875 -1.21875 -1.03125 -1.90625q-0.859375 -0.703125 -2.4375 -0.703125q-1.859375 0 -2.65625 0.625q-0.78125 0.609375 -0.78125 1.4375q0 0.515625 0.328125 0.9375q0.328125 0.4375 1.03125 0.71875q0.40625 0.15625 2.375 0.6875q2.859375 0.765625 3.984375 1.25q1.140625 0.484375 1.78125 1.421875q0.640625 0.921875 0.640625 2.296875q0 1.34375 -0.78125 2.546875q-0.78125 1.1875 -2.265625 1.84375q-1.484375 0.640625 -3.359375 0.640625q-3.09375 0 -4.71875 -1.28125q-1.625 -1.296875 -2.078125 -3.828125zm17.171875 4.75l0 -3.0625l3.078125 0l0 3.0625l-3.078125 0z" fill-rule="nonzero"/><path fill="#000000" d="m412.4961 379.44l0 -21.9375l2.984375 0l11.53125 17.21875l0 -17.21875l2.78125 0l0 21.9375l-2.984375 0l-11.515625 -17.25l0 17.25l-2.796875 0zm20.826447 -7.953125q0 -4.40625 2.453125 -6.53125q2.0625 -1.765625 5.0 -1.765625q3.28125 0 5.359375 2.15625q2.078125 2.140625 2.078125 5.921875q0 3.0625 -0.921875 4.828125q-0.90625 1.75 -2.671875 2.734375q-1.765625 0.96875 -3.84375 0.96875q-3.328125 0 -5.390625 -2.140625q-2.0625 -2.140625 -2.0625 -6.171875zm2.765625 0q0 3.0625 1.328125 4.578125q1.34375 1.515625 3.359375 1.515625q2.015625 0 3.34375 -1.515625q1.328125 -1.53125 1.328125 -4.65625q0 -2.953125 -1.34375 -4.46875q-1.328125 -1.53125 -3.328125 -1.53125q-2.015625 0 -3.359375 1.515625q-1.328125 1.515625 -1.328125 4.5625zm21.17456 5.546875l0.390625 2.375q-1.140625 0.234375 -2.046875 0.234375q-1.453125 0 -2.265625 -0.453125q-0.8125 -0.46875 -1.140625 -1.21875q-0.328125 -0.765625 -0.328125 -3.1875l0 -9.140625l-1.984375 0l0 -2.09375l1.984375 0l0 -3.9375l2.671875 -1.625l0 5.5625l2.71875 0l0 2.09375l-2.71875 0l0 9.296875q0 1.140625 0.140625 1.484375q0.15625 0.328125 0.46875 0.515625q0.328125 0.1875 0.921875 0.1875q0.453125 0 1.1875 -0.09375zm21.518951 -3.421875l2.65625 0.34375q-0.4375 2.75 -2.234375 4.296875q-1.78125 1.546875 -4.390625 1.546875q-3.25 0 -5.234375 -2.125q-1.984375 -2.140625 -1.984375 -6.125q0 -2.578125 0.84375 -4.5q0.859375 -1.9375 2.59375 -2.890625q1.75 -0.96875 3.796875 -0.96875q2.59375 0 4.234375 1.3125q1.65625 1.296875 2.125 3.703125l-2.625 0.40625q-0.375 -1.59375 -1.328125 -2.40625q-0.953125 -0.8125 -2.296875 -0.8125q-2.03125 0 -3.3125 1.46875q-1.265625 1.453125 -1.265625 4.609375q0 3.203125 1.21875 4.65625q1.234375 1.453125 3.203125 1.453125q1.59375 0 2.65625 -0.96875q1.0625 -0.96875 1.34375 -3.0zm4.890625 5.828125l0 -21.9375l2.703125 0l0 21.9375l-2.703125 0zm6.8889465 -18.84375l0 -3.09375l2.703125 0l0 3.09375l-2.703125 0zm0 18.84375l0 -15.890625l2.703125 0l0 15.890625l-2.703125 0zm17.170227 -5.828125l2.65625 0.34375q-0.4375 2.75 -2.234375 4.296875q-1.78125 1.546875 -4.390625 1.546875q-3.25 0 -5.234375 -2.125q-1.984375 -2.140625 -1.984375 -6.125q0 -2.578125 0.84375 -4.5q0.859375 -1.9375 2.59375 -2.890625q1.75 -0.96875 3.796875 -0.96875q2.59375 0 4.234375 1.3125q1.65625 1.296875 2.125 3.703125l-2.625 0.40625q-0.375 -1.59375 -1.328125 -2.40625q-0.953125 -0.8125 -2.296875 -0.8125q-2.03125 0 -3.3125 1.46875q-1.265625 1.453125 -1.265625 4.609375q0 3.203125 1.21875 4.65625q1.234375 1.453125 3.203125 1.453125q1.59375 0 2.65625 -0.96875q1.0625 -0.96875 1.34375 -3.0zm4.9687805 5.828125l0 -21.9375l2.703125 0l0 12.5l6.375 -6.453125l3.484375 0l-6.078125 5.890625l6.6875 10.0l-3.3125 0l-5.265625 -8.125l-1.890625 1.828125l0 6.296875l-2.703125 0zm14.234375 -4.75l2.671875 -0.421875q0.21875 1.609375 1.234375 2.46875q1.03125 0.84375 2.875 0.84375q1.859375 0 2.75 -0.75q0.90625 -0.765625 0.90625 -1.78125q0 -0.90625 -0.796875 -1.4375q-0.546875 -0.359375 -2.75 -0.90625q-2.96875 -0.75 -4.109375 -1.296875q-1.140625 -0.546875 -1.734375 -1.515625q-0.59375 -0.96875 -0.59375 -2.125q0 -1.0625 0.484375 -1.96875q0.484375 -0.90625 1.328125 -1.515625q0.625 -0.453125 1.703125 -0.765625q1.09375 -0.328125 2.34375 -0.328125q1.859375 0 3.265625 0.546875q1.421875 0.53125 2.09375 1.453125q0.6875 0.90625 0.9375 2.453125l-2.640625 0.359375q-0.171875 -1.21875 -1.03125 -1.90625q-0.859375 -0.703125 -2.4375 -0.703125q-1.859375 0 -2.65625 0.625q-0.78125 0.609375 -0.78125 1.4375q0 0.515625 0.328125 0.9375q0.328125 0.4375 1.03125 0.71875q0.40625 0.15625 2.375 0.6875q2.859375 0.765625 3.984375 1.25q1.140625 0.484375 1.78125 1.421875q0.640625 0.921875 0.640625 2.296875q0 1.34375 -0.78125 2.546875q-0.78125 1.1875 -2.265625 1.84375q-1.484375 0.640625 -3.359375 0.640625q-3.09375 0 -4.71875 -1.28125q-1.625 -1.296875 -2.078125 -3.828125zm17.171875 4.75l0 -3.0625l3.078125 0l0 3.0625l-3.078125 0z" fill-rule="nonzero"/><path fill="#000000" d="m412.76562 416.44l0 -21.9375l2.984375 0l11.53125 17.21875l0 -17.21875l2.78125 0l0 21.9375l-2.984375 0l-11.515625 -17.25l0 17.25l-2.796875 0zm20.826447 -7.953125q0 -4.40625 2.453125 -6.53125q2.0625 -1.765625 5.0 -1.765625q3.28125 0 5.359375 2.15625q2.078125 2.140625 2.078125 5.921875q0 3.0625 -0.921875 4.828125q-0.90625 1.75 -2.671875 2.734375q-1.765625 0.96875 -3.84375 0.96875q-3.328125 0 -5.390625 -2.140625q-2.0625 -2.140625 -2.0625 -6.171875zm2.765625 0q0 3.0625 1.328125 4.578125q1.34375 1.515625 3.359375 1.515625q2.015625 0 3.34375 -1.515625q1.328125 -1.53125 1.328125 -4.65625q0 -2.953125 -1.34375 -4.46875q-1.328125 -1.53125 -3.328125 -1.53125q-2.015625 0 -3.359375 1.515625q-1.328125 1.515625 -1.328125 4.5625zm21.17456 5.546875l0.390625 2.375q-1.140625 0.234375 -2.046875 0.234375q-1.453125 0 -2.265625 -0.453125q-0.8125 -0.46875 -1.140625 -1.21875q-0.328125 -0.765625 -0.328125 -3.1875l0 -9.140625l-1.984375 0l0 -2.09375l1.984375 0l0 -3.9375l2.671875 -1.625l0 5.5625l2.71875 0l0 2.09375l-2.71875 0l0 9.296875q0 1.140625 0.140625 1.484375q0.15625 0.328125 0.46875 0.515625q0.328125 0.1875 0.921875 0.1875q0.453125 0 1.1875 -0.09375zm17.034576 0l0.390625 2.375q-1.140625 0.234375 -2.046875 0.234375q-1.453125 0 -2.265625 -0.453125q-0.8125 -0.46875 -1.140625 -1.21875q-0.328125 -0.765625 -0.328125 -3.1875l0 -9.140625l-1.984375 0l0 -2.09375l1.984375 0l0 -3.9375l2.671875 -1.625l0 5.5625l2.71875 0l0 2.09375l-2.71875 0l0 9.296875q0 1.140625 0.140625 1.484375q0.15625 0.328125 0.46875 0.515625q0.328125 0.1875 0.921875 0.1875q0.453125 0 1.1875 -0.09375zm2.5954285 2.40625l0 -15.890625l2.4375 0l0 2.40625q0.921875 -1.6875 1.703125 -2.21875q0.796875 -0.546875 1.734375 -0.546875q1.359375 0 2.765625 0.859375l-0.921875 2.5q-0.984375 -0.578125 -1.984375 -0.578125q-0.875 0 -1.578125 0.53125q-0.703125 0.53125 -1.0 1.46875q-0.453125 1.4375 -0.453125 3.140625l0 8.328125l-2.703125 0zm20.61499 -1.953125q-1.5 1.265625 -2.890625 1.796875q-1.375 0.515625 -2.953125 0.515625q-2.625 0 -4.03125 -1.28125q-1.40625 -1.28125 -1.40625 -3.265625q0 -1.171875 0.53125 -2.140625q0.53125 -0.96875 1.390625 -1.546875q0.859375 -0.578125 1.9375 -0.875q0.796875 -0.21875 2.390625 -0.40625q3.265625 -0.390625 4.8125 -0.9375q0.015625 -0.546875 0.015625 -0.703125q0 -1.640625 -0.765625 -2.3125q-1.03125 -0.921875 -3.0625 -0.921875q-1.90625 0 -2.8125 0.671875q-0.90625 0.671875 -1.34375 2.359375l-2.625 -0.359375q0.359375 -1.6875 1.171875 -2.734375q0.828125 -1.046875 2.375 -1.59375q1.5625 -0.5625 3.609375 -0.5625q2.046875 0 3.3125 0.484375q1.28125 0.46875 1.875 1.203125q0.59375 0.71875 0.84375 1.828125q0.125 0.6875 0.125 2.484375l0 3.59375q0 3.75 0.171875 4.75q0.171875 1.0 0.6875 1.90625l-2.8125 0q-0.421875 -0.84375 -0.546875 -1.953125zm-0.21875 -6.03125q-1.46875 0.609375 -4.40625 1.03125q-1.65625 0.234375 -2.34375 0.53125q-0.6875 0.296875 -1.0625 0.875q-0.375 0.578125 -0.375 1.28125q0 1.078125 0.8125 1.796875q0.8125 0.71875 2.390625 0.71875q1.546875 0 2.765625 -0.671875q1.21875 -0.6875 1.78125 -1.875q0.4375 -0.90625 0.4375 -2.6875l0 -1.0zm7.5495605 7.984375l0 -13.796875l-2.390625 0l0 -2.09375l2.390625 0l0 -1.703125q0 -1.59375 0.28125 -2.375q0.390625 -1.046875 1.359375 -1.6875q0.984375 -0.65625 2.75 -0.65625q1.140625 0 2.5156555 0.265625l-0.40628052 2.34375q-0.828125 -0.140625 -1.578125 -0.140625q-1.234375 0 -1.75 0.53125q-0.5 0.515625 -0.5 1.953125l0 1.46875l3.09375 0l0 2.09375l-3.09375 0l0 13.796875l-2.671875 0zm7.9632874 0l0 -13.796875l-2.3906555 0l0 -2.09375l2.3906555 0l0 -1.703125q0 -1.59375 0.28125 -2.375q0.390625 -1.046875 1.359375 -1.6875q0.984375 -0.65625 2.75 -0.65625q1.140625 0 2.515625 0.265625l-0.40625 2.34375q-0.828125 -0.140625 -1.578125 -0.140625q-1.234375 0 -1.75 0.53125q-0.5 0.515625 -0.5 1.953125l0 1.46875l3.09375 0l0 2.09375l-3.09375 0l0 13.796875l-2.671875 0zm7.876648 -18.84375l0 -3.09375l2.703125 0l0 3.09375l-2.703125 0zm0 18.84375l0 -15.890625l2.703125 0l0 15.890625l-2.703125 0zm17.170227 -5.828125l2.65625 0.34375q-0.4375 2.75 -2.234375 4.296875q-1.78125 1.546875 -4.390625 1.546875q-3.25 0 -5.234375 -2.125q-1.984375 -2.140625 -1.984375 -6.125q0 -2.578125 0.84375 -4.5q0.859375 -1.9375 2.59375 -2.890625q1.75 -0.96875 3.796875 -0.96875q2.59375 0 4.234375 1.3125q1.65625 1.296875 2.125 3.703125l-2.625 0.40625q-0.375 -1.59375 -1.328125 -2.40625q-0.953125 -0.8125 -2.296875 -0.8125q-2.03125 0 -3.3125 1.46875q-1.265625 1.453125 -1.265625 4.609375q0 3.203125 1.21875 4.65625q1.234375 1.453125 3.203125 1.453125q1.59375 0 2.65625 -0.96875q1.0625 -0.96875 1.34375 -3.0zm5.71875 5.828125l0 -3.0625l3.078125 0l0 3.0625l-3.078125 0z" fill-rule="nonzero"/><path fill="#000000" d="m205.74022 453.44l0 -21.9375l8.28125 0q2.1875 0 3.34375 0.203125q1.609375 0.265625 2.703125 1.03125q1.09375 0.75 1.75 2.109375q0.671875 1.359375 0.671875 3.0q0 2.796875 -1.78125 4.734375q-1.78125 1.9375 -6.4375 1.9375l-5.625 0l0 8.921875l-2.90625 0zm2.90625 -11.515625l5.671875 0q2.8125 0 4.0 -1.046875q1.1875 -1.046875 1.1875 -2.9375q0 -1.390625 -0.703125 -2.359375q-0.6875 -0.984375 -1.828125 -1.296875q-0.734375 -0.203125 -2.71875 -0.203125l-5.609375 0l0 7.84375zm28.088104 6.390625l2.78125 0.34375q-0.65625 2.453125 -2.4375 3.796875q-1.78125 1.34375 -4.546875 1.34375q-3.5 0 -5.546875 -2.140625q-2.03125 -2.15625 -2.03125 -6.03125q0 -4.015625 2.0625 -6.21875q2.0625 -2.21875 5.359375 -2.21875q3.1875 0 5.203125 2.171875q2.03125 2.15625 2.03125 6.09375q0 0.25 -0.015625 0.71875l-11.859375 0q0.15625 2.625 1.484375 4.015625q1.328125 1.390625 3.328125 1.390625q1.46875 0 2.515625 -0.765625q1.0625 -0.78125 1.671875 -2.5zm-8.84375 -4.34375l8.875 0q-0.1875 -2.015625 -1.015625 -3.015625q-1.296875 -1.5625 -3.34375 -1.5625q-1.859375 0 -3.125 1.25q-1.265625 1.234375 -1.390625 3.328125zm14.00267 1.515625q0 -4.40625 2.453125 -6.53125q2.0625 -1.765625 5.0 -1.765625q3.28125 0 5.359375 2.15625q2.078125 2.140625 2.078125 5.921875q0 3.0625 -0.921875 4.828125q-0.90625 1.75 -2.671875 2.734375q-1.765625 0.96875 -3.84375 0.96875q-3.328125 0 -5.390625 -2.140625q-2.0625 -2.140625 -2.0625 -6.171875zm2.765625 0q0 3.0625 1.328125 4.578125q1.34375 1.515625 3.359375 1.515625q2.015625 0 3.34375 -1.515625q1.328125 -1.53125 1.328125 -4.65625q0 -2.953125 -1.34375 -4.46875q-1.328125 -1.53125 -3.328125 -1.53125q-2.015625 0 -3.359375 1.515625q-1.328125 1.515625 -1.328125 4.5625zm15.283905 14.046875l0 -21.984375l2.453125 0l0 2.0625q0.875 -1.21875 1.96875 -1.8125q1.09375 -0.609375 2.65625 -0.609375q2.03125 0 3.578125 1.046875q1.5625 1.046875 2.359375 2.953125q0.796875 1.90625 0.796875 4.1875q0 2.4375 -0.875 4.390625q-0.875 1.953125 -2.546875 3.0q-1.671875 1.03125 -3.515625 1.03125q-1.34375 0 -2.421875 -0.5625q-1.0625 -0.578125 -1.75 -1.4375l0 7.734375l-2.703125 0zm2.4375 -13.953125q0 3.0625 1.25 4.53125q1.25 1.46875 3.015625 1.46875q1.796875 0 3.0625 -1.515625q1.28125 -1.515625 1.28125 -4.703125q0 -3.046875 -1.25 -4.546875q-1.25 -1.515625 -2.984375 -1.515625q-1.71875 0 -3.046875 1.609375q-1.328125 1.609375 -1.328125 4.671875zm14.549561 7.859375l0 -21.9375l2.703125 0l0 21.9375l-2.703125 0zm17.763947 -5.125l2.78125 0.34375q-0.65625 2.453125 -2.4375 3.796875q-1.78125 1.34375 -4.546875 1.34375q-3.5 0 -5.546875 -2.140625q-2.03125 -2.15625 -2.03125 -6.03125q0 -4.015625 2.0625 -6.21875q2.0625 -2.21875 5.359375 -2.21875q3.1875 0 5.203125 2.171875q2.03125 2.15625 2.03125 6.09375q0 0.25 -0.015625 0.71875l-11.859375 0q0.15625 2.625 1.484375 4.015625q1.328125 1.390625 3.328125 1.390625q1.46875 0 2.515625 -0.765625q1.0625 -0.78125 1.671875 -2.5zm-8.84375 -4.34375l8.875 0q-0.1875 -2.015625 -1.015625 -3.015625q-1.296875 -1.5625 -3.34375 -1.5625q-1.859375 0 -3.125 1.25q-1.265625 1.234375 -1.390625 3.328125zm33.89496 3.640625l2.65625 0.34375q-0.4375 2.75 -2.234375 4.296875q-1.78125 1.546875 -4.390625 1.546875q-3.25 0 -5.234375 -2.125q-1.984375 -2.140625 -1.984375 -6.125q0 -2.578125 0.84375 -4.5q0.859375 -1.9375 2.59375 -2.890625q1.75 -0.96875 3.796875 -0.96875q2.59375 0 4.234375 1.3125q1.65625 1.296875 2.125 3.703125l-2.625 0.40625q-0.375 -1.59375 -1.328125 -2.40625q-0.953125 -0.8125 -2.296875 -0.8125q-2.03125 0 -3.3125 1.46875q-1.265625 1.453125 -1.265625 4.609375q0 3.203125 1.21875 4.65625q1.234375 1.453125 3.203125 1.453125q1.59375 0 2.65625 -0.96875q1.0625 -0.96875 1.34375 -3.0zm3.953125 -2.125q0 -4.40625 2.453125 -6.53125q2.0625 -1.765625 5.0 -1.765625q3.28125 0 5.359375 2.15625q2.078125 2.140625 2.078125 5.921875q0 3.0625 -0.921875 4.828125q-0.90625 1.75 -2.671875 2.734375q-1.765625 0.96875 -3.84375 0.96875q-3.328125 0 -5.390625 -2.140625q-2.0625 -2.140625 -2.0625 -6.171875zm2.765625 0q0 3.0625 1.328125 4.578125q1.34375 1.515625 3.359375 1.515625q2.015625 0 3.34375 -1.515625q1.328125 -1.53125 1.328125 -4.65625q0 -2.953125 -1.34375 -4.46875q-1.328125 -1.53125 -3.328125 -1.53125q-2.015625 0 -3.359375 1.515625q-1.328125 1.515625 -1.328125 4.5625zm15.283936 7.953125l0 -15.890625l2.4375 0l0 2.25q1.75 -2.609375 5.046875 -2.609375q1.4375 0 2.640625 0.515625q1.21875 0.515625 1.8125 1.359375q0.59375 0.828125 0.84375 1.984375q0.140625 0.75 0.140625 2.609375l0 9.78125l-2.6875 0l0 -9.671875q0 -1.640625 -0.328125 -2.453125q-0.3125 -0.828125 -1.109375 -1.3125q-0.796875 -0.484375 -1.875 -0.484375q-1.71875 0 -2.96875 1.09375q-1.25 1.09375 -1.25 4.140625l0 8.6875l-2.703125 0zm22.940155 -2.40625l0.390625 2.375q-1.140625 0.234375 -2.046875 0.234375q-1.453125 0 -2.265625 -0.453125q-0.8125 -0.46875 -1.140625 -1.21875q-0.328125 -0.765625 -0.328125 -3.1875l0 -9.140625l-1.984375 0l0 -2.09375l1.984375 0l0 -3.9375l2.671875 -1.625l0 5.5625l2.71875 0l0 2.09375l-2.71875 0l0 9.296875q0 1.140625 0.140625 1.484375q0.15625 0.328125 0.46875 0.515625q0.328125 0.1875 0.921875 0.1875q0.453125 0 1.1875 -0.09375zm13.001648 0.453125q-1.5 1.265625 -2.890625 1.796875q-1.375 0.515625 -2.953125 0.515625q-2.625 0 -4.03125 -1.28125q-1.40625 -1.28125 -1.40625 -3.265625q0 -1.171875 0.53125 -2.140625q0.53125 -0.96875 1.390625 -1.546875q0.859375 -0.578125 1.9375 -0.875q0.796875 -0.21875 2.390625 -0.40625q3.265625 -0.390625 4.8125 -0.9375q0.015625 -0.546875 0.015625 -0.703125q0 -1.640625 -0.765625 -2.3125q-1.03125 -0.921875 -3.0625 -0.921875q-1.90625 0 -2.8125 0.671875q-0.90625 0.671875 -1.34375 2.359375l-2.625 -0.359375q0.359375 -1.6875 1.171875 -2.734375q0.828125 -1.046875 2.375 -1.59375q1.5625 -0.5625 3.609375 -0.5625q2.046875 0 3.3125 0.484375q1.28125 0.46875 1.875 1.203125q0.59375 0.71875 0.84375 1.828125q0.125 0.6875 0.125 2.484375l0 3.59375q0 3.75 0.171875 4.75q0.171875 1.0 0.6875 1.90625l-2.8125 0q-0.421875 -0.84375 -0.546875 -1.953125zm-0.21875 -6.03125q-1.46875 0.609375 -4.40625 1.03125q-1.65625 0.234375 -2.34375 0.53125q-0.6875 0.296875 -1.0625 0.875q-0.375 0.578125 -0.375 1.28125q0 1.078125 0.8125 1.796875q0.8125 0.71875 2.390625 0.71875q1.546875 0 2.765625 -0.671875q1.21875 -0.6875 1.78125 -1.875q0.4375 -0.90625 0.4375 -2.6875l0 -1.0zm17.26831 2.15625l2.65625 0.34375q-0.4375 2.75 -2.234375 4.296875q-1.78125 1.546875 -4.390625 1.546875q-3.25 0 -5.234375 -2.125q-1.984375 -2.140625 -1.984375 -6.125q0 -2.578125 0.84375 -4.5q0.859375 -1.9375 2.59375 -2.890625q1.75 -0.96875 3.796875 -0.96875q2.59375 0 4.234375 1.3125q1.65625 1.296875 2.125 3.703125l-2.625 0.40625q-0.375 -1.59375 -1.328125 -2.40625q-0.953125 -0.8125 -2.296875 -0.8125q-2.03125 0 -3.3125 1.46875q-1.265625 1.453125 -1.265625 4.609375q0 3.203125 1.21875 4.65625q1.234375 1.453125 3.203125 1.453125q1.59375 0 2.65625 -0.96875q1.0625 -0.96875 1.34375 -3.0zm10.84375 3.421875l0.390625 2.375q-1.140625 0.234375 -2.046875 0.234375q-1.453125 0 -2.265625 -0.453125q-0.8125 -0.46875 -1.140625 -1.21875q-0.328125 -0.765625 -0.328125 -3.1875l0 -9.140625l-1.984375 0l0 -2.09375l1.984375 0l0 -3.9375l2.671875 -1.625l0 5.5625l2.71875 0l0 2.09375l-2.71875 0l0 9.296875q0 1.140625 0.140625 1.484375q0.15625 0.328125 0.46875 0.515625q0.328125 0.1875 0.921875 0.1875q0.453125 0 1.1875 -0.09375zm2.642273 -16.4375l0 -3.09375l2.703125 0l0 3.09375l-2.703125 0zm0 18.84375l0 -15.890625l2.703125 0l0 15.890625l-2.703125 0zm6.795227 0l0 -15.890625l2.4375 0l0 2.25q1.75 -2.609375 5.046875 -2.609375q1.4375 0 2.640625 0.515625q1.21875 0.515625 1.8125 1.359375q0.59375 0.828125 0.84375 1.984375q0.140625 0.75 0.140625 2.609375l0 9.78125l-2.6875 0l0 -9.671875q0 -1.640625 -0.328125 -2.453125q-0.3125 -0.828125 -1.109375 -1.3125q-0.796875 -0.484375 -1.875 -0.484375q-1.71875 0 -2.96875 1.09375q-1.25 1.09375 -1.25 4.140625l0 8.6875l-2.703125 0zm16.565186 1.3125l2.609375 0.390625q0.171875 1.21875 0.921875 1.765625q1.0 0.75 2.734375 0.75q1.875 0 2.890625 -0.75q1.015625 -0.75 1.375 -2.09375q0.21875 -0.828125 0.203125 -3.453125q-1.765625 2.078125 -4.40625 2.078125q-3.28125 0 -5.078125 -2.359375q-1.796875 -2.375 -1.796875 -5.671875q0 -2.28125 0.828125 -4.203125q0.828125 -1.921875 2.390625 -2.96875q1.5625 -1.046875 3.671875 -1.046875q2.8125 0 4.640625 2.265625l0 -1.90625l2.484375 0l0 13.734375q0 3.71875 -0.765625 5.265625q-0.75 1.546875 -2.390625 2.4375q-1.640625 0.90625 -4.03125 0.90625q-2.84375 0 -4.59375 -1.28125q-1.75 -1.28125 -1.6875 -3.859375zm2.21875 -9.546875q0 3.125 1.234375 4.5625q1.25 1.4375 3.125 1.4375q1.859375 0 3.109375 -1.421875q1.265625 -1.4375 1.265625 -4.484375q0 -2.921875 -1.296875 -4.40625q-1.296875 -1.484375 -3.125 -1.484375q-1.796875 0 -3.0625 1.46875q-1.25 1.453125 -1.25 4.328125zm23.723083 14.359375l-0.296875 -2.53125q0.875 0.234375 1.53125 0.234375q0.90625 0 1.4375 -0.296875q0.546875 -0.296875 0.890625 -0.84375q0.25 -0.390625 0.8125 -2.0q0.078125 -0.21875 0.25 -0.65625l-6.03125 -15.921875l2.890625 0l3.3125 9.203125q0.640625 1.75 1.15625 3.671875q0.46875 -1.84375 1.109375 -3.609375l3.390625 -9.265625l2.703125 0l-6.046875 16.15625q-0.984375 2.625 -1.515625 3.609375q-0.71875 1.328125 -1.65625 1.953125q-0.921875 0.625 -2.203125 0.625q-0.78125 0 -1.734375 -0.328125zm14.4375 -14.078125q0 -4.40625 2.453125 -6.53125q2.0625 -1.765625 5.0 -1.765625q3.28125 0 5.359375 2.15625q2.078125 2.140625 2.078125 5.921875q0 3.0625 -0.921875 4.828125q-0.90625 1.75 -2.671875 2.734375q-1.765625 0.96875 -3.84375 0.96875q-3.328125 0 -5.390625 -2.140625q-2.0625 -2.140625 -2.0625 -6.171875zm2.765625 0q0 3.0625 1.328125 4.578125q1.34375 1.515625 3.359375 1.515625q2.015625 0 3.34375 -1.515625q1.328125 -1.53125 1.328125 -4.65625q0 -2.953125 -1.34375 -4.46875q-1.328125 -1.53125 -3.328125 -1.53125q-2.015625 0 -3.359375 1.515625q-1.328125 1.515625 -1.328125 4.5625zm25.70581 7.953125l0 -2.328125q-1.859375 2.6875 -5.046875 2.6875q-1.40625 0 -2.625 -0.53125q-1.21875 -0.546875 -1.8125 -1.359375q-0.59375 -0.8125 -0.828125 -2.0q-0.171875 -0.796875 -0.171875 -2.515625l0 -9.84375l2.703125 0l0 8.8125q0 2.109375 0.15625 2.84375q0.265625 1.0625 1.078125 1.671875q0.828125 0.609375 2.046875 0.609375q1.203125 0 2.265625 -0.625q1.0625 -0.625 1.5 -1.6875q0.453125 -1.078125 0.453125 -3.109375l0 -8.515625l2.6875 0l0 15.890625l-2.40625 0zm6.5964355 0l0 -15.890625l2.4375 0l0 2.40625q0.921875 -1.6875 1.703125 -2.21875q0.796875 -0.546875 1.7344055 -0.546875q1.359375 0 2.765625 0.859375l-0.921875 2.5q-0.984375 -0.578125 -1.984375 -0.578125q-0.8750305 0 -1.5781555 0.53125q-0.703125 0.53125 -1.0 1.46875q-0.453125 1.4375 -0.453125 3.140625l0 8.328125l-2.703125 0zm21.24173 0l-2.5 0l0 -21.9375l2.703125 0l0 7.828125q1.703125 -2.140625 4.359375 -2.140625q1.453125 0 2.765625 0.59375q1.3125 0.578125 2.15625 1.65625q0.84375 1.0625 1.328125 2.578125q0.484375 1.515625 0.484375 3.234375q0 4.09375 -2.03125 6.328125q-2.015625 2.21875 -4.84375 2.21875q-2.8125 0 -4.421875 -2.34375l0 1.984375zm-0.03125 -8.0625q0 2.859375 0.78125 4.125q1.28125 2.078125 3.453125 2.078125q1.765625 0 3.046875 -1.53125q1.28125 -1.53125 1.28125 -4.578125q0 -3.109375 -1.234375 -4.59375q-1.234375 -1.484375 -2.984375 -1.484375q-1.765625 0 -3.0625 1.546875q-1.28125 1.53125 -1.28125 4.4375zm25.01831 8.0625l0 -2.328125q-1.859375 2.6875 -5.046875 2.6875q-1.40625 0 -2.625 -0.53125q-1.21875 -0.546875 -1.8125 -1.359375q-0.59375 -0.8125 -0.828125 -2.0q-0.171875 -0.796875 -0.171875 -2.515625l0 -9.84375l2.703125 0l0 8.8125q0 2.109375 0.15625 2.84375q0.265625 1.0625 1.078125 1.671875q0.828125 0.609375 2.046875 0.609375q1.203125 0 2.265625 -0.625q1.0625 -0.625 1.5 -1.6875q0.453125 -1.078125 0.453125 -3.109375l0 -8.515625l2.6875 0l0 15.890625l-2.40625 0zm5.5495605 -4.75l2.671875 -0.421875q0.21875 1.609375 1.234375 2.46875q1.03125 0.84375 2.875 0.84375q1.859375 0 2.75 -0.75q0.90625 -0.765625 0.90625 -1.78125q0 -0.90625 -0.796875 -1.4375q-0.546875 -0.359375 -2.75 -0.90625q-2.96875 -0.75 -4.109375 -1.296875q-1.140625 -0.546875 -1.734375 -1.515625q-0.59375 -0.96875 -0.59375 -2.125q0 -1.0625 0.484375 -1.96875q0.484375 -0.90625 1.328125 -1.515625q0.625 -0.453125 1.703125 -0.765625q1.09375 -0.328125 2.34375 -0.328125q1.859375 0 3.265625 0.546875q1.421875 0.53125 2.09375 1.453125q0.6875 0.90625 0.9375 2.453125l-2.640625 0.359375q-0.171875 -1.21875 -1.03125 -1.90625q-0.859375 -0.703125 -2.4375 -0.703125q-1.859375 0 -2.65625 0.625q-0.78125 0.609375 -0.78125 1.4375q0 0.515625 0.328125 0.9375q0.328125 0.4375 1.03125 0.71875q0.40625 0.15625 2.375 0.6875q2.859375 0.765625 3.984375 1.25q1.140625 0.484375 1.78125 1.421875q0.640625 0.921875 0.640625 2.296875q0 1.34375 -0.78125 2.546875q-0.78125 1.1875 -2.265625 1.84375q-1.484375 0.640625 -3.359375 0.640625q-3.09375 0 -4.71875 -1.28125q-1.625 -1.296875 -2.078125 -3.828125zm16.421875 -14.09375l0 -3.09375l2.703125 0l0 3.09375l-2.703125 0zm0 18.84375l0 -15.890625l2.703125 0l0 15.890625l-2.703125 0zm6.795227 0l0 -15.890625l2.4375 0l0 2.25q1.75 -2.609375 5.046875 -2.609375q1.4375 0 2.640625 0.515625q1.21875 0.515625 1.8125 1.359375q0.59375 0.828125 0.84375 1.984375q0.140625 0.75 0.140625 2.609375l0 9.78125l-2.6875 0l0 -9.671875q0 -1.640625 -0.328125 -2.453125q-0.3125 -0.828125 -1.109375 -1.3125q-0.796875 -0.484375 -1.875 -0.484375q-1.71875 0 -2.96875 1.09375q-1.25 1.09375 -1.25 4.140625l0 8.6875l-2.703125 0zm27.940186 -5.125l2.78125 0.34375q-0.65625 2.453125 -2.4375 3.796875q-1.78125 1.34375 -4.546875 1.34375q-3.5 0 -5.546875 -2.140625q-2.03125 -2.15625 -2.03125 -6.03125q0 -4.015625 2.0625 -6.21875q2.0625 -2.21875 5.359375 -2.21875q3.1875 0 5.203125 2.171875q2.03125 2.15625 2.03125 6.09375q0 0.25 -0.015625 0.71875l-11.859375 0q0.15625 2.625 1.484375 4.015625q1.328125 1.390625 3.328125 1.390625q1.46875 0 2.515625 -0.765625q1.0625 -0.78125 1.671875 -2.5zm-8.84375 -4.34375l8.875 0q-0.1875 -2.015625 -1.015625 -3.015625q-1.296875 -1.5625 -3.34375 -1.5625q-1.859375 0 -3.125 1.25q-1.265625 1.234375 -1.390625 3.328125zm13.924561 4.71875l2.671875 -0.421875q0.21875 1.609375 1.234375 2.46875q1.03125 0.84375 2.875 0.84375q1.859375 0 2.75 -0.75q0.90625 -0.765625 0.90625 -1.78125q0 -0.90625 -0.796875 -1.4375q-0.546875 -0.359375 -2.75 -0.90625q-2.96875 -0.75 -4.109375 -1.296875q-1.140625 -0.546875 -1.734375 -1.515625q-0.59375 -0.96875 -0.59375 -2.125q0 -1.0625 0.484375 -1.96875q0.484375 -0.90625 1.328125 -1.515625q0.625 -0.453125 1.703125 -0.765625q1.09375 -0.328125 2.34375 -0.328125q1.859375 0 3.265625 0.546875q1.421875 0.53125 2.09375 1.453125q0.6875 0.90625 0.9375 2.453125l-2.640625 0.359375q-0.171875 -1.21875 -1.03125 -1.90625q-0.859375 -0.703125 -2.4375 -0.703125q-1.859375 0 -2.65625 0.625q-0.78125 0.609375 -0.78125 1.4375q0 0.515625 0.328125 0.9375q0.328125 0.4375 1.03125 0.71875q0.40625 0.15625 2.375 0.6875q2.859375 0.765625 3.984375 1.25q1.140625 0.484375 1.78125 1.421875q0.640625 0.921875 0.640625 2.296875q0 1.34375 -0.78125 2.546875q-0.78125 1.1875 -2.265625 1.84375q-1.484375 0.640625 -3.359375 0.640625q-3.09375 0 -4.71875 -1.28125q-1.625 -1.296875 -2.078125 -3.828125zm15.328125 0l2.671875 -0.421875q0.21875 1.609375 1.234375 2.46875q1.03125 0.84375 2.875 0.84375q1.859375 0 2.75 -0.75q0.90625 -0.765625 0.90625 -1.78125q0 -0.90625 -0.796875 -1.4375q-0.546875 -0.359375 -2.75 -0.90625q-2.96875 -0.75 -4.109375 -1.296875q-1.140625 -0.546875 -1.734375 -1.515625q-0.59375 -0.96875 -0.59375 -2.125q0 -1.0625 0.484375 -1.96875q0.484375 -0.90625 1.328125 -1.515625q0.625 -0.453125 1.703125 -0.765625q1.09375 -0.328125 2.34375 -0.328125q1.859375 0 3.265625 0.546875q1.421875 0.53125 2.09375 1.453125q0.6875 0.90625 0.9375 2.453125l-2.640625 0.359375q-0.171875 -1.21875 -1.03125 -1.90625q-0.859375 -0.703125 -2.4375 -0.703125q-1.859375 0 -2.65625 0.625q-0.78125 0.609375 -0.78125 1.4375q0 0.515625 0.328125 0.9375q0.328125 0.4375 1.03125 0.71875q0.40625 0.15625 2.375 0.6875q2.859375 0.765625 3.984375 1.25q1.140625 0.484375 1.78125 1.421875q0.640625 0.921875 0.640625 2.296875q0 1.34375 -0.78125 2.546875q-0.78125 1.1875 -2.265625 1.84375q-1.484375 0.640625 -3.359375 0.640625q-3.09375 0 -4.71875 -1.28125q-1.625 -1.296875 -2.078125 -3.828125zm35.236023 4.75l0 -2.0q-1.5 2.359375 -4.4375 2.359375q-1.90625 0 -3.5 -1.046875q-1.59375 -1.046875 -2.46875 -2.921875q-0.875 -1.890625 -0.875 -4.328125q0 -2.375 0.796875 -4.3125q0.796875 -1.9375 2.375 -2.96875q1.59375 -1.03125 3.546875 -1.03125q1.4375 0 2.5625 0.609375q1.125 0.59375 1.828125 1.5625l0 -7.859375l2.671875 0l0 21.9375l-2.5 0zm-8.515625 -7.9375q0 3.0625 1.28125 4.578125q1.296875 1.5 3.046875 1.5q1.765625 0 3.0 -1.4375q1.234375 -1.453125 1.234375 -4.40625q0 -3.265625 -1.265625 -4.796875q-1.25 -1.53125 -3.09375 -1.53125q-1.78125 0 -3.0 1.46875q-1.203125 1.46875 -1.203125 4.625zm15.268311 -10.90625l0 -3.09375l2.703125 0l0 3.09375l-2.703125 0zm0 18.84375l0 -15.890625l2.703125 0l0 15.890625l-2.703125 0zm6.763977 0l0 -15.890625l2.4375 0l0 2.40625q0.921875 -1.6875 1.703125 -2.21875q0.796875 -0.546875 1.734375 -0.546875q1.359375 0 2.765625 0.859375l-0.921875 2.5q-0.984375 -0.578125 -1.984375 -0.578125q-0.875 0 -1.578125 0.53125q-0.703125 0.53125 -1.0 1.46875q-0.453125 1.4375 -0.453125 3.140625l0 8.328125l-2.703125 0zm21.130615 -5.125l2.78125 0.34375q-0.65625 2.453125 -2.4375 3.796875q-1.78125 1.34375 -4.546875 1.34375q-3.5 0 -5.546875 -2.140625q-2.03125 -2.15625 -2.03125 -6.03125q0 -4.015625 2.0625 -6.21875q2.0625 -2.21875 5.359375 -2.21875q3.1875 0 5.203125 2.171875q2.03125 2.15625 2.03125 6.09375q0 0.25 -0.015625 0.71875l-11.859375 0q0.15625 2.625 1.484375 4.015625q1.328125 1.390625 3.328125 1.390625q1.46875 0 2.515625 -0.765625q1.0625 -0.78125 1.671875 -2.5zm-8.84375 -4.34375l8.875 0q-0.1875 -2.015625 -1.015625 -3.015625q-1.296875 -1.5625 -3.34375 -1.5625q-1.859375 0 -3.125 1.25q-1.265625 1.234375 -1.390625 3.328125zm25.377686 3.640625l2.65625 0.34375q-0.4375 2.75 -2.234375 4.296875q-1.78125 1.546875 -4.390625 1.546875q-3.25 0 -5.234375 -2.125q-1.984375 -2.140625 -1.984375 -6.125q0 -2.578125 0.84375 -4.5q0.859375 -1.9375 2.59375 -2.890625q1.75 -0.96875 3.796875 -0.96875q2.59375 0 4.234375 1.3125q1.65625 1.296875 2.125 3.703125l-2.625 0.40625q-0.375 -1.59375 -1.328125 -2.40625q-0.953125 -0.8125 -2.296875 -0.8125q-2.03125 0 -3.3125 1.46875q-1.265625 1.453125 -1.265625 4.609375q0 3.203125 1.21875 4.65625q1.234375 1.453125 3.203125 1.453125q1.59375 0 2.65625 -0.96875q1.0625 -0.96875 1.34375 -3.0zm10.84375 3.421875l0.390625 2.375q-1.140625 0.234375 -2.046875 0.234375q-1.453125 0 -2.265625 -0.453125q-0.8125 -0.46875 -1.140625 -1.21875q-0.328125 -0.765625 -0.328125 -3.1875l0 -9.140625l-1.984375 0l0 -2.09375l1.984375 0l0 -3.9375l2.671875 -1.625l0 5.5625l2.71875 0l0 2.09375l-2.71875 0l0 9.296875q0 1.140625 0.140625 1.484375q0.15625 0.328125 0.46875 0.515625q0.328125 0.1875 0.921875 0.1875q0.453125 0 1.1875 -0.09375zm2.564148 2.40625l0 -21.9375l2.703125 0l0 21.9375l-2.703125 0zm6.763977 6.125l-0.296875 -2.53125q0.875 0.234375 1.53125 0.234375q0.90625 0 1.4375 -0.296875q0.546875 -0.296875 0.890625 -0.84375q0.25 -0.390625 0.8125 -2.0q0.078125 -0.21875 0.25 -0.65625l-6.03125 -15.921875l2.890625 0l3.3125 9.203125q0.640625 1.75 1.15625 3.671875q0.46875 -1.84375 1.109375 -3.609375l3.390625 -9.265625l2.703125 0l-6.046875 16.15625q-0.984375 2.625 -1.515625 3.609375q-0.71875 1.328125 -1.65625 1.953125q-0.921875 0.625 -2.203125 0.625q-0.78125 0 -1.734375 -0.328125zm13.927063 -6.125l0 -3.0625l3.078125 0l0 3.0625l-3.078125 0z" fill-rule="nonzero"/></g></g></svg>