<svg version="1.1" viewBox="0.0 0.0 960.0 540.0" fill="none" stroke="none" stroke-linecap="square" stroke-miterlimit="10" xmlns:xlink="http://www.w3.org/1999/xlink" xmlns="http://www.w3.org/2000/svg"><clipPath id="slide_02.0"><path d="m0 0l960.0 0l0 540.0l-960.0 0l0 -540.0z" clip-rule="nonzero"/></clipPath><g clip-path="url(#slide_02.0)"><g id="slide_02"><path fill="#ffffff" d="m0 0l960.0 0l0 540.0l-960.0 0l0 -540.0z" fill-rule="nonzero"/><path fill="#ffffff" d="m0 0l960.0 0l0 540.0l-960.0 0z" fill-rule="evenodd"/><g id="a11y-dsl_t02" role="img" aria-label="You got a text from a number you did not recognize.&#xa;" tabindex="0"><path fill="#000000" fill-opacity="0.0" d="m80.0 122.666664l0 160.0l800.0 0l0 -160.0z" fill-rule="nonzero"/></g><path fill="#000000" fill-opacity="0.0" d="m80.0 122.666664l800.0 0l0 160.0l-800.0 0z" fill-rule="evenodd"/><path fill="#000000" d="m121.81549 175.18666l0 -13.75l-12.515625 -18.703125l5.234375 0l6.390625 9.78125q1.765625 2.75 3.296875 5.5q1.46875 -2.546875 3.546875 -5.734375l6.28125 -9.546875l5.0 0l-12.9375 18.703125l0 13.75l-4.296875 0zm14.931427 -11.75q0 -6.53125 3.640625 -9.671875q3.03125 -2.609375 7.390625 -2.609375q4.84375 0 7.921875 3.171875q3.078125 3.171875 3.078125 8.78125q0 4.53125 -1.359375 7.140625q-1.359375 2.59375 -3.96875 4.03125q-2.59375 1.4375 -5.671875 1.4375q-4.9375 0 -7.984375 -3.15625q-3.046875 -3.171875 -3.046875 -9.125zm4.09375 0q0 4.515625 1.96875 6.765625q1.984375 2.234375 4.96875 2.234375q2.96875 0 4.9375 -2.25q1.96875 -2.265625 1.96875 -6.890625q0 -4.359375 -1.984375 -6.59375q-1.984375 -2.25 -4.921875 -2.25q-2.984375 0 -4.96875 2.234375q-1.96875 2.234375 -1.96875 6.75zm38.006226 11.75l0 -3.453125q-2.75 3.984375 -7.453125 3.984375q-2.078125 0 -3.890625 -0.796875q-1.796875 -0.796875 -2.671875 -2.0q-0.875 -1.203125 -1.234375 -2.953125q-0.234375 -1.171875 -0.234375 -3.71875l0 -14.5625l3.984375 0l0 13.03125q0 3.125 0.234375 4.203125q0.375 1.578125 1.59375 2.46875q1.21875 0.890625 3.015625 0.890625q1.78125 0 3.359375 -0.90625q1.578125 -0.921875 2.21875 -2.5q0.65625 -1.59375 0.65625 -4.59375l0 -12.59375l3.984375 0l0 23.5l-3.5625 0zm21.662338 1.953125l3.875 0.5625q0.25 1.796875 1.359375 2.625q1.484375 1.09375 4.046875 1.09375q2.765625 0 4.265625 -1.109375q1.515625 -1.09375 2.046875 -3.09375q0.3125 -1.21875 0.28125 -5.109375q-2.609375 3.078125 -6.5 3.078125q-4.859375 0 -7.515625 -3.5q-2.65625 -3.5 -2.65625 -8.390625q0 -3.359375 1.21875 -6.203125q1.21875 -2.84375 3.53125 -4.390625q2.3125 -1.546875 5.4375 -1.546875q4.15625 0 6.859375 3.359375l0 -2.828125l3.671875 0l0 20.3125q0 5.484375 -1.125 7.78125q-1.109375 2.296875 -3.53125 3.625q-2.421875 1.328125 -5.96875 1.328125q-4.203125 0 -6.796875 -1.90625q-2.578125 -1.890625 -2.5 -5.6875zm3.3125 -14.125q0 4.625 1.828125 6.75q1.84375 2.125 4.609375 2.125q2.734375 0 4.59375 -2.109375q1.859375 -2.125 1.859375 -6.640625q0 -4.3125 -1.921875 -6.5q-1.90625 -2.1875 -4.609375 -2.1875q-2.640625 0 -4.5 2.15625q-1.859375 2.15625 -1.859375 6.40625zm21.14685 0.421875q0 -6.53125 3.640625 -9.671875q3.03125 -2.609375 7.390625 -2.609375q4.84375 0 7.921875 3.171875q3.078125 3.171875 3.078125 8.78125q0 4.53125 -1.359375 7.140625q-1.359375 2.59375 -3.96875 4.03125q-2.59375 1.4375 -5.671875 1.4375q-4.9375 0 -7.984375 -3.15625q-3.046875 -3.171875 -3.046875 -9.125zm4.09375 0q0 4.515625 1.96875 6.765625q1.984375 2.234375 4.96875 2.234375q2.96875 0 4.9375 -2.25q1.96875 -2.265625 1.96875 -6.890625q0 -4.359375 -1.984375 -6.59375q-1.984375 -2.25 -4.921875 -2.25q-2.984375 0 -4.96875 2.234375q-1.96875 2.234375 -1.96875 6.75zm31.303085 8.1875l0.578125 3.515625q-1.6875 0.359375 -3.015625 0.359375q-2.1718597 0 -3.3749847 -0.6875q-1.1875 -0.6875 -1.671875 -1.796875q-0.484375 -1.125 -0.484375 -4.71875l0 -13.515625l-2.921875 0l0 -3.09375l2.921875 0l0 -5.828125l3.9687347 -2.390625l0 8.21875l4.0 0l0 3.09375l-4.0 0l0 13.75q0 1.703125 0.203125 2.1875q0.203125 0.484375 0.671875 0.78125q0.484375 0.28125 1.375 0.28125q0.671875 0 1.75 -0.15625zm31.82788 0.65625q-2.21875 1.890625 -4.265625 2.671875q-2.046875 0.765625 -4.390625 0.765625q-3.875 0 -5.953125 -1.890625q-2.078125 -1.890625 -2.078125 -4.84375q0 -1.71875 0.78125 -3.140625q0.78125 -1.4375 2.046875 -2.296875q1.28125 -0.859375 2.875 -1.3125q1.171875 -0.296875 3.546875 -0.59375q4.828125 -0.578125 7.109375 -1.375q0.015625 -0.8125 0.015625 -1.03125q0 -2.4375 -1.125 -3.4375q-1.53125 -1.34375 -4.546875 -1.34375q-2.796875 0 -4.140625 0.984375q-1.34375 0.984375 -1.984375 3.484375l-3.890625 -0.53125q0.53125 -2.5 1.75 -4.03125q1.21875 -1.546875 3.515625 -2.375q2.296875 -0.828125 5.328125 -0.828125q3.015625 0 4.890625 0.703125q1.890625 0.703125 2.765625 1.78125q0.890625 1.078125 1.25 2.71875q0.1875 1.015625 0.1875 3.671875l0 5.3125q0 5.546875 0.25 7.03125q0.265625 1.46875 1.015625 2.8125l-4.15625 0q-0.625 -1.234375 -0.796875 -2.90625zm-0.328125 -8.890625q-2.171875 0.890625 -6.515625 1.5q-2.453125 0.359375 -3.46875 0.8125q-1.015625 0.4375 -1.578125 1.296875q-0.546875 0.84375 -0.546875 1.875q0 1.59375 1.203125 2.65625q1.203125 1.0625 3.53125 1.0625q2.296875 0 4.09375 -1.0q1.796875 -1.015625 2.640625 -2.765625q0.640625 -1.34375 0.640625 -3.984375l0 -1.453125zm31.490448 8.234375l0.578125 3.515625q-1.6875 0.359375 -3.015625 0.359375q-2.171875 0 -3.375 -0.6875q-1.1875 -0.6875 -1.671875 -1.796875q-0.484375 -1.125 -0.484375 -4.71875l0 -13.515625l-2.921875 0l0 -3.09375l2.921875 0l0 -5.828125l3.96875 -2.390625l0 8.21875l4.0 0l0 3.09375l-4.0 0l0 13.75q0 1.703125 0.203125 2.1875q0.203125 0.484375 0.671875 0.78125q0.484375 0.28125 1.375 0.28125q0.671875 0 1.75 -0.15625zm19.984222 -4.0l4.109375 0.5q-0.96875 3.609375 -3.609375 5.609375q-2.625 1.984375 -6.71875 1.984375q-5.15625 0 -8.1875 -3.171875q-3.015625 -3.1875 -3.015625 -8.90625q0 -5.9375 3.046875 -9.203125q3.0625 -3.28125 7.9375 -3.28125q4.71875 0 7.703125 3.203125q2.984375 3.203125 2.984375 9.03125q0 0.359375 -0.015625 1.0625l-17.53125 0q0.21875 3.875 2.1875 5.9375q1.96875 2.046875 4.90625 2.046875q2.203125 0 3.75 -1.140625q1.546875 -1.15625 2.453125 -3.671875zm-13.078125 -6.453125l13.125 0q-0.265625 -2.953125 -1.5 -4.4375q-1.90625 -2.3125 -4.9375 -2.3125q-2.75 0 -4.625 1.84375q-1.859375 1.828125 -2.0625 4.90625zm19.537476 14.015625l8.59375 -12.21875l-7.953125 -11.28125l4.984375 0l3.609375 5.5q1.015625 1.578125 1.640625 2.640625q0.96875 -1.46875 1.78125 -2.59375l3.96875 -5.546875l4.765625 0l-8.125 11.0625l8.734375 12.4375l-4.890625 0l-4.828125 -7.296875l-1.28125 -1.984375l-6.171875 9.28125l-4.828125 0zm34.023438 -3.5625l0.578125 3.515625q-1.6875 0.359375 -3.015625 0.359375q-2.171875 0 -3.375 -0.6875q-1.1875 -0.6875 -1.671875 -1.796875q-0.484375 -1.125 -0.484375 -4.71875l0 -13.515625l-2.921875 0l0 -3.09375l2.921875 0l0 -5.828125l3.96875 -2.390625l0 8.21875l4.0 0l0 3.09375l-4.0 0l0 13.75q0 1.703125 0.203125 2.1875q0.203125 0.484375 0.671875 0.78125q0.484375 0.28125 1.375 0.28125q0.671875 0 1.75 -0.15625zm17.437256 3.5625l0 -20.40625l-3.515625 0l0 -3.09375l3.515625 0l0 -2.5q0 -2.375 0.421875 -3.53125q0.578125 -1.546875 2.015625 -2.5q1.453125 -0.96875 4.078125 -0.96875q1.671875 0 3.71875 0.390625l-0.609375 3.484375q-1.234375 -0.21875 -2.34375 -0.21875q-1.8125 0 -2.5625 0.78125q-0.75 0.765625 -0.75 2.890625l0 2.171875l4.578125 0l0 3.09375l-4.578125 0l0 20.40625l-3.96875 0zm11.593628 0l0 -23.5l3.59375 0l0 3.5625q1.375 -2.5 2.53125 -3.296875q1.15625 -0.796875 2.5625 -0.796875q2.015625 0 4.09375 1.28125l-1.375 3.6875q-1.46875 -0.859375 -2.921875 -0.859375q-1.3125 0 -2.359375 0.796875q-1.03125 0.78125 -1.46875 2.171875q-0.671875 2.125 -0.671875 4.640625l0 12.3125l-3.984375 0zm13.6571045 -11.75q0 -6.53125 3.640625 -9.671875q3.03125 -2.609375 7.390625 -2.609375q4.84375 0 7.921875 3.171875q3.078125 3.171875 3.078125 8.78125q0 4.53125 -1.359375 7.140625q-1.359375 2.59375 -3.96875 4.03125q-2.59375 1.4375 -5.671875 1.4375q-4.9375 0 -7.984375 -3.15625q-3.046875 -3.171875 -3.046875 -9.125zm4.09375 0q0 4.515625 1.96875 6.765625q1.984375 2.234375 4.96875 2.234375q2.96875 0 4.9375 -2.25q1.96875 -2.265625 1.96875 -6.890625q0 -4.359375 -1.984375 -6.59375q-1.984375 -2.25 -4.921875 -2.25q-2.984375 0 -4.96875 2.234375q-1.96875 2.234375 -1.96875 6.75zm22.599976 11.75l0 -23.5l3.5625 0l0 3.296875q1.109375 -1.734375 2.9375 -2.78125q1.84375 -1.046875 4.1875 -1.046875q2.625 0 4.28125 1.078125q1.671875 1.078125 2.359375 3.03125q2.796875 -4.109375 7.265625 -4.109375q3.5 0 5.375 1.9375q1.890625 1.9375 1.890625 5.953125l0 16.140625l-3.96875 0l0 -14.8125q0 -2.390625 -0.390625 -3.4375q-0.390625 -1.046875 -1.40625 -1.6875q-1.015625 -0.640625 -2.390625 -0.640625q-2.46875 0 -4.109375 1.65625q-1.640625 1.640625 -1.640625 5.265625l0 13.65625l-3.984375 0l0 -15.265625q0 -2.65625 -0.984375 -3.984375q-0.96875 -1.328125 -3.171875 -1.328125q-1.6875 0 -3.125 0.890625q-1.421875 0.875 -2.0625 2.578125q-0.640625 1.703125 -0.640625 4.921875l0 12.1875l-3.984375 0zm65.696045 -2.90625q-2.21875 1.890625 -4.265625 2.671875q-2.046875 0.765625 -4.390625 0.765625q-3.875 0 -5.953125 -1.890625q-2.078125 -1.890625 -2.078125 -4.84375q0 -1.71875 0.78125 -3.140625q0.78125 -1.4375 2.046875 -2.296875q1.28125 -0.859375 2.875 -1.3125q1.171875 -0.296875 3.546875 -0.59375q4.828125 -0.578125 7.109375 -1.375q0.015625 -0.8125 0.015625 -1.03125q0 -2.4375 -1.125 -3.4375q-1.53125 -1.34375 -4.546875 -1.34375q-2.796875 0 -4.140625 0.984375q-1.34375 0.984375 -1.984375 3.484375l-3.890625 -0.53125q0.53125 -2.5 1.75 -4.03125q1.21875 -1.546875 3.515625 -2.375q2.296875 -0.828125 5.328125 -0.828125q3.015625 0 4.890625 0.703125q1.890625 0.703125 2.765625 1.78125q0.890625 1.078125 1.25 2.71875q0.1875 1.015625 0.1875 3.671875l0 5.3125q0 5.546875 0.25 7.03125q0.265625 1.46875 1.015625 2.8125l-4.15625 0q-0.625 -1.234375 -0.796875 -2.90625zm-0.328125 -8.890625q-2.171875 0.890625 -6.515625 1.5q-2.453125 0.359375 -3.46875 0.8125q-1.015625 0.4375 -1.578125 1.296875q-0.546875 0.84375 -0.546875 1.875q0 1.59375 1.203125 2.65625q1.203125 1.0625 3.53125 1.0625q2.296875 0 4.09375 -1.0q1.796875 -1.015625 2.640625 -2.765625q0.640625 -1.34375 0.640625 -3.984375l0 -1.453125zm22.787354 11.796875l0 -23.5l3.59375 0l0 3.34375q2.578125 -3.875 7.46875 -3.875q2.125 0 3.90625 0.765625q1.796875 0.75 2.671875 2.0q0.890625 1.234375 1.25 2.9375q0.21875 1.109375 0.21875 3.875l0 14.453125l-3.984375 0l0 -14.296875q0 -2.4375 -0.46875 -3.640625q-0.46875 -1.203125 -1.65625 -1.921875q-1.171875 -0.71875 -2.765625 -0.71875q-2.546875 0 -4.40625 1.609375q-1.84375 1.609375 -1.84375 6.125l0 12.84375l-3.984375 0zm40.6156 0l0 -3.453125q-2.75 3.984375 -7.453125 3.984375q-2.078125 0 -3.890625 -0.796875q-1.796875 -0.796875 -2.671875 -2.0q-0.875 -1.203125 -1.234375 -2.953125q-0.234375 -1.171875 -0.234375 -3.71875l0 -14.5625l3.984375 0l0 13.03125q0 3.125 0.234375 4.203125q0.375 1.578125 1.59375 2.46875q1.21875 0.890625 3.015625 0.890625q1.78125 0 3.359375 -0.90625q1.578125 -0.921875 2.21875 -2.5q0.65625 -1.59375 0.65625 -4.59375l0 -12.59375l3.984375 0l0 23.5l-3.5625 0zm9.803101 0l0 -23.5l3.5625 0l0 3.296875q1.109375 -1.734375 2.9375 -2.78125q1.84375 -1.046875 4.1875 -1.046875q2.625 0 4.28125 1.078125q1.671875 1.078125 2.359375 3.03125q2.796875 -4.109375 7.265625 -4.109375q3.5 0 5.375 1.9375q1.890625 1.9375 1.890625 5.953125l0 16.140625l-3.96875 0l0 -14.8125q0 -2.390625 -0.390625 -3.4375q-0.390625 -1.046875 -1.40625 -1.6875q-1.015625 -0.640625 -2.390625 -0.640625q-2.46875 0 -4.109375 1.65625q-1.640625 1.640625 -1.640625 5.265625l0 13.65625l-3.984375 0l0 -15.265625q0 -2.65625 -0.984375 -3.984375q-0.96875 -1.328125 -3.171875 -1.328125q-1.6875 0 -3.125 0.890625q-1.421875 0.875 -2.0625 2.578125q-0.640625 1.703125 -0.640625 4.921875l0 12.1875l-3.984375 0zm41.430542 0l-3.6875 0l0 -32.453125l3.984375 0l0 11.578125q2.515625 -3.15625 6.4375 -3.15625q2.171875 0 4.109375 0.875q1.9375 0.875 3.1875 2.453125q1.25 1.578125 1.953125 3.8125q0.703125 2.234375 0.703125 4.78125q0 6.046875 -2.984375 9.34375q-2.984375 3.296875 -7.171875 3.296875q-4.15625 0 -6.53125 -3.46875l0 2.9375zm-0.03125 -11.921875q0 4.21875 1.140625 6.09375q1.890625 3.078125 5.09375 3.078125q2.609375 0 4.515625 -2.265625q1.90625 -2.265625 1.90625 -6.765625q0 -4.59375 -1.828125 -6.78125q-1.828125 -2.203125 -4.421875 -2.203125q-2.609375 0 -4.515625 2.28125q-1.890625 2.265625 -1.890625 6.5625zm37.662476 4.359375l4.109375 0.5q-0.96875 3.609375 -3.609375 5.609375q-2.625 1.984375 -6.71875 1.984375q-5.15625 0 -8.1875 -3.171875q-3.015625 -3.1875 -3.015625 -8.90625q0 -5.9375 3.046875 -9.203125q3.0625 -3.28125 7.9375 -3.28125q4.71875 0 7.703125 3.203125q2.984375 3.203125 2.984375 9.03125q0 0.359375 -0.015625 1.0625l-17.53125 0q0.21875 3.875 2.1875 5.9375q1.96875 2.046875 4.90625 2.046875q2.203125 0 3.75 -1.140625q1.546875 -1.15625 2.453125 -3.671875zm-13.078125 -6.453125l13.125 0q-0.265625 -2.953125 -1.5 -4.4375q-1.90625 -2.3125 -4.9375 -2.3125q-2.75 0 -4.625 1.84375q-1.859375 1.828125 -2.0625 4.90625zm22.14685 14.015625l0 -23.5l3.59375 0l0 3.5625q1.375 -2.5 2.53125 -3.296875q1.15625 -0.796875 2.5625 -0.796875q2.015625 0 4.09375 1.28125l-1.375 3.6875q-1.46875 -0.859375 -2.921875 -0.859375q-1.3125 0 -2.359375 0.796875q-1.03125 0.78125 -1.46875 2.171875q-0.671875 2.125 -0.671875 4.640625l0 12.3125l-3.984375 0zm27.563232 9.046875l-0.4375 -3.734375q1.296875 0.359375 2.265625 0.359375q1.328125 0 2.125 -0.453125q0.796875 -0.4375 1.3125 -1.234375q0.375 -0.59375 1.21875 -2.96875q0.109375 -0.328125 0.359375 -0.96875l-8.921875 -23.546875l4.296875 0l4.890625 13.609375q0.953125 2.59375 1.703125 5.4375q0.6875 -2.734375 1.625 -5.359375l5.03125 -13.6875l3.984375 0l-8.9375 23.890625q-1.4375 3.875 -2.234375 5.34375q-1.0625 1.96875 -2.4375 2.890625q-1.375 0.921875 -3.28125 0.921875q-1.140625 0 -2.5625 -0.5zm21.351562 -20.796875q0 -6.53125 3.640625 -9.671875q3.03125 -2.609375 7.390625 -2.609375q4.84375 0 7.921875 3.171875q3.078125 3.171875 3.078125 8.78125q0 4.53125 -1.359375 7.140625q-1.359375 2.59375 -3.96875 4.03125q-2.59375 1.4375 -5.671875 1.4375q-4.9375 0 -7.984375 -3.15625q-3.046875 -3.171875 -3.046875 -9.125zm4.09375 0q0 4.515625 1.96875 6.765625q1.984375 2.234375 4.96875 2.234375q2.96875 0 4.9375 -2.25q1.96875 -2.265625 1.96875 -6.890625q0 -4.359375 -1.984375 -6.59375q-1.984375 -2.25 -4.921875 -2.25q-2.984375 0 -4.96875 2.234375q-1.96875 2.234375 -1.96875 6.75zm38.006226 11.75l0 -3.453125q-2.75 3.984375 -7.453125 3.984375q-2.078125 0 -3.890625 -0.796875q-1.796875 -0.796875 -2.671875 -2.0q-0.875 -1.203125 -1.234375 -2.953125q-0.234375 -1.171875 -0.234375 -3.71875l0 -14.5625l3.984375 0l0 13.03125q0 3.125 0.234375 4.203125q0.375 1.578125 1.59375 2.46875q1.21875 0.890625 3.015625 0.890625q1.78125 0 3.359375 -0.90625q1.578125 -0.921875 2.21875 -2.5q0.65625 -1.59375 0.65625 -4.59375l0 -12.59375l3.984375 0l0 23.5l-3.5625 0zm37.64673 0l0 -2.96875q-2.234375 3.5 -6.578125 3.5q-2.796875 0 -5.15625 -1.546875q-2.359375 -1.546875 -3.65625 -4.328125q-1.296875 -2.78125 -1.296875 -6.390625q0 -3.515625 1.171875 -6.375q1.171875 -2.875 3.515625 -4.390625q2.359375 -1.53125 5.25 -1.53125q2.125 0 3.78125 0.890625q1.671875 0.890625 2.703125 2.328125l0 -11.640625l3.96875 0l0 32.453125l-3.703125 0zm-12.59375 -11.734375q0 4.515625 1.90625 6.75q1.90625 2.234375 4.5 2.234375q2.609375 0 4.421875 -2.125q1.828125 -2.140625 1.828125 -6.515625q0 -4.828125 -1.859375 -7.078125q-1.859375 -2.265625 -4.578125 -2.265625q-2.65625 0 -4.4375 2.171875q-1.78125 2.15625 -1.78125 6.828125zm22.58435 -16.125l0 -4.59375l3.984375 0l0 4.59375l-3.984375 0zm0 27.859375l0 -23.5l3.984375 0l0 23.5l-3.984375 0zm25.289246 0l0 -2.96875q-2.234375 3.5 -6.578125 3.5q-2.796875 0 -5.15625 -1.546875q-2.359375 -1.546875 -3.65625 -4.328125q-1.296875 -2.78125 -1.296875 -6.390625q0 -3.515625 1.171875 -6.375q1.171875 -2.875 3.515625 -4.390625q2.359375 -1.53125 5.25 -1.53125q2.125 0 3.78125 0.890625q1.671875 0.890625 2.703125 2.328125l0 -11.640625l3.96875 0l0 32.453125l-3.703125 0zm-12.59375 -11.734375q0 4.515625 1.90625 6.75q1.90625 2.234375 4.5 2.234375q2.609375 0 4.421875 -2.125q1.828125 -2.140625 1.828125 -6.515625q0 -4.828125 -1.859375 -7.078125q-1.859375 -2.265625 -4.578125 -2.265625q-2.65625 0 -4.4375 2.171875q-1.78125 2.15625 -1.78125 6.828125z" fill-rule="nonzero"/><path fill="#000000" d="m340.61462 229.18666l0 -23.5l3.59375 0l0 3.34375q2.578125 -3.875 7.46875 -3.875q2.125 0 3.90625 0.765625q1.796875 0.75 2.671875 2.0q0.890625 1.234375 1.25 2.9375q0.21875 1.109375 0.21875 3.875l0 14.453125l-3.984375 0l0 -14.296875q0 -2.4375 -0.46875 -3.640625q-0.46875 -1.203125 -1.65625 -1.921875q-1.171875 -0.71875 -2.765625 -0.71875q-2.546875 0 -4.40625 1.609375q-1.84375 1.609375 -1.84375 6.125l0 12.84375l-3.984375 0zm23.724976 -11.75q0 -6.53125 3.640625 -9.671875q3.03125 -2.609375 7.390625 -2.609375q4.84375 0 7.921875 3.171875q3.078125 3.171875 3.078125 8.78125q0 4.53125 -1.359375 7.140625q-1.359375 2.59375 -3.96875 4.03125q-2.59375 1.4375 -5.671875 1.4375q-4.9375 0 -7.984375 -3.15625q-3.046875 -3.171875 -3.046875 -9.125zm4.09375 0q0 4.515625 1.96875 6.765625q1.984375 2.234375 4.96875 2.234375q2.96875 0 4.9375 -2.25q1.96875 -2.265625 1.96875 -6.890625q0 -4.359375 -1.984375 -6.59375q-1.984375 -2.25 -4.921875 -2.25q-2.984375 0 -4.96875 2.234375q-1.96875 2.234375 -1.96875 6.75zm31.3031 8.1875l0.578125 3.515625q-1.6875 0.359375 -3.015625 0.359375q-2.171875 0 -3.375 -0.6875q-1.1875 -0.6875 -1.671875 -1.796875q-0.484375 -1.125 -0.484375 -4.71875l0 -13.515625l-2.921875 0l0 -3.09375l2.921875 0l0 -5.828125l3.96875 -2.390625l0 8.21875l4.0 0l0 3.09375l-4.0 0l0 13.75q0 1.703125 0.203125 2.1875q0.203125 0.484375 0.671875 0.78125q0.484375 0.28125 1.375 0.28125q0.671875 0 1.75 -0.15625zm16.437225 3.5625l0 -23.5l3.59375 0l0 3.5625q1.375 -2.5 2.53125 -3.296875q1.15625 -0.796875 2.5625 -0.796875q2.015625 0 4.09375 1.28125l-1.375 3.6875q-1.46875 -0.859375 -2.921875 -0.859375q-1.3125 0 -2.359375 0.796875q-1.03125 0.78125 -1.46875 2.171875q-0.671875 2.125 -0.671875 4.640625l0 12.3125l-3.984375 0zm31.23526 -7.5625l4.109375 0.5q-0.96875 3.609375 -3.609375 5.609375q-2.625 1.984375 -6.71875 1.984375q-5.15625 0 -8.1875 -3.171875q-3.015625 -3.1875 -3.015625 -8.90625q0 -5.9375 3.046875 -9.203125q3.0625 -3.28125 7.9375 -3.28125q4.71875 0 7.703125 3.203125q2.984375 3.203125 2.984375 9.03125q0 0.359375 -0.015625 1.0625l-17.53125 0q0.21875 3.875 2.1875 5.9375q1.96875 2.046875 4.90625 2.046875q2.203125 0 3.75 -1.140625q1.546875 -1.15625 2.453125 -3.671875zm-13.078125 -6.453125l13.125 0q-0.265625 -2.953125 -1.5 -4.4375q-1.90625 -2.3125 -4.9375 -2.3125q-2.75 0 -4.625 1.84375q-1.859375 1.828125 -2.0625 4.90625zm37.537476 5.40625l3.921875 0.515625q-0.640625 4.046875 -3.296875 6.34375q-2.640625 2.28125 -6.5 2.28125q-4.8125 0 -7.75 -3.15625q-2.9375 -3.15625 -2.9375 -9.03125q0 -3.8125 1.265625 -6.671875q1.265625 -2.859375 3.84375 -4.28125q2.578125 -1.421875 5.609375 -1.421875q3.828125 0 6.265625 1.9375q2.4375 1.9375 3.125 5.5l-3.875 0.59375q-0.5625 -2.375 -1.96875 -3.5625q-1.40625 -1.203125 -3.390625 -1.203125q-3.015625 0 -4.90625 2.171875q-1.875 2.15625 -1.875 6.8125q0 4.75 1.8125 6.890625q1.828125 2.140625 4.75 2.140625q2.34375 0 3.90625 -1.4375q1.578125 -1.4375 2.0 -4.421875zm5.8359375 -3.140625q0 -6.53125 3.640625 -9.671875q3.03125 -2.609375 7.390625 -2.609375q4.84375 0 7.921875 3.171875q3.078125 3.171875 3.078125 8.78125q0 4.53125 -1.359375 7.140625q-1.359375 2.59375 -3.96875 4.03125q-2.59375 1.4375 -5.671875 1.4375q-4.9375 0 -7.984375 -3.15625q-3.046875 -3.171875 -3.046875 -9.125zm4.09375 0q0 4.515625 1.96875 6.765625q1.984375 2.234375 4.96875 2.234375q2.96875 0 4.9375 -2.25q1.96875 -2.265625 1.96875 -6.890625q0 -4.359375 -1.984375 -6.59375q-1.984375 -2.25 -4.921875 -2.25q-2.984375 0 -4.96875 2.234375q-1.96875 2.234375 -1.96875 6.75zm21.8656 13.703125l3.875 0.5625q0.25 1.796875 1.359375 2.625q1.484375 1.09375 4.046875 1.09375q2.765625 0 4.265625 -1.109375q1.515625 -1.09375 2.046875 -3.09375q0.3125 -1.21875 0.28125 -5.109375q-2.609375 3.078125 -6.5 3.078125q-4.859375 0 -7.515625 -3.5q-2.65625 -3.5 -2.65625 -8.390625q0 -3.359375 1.21875 -6.203125q1.21875 -2.84375 3.53125 -4.390625q2.3125 -1.546875 5.4375 -1.546875q4.15625 0 6.859375 3.359375l0 -2.828125l3.671875 0l0 20.3125q0 5.484375 -1.125 7.78125q-1.109375 2.296875 -3.53125 3.625q-2.421875 1.328125 -5.96875 1.328125q-4.203125 0 -6.796875 -1.90625q-2.578125 -1.890625 -2.5 -5.6875zm3.3125 -14.125q0 4.625 1.828125 6.75q1.84375 2.125 4.609375 2.125q2.734375 0 4.59375 -2.109375q1.859375 -2.125 1.859375 -6.640625q0 -4.3125 -1.921875 -6.5q-1.90625 -2.1875 -4.609375 -2.1875q-2.640625 0 -4.5 2.15625q-1.859375 2.15625 -1.859375 6.40625zm22.631226 12.171875l0 -23.5l3.59375 0l0 3.34375q2.578125 -3.875 7.46875 -3.875q2.125 0 3.90625 0.765625q1.796875 0.75 2.671875 2.0q0.890625 1.234375 1.25 2.9375q0.21875 1.109375 0.21875 3.875l0 14.453125l-3.984375 0l0 -14.296875q0 -2.4375 -0.46875 -3.640625q-0.46875 -1.203125 -1.65625 -1.921875q-1.171875 -0.71875 -2.765625 -0.71875q-2.546875 0 -4.40625 1.609375q-1.84375 1.609375 -1.84375 6.125l0 12.84375l-3.984375 0zm25.2406 -27.859375l0 -4.59375l3.984375 0l0 4.59375l-3.984375 0zm0 27.859375l0 -23.5l3.984375 0l0 23.5l-3.984375 0zm7.9454346 0l0 -3.234375l14.953125 -17.171875q-2.546875 0.125 -4.484375 0.125l-9.59375 0l0 -3.21875l19.21875 0l0 2.625l-12.734375 14.921875l-2.453125 2.71875q2.6875 -0.203125 5.03125 -0.203125l10.859375 0l0 3.4375l-20.796875 0zm40.851562 -7.5625l4.109375 0.5q-0.96875 3.609375 -3.609375 5.609375q-2.625 1.984375 -6.71875 1.984375q-5.15625 0 -8.1875 -3.171875q-3.015625 -3.1875 -3.015625 -8.90625q0 -5.9375 3.046875 -9.203125q3.0625 -3.28125 7.9375 -3.28125q4.71875 0 7.703125 3.203125q2.984375 3.203125 2.984375 9.03125q0 0.359375 -0.015625 1.0625l-17.53125 0q0.21875 3.875 2.1875 5.9375q1.96875 2.046875 4.90625 2.046875q2.203125 0 3.75 -1.140625q1.546875 -1.15625 2.453125 -3.671875zm-13.078125 -6.453125l13.125 0q-0.265625 -2.953125 -1.5 -4.4375q-1.90625 -2.3125 -4.9375 -2.3125q-2.75 0 -4.625 1.84375q-1.859375 1.828125 -2.0625 4.90625zm23.318726 14.015625l0 -4.53125l4.546875 0l0 4.53125l-4.546875 0z" fill-rule="nonzero"/><g id="a11y-dsl_b02" role="img" aria-label="I built the first version before asking you to buy.&#xa;Most people pitch decoration.&#xa;This is built as an asset.&#xa;" tabindex="0"><path fill="#000000" fill-opacity="0.0" d="m106.666664 317.33334l0 193.32281l746.6771 0l0 -193.32281z" fill-rule="nonzero"/></g><path fill="#000000" fill-opacity="0.0" d="m106.666664 317.33334l746.6771 0l0 193.32281l-746.6771 0z" fill-rule="evenodd"/><path fill="#000000" d="m163.64632 355.77335l0 -21.9375l2.90625 0l0 21.9375l-2.90625 0zm18.675201 0l-2.5 0l0 -21.9375l2.703125 0l0 7.828125q1.703125 -2.140625 4.359375 -2.140625q1.453125 0 2.765625 0.59375q1.3125 0.578125 2.15625 1.65625q0.84375 1.0625 1.328125 2.578125q0.484375 1.515625 0.484375 3.234375q0 4.09375 -2.03125 6.328125q-2.015625 2.21875 -4.84375 2.21875q-2.8125 0 -4.421875 -2.34375l0 1.984375zm-0.03125 -8.0625q0 2.859375 0.78125 4.125q1.28125 2.078125 3.453125 2.078125q1.765625 0 3.046875 -1.53125q1.28125 -1.53125 1.28125 -4.578125q0 -3.109375 -1.234375 -4.59375q-1.234375 -1.484375 -2.984375 -1.484375q-1.765625 0 -3.0625 1.546875q-1.28125 1.53125 -1.28125 4.4375zm25.018295 8.0625l0 -2.328125q-1.859375 2.6875 -5.046875 2.6875q-1.40625 0 -2.625 -0.53125q-1.21875 -0.546875 -1.8125 -1.359375q-0.59375 -0.8125 -0.828125 -2.0q-0.171875 -0.796875 -0.171875 -2.515625l0 -9.84375l2.703125 0l0 8.8125q0 2.109375 0.15625 2.84375q0.265625 1.0625 1.078125 1.671875q0.828125 0.609375 2.046875 0.609375q1.203125 0 2.265625 -0.625q1.0625 -0.625 1.5 -1.6875q0.453125 -1.078125 0.453125 -3.109375l0 -8.515625l2.6875 0l0 15.890625l-2.40625 0zm6.6432953 -18.84375l0 -3.09375l2.703125 0l0 3.09375l-2.703125 0zm0 18.84375l0 -15.890625l2.703125 0l0 15.890625l-2.703125 0zm6.732712 0l0 -21.9375l2.703125 0l0 21.9375l-2.703125 0zm12.763962 -2.40625l0.390625 2.375q-1.140625 0.234375 -2.046875 0.234375q-1.453125 0 -2.265625 -0.453125q-0.8125 -0.46875 -1.140625 -1.21875q-0.328125 -0.765625 -0.328125 -3.1875l0 -9.140625l-1.984375 0l0 -2.09375l1.984375 0l0 -3.9375l2.671875 -1.625l0 5.5625l2.71875 0l0 2.09375l-2.71875 0l0 9.296875q0 1.140625 0.140625 1.484375q0.15625 0.328125 0.46875 0.515625q0.328125 0.1875 0.921875 0.1875q0.453125 0 1.1875 -0.09375zm17.034576 0l0.390625 2.375q-1.140625 0.234375 -2.046875 0.234375q-1.453125 0 -2.265625 -0.453125q-0.8125 -0.46875 -1.140625 -1.21875q-0.328125 -0.765625 -0.328125 -3.1875l0 -9.140625l-1.984375 0l0 -2.09375l1.984375 0l0 -3.9375l2.671875 -1.625l0 5.5625l2.71875 0l0 2.09375l-2.71875 0l0 9.296875q0 1.140625 0.140625 1.484375q0.15625 0.328125 0.46875 0.515625q0.328125 0.1875 0.921875 0.1875q0.453125 0 1.1875 -0.09375zm2.6266632 2.40625l0 -21.9375l2.703125 0l0 7.859375q1.875 -2.171875 4.75 -2.171875q1.765625 0 3.0625 0.703125q1.3125 0.6875 1.875 1.921875q0.5625 1.21875 0.5625 3.546875l0 10.078125l-2.6875 0l0 -10.078125q0 -2.015625 -0.890625 -2.9375q-0.875 -0.921875 -2.46875 -0.921875q-1.203125 0 -2.265625 0.625q-1.046875 0.625 -1.5 1.6875q-0.4375 1.0625 -0.4375 2.921875l0 8.703125l-2.703125 0zm27.940155 -5.125l2.78125 0.34375q-0.65625 2.453125 -2.4375 3.796875q-1.78125 1.34375 -4.546875 1.34375q-3.5 0 -5.546875 -2.140625q-2.03125 -2.15625 -2.03125 -6.03125q0 -4.015625 2.0625 -6.21875q2.0625 -2.21875 5.359375 -2.21875q3.1875 0 5.203125 2.171875q2.03125 2.15625 2.03125 6.09375q0 0.25 -0.015625 0.71875l-11.859375 0q0.15625 2.625 1.484375 4.015625q1.328125 1.390625 3.328125 1.390625q1.46875 0 2.515625 -0.765625q1.0625 -0.78125 1.671875 -2.5zm-8.84375 -4.34375l8.875 0q-0.1875 -2.015625 -1.015625 -3.015625q-1.296875 -1.5625 -3.34375 -1.5625q-1.859375 0 -3.125 1.25q-1.265625 1.234375 -1.390625 3.328125zm24.176208 9.46875l0 -13.796875l-2.390625 0l0 -2.09375l2.390625 0l0 -1.703125q0 -1.59375 0.28125 -2.375q0.390625 -1.046875 1.359375 -1.6875q0.984375 -0.65625 2.75 -0.65625q1.140625 0 2.515625 0.265625l-0.40625 2.34375q-0.828125 -0.140625 -1.578125 -0.140625q-1.234375 0 -1.75 0.53125q-0.5 0.515625 -0.5 1.953125l0 1.46875l3.09375 0l0 2.09375l-3.09375 0l0 13.796875l-2.671875 0zm7.8766785 -18.84375l0 -3.09375l2.703125 0l0 3.09375l-2.703125 0zm0 18.84375l0 -15.890625l2.703125 0l0 15.890625l-2.703125 0zm6.7639465 0l0 -15.890625l2.4375 0l0 2.40625q0.921875 -1.6875 1.703125 -2.21875q0.796875 -0.546875 1.734375 -0.546875q1.359375 0 2.765625 0.859375l-0.921875 2.5q-0.984375 -0.578125 -1.984375 -0.578125q-0.875 0 -1.578125 0.53125q-0.703125 0.53125 -1.0 1.46875q-0.453125 1.4375 -0.453125 3.140625l0 8.328125l-2.703125 0zm9.161896 -4.75l2.671875 -0.421875q0.21875 1.609375 1.234375 2.46875q1.03125 0.84375 2.875 0.84375q1.859375 0 2.75 -0.75q0.90625 -0.765625 0.90625 -1.78125q0 -0.90625 -0.796875 -1.4375q-0.546875 -0.359375 -2.75 -0.90625q-2.96875 -0.75 -4.109375 -1.296875q-1.140625 -0.546875 -1.734375 -1.515625q-0.59375 -0.96875 -0.59375 -2.125q0 -1.0625 0.484375 -1.96875q0.484375 -0.90625 1.328125 -1.515625q0.625 -0.453125 1.703125 -0.765625q1.09375 -0.328125 2.34375 -0.328125q1.859375 0 3.265625 0.546875q1.421875 0.53125 2.09375 1.453125q0.6875 0.90625 0.9375 2.453125l-2.640625 0.359375q-0.171875 -1.21875 -1.03125 -1.90625q-0.859375 -0.703125 -2.4375 -0.703125q-1.859375 0 -2.65625 0.625q-0.78125 0.609375 -0.78125 1.4375q0 0.515625 0.328125 0.9375q0.328125 0.4375 1.03125 0.71875q0.40625 0.15625 2.375 0.6875q2.859375 0.765625 3.984375 1.25q1.140625 0.484375 1.78125 1.421875q0.640625 0.921875 0.640625 2.296875q0 1.34375 -0.78125 2.546875q-0.78125 1.1875 -2.265625 1.84375q-1.484375 0.640625 -3.359375 0.640625q-3.09375 0 -4.71875 -1.28125q-1.625 -1.296875 -2.078125 -3.828125zm22.296875 2.34375l0.390625 2.375q-1.140625 0.234375 -2.046875 0.234375q-1.453125 0 -2.265625 -0.453125q-0.8125 -0.46875 -1.140625 -1.21875q-0.328125 -0.765625 -0.328125 -3.1875l0 -9.140625l-1.984375 0l0 -2.09375l1.984375 0l0 -3.9375l2.671875 -1.625l0 5.5625l2.71875 0l0 2.09375l-2.71875 0l0 9.296875q0 1.140625 0.140625 1.484375q0.15625 0.328125 0.46875 0.515625q0.328125 0.1875 0.921875 0.1875q0.453125 0 1.1875 -0.09375zm15.565826 2.40625l-6.046875 -15.890625l2.84375 0l3.40625 9.515625q0.5625 1.546875 1.03125 3.203125q0.34375 -1.265625 1.0 -3.03125l3.53125 -9.6875l2.765625 0l-6.015625 15.890625l-2.515625 0zm21.796875 -5.125l2.78125 0.34375q-0.65625 2.453125 -2.4375 3.796875q-1.78125 1.34375 -4.546875 1.34375q-3.5 0 -5.546875 -2.140625q-2.03125 -2.15625 -2.03125 -6.03125q0 -4.015625 2.0625 -6.21875q2.0625 -2.21875 5.359375 -2.21875q3.1875 0 5.203125 2.171875q2.03125 2.15625 2.03125 6.09375q0 0.25 -0.015625 0.71875l-11.859375 0q0.15625 2.625 1.484375 4.015625q1.328125 1.390625 3.328125 1.390625q1.46875 0 2.515625 -0.765625q1.0625 -0.78125 1.671875 -2.5zm-8.84375 -4.34375l8.875 0q-0.1875 -2.015625 -1.015625 -3.015625q-1.296875 -1.5625 -3.34375 -1.5625q-1.859375 0 -3.125 1.25q-1.265625 1.234375 -1.390625 3.328125zm14.971405 9.46875l0 -15.890625l2.4375 0l0 2.40625q0.921875 -1.6875 1.703125 -2.21875q0.796875 -0.546875 1.734375 -0.546875q1.359375 0 2.765625 0.859375l-0.921875 2.5q-0.984375 -0.578125 -1.984375 -0.578125q-0.875 0 -1.578125 0.53125q-0.703125 0.53125 -1.0 1.46875q-0.453125 1.4375 -0.453125 3.140625l0 8.328125l-2.703125 0zm9.161926 -4.75l2.671875 -0.421875q0.21875 1.609375 1.234375 2.46875q1.03125 0.84375 2.875 0.84375q1.859375 0 2.75 -0.75q0.90625 -0.765625 0.90625 -1.78125q0 -0.90625 -0.796875 -1.4375q-0.546875 -0.359375 -2.75 -0.90625q-2.96875 -0.75 -4.109375 -1.296875q-1.140625 -0.546875 -1.734375 -1.515625q-0.59375 -0.96875 -0.59375 -2.125q0 -1.0625 0.484375 -1.96875q0.484375 -0.90625 1.328125 -1.515625q0.625 -0.453125 1.703125 -0.765625q1.09375 -0.328125 2.34375 -0.328125q1.859375 0 3.265625 0.546875q1.421875 0.53125 2.09375 1.453125q0.6875 0.90625 0.9375 2.453125l-2.640625 0.359375q-0.171875 -1.21875 -1.03125 -1.90625q-0.859375 -0.703125 -2.4375 -0.703125q-1.859375 0 -2.65625 0.625q-0.78125 0.609375 -0.78125 1.4375q0 0.515625 0.328125 0.9375q0.328125 0.4375 1.03125 0.71875q0.40625 0.15625 2.375 0.6875q2.859375 0.765625 3.984375 1.25q1.140625 0.484375 1.78125 1.421875q0.640625 0.921875 0.640625 2.296875q0 1.34375 -0.78125 2.546875q-0.78125 1.1875 -2.265625 1.84375q-1.484375 0.640625 -3.359375 0.640625q-3.09375 0 -4.71875 -1.28125q-1.625 -1.296875 -2.078125 -3.828125zm16.421875 -14.09375l0 -3.09375l2.703125 0l0 3.09375l-2.703125 0zm0 18.84375l0 -15.890625l2.703125 0l0 15.890625l-2.703125 0zm5.7951965 -7.953125q0 -4.40625 2.453125 -6.53125q2.0625 -1.765625 5.0 -1.765625q3.28125 0 5.359375 2.15625q2.078125 2.140625 2.078125 5.921875q0 3.0625 -0.921875 4.828125q-0.90625 1.75 -2.671875 2.734375q-1.765625 0.96875 -3.84375 0.96875q-3.328125 0 -5.390625 -2.140625q-2.0625 -2.140625 -2.0625 -6.171875zm2.765625 0q0 3.0625 1.328125 4.578125q1.34375 1.515625 3.359375 1.515625q2.015625 0 3.34375 -1.515625q1.328125 -1.53125 1.328125 -4.65625q0 -2.953125 -1.34375 -4.46875q-1.328125 -1.53125 -3.328125 -1.53125q-2.015625 0 -3.359375 1.515625q-1.328125 1.515625 -1.328125 4.5625zm15.283936 7.953125l0 -15.890625l2.4375 0l0 2.25q1.75 -2.609375 5.046875 -2.609375q1.4375 0 2.640625 0.515625q1.21875 0.515625 1.8125 1.359375q0.59375 0.828125 0.84375 1.984375q0.140625 0.75 0.140625 2.609375l0 9.78125l-2.6875 0l0 -9.671875q0 -1.640625 -0.328125 -2.453125q-0.3125 -0.828125 -1.109375 -1.3125q-0.796875 -0.484375 -1.875 -0.484375q-1.71875 0 -2.96875 1.09375q-1.25 1.09375 -1.25 4.140625l0 8.6875l-2.703125 0zm28.051208 0l-2.5 0l0 -21.9375l2.703125 0l0 7.828125q1.703125 -2.140625 4.359375 -2.140625q1.453125 0 2.765625 0.59375q1.3125 0.578125 2.15625 1.65625q0.84375 1.0625 1.328125 2.578125q0.484375 1.515625 0.484375 3.234375q0 4.09375 -2.03125 6.328125q-2.015625 2.21875 -4.84375 2.21875q-2.8125 0 -4.421875 -2.34375l0 1.984375zm-0.03125 -8.0625q0 2.859375 0.78125 4.125q1.28125 2.078125 3.453125 2.078125q1.765625 0 3.046875 -1.53125q1.28125 -1.53125 1.28125 -4.578125q0 -3.109375 -1.234375 -4.59375q-1.234375 -1.484375 -2.984375 -1.484375q-1.765625 0 -3.0625 1.546875q-1.28125 1.53125 -1.28125 4.4375zm25.48706 2.9375l2.78125 0.34375q-0.65625 2.453125 -2.4375 3.796875q-1.78125 1.34375 -4.546875 1.34375q-3.5 0 -5.546875 -2.140625q-2.03125 -2.15625 -2.03125 -6.03125q0 -4.015625 2.0625 -6.21875q2.0625 -2.21875 5.359375 -2.21875q3.1875 0 5.203125 2.171875q2.03125 2.15625 2.03125 6.09375q0 0.25 -0.015625 0.71875l-11.859375 0q0.15625 2.625 1.484375 4.015625q1.328125 1.390625 3.328125 1.390625q1.46875 0 2.515625 -0.765625q1.0625 -0.78125 1.671875 -2.5zm-8.84375 -4.34375l8.875 0q-0.1875 -2.015625 -1.015625 -3.015625q-1.296875 -1.5625 -3.34375 -1.5625q-1.859375 0 -3.125 1.25q-1.265625 1.234375 -1.390625 3.328125zm15.658936 9.46875l0 -13.796875l-2.390625 0l0 -2.09375l2.390625 0l0 -1.703125q0 -1.59375 0.28125 -2.375q0.390625 -1.046875 1.359375 -1.6875q0.984375 -0.65625 2.75 -0.65625q1.140625 0 2.515625 0.265625l-0.40625 2.34375q-0.828125 -0.140625 -1.578125 -0.140625q-1.234375 0 -1.75 0.53125q-0.5 0.515625 -0.5 1.953125l0 1.46875l3.09375 0l0 2.09375l-3.09375 0l0 13.796875l-2.671875 0zm6.861023 -7.953125q0 -4.40625 2.453125 -6.53125q2.0625 -1.765625 5.0 -1.765625q3.28125 0 5.359375 2.15625q2.078125 2.140625 2.078125 5.921875q0 3.0625 -0.921875 4.828125q-0.90625 1.75 -2.671875 2.734375q-1.765625 0.96875 -3.84375 0.96875q-3.328125 0 -5.390625 -2.140625q-2.0625 -2.140625 -2.0625 -6.171875zm2.765625 0q0 3.0625 1.328125 4.578125q1.34375 1.515625 3.359375 1.515625q2.015625 0 3.34375 -1.515625q1.328125 -1.53125 1.328125 -4.65625q0 -2.953125 -1.34375 -4.46875q-1.328125 -1.53125 -3.328125 -1.53125q-2.015625 0 -3.359375 1.515625q-1.328125 1.515625 -1.328125 4.5625zm15.252686 7.953125l0 -15.890625l2.4375 0l0 2.40625q0.921875 -1.6875 1.703125 -2.21875q0.796875 -0.546875 1.734375 -0.546875q1.359375 0 2.765625 0.859375l-0.921875 2.5q-0.984375 -0.578125 -1.984375 -0.578125q-0.875 0 -1.578125 0.53125q-0.703125 0.53125 -1.0 1.46875q-0.453125 1.4375 -0.453125 3.140625l0 8.328125l-2.703125 0zm21.130676 -5.125l2.78125 0.34375q-0.65625 2.453125 -2.4375 3.796875q-1.78125 1.34375 -4.546875 1.34375q-3.5 0 -5.546875 -2.140625q-2.03125 -2.15625 -2.03125 -6.03125q0 -4.015625 2.0625 -6.21875q2.0625 -2.21875 5.359375 -2.21875q3.1875 0 5.203125 2.171875q2.03125 2.15625 2.03125 6.09375q0 0.25 -0.015625 0.71875l-11.859375 0q0.15625 2.625 1.484375 4.015625q1.328125 1.390625 3.328125 1.390625q1.46875 0 2.515625 -0.765625q1.0625 -0.78125 1.671875 -2.5zm-8.84375 -4.34375l8.875 0q-0.1875 -2.015625 -1.015625 -3.015625q-1.296875 -1.5625 -3.34375 -1.5625q-1.859375 0 -3.125 1.25q-1.265625 1.234375 -1.390625 3.328125zm33.894897 7.515625q-1.5 1.265625 -2.890625 1.796875q-1.375 0.515625 -2.953125 0.515625q-2.625 0 -4.03125 -1.28125q-1.40625 -1.28125 -1.40625 -3.265625q0 -1.171875 0.53125 -2.140625q0.53125 -0.96875 1.390625 -1.546875q0.859375 -0.578125 1.9375 -0.875q0.796875 -0.21875 2.390625 -0.40625q3.265625 -0.390625 4.8125 -0.9375q0.015625 -0.546875 0.015625 -0.703125q0 -1.640625 -0.765625 -2.3125q-1.03125 -0.921875 -3.0625 -0.921875q-1.90625 0 -2.8125 0.671875q-0.90625 0.671875 -1.34375 2.359375l-2.625 -0.359375q0.359375 -1.6875 1.171875 -2.734375q0.828125 -1.046875 2.375 -1.59375q1.5625 -0.5625 3.609375 -0.5625q2.046875 0 3.3125 0.484375q1.28125 0.46875 1.875 1.203125q0.59375 0.71875 0.84375 1.828125q0.125 0.6875 0.125 2.484375l0 3.59375q0 3.75 0.171875 4.75q0.171875 1.0 0.6875 1.90625l-2.8125 0q-0.421875 -0.84375 -0.546875 -1.953125zm-0.21875 -6.03125q-1.46875 0.609375 -4.40625 1.03125q-1.65625 0.234375 -2.34375 0.53125q-0.6875 0.296875 -1.0625 0.875q-0.375 0.578125 -0.375 1.28125q0 1.078125 0.8125 1.796875q0.8125 0.71875 2.390625 0.71875q1.546875 0 2.765625 -0.671875q1.21875 -0.6875 1.78125 -1.875q0.4375 -0.90625 0.4375 -2.6875l0 -1.0zm5.8151855 3.234375l2.671875 -0.421875q0.21875 1.609375 1.234375 2.46875q1.03125 0.84375 2.875 0.84375q1.859375 0 2.75 -0.75q0.90625 -0.765625 0.90625 -1.78125q0 -0.90625 -0.796875 -1.4375q-0.546875 -0.359375 -2.75 -0.90625q-2.96875 -0.75 -4.109375 -1.296875q-1.140625 -0.546875 -1.734375 -1.515625q-0.59375 -0.96875 -0.59375 -2.125q0 -1.0625 0.484375 -1.96875q0.484375 -0.90625 1.328125 -1.515625q0.625 -0.453125 1.703125 -0.765625q1.09375 -0.328125 2.34375 -0.328125q1.859375 0 3.265625 0.546875q1.421875 0.53125 2.09375 1.453125q0.6875 0.90625 0.9375 2.453125l-2.640625 0.359375q-0.171875 -1.21875 -1.03125 -1.90625q-0.859375 -0.703125 -2.4375 -0.703125q-1.859375 0 -2.65625 0.625q-0.78125 0.609375 -0.78125 1.4375q0 0.515625 0.328125 0.9375q0.328125 0.4375 1.03125 0.71875q0.40625 0.15625 2.375 0.6875q2.859375 0.765625 3.984375 1.25q1.140625 0.484375 1.78125 1.421875q0.640625 0.921875 0.640625 2.296875q0 1.34375 -0.78125 2.546875q-0.78125 1.1875 -2.265625 1.84375q-1.484375 0.640625 -3.359375 0.640625q-3.09375 0 -4.71875 -1.28125q-1.625 -1.296875 -2.078125 -3.828125zm16.421875 4.75l0 -21.9375l2.703125 0l0 12.5l6.375 -6.453125l3.484375 0l-6.078125 5.890625l6.6875 10.0l-3.3125 0l-5.265625 -8.125l-1.890625 1.828125l0 6.296875l-2.703125 0zm15.328125 -18.84375l0 -3.09375l2.703125 0l0 3.09375l-2.703125 0zm0 18.84375l0 -15.890625l2.703125 0l0 15.890625l-2.703125 0zm6.795227 0l0 -15.890625l2.4375 0l0 2.25q1.75 -2.609375 5.046875 -2.609375q1.4375 0 2.640625 0.515625q1.21875 0.515625 1.8125 1.359375q0.59375 0.828125 0.84375 1.984375q0.140625 0.75 0.140625 2.609375l0 9.78125l-2.6875 0l0 -9.671875q0 -1.640625 -0.328125 -2.453125q-0.3125 -0.828125 -1.109375 -1.3125q-0.796875 -0.484375 -1.875 -0.484375q-1.71875 0 -2.96875 1.09375q-1.25 1.09375 -1.25 4.140625l0 8.6875l-2.703125 0zm16.565186 1.3125l2.609375 0.390625q0.171875 1.21875 0.921875 1.765625q1.0 0.75 2.734375 0.75q1.875 0 2.890625 -0.75q1.015625 -0.75 1.375 -2.09375q0.21875 -0.828125 0.203125 -3.453125q-1.765625 2.078125 -4.40625 2.078125q-3.28125 0 -5.078125 -2.359375q-1.796875 -2.375 -1.796875 -5.671875q0 -2.28125 0.828125 -4.203125q0.828125 -1.921875 2.390625 -2.96875q1.5625 -1.046875 3.671875 -1.046875q2.8125 0 4.640625 2.265625l0 -1.90625l2.484375 0l0 13.734375q0 3.71875 -0.765625 5.265625q-0.75 1.546875 -2.390625 2.4375q-1.640625 0.90625 -4.03125 0.90625q-2.84375 0 -4.59375 -1.28125q-1.75 -1.28125 -1.6875 -3.859375zm2.21875 -9.546875q0 3.125 1.234375 4.5625q1.25 1.4375 3.125 1.4375q1.859375 0 3.109375 -1.421875q1.265625 -1.4375 1.265625 -4.484375q0 -2.921875 -1.296875 -4.40625q-1.296875 -1.484375 -3.125 -1.484375q-1.796875 0 -3.0625 1.46875q-1.25 1.453125 -1.25 4.328125zm23.723145 14.359375l-0.296875 -2.53125q0.875 0.234375 1.53125 0.234375q0.90625 0 1.4375 -0.296875q0.546875 -0.296875 0.890625 -0.84375q0.25 -0.390625 0.8125 -2.0q0.078125 -0.21875 0.25 -0.65625l-6.03125 -15.921875l2.890625 0l3.3125 9.203125q0.640625 1.75 1.15625 3.671875q0.46875 -1.84375 1.109375 -3.609375l3.390625 -9.265625l2.703125 0l-6.046875 16.15625q-0.984375 2.625 -1.515625 3.609375q-0.71875 1.328125 -1.65625 1.953125q-0.921875 0.625 -2.203125 0.625q-0.78125 0 -1.734375 -0.328125zm14.4375 -14.078125q0 -4.40625 2.453125 -6.53125q2.0625 -1.765625 5.0 -1.765625q3.28125 0 5.359375 2.15625q2.078125 2.140625 2.078125 5.921875q0 3.0625 -0.921875 4.828125q-0.90625 1.75 -2.671875 2.734375q-1.765625 0.96875 -3.84375 0.96875q-3.328125 0 -5.390625 -2.140625q-2.0625 -2.140625 -2.0625 -6.171875zm2.765625 0q0 3.0625 1.328125 4.578125q1.34375 1.515625 3.359375 1.515625q2.015625 0 3.34375 -1.515625q1.328125 -1.53125 1.328125 -4.65625q0 -2.953125 -1.34375 -4.46875q-1.328125 -1.53125 -3.328125 -1.53125q-2.015625 0 -3.359375 1.515625q-1.328125 1.515625 -1.328125 4.5625zm25.70581 7.953125l0 -2.328125q-1.859375 2.6875 -5.046875 2.6875q-1.40625 0 -2.625 -0.53125q-1.21875 -0.546875 -1.8125 -1.359375q-0.59375 -0.8125 -0.828125 -2.0q-0.171875 -0.796875 -0.171875 -2.515625l0 -9.84375l2.703125 0l0 8.8125q0 2.109375 0.15625 2.84375q0.265625 1.0625 1.078125 1.671875q0.828125 0.609375 2.046875 0.609375q1.203125 0 2.265625 -0.625q1.0625 -0.625 1.5 -1.6875q0.453125 -1.078125 0.453125 -3.109375l0 -8.515625l2.6875 0l0 15.890625l-2.40625 0zm21.035522 -2.40625l0.390625 2.375q-1.140625 0.234375 -2.046875 0.234375q-1.453125 0 -2.265625 -0.453125q-0.8125 -0.46875 -1.140625 -1.21875q-0.328125 -0.765625 -0.328125 -3.1875l0 -9.140625l-1.984375 0l0 -2.09375l1.984375 0l0 -3.9375l2.671875 -1.625l0 5.5625l2.71875 0l0 2.09375l-2.71875 0l0 9.296875q0 1.140625 0.140625 1.484375q0.15625 0.328125 0.46875 0.515625q0.328125 0.1875 0.921875 0.1875q0.453125 0 1.1875 -0.09375zm1.626709 -5.546875q0 -4.40625 2.453125 -6.53125q2.0625 -1.765625 5.0 -1.765625q3.28125 0 5.359375 2.15625q2.078125 2.140625 2.078125 5.921875q0 3.0625 -0.921875 4.828125q-0.90625 1.75 -2.671875 2.734375q-1.765625 0.96875 -3.84375 0.96875q-3.328125 0 -5.390625 -2.140625q-2.0625 -2.140625 -2.0625 -6.171875zm2.765625 0q0 3.0625 1.328125 4.578125q1.34375 1.515625 3.359375 1.515625q2.015625 0 3.34375 -1.515625q1.328125 -1.53125 1.328125 -4.65625q0 -2.953125 -1.34375 -4.46875q-1.328125 -1.53125 -3.328125 -1.53125q-2.015625 0 -3.359375 1.515625q-1.328125 1.515625 -1.328125 4.5625zm26.285522 7.953125l-2.5 0l0 -21.9375l2.703125 0l0 7.828125q1.703125 -2.140625 4.359375 -2.140625q1.453125 0 2.765625 0.59375q1.3125 0.578125 2.15625 1.65625q0.84375 1.0625 1.328125 2.578125q0.484375 1.515625 0.484375 3.234375q0 4.09375 -2.03125 6.328125q-2.015625 2.21875 -4.84375 2.21875q-2.8125 0 -4.421875 -2.34375l0 1.984375zm-0.03125 -8.0625q0 2.859375 0.78125 4.125q1.28125 2.078125 3.453125 2.078125q1.765625 0 3.046875 -1.53125q1.28125 -1.53125 1.28125 -4.578125q0 -3.109375 -1.234375 -4.59375q-1.234375 -1.484375 -2.984375 -1.484375q-1.765625 0 -3.0625 1.546875q-1.28125 1.53125 -1.28125 4.4375zm25.01831 8.0625l0 -2.328125q-1.859375 2.6875 -5.046875 2.6875q-1.40625 0 -2.625 -0.53125q-1.21875 -0.546875 -1.8125 -1.359375q-0.59375 -0.8125 -0.828125 -2.0q-0.171875 -0.796875 -0.171875 -2.515625l0 -9.84375l2.703125 0l0 8.8125q0 2.109375 0.15625 2.84375q0.265625 1.0625 1.078125 1.671875q0.828125 0.609375 2.046875 0.609375q1.203125 0 2.265625 -0.625q1.0625 -0.625 1.5 -1.6875q0.453125 -1.078125 0.453125 -3.109375l0 -8.515625l2.6875 0l0 15.890625l-2.40625 0zm6.5183105 6.125l-0.296875 -2.53125q0.875 0.234375 1.53125 0.234375q0.90625 0 1.4375 -0.296875q0.546875 -0.296875 0.890625 -0.84375q0.25 -0.390625 0.8125 -2.0q0.078125 -0.21875 0.25 -0.65625l-6.03125 -15.921875l2.890625 0l3.3125 9.203125q0.640625 1.75 1.15625 3.671875q0.46875 -1.84375 1.109375 -3.609375l3.390625 -9.265625l2.703125 0l-6.046875 16.15625q-0.984375 2.625 -1.515625 3.609375q-0.71875 1.328125 -1.65625 1.953125q-0.921875 0.625 -2.203125 0.625q-0.78125 0 -1.734375 -0.328125zm13.927124 -6.125l0 -3.0625l3.078125 0l0 3.0625l-3.078125 0z" fill-rule="nonzero"/><path fill="#000000" d="m282.04788 392.77335l0 -21.9375l4.359375 0l5.203125 15.53125q0.71875 2.171875 1.046875 3.25q0.375 -1.203125 1.171875 -3.515625l5.25 -15.265625l3.90625 0l0 21.9375l-2.796875 0l0 -18.359375l-6.375 18.359375l-2.625 0l-6.34375 -18.6875l0 18.6875l-2.796875 0zm24.27127 -7.953125q0 -4.40625 2.453125 -6.53125q2.0625 -1.765625 5.0 -1.765625q3.28125 0 5.359375 2.15625q2.078125 2.140625 2.078125 5.921875q0 3.0625 -0.921875 4.828125q-0.90625 1.75 -2.671875 2.734375q-1.765625 0.96875 -3.84375 0.96875q-3.328125 0 -5.390625 -2.140625q-2.0625 -2.140625 -2.0625 -6.171875zm2.765625 0q0 3.0625 1.328125 4.578125q1.34375 1.515625 3.359375 1.515625q2.015625 0 3.34375 -1.515625q1.328125 -1.53125 1.328125 -4.65625q0 -2.953125 -1.34375 -4.46875q-1.328125 -1.53125 -3.328125 -1.53125q-2.015625 0 -3.359375 1.515625q-1.328125 1.515625 -1.328125 4.5625zm14.205811 3.203125l2.671875 -0.421875q0.21875 1.609375 1.234375 2.46875q1.03125 0.84375 2.875 0.84375q1.859375 0 2.75 -0.75q0.90625 -0.765625 0.90625 -1.78125q0 -0.90625 -0.796875 -1.4375q-0.546875 -0.359375 -2.75 -0.90625q-2.96875 -0.75 -4.109375 -1.296875q-1.140625 -0.546875 -1.734375 -1.515625q-0.59375 -0.96875 -0.59375 -2.125q0 -1.0625 0.484375 -1.96875q0.484375 -0.90625 1.328125 -1.515625q0.625 -0.453125 1.703125 -0.765625q1.09375 -0.328125 2.34375 -0.328125q1.859375 0 3.265625 0.546875q1.421875 0.53125 2.09375 1.453125q0.6875 0.90625 0.9375 2.453125l-2.640625 0.359375q-0.171875 -1.21875 -1.03125 -1.90625q-0.859375 -0.703125 -2.4375 -0.703125q-1.859375 0 -2.65625 0.625q-0.78125 0.609375 -0.78125 1.4375q0 0.515625 0.328125 0.9375q0.328125 0.4375 1.03125 0.71875q0.40625 0.15625 2.375 0.6875q2.859375 0.765625 3.984375 1.25q1.140625 0.484375 1.78125 1.421875q0.640625 0.921875 0.640625 2.296875q0 1.34375 -0.78125 2.546875q-0.78125 1.1875 -2.265625 1.84375q-1.484375 0.640625 -3.359375 0.640625q-3.09375 0 -4.71875 -1.28125q-1.625 -1.296875 -2.078125 -3.828125zm22.296875 2.34375l0.390625 2.375q-1.140625 0.234375 -2.046875 0.234375q-1.453125 0 -2.265625 -0.453125q-0.8125 -0.46875 -1.140625 -1.21875q-0.328125 -0.765625 -0.328125 -3.1875l0 -9.140625l-1.984375 0l0 -2.09375l1.984375 0l0 -3.9375l2.671875 -1.625l0 5.5625l2.71875 0l0 2.09375l-2.71875 0l0 9.296875q0 1.140625 0.140625 1.484375q0.15625 0.328125 0.46875 0.515625q0.328125 0.1875 0.921875 0.1875q0.453125 0 1.1875 -0.09375zm11.143951 8.5l0 -21.984375l2.453125 0l0 2.0625q0.875 -1.21875 1.96875 -1.8125q1.09375 -0.609375 2.65625 -0.609375q2.03125 0 3.578125 1.046875q1.5625 1.046875 2.359375 2.953125q0.796875 1.90625 0.796875 4.1875q0 2.4375 -0.875 4.390625q-0.875 1.953125 -2.546875 3.0q-1.671875 1.03125 -3.515625 1.03125q-1.34375 0 -2.421875 -0.5625q-1.0625 -0.578125 -1.75 -1.4375l0 7.734375l-2.703125 0zm2.4375 -13.953125q0 3.0625 1.25 4.53125q1.25 1.46875 3.015625 1.46875q1.796875 0 3.0625 -1.515625q1.28125 -1.515625 1.28125 -4.703125q0 -3.046875 -1.25 -4.546875q-1.25 -1.515625 -2.984375 -1.515625q-1.71875 0 -3.046875 1.609375q-1.328125 1.609375 -1.328125 4.671875zm25.502655 2.734375l2.78125 0.34375q-0.65625 2.453125 -2.4375 3.796875q-1.78125 1.34375 -4.546875 1.34375q-3.5 0 -5.546875 -2.140625q-2.03125 -2.15625 -2.03125 -6.03125q0 -4.015625 2.0625 -6.21875q2.0625 -2.21875 5.359375 -2.21875q3.1875 0 5.203125 2.171875q2.03125 2.15625 2.03125 6.09375q0 0.25 -0.015625 0.71875l-11.859375 0q0.15625 2.625 1.484375 4.015625q1.328125 1.390625 3.328125 1.390625q1.46875 0 2.515625 -0.765625q1.0625 -0.78125 1.671875 -2.5zm-8.84375 -4.34375l8.875 0q-0.1875 -2.015625 -1.015625 -3.015625q-1.296875 -1.5625 -3.34375 -1.5625q-1.859375 0 -3.125 1.25q-1.265625 1.234375 -1.390625 3.328125zm14.002655 1.515625q0 -4.40625 2.453125 -6.53125q2.0625 -1.765625 5.0 -1.765625q3.28125 0 5.359375 2.15625q2.078125 2.140625 2.078125 5.921875q0 3.0625 -0.921875 4.828125q-0.90625 1.75 -2.671875 2.734375q-1.765625 0.96875 -3.84375 0.96875q-3.328125 0 -5.390625 -2.140625q-2.0625 -2.140625 -2.0625 -6.171875zm2.765625 0q0 3.0625 1.328125 4.578125q1.34375 1.515625 3.359375 1.515625q2.015625 0 3.34375 -1.515625q1.328125 -1.53125 1.328125 -4.65625q0 -2.953125 -1.34375 -4.46875q-1.328125 -1.53125 -3.328125 -1.53125q-2.015625 0 -3.359375 1.515625q-1.328125 1.515625 -1.328125 4.5625zm15.283936 14.046875l0 -21.984375l2.453125 0l0 2.0625q0.875 -1.21875 1.96875 -1.8125q1.09375 -0.609375 2.65625 -0.609375q2.03125 0 3.578125 1.046875q1.5625 1.046875 2.359375 2.953125q0.796875 1.90625 0.796875 4.1875q0 2.4375 -0.875 4.390625q-0.875 1.953125 -2.546875 3.0q-1.671875 1.03125 -3.515625 1.03125q-1.34375 0 -2.421875 -0.5625q-1.0625 -0.578125 -1.75 -1.4375l0 7.734375l-2.703125 0zm2.4375 -13.953125q0 3.0625 1.25 4.53125q1.25 1.46875 3.015625 1.46875q1.796875 0 3.0625 -1.515625q1.28125 -1.515625 1.28125 -4.703125q0 -3.046875 -1.25 -4.546875q-1.25 -1.515625 -2.984375 -1.515625q-1.71875 0 -3.046875 1.609375q-1.328125 1.609375 -1.328125 4.671875zm14.549561 7.859375l0 -21.9375l2.703125 0l0 21.9375l-2.703125 0zm17.763947 -5.125l2.78125 0.34375q-0.65625 2.453125 -2.4375 3.796875q-1.78125 1.34375 -4.546875 1.34375q-3.5 0 -5.546875 -2.140625q-2.03125 -2.15625 -2.03125 -6.03125q0 -4.015625 2.0625 -6.21875q2.0625 -2.21875 5.359375 -2.21875q3.1875 0 5.203125 2.171875q2.03125 2.15625 2.03125 6.09375q0 0.25 -0.015625 0.71875l-11.859375 0q0.15625 2.625 1.484375 4.015625q1.328125 1.390625 3.328125 1.390625q1.46875 0 2.515625 -0.765625q1.0625 -0.78125 1.671875 -2.5zm-8.84375 -4.34375l8.875 0q-0.1875 -2.015625 -1.015625 -3.015625q-1.296875 -1.5625 -3.34375 -1.5625q-1.859375 0 -3.125 1.25q-1.265625 1.234375 -1.390625 3.328125zm23.519958 15.5625l0 -21.984375l2.453125 0l0 2.0625q0.875 -1.21875 1.96875 -1.8125q1.09375 -0.609375 2.65625 -0.609375q2.03125 0 3.578125 1.046875q1.5625 1.046875 2.359375 2.953125q0.796875 1.90625 0.796875 4.1875q0 2.4375 -0.875 4.390625q-0.875 1.953125 -2.546875 3.0q-1.671875 1.03125 -3.515625 1.03125q-1.34375 0 -2.421875 -0.5625q-1.0625 -0.578125 -1.75 -1.4375l0 7.734375l-2.703125 0zm2.4375 -13.953125q0 3.0625 1.25 4.53125q1.25 1.46875 3.015625 1.46875q1.796875 0 3.0625 -1.515625q1.28125 -1.515625 1.28125 -4.703125q0 -3.046875 -1.25 -4.546875q-1.25 -1.515625 -2.984375 -1.515625q-1.71875 0 -3.046875 1.609375q-1.328125 1.609375 -1.328125 4.671875zm14.627655 -10.984375l0 -3.09375l2.703125 0l0 3.09375l-2.703125 0zm0 18.84375l0 -15.890625l2.703125 0l0 15.890625l-2.703125 0zm12.685852 -2.40625l0.390625 2.375q-1.140625 0.234375 -2.046875 0.234375q-1.453125 0 -2.265625 -0.453125q-0.8125 -0.46875 -1.140625 -1.21875q-0.328125 -0.765625 -0.328125 -3.1875l0 -9.140625l-1.984375 0l0 -2.09375l1.984375 0l0 -3.9375l2.671875 -1.625l0 5.5625l2.71875 0l0 2.09375l-2.71875 0l0 9.296875q0 1.140625 0.140625 1.484375q0.15625 0.328125 0.46875 0.515625q0.328125 0.1875 0.921875 0.1875q0.453125 0 1.1875 -0.09375zm13.001648 -3.421875l2.65625 0.34375q-0.4375 2.75 -2.234375 4.296875q-1.78125 1.546875 -4.390625 1.546875q-3.25 0 -5.234375 -2.125q-1.984375 -2.140625 -1.984375 -6.125q0 -2.578125 0.84375 -4.5q0.859375 -1.9375 2.59375 -2.890625q1.75 -0.96875 3.796875 -0.96875q2.59375 0 4.234375 1.3125q1.65625 1.296875 2.125 3.703125l-2.625 0.40625q-0.375 -1.59375 -1.328125 -2.40625q-0.953125 -0.8125 -2.296875 -0.8125q-2.03125 0 -3.3125 1.46875q-1.265625 1.453125 -1.265625 4.609375q0 3.203125 1.21875 4.65625q1.234375 1.453125 3.203125 1.453125q1.59375 0 2.65625 -0.96875q1.0625 -0.96875 1.34375 -3.0zm4.953125 5.828125l0 -21.9375l2.703125 0l0 7.859375q1.875 -2.171875 4.7500305 -2.171875q1.765625 0 3.0625 0.703125q1.3125 0.6875 1.875 1.921875q0.5625 1.21875 0.5625 3.546875l0 10.078125l-2.6875 0l0 -10.078125q0 -2.015625 -0.890625 -2.9375q-0.875 -0.921875 -2.4687805 -0.921875q-1.203125 0 -2.265625 0.625q-1.046875 0.625 -1.5 1.6875q-0.4375 1.0625 -0.4375 2.921875l0 8.703125l-2.703125 0zm35.879364 0l0 -2.0q-1.5 2.359375 -4.4375 2.359375q-1.90625 0 -3.5 -1.046875q-1.59375 -1.046875 -2.46875 -2.921875q-0.875 -1.890625 -0.875 -4.328125q0 -2.375 0.796875 -4.3125q0.796875 -1.9375 2.375 -2.96875q1.59375 -1.03125 3.546875 -1.03125q1.4375 0 2.5625 0.609375q1.125 0.59375 1.828125 1.5625l0 -7.859375l2.671875 0l0 21.9375l-2.5 0zm-8.515625 -7.9375q0 3.0625 1.28125 4.578125q1.296875 1.5 3.046875 1.5q1.765625 0 3.0 -1.4375q1.234375 -1.453125 1.234375 -4.40625q0 -3.265625 -1.265625 -4.796875q-1.25 -1.53125 -3.09375 -1.53125q-1.78125 0 -3.0 1.46875q-1.203125 1.46875 -1.203125 4.625zm26.14331 2.8125l2.78125 0.34375q-0.65625 2.453125 -2.4375 3.796875q-1.78125 1.34375 -4.546875 1.34375q-3.5 0 -5.546875 -2.140625q-2.03125 -2.15625 -2.03125 -6.03125q0 -4.015625 2.0625 -6.21875q2.0625 -2.21875 5.359375 -2.21875q3.1875 0 5.203125 2.171875q2.03125 2.15625 2.03125 6.09375q0 0.25 -0.015625 0.71875l-11.859375 0q0.15625 2.625 1.484375 4.015625q1.328125 1.390625 3.328125 1.390625q1.46875 0 2.515625 -0.765625q1.0625 -0.78125 1.671875 -2.5zm-8.84375 -4.34375l8.875 0q-0.1875 -2.015625 -1.015625 -3.015625q-1.296875 -1.5625 -3.34375 -1.5625q-1.859375 0 -3.125 1.25q-1.265625 1.234375 -1.390625 3.328125zm25.377686 3.640625l2.65625 0.34375q-0.4375 2.75 -2.234375 4.296875q-1.78125 1.546875 -4.390625 1.546875q-3.25 0 -5.234375 -2.125q-1.984375 -2.140625 -1.984375 -6.125q0 -2.578125 0.84375 -4.5q0.859375 -1.9375 2.59375 -2.890625q1.75 -0.96875 3.796875 -0.96875q2.59375 0 4.234375 1.3125q1.65625 1.296875 2.125 3.703125l-2.625 0.40625q-0.375 -1.59375 -1.328125 -2.40625q-0.953125 -0.8125 -2.296875 -0.8125q-2.03125 0 -3.3125 1.46875q-1.265625 1.453125 -1.265625 4.609375q0 3.203125 1.21875 4.65625q1.234375 1.453125 3.203125 1.453125q1.59375 0 2.65625 -0.96875q1.0625 -0.96875 1.34375 -3.0zm3.953125 -2.125q0 -4.40625 2.453125 -6.53125q2.0625 -1.765625 5.0 -1.765625q3.28125 0 5.359375 2.15625q2.078125 2.140625 2.078125 5.921875q0 3.0625 -0.921875 4.828125q-0.90625 1.75 -2.671875 2.734375q-1.765625 0.96875 -3.84375 0.96875q-3.328125 0 -5.390625 -2.140625q-2.0625 -2.140625 -2.0625 -6.171875zm2.765625 0q0 3.0625 1.328125 4.578125q1.34375 1.515625 3.359375 1.515625q2.015625 0 3.34375 -1.515625q1.328125 -1.53125 1.328125 -4.65625q0 -2.953125 -1.34375 -4.46875q-1.328125 -1.53125 -3.328125 -1.53125q-2.015625 0 -3.359375 1.515625q-1.328125 1.515625 -1.328125 4.5625zm15.252686 7.953125l0 -15.890625l2.4375 0l0 2.40625q0.921875 -1.6875 1.703125 -2.21875q0.796875 -0.546875 1.734375 -0.546875q1.359375 0 2.765625 0.859375l-0.921875 2.5q-0.984375 -0.578125 -1.984375 -0.578125q-0.875 0 -1.578125 0.53125q-0.703125 0.53125 -1.0 1.46875q-0.453125 1.4375 -0.453125 3.140625l0 8.328125l-2.703125 0zm20.61499 -1.953125q-1.5 1.265625 -2.890625 1.796875q-1.375 0.515625 -2.953125 0.515625q-2.625 0 -4.03125 -1.28125q-1.40625 -1.28125 -1.40625 -3.265625q0 -1.171875 0.53125 -2.140625q0.53125 -0.96875 1.390625 -1.546875q0.859375 -0.578125 1.9375 -0.875q0.796875 -0.21875 2.390625 -0.40625q3.265625 -0.390625 4.8125 -0.9375q0.015625 -0.546875 0.015625 -0.703125q0 -1.640625 -0.765625 -2.3125q-1.03125 -0.921875 -3.0625 -0.921875q-1.90625 0 -2.8125 0.671875q-0.90625 0.671875 -1.34375 2.359375l-2.625 -0.359375q0.359375 -1.6875 1.171875 -2.734375q0.828125 -1.046875 2.375 -1.59375q1.5625 -0.5625 3.609375 -0.5625q2.046875 0 3.3125 0.484375q1.28125 0.46875 1.875 1.203125q0.59375 0.71875 0.84375 1.828125q0.125 0.6875 0.125 2.484375l0 3.59375q0 3.75 0.171875 4.75q0.171875 1.0 0.6875 1.90625l-2.8125 0q-0.421875 -0.84375 -0.546875 -1.953125zm-0.21875 -6.03125q-1.46875 0.609375 -4.40625 1.03125q-1.65625 0.234375 -2.34375 0.53125q-0.6875 0.296875 -1.0625 0.875q-0.375 0.578125 -0.375 1.28125q0 1.078125 0.8125 1.796875q0.8125 0.71875 2.390625 0.71875q1.546875 0 2.765625 -0.671875q1.21875 -0.6875 1.78125 -1.875q0.4375 -0.90625 0.4375 -2.6875l0 -1.0zm12.783936 5.578125l0.390625 2.375q-1.140625 0.234375 -2.046875 0.234375q-1.453125 0 -2.265625 -0.453125q-0.8125 -0.46875 -1.140625 -1.21875q-0.328125 -0.765625 -0.328125 -3.1875l0 -9.140625l-1.984375 0l0 -2.09375l1.984375 0l0 -3.9375l2.671875 -1.625l0 5.5625l2.71875 0l0 2.09375l-2.71875 0l0 9.296875q0 1.140625 0.140625 1.484375q0.15625 0.328125 0.46875 0.515625q0.328125 0.1875 0.921875 0.1875q0.453125 0 1.1875 -0.09375zm2.642273 -16.4375l0 -3.09375l2.703125 0l0 3.09375l-2.703125 0zm0 18.84375l0 -15.890625l2.703125 0l0 15.890625l-2.703125 0zm5.795227 -7.953125q0 -4.40625 2.453125 -6.53125q2.0625 -1.765625 5.0 -1.765625q3.28125 0 5.359375 2.15625q2.078125 2.140625 2.078125 5.921875q0 3.0625 -0.921875 4.828125q-0.90625 1.75 -2.671875 2.734375q-1.765625 0.96875 -3.84375 0.96875q-3.328125 0 -5.390625 -2.140625q-2.0625 -2.140625 -2.0625 -6.171875zm2.765625 0q0 3.0625 1.328125 4.578125q1.34375 1.515625 3.359375 1.515625q2.015625 0 3.34375 -1.515625q1.328125 -1.53125 1.328125 -4.65625q0 -2.953125 -1.34375 -4.46875q-1.328125 -1.53125 -3.328125 -1.53125q-2.015625 0 -3.359375 1.515625q-1.328125 1.515625 -1.328125 4.5625zm15.283936 7.953125l0 -15.890625l2.4375 0l0 2.25q1.75 -2.609375 5.046875 -2.609375q1.4375 0 2.640625 0.515625q1.21875 0.515625 1.8125 1.359375q0.59375 0.828125 0.84375 1.984375q0.140625 0.75 0.140625 2.609375l0 9.78125l-2.6875 0l0 -9.671875q0 -1.640625 -0.328125 -2.453125q-0.3125 -0.828125 -1.109375 -1.3125q-0.796875 -0.484375 -1.875 -0.484375q-1.71875 0 -2.96875 1.09375q-1.25 1.09375 -1.25 4.140625l0 8.6875l-2.703125 0zm17.815186 0l0 -3.0625l3.078125 0l0 3.0625l-3.078125 0z" fill-rule="nonzero"/><path fill="#000000" d="m324.38605 429.77335l0 -19.359375l-7.234375 0l0 -2.578125l17.390625 0l0 2.578125l-7.25 0l0 19.359375l-2.90625 0zm12.788574 0l0 -21.9375l2.703125 0l0 7.859375q1.875 -2.171875 4.75 -2.171875q1.765625 0 3.0625 0.703125q1.3125 0.6875 1.875 1.921875q0.5625 1.21875 0.5625 3.546875l0 10.078125l-2.6875 0l0 -10.078125q0 -2.015625 -0.890625 -2.9375q-0.875 -0.921875 -2.46875 -0.921875q-1.203125 0 -2.265625 0.625q-1.046875 0.625 -1.5 1.6875q-0.4375 1.0625 -0.4375 2.921875l0 8.703125l-2.703125 0zm17.065155 -18.84375l0 -3.09375l2.703125 0l0 3.09375l-2.703125 0zm0 18.84375l0 -15.890625l2.703125 0l0 15.890625l-2.703125 0zm5.717102 -4.75l2.671875 -0.421875q0.21875 1.609375 1.234375 2.46875q1.03125 0.84375 2.875 0.84375q1.859375 0 2.75 -0.75q0.90625 -0.765625 0.90625 -1.78125q0 -0.90625 -0.796875 -1.4375q-0.546875 -0.359375 -2.75 -0.90625q-2.96875 -0.75 -4.109375 -1.296875q-1.140625 -0.546875 -1.734375 -1.515625q-0.59375 -0.96875 -0.59375 -2.125q0 -1.0625 0.484375 -1.96875q0.484375 -0.90625 1.328125 -1.515625q0.625 -0.453125 1.703125 -0.765625q1.09375 -0.328125 2.34375 -0.328125q1.859375 0 3.265625 0.546875q1.421875 0.53125 2.09375 1.453125q0.6875 0.90625 0.9375 2.453125l-2.640625 0.359375q-0.171875 -1.21875 -1.03125 -1.90625q-0.859375 -0.703125 -2.4375 -0.703125q-1.859375 0 -2.65625 0.625q-0.78125 0.609375 -0.78125 1.4375q0 0.515625 0.328125 0.9375q0.328125 0.4375 1.03125 0.71875q0.40625 0.15625 2.375 0.6875q2.859375 0.765625 3.984375 1.25q1.140625 0.484375 1.78125 1.421875q0.640625 0.921875 0.640625 2.296875q0 1.34375 -0.78125 2.546875q-0.78125 1.1875 -2.265625 1.84375q-1.484375 0.640625 -3.359375 0.640625q-3.09375 0 -4.71875 -1.28125q-1.625 -1.296875 -2.078125 -3.828125zm24.939148 -14.09375l0 -3.09375l2.703125 0l0 3.09375l-2.703125 0zm0 18.84375l0 -15.890625l2.703125 0l0 15.890625l-2.703125 0zm5.717102 -4.75l2.671875 -0.421875q0.21875 1.609375 1.234375 2.46875q1.03125 0.84375 2.875 0.84375q1.859375 0 2.75 -0.75q0.90625 -0.765625 0.90625 -1.78125q0 -0.90625 -0.796875 -1.4375q-0.546875 -0.359375 -2.75 -0.90625q-2.96875 -0.75 -4.109375 -1.296875q-1.140625 -0.546875 -1.734375 -1.515625q-0.59375 -0.96875 -0.59375 -2.125q0 -1.0625 0.484375 -1.96875q0.484375 -0.90625 1.328125 -1.515625q0.625 -0.453125 1.703125 -0.765625q1.09375 -0.328125 2.34375 -0.328125q1.859375 0 3.265625 0.546875q1.421875 0.53125 2.09375 1.453125q0.6875 0.90625 0.9375 2.453125l-2.640625 0.359375q-0.171875 -1.21875 -1.03125 -1.90625q-0.859375 -0.703125 -2.4375 -0.703125q-1.859375 0 -2.65625 0.625q-0.78125 0.609375 -0.78125 1.4375q0 0.515625 0.328125 0.9375q0.328125 0.4375 1.03125 0.71875q0.40625 0.15625 2.375 0.6875q2.859375 0.765625 3.984375 1.25q1.140625 0.484375 1.78125 1.421875q0.640625 0.921875 0.640625 2.296875q0 1.34375 -0.78125 2.546875q-0.78125 1.1875 -2.265625 1.84375q-1.484375 0.640625 -3.359375 0.640625q-3.09375 0 -4.71875 -1.28125q-1.625 -1.296875 -2.078125 -3.828125zm27.407898 4.75l-2.5 0l0 -21.9375l2.703125 0l0 7.828125q1.703125 -2.140625 4.359375 -2.140625q1.453125 0 2.765625 0.59375q1.3125 0.578125 2.15625 1.65625q0.84375 1.0625 1.328125 2.578125q0.484375 1.515625 0.484375 3.234375q0 4.09375 -2.03125 6.328125q-2.015625 2.21875 -4.84375 2.21875q-2.8125 0 -4.421875 -2.34375l0 1.984375zm-0.03125 -8.0625q0 2.859375 0.78125 4.125q1.28125 2.078125 3.453125 2.078125q1.765625 0 3.046875 -1.53125q1.28125 -1.53125 1.28125 -4.578125q0 -3.109375 -1.234375 -4.59375q-1.234375 -1.484375 -2.984375 -1.484375q-1.765625 0 -3.0625 1.546875q-1.28125 1.53125 -1.28125 4.4375zm25.01831 8.0625l0 -2.328125q-1.859375 2.6875 -5.046875 2.6875q-1.40625 0 -2.625 -0.53125q-1.21875 -0.546875 -1.8125 -1.359375q-0.59375 -0.8125 -0.828125 -2.0q-0.171875 -0.796875 -0.171875 -2.515625l0 -9.84375l2.703125 0l0 8.8125q0 2.109375 0.15625 2.84375q0.265625 1.0625 1.078125 1.671875q0.828125 0.609375 2.046875 0.609375q1.203125 0 2.265625 -0.625q1.0625 -0.625 1.5 -1.6875q0.453125 -1.078125 0.453125 -3.109375l0 -8.515625l2.6875 0l0 15.890625l-2.40625 0zm6.64328 -18.84375l0 -3.09375l2.703125 0l0 3.09375l-2.703125 0zm0 18.84375l0 -15.890625l2.703125 0l0 15.890625l-2.703125 0zm6.7326965 0l0 -21.9375l2.703125 0l0 21.9375l-2.703125 0zm12.763977 -2.40625l0.390625 2.375q-1.140625 0.234375 -2.046875 0.234375q-1.453125 0 -2.265625 -0.453125q-0.8125 -0.46875 -1.140625 -1.21875q-0.328125 -0.765625 -0.328125 -3.1875l0 -9.140625l-1.984375 0l0 -2.09375l1.984375 0l0 -3.9375l2.671875 -1.625l0 5.5625l2.71875 0l0 2.09375l-2.71875 0l0 9.296875q0 1.140625 0.140625 1.484375q0.15625 0.328125 0.46875 0.515625q0.328125 0.1875 0.921875 0.1875q0.453125 0 1.1875 -0.09375zm21.518951 0.453125q-1.5 1.265625 -2.890625 1.796875q-1.375 0.515625 -2.953125 0.515625q-2.625 0 -4.03125 -1.28125q-1.40625 -1.28125 -1.40625 -3.265625q0 -1.171875 0.53125 -2.140625q0.53125 -0.96875 1.390625 -1.546875q0.859375 -0.578125 1.9375 -0.875q0.796875 -0.21875 2.390625 -0.40625q3.265625 -0.390625 4.8125 -0.9375q0.015625 -0.546875 0.015625 -0.703125q0 -1.640625 -0.765625 -2.3125q-1.03125 -0.921875 -3.0625 -0.921875q-1.90625 0 -2.8125 0.671875q-0.90625 0.671875 -1.34375 2.359375l-2.625 -0.359375q0.359375 -1.6875 1.171875 -2.734375q0.828125 -1.046875 2.375 -1.59375q1.5625 -0.5625 3.609375 -0.5625q2.046875 0 3.3125 0.484375q1.28125 0.46875 1.875 1.203125q0.59375 0.71875 0.84375 1.828125q0.125 0.6875 0.125 2.484375l0 3.59375q0 3.75 0.171875 4.75q0.171875 1.0 0.6875 1.90625l-2.8125 0q-0.421875 -0.84375 -0.546875 -1.953125zm-0.21875 -6.03125q-1.46875 0.609375 -4.40625 1.03125q-1.65625 0.234375 -2.34375 0.53125q-0.6875 0.296875 -1.0625 0.875q-0.375 0.578125 -0.375 1.28125q0 1.078125 0.8125 1.796875q0.8125 0.71875 2.390625 0.71875q1.546875 0 2.765625 -0.671875q1.21875 -0.6875 1.78125 -1.875q0.4375 -0.90625 0.4375 -2.6875l0 -1.0zm5.815155 3.234375l2.671875 -0.421875q0.21875 1.609375 1.234375 2.46875q1.03125 0.84375 2.875 0.84375q1.859375 0 2.75 -0.75q0.90625 -0.765625 0.90625 -1.78125q0 -0.90625 -0.796875 -1.4375q-0.546875 -0.359375 -2.75 -0.90625q-2.96875 -0.75 -4.109375 -1.296875q-1.140625 -0.546875 -1.734375 -1.515625q-0.59375 -0.96875 -0.59375 -2.125q0 -1.0625 0.484375 -1.96875q0.484375 -0.90625 1.328125 -1.515625q0.625 -0.453125 1.703125 -0.765625q1.09375 -0.328125 2.34375 -0.328125q1.859375 0 3.265625 0.546875q1.421875 0.53125 2.09375 1.453125q0.6875 0.90625 0.9375 2.453125l-2.640625 0.359375q-0.171875 -1.21875 -1.03125 -1.90625q-0.859375 -0.703125 -2.4375 -0.703125q-1.859375 0 -2.65625 0.625q-0.78125 0.609375 -0.78125 1.4375q0 0.515625 0.328125 0.9375q0.328125 0.4375 1.03125 0.71875q0.40625 0.15625 2.375 0.6875q2.859375 0.765625 3.984375 1.25q1.140625 0.484375 1.78125 1.421875q0.640625 0.921875 0.640625 2.296875q0 1.34375 -0.78125 2.546875q-0.78125 1.1875 -2.265625 1.84375q-1.484375 0.640625 -3.359375 0.640625q-3.09375 0 -4.71875 -1.28125q-1.625 -1.296875 -2.078125 -3.828125zm35.298553 2.796875q-1.5 1.265625 -2.890625 1.796875q-1.375 0.515625 -2.953125 0.515625q-2.625 0 -4.03125 -1.28125q-1.40625 -1.28125 -1.40625 -3.265625q0 -1.171875 0.53125 -2.140625q0.53125 -0.96875 1.390625 -1.546875q0.859375 -0.578125 1.9375 -0.875q0.796875 -0.21875 2.390625 -0.40625q3.265625 -0.390625 4.8125 -0.9375q0.015625 -0.546875 0.015625 -0.703125q0 -1.640625 -0.765625 -2.3125q-1.03125 -0.921875 -3.0625 -0.921875q-1.90625 0 -2.8125 0.671875q-0.90625 0.671875 -1.34375 2.359375l-2.625 -0.359375q0.359375 -1.6875 1.171875 -2.734375q0.828125 -1.046875 2.375 -1.59375q1.5625 -0.5625 3.609375 -0.5625q2.046875 0 3.3125 0.484375q1.28125 0.46875 1.875 1.203125q0.59375 0.71875 0.84375 1.828125q0.125 0.6875 0.125 2.484375l0 3.59375q0 3.75 0.171875 4.75q0.171875 1.0 0.6875 1.90625l-2.8125 0q-0.421875 -0.84375 -0.546875 -1.953125zm-0.21875 -6.03125q-1.46875 0.609375 -4.40625 1.03125q-1.65625 0.234375 -2.34375 0.53125q-0.6875 0.296875 -1.0625 0.875q-0.375 0.578125 -0.375 1.28125q0 1.078125 0.8125 1.796875q0.8125 0.71875 2.390625 0.71875q1.546875 0 2.765625 -0.671875q1.21875 -0.6875 1.78125 -1.875q0.4375 -0.90625 0.4375 -2.6875l0 -1.0zm6.8933105 7.984375l0 -15.890625l2.4375 0l0 2.25q1.75 -2.609375 5.046875 -2.609375q1.4375 0 2.640625 0.515625q1.21875 0.515625 1.8125 1.359375q0.59375 0.828125 0.84375 1.984375q0.140625 0.75 0.140625 2.609375l0 9.78125l-2.6875 0l0 -9.671875q0 -1.640625 -0.328125 -2.453125q-0.3125 -0.828125 -1.109375 -1.3125q-0.796875 -0.484375 -1.875 -0.484375q-1.71875 0 -2.96875 1.09375q-1.25 1.09375 -1.25 4.140625l0 8.6875l-2.703125 0zm35.941833 -1.953125q-1.5 1.265625 -2.890625 1.796875q-1.375 0.515625 -2.953125 0.515625q-2.625 0 -4.03125 -1.28125q-1.40625 -1.28125 -1.40625 -3.265625q0 -1.171875 0.53125 -2.140625q0.53125 -0.96875 1.390625 -1.546875q0.859375 -0.578125 1.9375 -0.875q0.796875 -0.21875 2.390625 -0.40625q3.265625 -0.390625 4.8125 -0.9375q0.015625 -0.546875 0.015625 -0.703125q0 -1.640625 -0.765625 -2.3125q-1.03125 -0.921875 -3.0625 -0.921875q-1.90625 0 -2.8125 0.671875q-0.90625 0.671875 -1.34375 2.359375l-2.625 -0.359375q0.359375 -1.6875 1.171875 -2.734375q0.828125 -1.046875 2.375 -1.59375q1.5625 -0.5625 3.609375 -0.5625q2.046875 0 3.3125 0.484375q1.28125 0.46875 1.875 1.203125q0.59375 0.71875 0.84375 1.828125q0.125 0.6875 0.125 2.484375l0 3.59375q0 3.75 0.171875 4.75q0.171875 1.0 0.6875 1.90625l-2.8125 0q-0.421875 -0.84375 -0.546875 -1.953125zm-0.21875 -6.03125q-1.46875 0.609375 -4.40625 1.03125q-1.65625 0.234375 -2.34375 0.53125q-0.6875 0.296875 -1.0625 0.875q-0.375 0.578125 -0.375 1.28125q0 1.078125 0.8125 1.796875q0.8125 0.71875 2.390625 0.71875q1.546875 0 2.765625 -0.671875q1.21875 -0.6875 1.78125 -1.875q0.4375 -0.90625 0.4375 -2.6875l0 -1.0zm5.8151855 3.234375l2.671875 -0.421875q0.21875 1.609375 1.234375 2.46875q1.03125 0.84375 2.875 0.84375q1.859375 0 2.75 -0.75q0.90625 -0.765625 0.90625 -1.78125q0 -0.90625 -0.796875 -1.4375q-0.546875 -0.359375 -2.75 -0.90625q-2.96875 -0.75 -4.109375 -1.296875q-1.140625 -0.546875 -1.734375 -1.515625q-0.59375 -0.96875 -0.59375 -2.125q0 -1.0625 0.484375 -1.96875q0.484375 -0.90625 1.328125 -1.515625q0.625 -0.453125 1.703125 -0.765625q1.09375 -0.328125 2.34375 -0.328125q1.859375 0 3.265625 0.546875q1.421875 0.53125 2.09375 1.453125q0.6875 0.90625 0.9375 2.453125l-2.640625 0.359375q-0.171875 -1.21875 -1.03125 -1.90625q-0.859375 -0.703125 -2.4375 -0.703125q-1.859375 0 -2.65625 0.625q-0.78125 0.609375 -0.78125 1.4375q0 0.515625 0.328125 0.9375q0.328125 0.4375 1.03125 0.71875q0.40625 0.15625 2.375 0.6875q2.859375 0.765625 3.984375 1.25q1.140625 0.484375 1.78125 1.421875q0.640625 0.921875 0.640625 2.296875q0 1.34375 -0.78125 2.546875q-0.78125 1.1875 -2.265625 1.84375q-1.484375 0.640625 -3.359375 0.640625q-3.09375 0 -4.71875 -1.28125q-1.625 -1.296875 -2.078125 -3.828125zm15.328125 0l2.671875 -0.421875q0.21875 1.609375 1.234375 2.46875q1.03125 0.84375 2.875 0.84375q1.859375 0 2.75 -0.75q0.90625 -0.765625 0.90625 -1.78125q0 -0.90625 -0.796875 -1.4375q-0.546875 -0.359375 -2.75 -0.90625q-2.96875 -0.75 -4.109375 -1.296875q-1.140625 -0.546875 -1.734375 -1.515625q-0.59375 -0.96875 -0.59375 -2.125q0 -1.0625 0.484375 -1.96875q0.484375 -0.90625 1.328125 -1.515625q0.625 -0.453125 1.703125 -0.765625q1.09375 -0.328125 2.34375 -0.328125q1.859375 0 3.265625 0.546875q1.421875 0.53125 2.09375 1.453125q0.6875 0.90625 0.9375 2.453125l-2.640625 0.359375q-0.171875 -1.21875 -1.03125 -1.90625q-0.859375 -0.703125 -2.4375 -0.703125q-1.859375 0 -2.65625 0.625q-0.78125 0.609375 -0.78125 1.4375q0 0.515625 0.328125 0.9375q0.328125 0.4375 1.03125 0.71875q0.40625 0.15625 2.375 0.6875q2.859375 0.765625 3.984375 1.25q1.140625 0.484375 1.78125 1.421875q0.640625 0.921875 0.640625 2.296875q0 1.34375 -0.78125 2.546875q-0.78125 1.1875 -2.265625 1.84375q-1.484375 0.640625 -3.359375 0.640625q-3.09375 0 -4.71875 -1.28125q-1.625 -1.296875 -2.078125 -3.828125zm27.296875 -0.375l2.78125 0.34375q-0.65625 2.453125 -2.4375 3.796875q-1.78125 1.34375 -4.546875 1.34375q-3.5 0 -5.546875 -2.140625q-2.03125 -2.15625 -2.03125 -6.03125q0 -4.015625 2.0625 -6.21875q2.0625 -2.21875 5.359375 -2.21875q3.1875 0 5.203125 2.171875q2.03125 2.15625 2.03125 6.09375q0 0.25 -0.015625 0.71875l-11.859375 0q0.15625 2.625 1.484375 4.015625q1.328125 1.390625 3.328125 1.390625q1.46875 0 2.515625 -0.765625q1.0625 -0.78125 1.671875 -2.5zm-8.84375 -4.34375l8.875 0q-0.1875 -2.015625 -1.015625 -3.015625q-1.296875 -1.5625 -3.34375 -1.5625q-1.859375 0 -3.125 1.25q-1.265625 1.234375 -1.390625 3.328125zm20.89325 7.0625l0.390625 2.375q-1.140625 0.234375 -2.046875 0.234375q-1.453125 0 -2.265625 -0.453125q-0.8125 -0.46875 -1.140625 -1.21875q-0.328125 -0.765625 -0.328125 -3.1875l0 -9.140625l-1.984375 0l0 -2.09375l1.984375 0l0 -3.9375l2.671875 -1.625l0 5.5625l2.71875 0l0 2.09375l-2.71875 0l0 9.296875q0 1.140625 0.140625 1.484375q0.15625 0.328125 0.46875 0.515625q0.328125 0.1875 0.921875 0.1875q0.453125 0 1.1875 -0.09375zm3.392334 2.40625l0 -3.0625l3.078125 0l0 3.0625l-3.078125 0z" fill-rule="nonzero"/></g></g></svg>