<svg version="1.1" viewBox="0.0 0.0 960.0 540.0" fill="none" stroke="none" stroke-linecap="square" stroke-miterlimit="10" xmlns:xlink="http://www.w3.org/1999/xlink" xmlns="http://www.w3.org/2000/svg"><clipPath id="slide_11.0"><path d="m0 0l960.0 0l0 540.0l-960.0 0l0 -540.0z" clip-rule="nonzero"/></clipPath><g clip-path="url(#slide_11.0)"><g id="slide_11"><path fill="#ffffff" d="m0 0l960.0 0l0 540.0l-960.0 0l0 -540.0z" fill-rule="nonzero"/><path fill="#ffffff" d="m0 0l960.0 0l0 540.0l-960.0 0z" fill-rule="evenodd"/><g id="a11y-dsl_t11" role="img" aria-label="AEO makes you recommendable.&#xa;" tabindex="0"><path fill="#000000" fill-opacity="0.0" d="m80.0 122.666664l0 153.32285l800.0 0l0 -153.32285z" fill-rule="nonzero"/></g><path fill="#000000" fill-opacity="0.0" d="m80.0 122.666664l800.0 0l0 153.32285l-800.0 0z" fill-rule="evenodd"/><path fill="#000000" d="m101.236694 180.30667l13.921875 -36.265625l5.171875 0l14.84375 36.265625l-5.46875 0l-4.21875 -10.984375l-15.171875 0l-3.984375 10.984375l-5.09375 0zm10.46875 -14.890625l12.296875 0l-3.796875 -10.046875q-1.71875 -4.578125 -2.5625 -7.515625q-0.703125 3.484375 -1.953125 6.921875l-3.984375 10.640625zm27.396698 14.890625l0 -36.265625l26.21875 0l0 4.28125l-21.40625 0l0 11.109375l20.046875 0l0 4.25l-20.046875 0l0 12.34375l22.25 0l0 4.28125l-27.0625 0zm32.240448 -17.65625q0 -9.03125 4.84375 -14.140625q4.84375 -5.109375 12.515625 -5.109375q5.015625 0 9.046875 2.40625q4.03125 2.390625 6.140625 6.6875q2.125 4.296875 2.125 9.734375q0 5.515625 -2.234375 9.875q-2.21875 4.34375 -6.296875 6.59375q-4.078125 2.234375 -8.8125 2.234375q-5.109375 0 -9.140625 -2.46875q-4.03125 -2.484375 -6.109375 -6.765625q-2.078125 -4.28125 -2.078125 -9.046875zm4.9375 0.0625q0 6.5625 3.515625 10.34375q3.53125 3.765625 8.859375 3.765625q5.421875 0 8.90625 -3.8125q3.5 -3.8125 3.5 -10.8125q0 -4.421875 -1.5 -7.71875q-1.484375 -3.3125 -4.375 -5.125q-2.875 -1.8125 -6.453125 -1.8125q-5.109375 0 -8.78125 3.5q-3.671875 3.5 -3.671875 11.671875zm49.429108 17.59375l0 -26.265625l3.984375 0l0 3.6875q1.234375 -1.9375 3.28125 -3.109375q2.0625 -1.171875 4.671875 -1.171875q2.921875 0 4.78125 1.21875q1.875 1.203125 2.640625 3.375q3.125 -4.59375 8.109375 -4.59375q3.921875 0 6.015625 2.171875q2.109375 2.15625 2.109375 6.65625l0 18.03125l-4.4375 0l0 -16.546875q0 -2.671875 -0.4375 -3.84375q-0.421875 -1.171875 -1.5625 -1.890625q-1.140625 -0.71875 -2.671875 -0.71875q-2.765625 0 -4.59375 1.84375q-1.828125 1.84375 -1.828125 5.890625l0 15.265625l-4.453125 0l0 -17.0625q0 -2.96875 -1.09375 -4.453125q-1.09375 -1.484375 -3.5625 -1.484375q-1.875 0 -3.484375 0.984375q-1.59375 0.984375 -2.3125 2.890625q-0.703125 1.90625 -0.703125 5.5l0 13.625l-4.453125 0zm59.337677 -3.234375q-2.484375 2.09375 -4.765625 2.96875q-2.28125 0.859375 -4.90625 0.859375q-4.328125 0 -6.65625 -2.109375q-2.328125 -2.125 -2.328125 -5.40625q0 -1.9375 0.875 -3.53125q0.890625 -1.59375 2.3125 -2.546875q1.421875 -0.96875 3.203125 -1.46875q1.296875 -0.34375 3.953125 -0.671875q5.390625 -0.640625 7.9375 -1.53125q0.03125 -0.921875 0.03125 -1.15625q0 -2.71875 -1.265625 -3.84375q-1.703125 -1.5 -5.078125 -1.5q-3.140625 0 -4.640625 1.109375q-1.484375 1.09375 -2.203125 3.875l-4.359375 -0.59375q0.59375 -2.78125 1.953125 -4.5q1.359375 -1.71875 3.9375 -2.640625q2.578125 -0.9375 5.953125 -0.9375q3.375 0 5.46875 0.796875q2.109375 0.78125 3.09375 1.984375q1.0 1.203125 1.390625 3.03125q0.21875 1.140625 0.21875 4.109375l0 5.9375q0 6.203125 0.28125 7.84375q0.296875 1.640625 1.125 3.15625l-4.640625 0q-0.703125 -1.390625 -0.890625 -3.234375zm-0.375 -9.953125q-2.421875 1.0 -7.265625 1.6875q-2.75 0.390625 -3.890625 0.890625q-1.140625 0.5 -1.765625 1.453125q-0.609375 0.9375 -0.609375 2.109375q0 1.78125 1.34375 2.96875q1.359375 1.1875 3.953125 1.1875q2.5625 0 4.5625 -1.125q2.015625 -1.125 2.953125 -3.078125q0.71875 -1.515625 0.71875 -4.453125l0 -1.640625zm11.422607 13.1875l0 -36.265625l4.453125 0l0 20.6875l10.546875 -10.6875l5.75 0l-10.03125 9.75l11.046875 16.515625l-5.484375 0l-8.6875 -13.4375l-3.140625 3.03125l0 10.40625l-4.453125 0zm43.296875 -8.453125l4.59375 0.5625q-1.09375 4.03125 -4.03125 6.265625q-2.9375 2.21875 -7.515625 2.21875q-5.765625 0 -9.140625 -3.546875q-3.375 -3.546875 -3.375 -9.953125q0 -6.640625 3.40625 -10.296875q3.421875 -3.65625 8.859375 -3.65625q5.265625 0 8.59375 3.59375q3.34375 3.578125 3.34375 10.078125q0 0.40625 -0.015625 1.1875l-19.59375 0q0.25 4.328125 2.453125 6.640625q2.203125 2.296875 5.484375 2.296875q2.453125 0 4.1875 -1.28125q1.734375 -1.296875 2.75 -4.109375zm-14.625 -7.203125l14.671875 0q-0.296875 -3.3125 -1.6875 -4.96875q-2.125 -2.578125 -5.515625 -2.578125q-3.0625 0 -5.15625 2.0625q-2.09375 2.046875 -2.3125 5.484375zm23.031952 7.8125l4.40625 -0.6875q0.359375 2.640625 2.046875 4.0625q1.703125 1.40625 4.75 1.40625q3.0625 0 4.546875 -1.25q1.484375 -1.25 1.484375 -2.9375q0 -1.5 -1.3125 -2.375q-0.90625 -0.59375 -4.546875 -1.5q-4.90625 -1.25 -6.796875 -2.140625q-1.890625 -0.90625 -2.875 -2.5q-0.96875 -1.59375 -0.96875 -3.53125q0 -1.75 0.796875 -3.25q0.8125 -1.5 2.203125 -2.484375q1.03125 -0.765625 2.828125 -1.296875q1.796875 -0.53125 3.84375 -0.53125q3.09375 0 5.421875 0.890625q2.34375 0.890625 3.453125 2.421875q1.125 1.515625 1.546875 4.0625l-4.359375 0.59375q-0.296875 -2.03125 -1.71875 -3.171875q-1.421875 -1.140625 -4.015625 -1.140625q-3.078125 0 -4.390625 1.015625q-1.296875 1.015625 -1.296875 2.375q0 0.859375 0.53125 1.5625q0.546875 0.71875 1.71875 1.1875q0.65625 0.25 3.921875 1.140625q4.734375 1.25 6.59375 2.0625q1.875 0.796875 2.9375 2.328125q1.0625 1.53125 1.0625 3.8125q0 2.234375 -1.296875 4.203125q-1.296875 1.953125 -3.75 3.03125q-2.453125 1.078125 -5.546875 1.078125q-5.109375 0 -7.796875 -2.125q-2.6875 -2.125 -3.421875 -6.3125zm40.980194 17.953125l-0.5 -4.171875q1.46875 0.390625 2.546875 0.390625q1.484375 0 2.375 -0.5q0.890625 -0.484375 1.46875 -1.375q0.421875 -0.671875 1.359375 -3.3125q0.125 -0.375 0.390625 -1.09375l-9.96875 -26.3125l4.796875 0l5.46875 15.203125q1.0625 2.90625 1.90625 6.09375q0.765625 -3.0625 1.828125 -5.984375l5.625 -15.3125l4.453125 0l-10.0 26.703125q-1.609375 4.34375 -2.5 5.96875q-1.1875 2.203125 -2.71875 3.21875q-1.53125 1.03125 -3.65625 1.03125q-1.296875 0 -2.875 -0.546875zm23.875 -23.25q0 -7.296875 4.046875 -10.796875q3.390625 -2.921875 8.265625 -2.921875q5.421875 0 8.859375 3.546875q3.4375 3.546875 3.4375 9.8125q0 5.0625 -1.53125 7.96875q-1.515625 2.90625 -4.421875 4.515625q-2.90625 1.609375 -6.34375 1.609375q-5.515625 0 -8.921875 -3.53125q-3.390625 -3.546875 -3.390625 -10.203125zm4.578125 0q0 5.046875 2.1875 7.5625q2.203125 2.515625 5.546875 2.515625q3.3125 0 5.515625 -2.515625q2.203125 -2.53125 2.203125 -7.703125q0 -4.875 -2.21875 -7.375q-2.203125 -2.515625 -5.5 -2.515625q-3.34375 0 -5.546875 2.5q-2.1875 2.484375 -2.1875 7.53125zm42.453857 13.140625l0 -3.859375q-3.0625 4.453125 -8.328125 4.453125q-2.328125 0 -4.34375 -0.890625q-2.015625 -0.890625 -3.0 -2.234375q-0.96875 -1.359375 -1.359375 -3.3125q-0.28125 -1.296875 -0.28125 -4.15625l0 -16.265625l4.453125 0l0 14.5625q0 3.484375 0.28125 4.703125q0.421875 1.75 1.78125 2.765625q1.359375 1.0 3.359375 1.0q2.0 0 3.75 -1.03125q1.765625 -1.03125 2.484375 -2.796875q0.734375 -1.765625 0.734375 -5.125l0 -14.078125l4.453125 0l0 26.265625l-3.984375 0zm24.996521 0l0 -26.265625l4.0 0l0 3.984375q1.53125 -2.796875 2.828125 -3.6875q1.296875 -0.890625 2.859375 -0.890625q2.25 0 4.578125 1.4375l-1.53125 4.125q-1.640625 -0.96875 -3.265625 -0.96875q-1.46875 0 -2.625 0.890625q-1.15625 0.875 -1.65625 2.421875q-0.75 2.375 -0.75 5.203125l0 13.75l-4.4375 0zm34.900146 -8.453125l4.59375 0.5625q-1.09375 4.03125 -4.03125 6.265625q-2.9375 2.21875 -7.515625 2.21875q-5.7655945 0 -9.1405945 -3.546875q-3.375 -3.546875 -3.375 -9.953125q0 -6.640625 3.40625 -10.296875q3.421875 -3.65625 8.8593445 -3.65625q5.265625 0 8.59375 3.59375q3.34375 3.578125 3.34375 10.078125q0 0.40625 -0.015625 1.1875l-19.59372 0q0.25 4.328125 2.453125 6.640625q2.203125 2.296875 5.4843445 2.296875q2.453125 0 4.1875 -1.28125q1.734375 -1.296875 2.75 -4.109375zm-14.6249695 -7.203125l14.6718445 0q-0.296875 -3.3125 -1.6875 -4.96875q-2.125 -2.578125 -5.515625 -2.578125q-3.0624695 0 -5.1562195 2.0625q-2.09375 2.046875 -2.3125 5.484375zm41.953827 6.03125l4.375 0.578125q-0.71875 4.515625 -3.671875 7.078125q-2.953125 2.5625 -7.265625 2.5625q-5.390625 0 -8.671875 -3.515625q-3.265625 -3.53125 -3.265625 -10.109375q0 -4.265625 1.40625 -7.453125q1.40625 -3.1875 4.28125 -4.78125q2.890625 -1.59375 6.28125 -1.59375q4.28125 0 7.0 2.171875q2.71875 2.15625 3.484375 6.140625l-4.328125 0.65625q-0.625 -2.640625 -2.203125 -3.96875q-1.5625 -1.34375 -3.78125 -1.34375q-3.359375 0 -5.46875 2.421875q-2.109375 2.40625 -2.109375 7.625q0 5.296875 2.03125 7.703125q2.03125 2.390625 5.296875 2.390625q2.625 0 4.375 -1.609375q1.765625 -1.609375 2.234375 -4.953125zm6.53125 -3.515625q0 -7.296875 4.046875 -10.796875q3.390625 -2.921875 8.265625 -2.921875q5.421875 0 8.859375 3.546875q3.4375 3.546875 3.4375 9.8125q0 5.0625 -1.53125 7.96875q-1.515625 2.90625 -4.421875 4.515625q-2.90625 1.609375 -6.34375 1.609375q-5.515625 0 -8.921875 -3.53125q-3.390625 -3.546875 -3.390625 -10.203125zm4.578125 0q0 5.046875 2.1875 7.5625q2.203125 2.515625 5.546875 2.515625q3.3125 0 5.515625 -2.515625q2.203125 -2.53125 2.203125 -7.703125q0 -4.875 -2.21875 -7.375q-2.203125 -2.515625 -5.5 -2.515625q-3.34375 0 -5.546875 2.5q-2.1875 2.484375 -2.1875 7.53125zm25.250732 13.140625l0 -26.265625l3.984375 0l0 3.6875q1.234375 -1.9375 3.28125 -3.109375q2.0625 -1.171875 4.671875 -1.171875q2.921875 0 4.78125 1.21875q1.875 1.203125 2.640625 3.375q3.125 -4.59375 8.109375 -4.59375q3.921875 0 6.015625 2.171875q2.109375 2.15625 2.109375 6.65625l0 18.03125l-4.4375 0l0 -16.546875q0 -2.671875 -0.4375 -3.84375q-0.421875 -1.171875 -1.5625 -1.890625q-1.140625 -0.71875 -2.671875 -0.71875q-2.765625 0 -4.59375 1.84375q-1.828125 1.84375 -1.828125 5.890625l0 15.265625l-4.453125 0l0 -17.0625q0 -2.96875 -1.09375 -4.453125q-1.09375 -1.484375 -3.5625 -1.484375q-1.875 0 -3.484375 0.984375q-1.59375 0.984375 -2.3125 2.890625q-0.703125 1.90625 -0.703125 5.5l0 13.625l-4.453125 0zm42.19702 0l0 -26.265625l3.984375 0l0 3.6875q1.234375 -1.9375 3.28125 -3.109375q2.0625 -1.171875 4.671875 -1.171875q2.921875 0 4.78125 1.21875q1.875 1.203125 2.640625 3.375q3.125 -4.59375 8.109375 -4.59375q3.921875 0 6.015625 2.171875q2.109375 2.15625 2.109375 6.65625l0 18.03125l-4.4375 0l0 -16.546875q0 -2.671875 -0.4375 -3.84375q-0.421875 -1.171875 -1.5625 -1.890625q-1.140625 -0.71875 -2.671875 -0.71875q-2.765625 0 -4.59375 1.84375q-1.828125 1.84375 -1.828125 5.890625l0 15.265625l-4.453125 0l0 -17.0625q0 -2.96875 -1.09375 -4.453125q-1.09375 -1.484375 -3.5625 -1.484375q-1.875 0 -3.484375 0.984375q-1.59375 0.984375 -2.3125 2.890625q-0.703125 1.90625 -0.703125 5.5l0 13.625l-4.453125 0zm60.181396 -8.453125l4.59375 0.5625q-1.09375 4.03125 -4.03125 6.265625q-2.9375 2.21875 -7.515625 2.21875q-5.765625 0 -9.140625 -3.546875q-3.375 -3.546875 -3.375 -9.953125q0 -6.640625 3.40625 -10.296875q3.421875 -3.65625 8.859375 -3.65625q5.265625 0 8.59375 3.59375q3.34375 3.578125 3.34375 10.078125q0 0.40625 -0.015625 1.1875l-19.59375 0q0.25 4.328125 2.453125 6.640625q2.203125 2.296875 5.484375 2.296875q2.453125 0 4.1875 -1.28125q1.734375 -1.296875 2.75 -4.109375zm-14.625 -7.203125l14.671875 0q-0.296875 -3.3125 -1.6875 -4.96875q-2.125 -2.578125 -5.515625 -2.578125q-3.0625 0 -5.15625 2.0625q-2.09375 2.046875 -2.3125 5.484375zm24.813232 15.65625l0 -26.265625l4.0 0l0 3.734375q2.890625 -4.328125 8.359375 -4.328125q2.375 0 4.359375 0.859375q2.0 0.84375 2.984375 2.234375q1.0 1.375 1.390625 3.28125q0.25 1.234375 0.25 4.328125l0 16.15625l-4.453125 0l0 -15.984375q0 -2.71875 -0.53125 -4.0625q-0.515625 -1.34375 -1.84375 -2.140625q-1.3125 -0.8125 -3.09375 -0.8125q-2.84375 0 -4.90625 1.8125q-2.0625 1.796875 -2.0625 6.84375l0 14.34375l-4.453125 0zm45.203857 0l0 -3.3125q-2.484375 3.90625 -7.34375 3.90625q-3.140625 0 -5.78125 -1.734375q-2.625 -1.734375 -4.078125 -4.828125q-1.4375 -3.109375 -1.4375 -7.140625q0 -3.9375 1.3125 -7.140625q1.3125 -3.203125 3.921875 -4.90625q2.625 -1.703125 5.875 -1.703125q2.375 0 4.21875 1.0q1.859375 1.0 3.015625 2.609375l0 -13.015625l4.4375 0l0 36.265625l-4.140625 0zm-14.0625 -13.109375q0 5.046875 2.125 7.546875q2.125 2.5 5.015625 2.5q2.921875 0 4.953125 -2.390625q2.046875 -2.390625 2.046875 -7.28125q0 -5.390625 -2.078125 -7.90625q-2.078125 -2.53125 -5.125 -2.53125q-2.953125 0 -4.953125 2.421875q-1.984375 2.421875 -1.984375 7.640625zm42.344482 9.875q-2.484375 2.09375 -4.765625 2.96875q-2.28125 0.859375 -4.90625 0.859375q-4.328125 0 -6.65625 -2.109375q-2.328125 -2.125 -2.328125 -5.40625q0 -1.9375 0.875 -3.53125q0.890625 -1.59375 2.3125 -2.546875q1.421875 -0.96875 3.203125 -1.46875q1.296875 -0.34375 3.953125 -0.671875q5.390625 -0.640625 7.9375 -1.53125q0.03125 -0.921875 0.03125 -1.15625q0 -2.71875 -1.265625 -3.84375q-1.703125 -1.5 -5.078125 -1.5q-3.140625 0 -4.640625 1.109375q-1.484375 1.09375 -2.203125 3.875l-4.359375 -0.59375q0.59375 -2.78125 1.953125 -4.5q1.359375 -1.71875 3.9375 -2.640625q2.578125 -0.9375 5.953125 -0.9375q3.375 0 5.46875 0.796875q2.109375 0.78125 3.09375 1.984375q1.0 1.203125 1.390625 3.03125q0.21875 1.140625 0.21875 4.109375l0 5.9375q0 6.203125 0.28125 7.84375q0.296875 1.640625 1.125 3.15625l-4.640625 0q-0.703125 -1.390625 -0.890625 -3.234375zm-0.375 -9.953125q-2.421875 1.0 -7.265625 1.6875q-2.75 0.390625 -3.890625 0.890625q-1.140625 0.5 -1.765625 1.453125q-0.609375 0.9375 -0.609375 2.109375q0 1.78125 1.34375 2.96875q1.359375 1.1875 3.953125 1.1875q2.5625 0 4.5625 -1.125q2.015625 -1.125 2.953125 -3.078125q0.71875 -1.515625 0.71875 -4.453125l0 -1.640625zm15.500732 13.1875l-4.125 0l0 -36.265625l4.453125 0l0 12.9375q2.828125 -3.53125 7.203125 -3.53125q2.421875 0 4.578125 0.984375q2.171875 0.96875 3.5625 2.734375q1.40625 1.765625 2.1875 4.265625q0.796875 2.5 0.796875 5.34375q0 6.75 -3.34375 10.4375q-3.328125 3.6875 -8.015625 3.6875q-4.640625 0 -7.296875 -3.890625l0 3.296875zm-0.046875 -13.328125q0 4.71875 1.296875 6.828125q2.09375 3.4375 5.6875 3.4375q2.921875 0 5.046875 -2.53125q2.125 -2.546875 2.125 -7.5625q0 -5.140625 -2.046875 -7.59375q-2.03125 -2.453125 -4.9375 -2.453125q-2.90625 0 -5.046875 2.546875q-2.125 2.53125 -2.125 7.328125zm24.016357 13.328125l0 -36.265625l4.453125 0l0 36.265625l-4.453125 0zm29.347961 -8.453125l4.59375 0.5625q-1.09375 4.03125 -4.03125 6.265625q-2.9375 2.21875 -7.515625 2.21875q-5.765625 0 -9.140625 -3.546875q-3.375 -3.546875 -3.375 -9.953125q0 -6.640625 3.40625 -10.296875q3.421875 -3.65625 8.859375 -3.65625q5.265625 0 8.59375 3.59375q3.34375 3.578125 3.34375 10.078125q0 0.40625 -0.015625 1.1875l-19.59375 0q0.25 4.328125 2.453125 6.640625q2.203125 2.296875 5.484375 2.296875q2.453125 0 4.1875 -1.28125q1.734375 -1.296875 2.75 -4.109375zm-14.625 -7.203125l14.671875 0q-0.296875 -3.3125 -1.6875 -4.96875q-2.125 -2.578125 -5.515625 -2.578125q-3.0625 0 -5.15625 2.0625q-2.09375 2.046875 -2.3125 5.484375zm26.063232 15.65625l0 -5.078125l5.078125 0l0 5.078125l-5.078125 0z" fill-rule="nonzero"/><g id="a11y-dsl_b11" role="img" aria-label="Clear services.&#xa;Clear service area.&#xa;Clear proof customers trust you.&#xa;" tabindex="0"><path fill="#000000" fill-opacity="0.0" d="m106.666664 313.33334l0 193.32281l746.6771 0l0 -193.32281z" fill-rule="nonzero"/></g><path fill="#000000" fill-opacity="0.0" d="m106.666664 313.33334l746.6771 0l0 193.32281l-746.6771 0z" fill-rule="evenodd"/><path fill="#000000" d="m389.40298 345.97397l3.15625 0.796875q-1.0 3.890625 -3.578125 5.9375q-2.578125 2.03125 -6.296875 2.03125q-3.859375 0 -6.28125 -1.5625q-2.40625 -1.578125 -3.671875 -4.546875q-1.265625 -2.984375 -1.265625 -6.40625q0 -3.71875 1.421875 -6.5q1.421875 -2.78125 4.046875 -4.21875q2.640625 -1.4375 5.796875 -1.4375q3.578125 0 6.015625 1.828125q2.453125 1.8125 3.40625 5.125l-3.109375 0.734375q-0.828125 -2.609375 -2.40625 -3.796875q-1.578125 -1.1875 -3.96875 -1.1875q-2.75 0 -4.609375 1.328125q-1.84375 1.3125 -2.59375 3.53125q-0.734375 2.21875 -0.734375 4.578125q0 3.046875 0.875 5.3125q0.890625 2.265625 2.765625 3.390625q1.875 1.125 4.046875 1.125q2.65625 0 4.484375 -1.53125q1.84375 -1.53125 2.5 -4.53125zm6.599762 8.359375l0 -23.859375l2.9375 0l0 23.859375l-2.9375 0zm19.3107 -5.5625l3.015625 0.375q-0.703125 2.65625 -2.640625 4.125q-1.9375 1.453125 -4.953125 1.453125q-3.796875 0 -6.015625 -2.328125q-2.21875 -2.34375 -2.21875 -6.5625q0 -4.359375 2.25 -6.765625q2.25 -2.40625 5.828125 -2.40625q3.46875 0 5.65625 2.359375q2.203125 2.359375 2.203125 6.640625q0 0.265625 -0.015625 0.78125l-12.890625 0q0.15625 2.84375 1.609375 4.359375q1.453125 1.515625 3.609375 1.515625q1.609375 0 2.75 -0.84375q1.140625 -0.84375 1.8125 -2.703125zm-9.625 -4.734375l9.65625 0q-0.203125 -2.1875 -1.109375 -3.28125q-1.40625 -1.6875 -3.625 -1.6875q-2.015625 0 -3.390625 1.359375q-1.375 1.34375 -1.53125 3.609375zm27.598022 8.171875q-1.625 1.375 -3.125 1.953125q-1.5 0.5625 -3.234375 0.5625q-2.84375 0 -4.375 -1.390625q-1.53125 -1.390625 -1.53125 -3.5625q0 -1.265625 0.578125 -2.3125q0.578125 -1.046875 1.515625 -1.671875q0.9375 -0.640625 2.109375 -0.96875q0.859375 -0.234375 2.59375 -0.4375q3.546875 -0.421875 5.234375 -1.015625q0.015625 -0.609375 0.015625 -0.765625q0 -1.78125 -0.828125 -2.515625q-1.125 -1.0 -3.34375 -1.0q-2.0625 0 -3.046875 0.734375q-0.984375 0.71875 -1.453125 2.546875l-2.875 -0.390625q0.390625 -1.828125 1.28125 -2.953125q0.90625 -1.140625 2.59375 -1.75q1.703125 -0.609375 3.921875 -0.609375q2.21875 0 3.59375 0.53125q1.390625 0.515625 2.03125 1.3125q0.65625 0.78125 0.921875 1.984375q0.140625 0.75 0.140625 2.703125l0 3.90625q0 4.078125 0.1875 5.15625q0.1875 1.078125 0.75 2.078125l-3.0625 0q-0.453125 -0.90625 -0.59375 -2.125zm-0.234375 -6.546875q-1.59375 0.65625 -4.78125 1.109375q-1.8125 0.25 -2.5625 0.578125q-0.75 0.328125 -1.15625 0.953125q-0.40625 0.625 -0.40625 1.390625q0 1.171875 0.890625 1.953125q0.890625 0.78125 2.59375 0.78125q1.6875 0 3.0 -0.734375q1.328125 -0.75 1.953125 -2.03125q0.46875 -0.984375 0.46875 -2.921875l0 -1.078125zm7.4730225 8.671875l0 -17.28125l2.625 0l0 2.625q1.015625 -1.84375 1.859375 -2.421875q0.859375 -0.59375 1.890625 -0.59375q1.484375 0 3.0 0.9375l-1.0 2.71875q-1.078125 -0.625 -2.15625 -0.625q-0.953125 0 -1.71875 0.578125q-0.765625 0.578125 -1.09375 1.59375q-0.484375 1.5625 -0.484375 3.421875l0 9.046875l-2.921875 0zm19.21753 -5.15625l2.890625 -0.453125q0.25 1.734375 1.359375 2.671875q1.109375 0.921875 3.109375 0.921875q2.03125 0 3.0 -0.8125q0.984375 -0.828125 0.984375 -1.9375q0 -1.0 -0.875 -1.5625q-0.59375 -0.390625 -2.984375 -1.0q-3.234375 -0.8125 -4.484375 -1.40625q-1.234375 -0.59375 -1.875 -1.640625q-0.640625 -1.046875 -0.640625 -2.3125q0 -1.15625 0.53125 -2.140625q0.53125 -0.984375 1.4375 -1.640625q0.6875 -0.5 1.859375 -0.84375q1.1875 -0.359375 2.53125 -0.359375q2.03125 0 3.5625 0.59375q1.546875 0.578125 2.28125 1.578125q0.734375 1.0 1.015625 2.671875l-2.875 0.390625q-0.1875 -1.328125 -1.125 -2.078125q-0.9375 -0.75 -2.640625 -0.75q-2.03125 0 -2.890625 0.671875q-0.859375 0.65625 -0.859375 1.5625q0 0.5625 0.359375 1.015625q0.359375 0.484375 1.125 0.78125q0.4375 0.171875 2.578125 0.75q3.109375 0.828125 4.34375 1.359375q1.234375 0.53125 1.921875 1.546875q0.703125 1.0 0.703125 2.5q0 1.46875 -0.859375 2.765625q-0.84375 1.28125 -2.453125 2.0q-1.609375 0.703125 -3.65625 0.703125q-3.359375 0 -5.125 -1.390625q-1.765625 -1.40625 -2.25 -4.15625zm29.664062 -0.40625l3.015625 0.375q-0.703125 2.65625 -2.640625 4.125q-1.9375 1.453125 -4.953125 1.453125q-3.796875 0 -6.015625 -2.328125q-2.21875 -2.34375 -2.21875 -6.5625q0 -4.359375 2.25 -6.765625q2.25 -2.40625 5.828125 -2.40625q3.46875 0 5.65625 2.359375q2.203125 2.359375 2.203125 6.640625q0 0.265625 -0.015625 0.78125l-12.890625 0q0.15625 2.84375 1.609375 4.359375q1.453125 1.515625 3.609375 1.515625q1.609375 0 2.75 -0.84375q1.140625 -0.84375 1.8125 -2.703125zm-9.625 -4.734375l9.65625 0q-0.203125 -2.1875 -1.109375 -3.28125q-1.40625 -1.6875 -3.625 -1.6875q-2.015625 0 -3.390625 1.359375q-1.375 1.34375 -1.53125 3.609375zm16.301147 10.296875l0 -17.28125l2.625 0l0 2.625q1.015625 -1.84375 1.859375 -2.421875q0.859375 -0.59375 1.890625 -0.59375q1.484375 0 3.0 0.9375l-1.0 2.71875q-1.078125 -0.625 -2.15625 -0.625q-0.953125 0 -1.71875 0.578125q-0.765625 0.578125 -1.09375 1.59375q-0.484375 1.5625 -0.484375 3.421875l0 9.046875l-2.921875 0zm15.926666 0l-6.5781555 -17.28125l3.09375 0l3.7031555 10.34375q0.609375 1.6875 1.109375 3.484375q0.390625 -1.359375 1.09375 -3.28125l3.84375 -10.546875l3.015625 0l-6.546875 17.28125l-2.734375 0zm11.8828125 -20.484375l0 -3.375l2.921875 0l0 3.375l-2.921875 0zm0 20.484375l0 -17.28125l2.921875 0l0 17.28125l-2.921875 0zm18.65448 -6.328125l2.890625 0.375q-0.46875 2.96875 -2.421875 4.65625q-1.9375 1.6875 -4.78125 1.6875q-3.546875 0 -5.703125 -2.3125q-2.15625 -2.328125 -2.15625 -6.65625q0 -2.796875 0.921875 -4.890625q0.9375 -2.109375 2.828125 -3.15625q1.90625 -1.046875 4.125 -1.046875q2.828125 0 4.609375 1.421875q1.796875 1.421875 2.296875 4.046875l-2.84375 0.4375q-0.40625 -1.734375 -1.453125 -2.609375q-1.03125 -0.890625 -2.484375 -0.890625q-2.21875 0 -3.609375 1.59375q-1.375 1.578125 -1.375 5.015625q0 3.484375 1.328125 5.0625q1.34375 1.578125 3.484375 1.578125q1.734375 0 2.890625 -1.0625q1.15625 -1.0625 1.453125 -3.25zm17.226562 0.765625l3.015625 0.375q-0.703125 2.65625 -2.640625 4.125q-1.9375 1.453125 -4.953125 1.453125q-3.796875 0 -6.015625 -2.328125q-2.21875 -2.34375 -2.21875 -6.5625q0 -4.359375 2.25 -6.765625q2.25 -2.40625 5.828125 -2.40625q3.46875 0 5.65625 2.359375q2.203125 2.359375 2.203125 6.640625q0 0.265625 -0.015625 0.78125l-12.890625 0q0.15625 2.84375 1.609375 4.359375q1.453125 1.515625 3.609375 1.515625q1.609375 0 2.75 -0.84375q1.140625 -0.84375 1.8125 -2.703125zm-9.625 -4.734375l9.65625 0q-0.203125 -2.1875 -1.109375 -3.28125q-1.40625 -1.6875 -3.625 -1.6875q-2.015625 0 -3.390625 1.359375q-1.375 1.34375 -1.53125 3.609375zm15.160522 5.140625l2.890625 -0.453125q0.25 1.734375 1.359375 2.671875q1.109375 0.921875 3.109375 0.921875q2.03125 0 3.0 -0.8125q0.984375 -0.828125 0.984375 -1.9375q0 -1.0 -0.875 -1.5625q-0.59375 -0.390625 -2.984375 -1.0q-3.234375 -0.8125 -4.484375 -1.40625q-1.234375 -0.59375 -1.875 -1.640625q-0.640625 -1.046875 -0.640625 -2.3125q0 -1.15625 0.53125 -2.140625q0.53125 -0.984375 1.4375 -1.640625q0.6875 -0.5 1.859375 -0.84375q1.1875 -0.359375 2.53125 -0.359375q2.03125 0 3.5625 0.59375q1.546875 0.578125 2.28125 1.578125q0.734375 1.0 1.015625 2.671875l-2.875 0.390625q-0.1875 -1.328125 -1.125 -2.078125q-0.9375 -0.75 -2.640625 -0.75q-2.03125 0 -2.890625 0.671875q-0.859375 0.65625 -0.859375 1.5625q0 0.5625 0.359375 1.015625q0.359375 0.484375 1.125 0.78125q0.4375 0.171875 2.578125 0.75q3.109375 0.828125 4.34375 1.359375q1.234375 0.53125 1.921875 1.546875q0.703125 1.0 0.703125 2.5q0 1.46875 -0.859375 2.765625q-0.84375 1.28125 -2.453125 2.0q-1.609375 0.703125 -3.65625 0.703125q-3.359375 0 -5.125 -1.390625q-1.765625 -1.40625 -2.25 -4.15625zm18.664062 5.15625l0 -3.34375l3.328125 0l0 3.34375l-3.328125 0z" fill-rule="nonzero"/><path fill="#000000" d="m359.75262 385.97397l3.15625 0.796875q-1.0 3.890625 -3.578125 5.9375q-2.578125 2.03125 -6.296875 2.03125q-3.859375 0 -6.28125 -1.5625q-2.40625 -1.578125 -3.671875 -4.546875q-1.265625 -2.984375 -1.265625 -6.40625q0 -3.71875 1.421875 -6.5q1.421875 -2.78125 4.046875 -4.21875q2.640625 -1.4375 5.796875 -1.4375q3.578125 0 6.015625 1.828125q2.453125 1.8125 3.40625 5.125l-3.109375 0.734375q-0.828125 -2.609375 -2.40625 -3.796875q-1.578125 -1.1875 -3.96875 -1.1875q-2.75 0 -4.609375 1.328125q-1.84375 1.3125 -2.59375 3.53125q-0.734375 2.21875 -0.734375 4.578125q0 3.046875 0.875 5.3125q0.890625 2.265625 2.765625 3.390625q1.875 1.125 4.046875 1.125q2.65625 0 4.484375 -1.53125q1.84375 -1.53125 2.5 -4.53125zm6.599762 8.359375l0 -23.859375l2.9375 0l0 23.859375l-2.9375 0zm19.3107 -5.5625l3.015625 0.375q-0.703125 2.65625 -2.640625 4.125q-1.9375 1.453125 -4.953125 1.453125q-3.796875 0 -6.015625 -2.328125q-2.21875 -2.34375 -2.21875 -6.5625q0 -4.359375 2.25 -6.765625q2.25 -2.40625 5.828125 -2.40625q3.46875 0 5.65625 2.359375q2.203125 2.359375 2.203125 6.640625q0 0.265625 -0.015625 0.78125l-12.890625 0q0.15625 2.84375 1.609375 4.359375q1.453125 1.515625 3.609375 1.515625q1.609375 0 2.75 -0.84375q1.140625 -0.84375 1.8125 -2.703125zm-9.625 -4.734375l9.65625 0q-0.203125 -2.1875 -1.109375 -3.28125q-1.40625 -1.6875 -3.625 -1.6875q-2.015625 0 -3.390625 1.359375q-1.375 1.34375 -1.53125 3.609375zm27.598022 8.171875q-1.625 1.375 -3.125 1.953125q-1.5 0.5625 -3.234375 0.5625q-2.84375 0 -4.375 -1.390625q-1.53125 -1.390625 -1.53125 -3.5625q0 -1.265625 0.578125 -2.3125q0.578125 -1.046875 1.515625 -1.671875q0.9375 -0.640625 2.109375 -0.96875q0.859375 -0.234375 2.59375 -0.4375q3.546875 -0.421875 5.234375 -1.015625q0.015625 -0.609375 0.015625 -0.765625q0 -1.78125 -0.828125 -2.515625q-1.125 -1.0 -3.34375 -1.0q-2.0625 0 -3.046875 0.734375q-0.984375 0.71875 -1.453125 2.546875l-2.875 -0.390625q0.390625 -1.828125 1.28125 -2.953125q0.90625 -1.140625 2.59375 -1.75q1.703125 -0.609375 3.921875 -0.609375q2.21875 0 3.59375 0.53125q1.390625 0.515625 2.03125 1.3125q0.65625 0.78125 0.921875 1.984375q0.140625 0.75 0.140625 2.703125l0 3.90625q0 4.078125 0.1875 5.15625q0.1875 1.078125 0.75 2.078125l-3.0625 0q-0.453125 -0.90625 -0.59375 -2.125zm-0.234375 -6.546875q-1.59375 0.65625 -4.78125 1.109375q-1.8125 0.25 -2.5625 0.578125q-0.75 0.328125 -1.15625 0.953125q-0.40625 0.625 -0.40625 1.390625q0 1.171875 0.890625 1.953125q0.890625 0.78125 2.59375 0.78125q1.6875 0 3.0 -0.734375q1.328125 -0.75 1.953125 -2.03125q0.46875 -0.984375 0.46875 -2.921875l0 -1.078125zm7.4730225 8.671875l0 -17.28125l2.625 0l0 2.625q1.015625 -1.84375 1.859375 -2.421875q0.859375 -0.59375 1.890625 -0.59375q1.484375 0 3.0 0.9375l-1.0 2.71875q-1.078125 -0.625 -2.15625 -0.625q-0.953125 0 -1.71875 0.578125q-0.765625 0.578125 -1.09375 1.59375q-0.484375 1.5625 -0.484375 3.421875l0 9.046875l-2.921875 0zm19.21753 -5.15625l2.890625 -0.453125q0.25 1.734375 1.359375 2.671875q1.109375 0.921875 3.109375 0.921875q2.03125 0 3.0 -0.8125q0.984375 -0.828125 0.984375 -1.9375q0 -1.0 -0.875 -1.5625q-0.59375 -0.390625 -2.984375 -1.0q-3.234375 -0.8125 -4.484375 -1.40625q-1.234375 -0.59375 -1.875 -1.640625q-0.640625 -1.046875 -0.640625 -2.3125q0 -1.15625 0.53125 -2.140625q0.53125 -0.984375 1.4375 -1.640625q0.6875 -0.5 1.859375 -0.84375q1.1875 -0.359375 2.53125 -0.359375q2.03125 0 3.5625 0.59375q1.546875 0.578125 2.28125 1.578125q0.734375 1.0 1.015625 2.671875l-2.875 0.390625q-0.1875 -1.328125 -1.125 -2.078125q-0.9375 -0.75 -2.640625 -0.75q-2.03125 0 -2.890625 0.671875q-0.859375 0.65625 -0.859375 1.5625q0 0.5625 0.359375 1.015625q0.359375 0.484375 1.125 0.78125q0.4375 0.171875 2.578125 0.75q3.109375 0.828125 4.34375 1.359375q1.234375 0.53125 1.921875 1.546875q0.703125 1.0 0.703125 2.5q0 1.46875 -0.859375 2.765625q-0.84375 1.28125 -2.453125 2.0q-1.609375 0.703125 -3.65625 0.703125q-3.359375 0 -5.125 -1.390625q-1.765625 -1.40625 -2.25 -4.15625zm29.664062 -0.40625l3.015625 0.375q-0.703125 2.65625 -2.640625 4.125q-1.9375 1.453125 -4.953125 1.453125q-3.796875 0 -6.015625 -2.328125q-2.21875 -2.34375 -2.21875 -6.5625q0 -4.359375 2.25 -6.765625q2.25 -2.40625 5.828125 -2.40625q3.46875 0 5.65625 2.359375q2.203125 2.359375 2.203125 6.640625q0 0.265625 -0.015625 0.78125l-12.890625 0q0.15625 2.84375 1.609375 4.359375q1.453125 1.515625 3.609375 1.515625q1.609375 0 2.75 -0.84375q1.140625 -0.84375 1.8125 -2.703125zm-9.625 -4.734375l9.65625 0q-0.203125 -2.1875 -1.109375 -3.28125q-1.40625 -1.6875 -3.625 -1.6875q-2.015625 0 -3.390625 1.359375q-1.375 1.34375 -1.53125 3.609375zm16.301147 10.296875l0 -17.28125l2.625 0l0 2.625q1.015625 -1.84375 1.859375 -2.421875q0.859375 -0.59375 1.890625 -0.59375q1.484375 0 3.0 0.9375l-1.0 2.71875q-1.078125 -0.625 -2.15625 -0.625q-0.953125 0 -1.71875 0.578125q-0.765625 0.578125 -1.09375 1.59375q-0.484375 1.5625 -0.484375 3.421875l0 9.046875l-2.921875 0zm15.926666 0l-6.578125 -17.28125l3.09375 0l3.703125 10.34375q0.609375 1.6875 1.109375 3.484375q0.390625 -1.359375 1.09375 -3.28125l3.84375 -10.546875l3.015625 0l-6.546875 17.28125l-2.734375 0zm11.8828125 -20.484375l0 -3.375l2.921875 0l0 3.375l-2.921875 0zm0 20.484375l0 -17.28125l2.921875 0l0 17.28125l-2.921875 0zm18.65445 -6.328125l2.890625 0.375q-0.46875 2.96875 -2.421875 4.65625q-1.9375305 1.6875 -4.7812805 1.6875q-3.546875 0 -5.703125 -2.3125q-2.15625 -2.328125 -2.15625 -6.65625q0 -2.796875 0.921875 -4.890625q0.9375 -2.109375 2.828125 -3.15625q1.90625 -1.046875 4.125 -1.046875q2.828125 0 4.6094055 1.421875q1.796875 1.421875 2.296875 4.046875l-2.84375 0.4375q-0.40625 -1.734375 -1.4531555 -2.609375q-1.03125 -0.890625 -2.484375 -0.890625q-2.21875 0 -3.609375 1.59375q-1.375 1.578125 -1.375 5.015625q0 3.484375 1.328125 5.0625q1.34375 1.578125 3.484375 1.578125q1.734375 0 2.890625 -1.0625q1.1562805 -1.0625 1.4531555 -3.25zm17.226562 0.765625l3.015625 0.375q-0.703125 2.65625 -2.640625 4.125q-1.9375 1.453125 -4.953125 1.453125q-3.796875 0 -6.015625 -2.328125q-2.21875 -2.34375 -2.21875 -6.5625q0 -4.359375 2.25 -6.765625q2.25 -2.40625 5.828125 -2.40625q3.46875 0 5.65625 2.359375q2.203125 2.359375 2.203125 6.640625q0 0.265625 -0.015625 0.78125l-12.890625 0q0.15625 2.84375 1.609375 4.359375q1.453125 1.515625 3.609375 1.515625q1.609375 0 2.75 -0.84375q1.140625 -0.84375 1.8125 -2.703125zm-9.625 -4.734375l9.65625 0q-0.203125 -2.1875 -1.109375 -3.28125q-1.40625 -1.6875 -3.625 -1.6875q-2.015625 0 -3.390625 1.359375q-1.375 1.34375 -1.53125 3.609375zm36.857666 8.171875q-1.625 1.375 -3.125 1.953125q-1.5 0.5625 -3.234375 0.5625q-2.84375 0 -4.375 -1.390625q-1.53125 -1.390625 -1.53125 -3.5625q0 -1.265625 0.578125 -2.3125q0.578125 -1.046875 1.515625 -1.671875q0.9375 -0.640625 2.109375 -0.96875q0.859375 -0.234375 2.59375 -0.4375q3.546875 -0.421875 5.234375 -1.015625q0.015625 -0.609375 0.015625 -0.765625q0 -1.78125 -0.828125 -2.515625q-1.125 -1.0 -3.34375 -1.0q-2.0625 0 -3.046875 0.734375q-0.984375 0.71875 -1.453125 2.546875l-2.875 -0.390625q0.390625 -1.828125 1.28125 -2.953125q0.90625 -1.140625 2.59375 -1.75q1.703125 -0.609375 3.921875 -0.609375q2.21875 0 3.59375 0.53125q1.390625 0.515625 2.03125 1.3125q0.65625 0.78125 0.921875 1.984375q0.140625 0.75 0.140625 2.703125l0 3.90625q0 4.078125 0.1875 5.15625q0.1875 1.078125 0.75 2.078125l-3.0625 0q-0.453125 -0.90625 -0.59375 -2.125zm-0.234375 -6.546875q-1.59375 0.65625 -4.78125 1.109375q-1.8125 0.25 -2.5625 0.578125q-0.75 0.328125 -1.15625 0.953125q-0.40625 0.625 -0.40625 1.390625q0 1.171875 0.890625 1.953125q0.890625 0.78125 2.59375 0.78125q1.6875 0 3.0 -0.734375q1.328125 -0.75 1.953125 -2.03125q0.46875 -0.984375 0.46875 -2.921875l0 -1.078125zm7.4730225 8.671875l0 -17.28125l2.625 0l0 2.625q1.015625 -1.84375 1.859375 -2.421875q0.859375 -0.59375 1.890625 -0.59375q1.484375 0 3.0 0.9375l-1.0 2.71875q-1.078125 -0.625 -2.15625 -0.625q-0.953125 0 -1.71875 0.578125q-0.765625 0.578125 -1.09375 1.59375q-0.484375 1.5625 -0.484375 3.421875l0 9.046875l-2.921875 0zm22.957886 -5.5625l3.015625 0.375q-0.703125 2.65625 -2.640625 4.125q-1.9375 1.453125 -4.953125 1.453125q-3.796875 0 -6.015625 -2.328125q-2.21875 -2.34375 -2.21875 -6.5625q0 -4.359375 2.25 -6.765625q2.25 -2.40625 5.828125 -2.40625q3.46875 0 5.65625 2.359375q2.203125 2.359375 2.203125 6.640625q0 0.265625 -0.015625 0.78125l-12.890625 0q0.15625 2.84375 1.609375 4.359375q1.453125 1.515625 3.609375 1.515625q1.609375 0 2.75 -0.84375q1.140625 -0.84375 1.8125 -2.703125zm-9.625 -4.734375l9.65625 0q-0.203125 -2.1875 -1.109375 -3.28125q-1.40625 -1.6875 -3.625 -1.6875q-2.015625 0 -3.390625 1.359375q-1.375 1.34375 -1.53125 3.609375zm27.598022 8.171875q-1.625 1.375 -3.125 1.953125q-1.5 0.5625 -3.234375 0.5625q-2.84375 0 -4.375 -1.390625q-1.53125 -1.390625 -1.53125 -3.5625q0 -1.265625 0.578125 -2.3125q0.578125 -1.046875 1.515625 -1.671875q0.9375 -0.640625 2.109375 -0.96875q0.859375 -0.234375 2.59375 -0.4375q3.546875 -0.421875 5.234375 -1.015625q0.015625 -0.609375 0.015625 -0.765625q0 -1.78125 -0.828125 -2.515625q-1.125 -1.0 -3.34375 -1.0q-2.0625 0 -3.046875 0.734375q-0.984375 0.71875 -1.453125 2.546875l-2.875 -0.390625q0.390625 -1.828125 1.28125 -2.953125q0.90625 -1.140625 2.59375 -1.75q1.703125 -0.609375 3.921875 -0.609375q2.21875 0 3.59375 0.53125q1.390625 0.515625 2.03125 1.3125q0.65625 0.78125 0.921875 1.984375q0.140625 0.75 0.140625 2.703125l0 3.90625q0 4.078125 0.1875 5.15625q0.1875 1.078125 0.75 2.078125l-3.0625 0q-0.453125 -0.90625 -0.59375 -2.125zm-0.234375 -6.546875q-1.59375 0.65625 -4.78125 1.109375q-1.8125 0.25 -2.5625 0.578125q-0.75 0.328125 -1.15625 0.953125q-0.40625 0.625 -0.40625 1.390625q0 1.171875 0.890625 1.953125q0.890625 0.78125 2.59375 0.78125q1.6875 0 3.0 -0.734375q1.328125 -0.75 1.953125 -2.03125q0.46875 -0.984375 0.46875 -2.921875l0 -1.078125zm8.332397 8.671875l0 -3.34375l3.328125 0l0 3.34375l-3.328125 0z" fill-rule="nonzero"/><path fill="#000000" d="m262.51028 425.97397l3.15625 0.796875q-1.0 3.890625 -3.578125 5.9375q-2.578125 2.03125 -6.2968597 2.03125q-3.859375 0 -6.28125 -1.5625q-2.40625 -1.578125 -3.671875 -4.546875q-1.265625 -2.984375 -1.265625 -6.40625q0 -3.71875 1.421875 -6.5q1.421875 -2.78125 4.046875 -4.21875q2.640625 -1.4375 5.796875 -1.4375q3.5781097 0 6.0156097 1.828125q2.453125 1.8125 3.40625 5.125l-3.109375 0.734375q-0.828125 -2.609375 -2.40625 -3.796875q-1.578125 -1.1875 -3.9687347 -1.1875q-2.75 0 -4.609375 1.328125q-1.84375 1.3125 -2.59375 3.53125q-0.734375 2.21875 -0.734375 4.578125q0 3.046875 0.875 5.3125q0.890625 2.265625 2.765625 3.390625q1.875 1.125 4.046875 1.125q2.6562347 0 4.4843597 -1.53125q1.84375 -1.53125 2.5 -4.53125zm6.599762 8.359375l0 -23.859375l2.9375 0l0 23.859375l-2.9375 0zm19.3107 -5.5625l3.015625 0.375q-0.703125 2.65625 -2.640625 4.125q-1.9375 1.453125 -4.953125 1.453125q-3.796875 0 -6.015625 -2.328125q-2.21875 -2.34375 -2.21875 -6.5625q0 -4.359375 2.25 -6.765625q2.25 -2.40625 5.828125 -2.40625q3.46875 0 5.65625 2.359375q2.203125 2.359375 2.203125 6.640625q0 0.265625 -0.015625 0.78125l-12.890625 0q0.15625 2.84375 1.609375 4.359375q1.453125 1.515625 3.609375 1.515625q1.609375 0 2.75 -0.84375q1.140625 -0.84375 1.8125 -2.703125zm-9.625 -4.734375l9.65625 0q-0.203125 -2.1875 -1.109375 -3.28125q-1.40625 -1.6875 -3.625 -1.6875q-2.015625 0 -3.390625 1.359375q-1.375 1.34375 -1.53125 3.609375zm27.598022 8.171875q-1.625 1.375 -3.125 1.953125q-1.5 0.5625 -3.234375 0.5625q-2.84375 0 -4.375 -1.390625q-1.53125 -1.390625 -1.53125 -3.5625q0 -1.265625 0.578125 -2.3125q0.578125 -1.046875 1.515625 -1.671875q0.9375 -0.640625 2.109375 -0.96875q0.859375 -0.234375 2.59375 -0.4375q3.546875 -0.421875 5.234375 -1.015625q0.015625 -0.609375 0.015625 -0.765625q0 -1.78125 -0.828125 -2.515625q-1.125 -1.0 -3.34375 -1.0q-2.0625 0 -3.046875 0.734375q-0.984375 0.71875 -1.453125 2.546875l-2.875 -0.390625q0.390625 -1.828125 1.28125 -2.953125q0.90625 -1.140625 2.59375 -1.75q1.703125 -0.609375 3.921875 -0.609375q2.21875 0 3.59375 0.53125q1.390625 0.515625 2.03125 1.3125q0.65625 0.78125 0.921875 1.984375q0.140625 0.75 0.140625 2.703125l0 3.90625q0 4.078125 0.1875 5.15625q0.1875 1.078125 0.75 2.078125l-3.0625 0q-0.453125 -0.90625 -0.59375 -2.125zm-0.234375 -6.546875q-1.59375 0.65625 -4.78125 1.109375q-1.8125 0.25 -2.5625 0.578125q-0.75 0.328125 -1.15625 0.953125q-0.40625 0.625 -0.40625 1.390625q0 1.171875 0.890625 1.953125q0.890625 0.78125 2.59375 0.78125q1.6875 0 3.0 -0.734375q1.328125 -0.75 1.953125 -2.03125q0.46875 -0.984375 0.46875 -2.921875l0 -1.078125zm7.4730225 8.671875l0 -17.28125l2.625 0l0 2.625q1.015625 -1.84375 1.859375 -2.421875q0.859375 -0.59375 1.890625 -0.59375q1.484375 0 3.0 0.9375l-1.0 2.71875q-1.078125 -0.625 -2.15625 -0.625q-0.953125 0 -1.71875 0.578125q-0.765625 0.578125 -1.09375 1.59375q-0.484375 1.5625 -0.484375 3.421875l0 9.046875l-2.921875 0zm20.389404 6.625l0 -23.90625l2.65625 0l0 2.25q0.953125 -1.328125 2.140625 -1.984375q1.1875 -0.65625 2.875 -0.65625q2.21875 0 3.90625 1.140625q1.6875 1.140625 2.546875 3.21875q0.875 2.0625 0.875 4.546875q0 2.640625 -0.953125 4.765625q-0.953125 2.125 -2.765625 3.265625q-1.8125 1.125 -3.8125 1.125q-1.46875 0 -2.640625 -0.609375q-1.15625 -0.625 -1.90625 -1.578125l0 8.421875l-2.921875 0zm2.640625 -15.171875q0 3.34375 1.34375 4.9375q1.359375 1.59375 3.28125 1.59375q1.953125 0 3.34375 -1.65625q1.390625 -1.65625 1.390625 -5.109375q0 -3.3125 -1.359375 -4.953125q-1.359375 -1.640625 -3.25 -1.640625q-1.859375 0 -3.3125 1.75q-1.4375 1.75 -1.4375 5.078125zm15.863647 8.546875l0 -17.28125l2.625 0l0 2.625q1.015625 -1.84375 1.859375 -2.421875q0.859375 -0.59375 1.890625 -0.59375q1.484375 0 3.0 0.9375l-1.0 2.71875q-1.078125 -0.625 -2.15625 -0.625q-0.953125 0 -1.71875 0.578125q-0.765625 0.578125 -1.09375 1.59375q-0.484375 1.5625 -0.484375 3.421875l0 9.046875l-2.921875 0zm10.036041 -8.640625q0 -4.796875 2.6718445 -7.109375q2.21875 -1.921875 5.421875 -1.921875q3.578125 0 5.828125 2.34375q2.265625 2.328125 2.265625 6.4375q0 3.34375 -1.0 5.265625q-1.0 1.90625 -2.921875 2.96875q-1.90625 1.046875 -4.171875 1.046875q-3.625 0 -5.859375 -2.328125q-2.2343445 -2.328125 -2.2343445 -6.703125zm3.0155945 0q0 3.3125 1.4375 4.96875q1.453125 1.65625 3.640625 1.65625q2.1875 0 3.625 -1.65625q1.453125 -1.671875 1.453125 -5.0625q0 -3.203125 -1.453125 -4.859375q-1.453125 -1.65625 -3.625 -1.65625q-2.1875 0 -3.640625 1.640625q-1.4375 1.640625 -1.4375 4.96875zm15.519897 0q0 -4.796875 2.671875 -7.109375q2.21875 -1.921875 5.421875 -1.921875q3.578125 0 5.828125 2.34375q2.265625 2.328125 2.265625 6.4375q0 3.34375 -1.0 5.265625q-1.0 1.90625 -2.921875 2.96875q-1.90625 1.046875 -4.171875 1.046875q-3.625 0 -5.859375 -2.328125q-2.234375 -2.328125 -2.234375 -6.703125zm3.015625 0q0 3.3125 1.4375 4.96875q1.453125 1.65625 3.640625 1.65625q2.1875 0 3.625 -1.65625q1.453125 -1.671875 1.453125 -5.0625q0 -3.203125 -1.453125 -4.859375q-1.453125 -1.65625 -3.625 -1.65625q-2.1875 0 -3.640625 1.640625q-1.4375 1.640625 -1.4375 4.96875zm17.301147 8.640625l0 -15.0l-2.578125 0l0 -2.28125l2.578125 0l0 -1.84375q0 -1.734375 0.3125 -2.578125q0.421875 -1.140625 1.484375 -1.84375q1.078125 -0.71875 3.0 -0.71875q1.234375 0 2.734375 0.296875l-0.453125 2.546875q-0.90625 -0.15625 -1.71875 -0.15625q-1.328125 0 -1.890625 0.578125q-0.546875 0.5625 -0.546875 2.125l0 1.59375l3.359375 0l0 2.28125l-3.359375 0l0 15.0l-2.921875 0zm29.097412 -6.328125l2.890625 0.375q-0.46875 2.96875 -2.421875 4.65625q-1.9375 1.6875 -4.78125 1.6875q-3.546875 0 -5.703125 -2.3125q-2.15625 -2.328125 -2.15625 -6.65625q0 -2.796875 0.921875 -4.890625q0.9375 -2.109375 2.828125 -3.15625q1.90625 -1.046875 4.125 -1.046875q2.828125 0 4.609375 1.421875q1.796875 1.421875 2.296875 4.046875l-2.84375 0.4375q-0.40625 -1.734375 -1.453125 -2.609375q-1.03125 -0.890625 -2.484375 -0.890625q-2.21875 0 -3.609375 1.59375q-1.375 1.578125 -1.375 5.015625q0 3.484375 1.328125 5.0625q1.34375 1.578125 3.484375 1.578125q1.734375 0 2.890625 -1.0625q1.15625 -1.0625 1.453125 -3.25zm16.710938 6.328125l0 -2.53125q-2.015625 2.921875 -5.46875 2.921875q-1.53125 0 -2.859375 -0.578125q-1.328125 -0.59375 -1.96875 -1.484375q-0.640625 -0.890625 -0.90625 -2.171875q-0.1875 -0.859375 -0.1875 -2.734375l0 -10.703125l2.9375 0l0 9.578125q0 2.296875 0.171875 3.09375q0.28125 1.15625 1.171875 1.828125q0.90625 0.65625 2.21875 0.65625q1.3125 0 2.46875 -0.671875q1.15625 -0.6875 1.640625 -1.84375q0.484375 -1.171875 0.484375 -3.375l0 -9.265625l2.921875 0l0 17.28125l-2.625 0zm6.0511475 -5.15625l2.890625 -0.453125q0.25 1.734375 1.359375 2.671875q1.109375 0.921875 3.109375 0.921875q2.03125 0 3.0 -0.8125q0.984375 -0.828125 0.984375 -1.9375q0 -1.0 -0.875 -1.5625q-0.59375 -0.390625 -2.984375 -1.0q-3.234375 -0.8125 -4.484375 -1.40625q-1.234375 -0.59375 -1.875 -1.640625q-0.640625 -1.046875 -0.640625 -2.3125q0 -1.15625 0.53125 -2.140625q0.53125 -0.984375 1.4375 -1.640625q0.6875 -0.5 1.859375 -0.84375q1.1875 -0.359375 2.53125 -0.359375q2.03125 0 3.5625 0.59375q1.546875 0.578125 2.28125 1.578125q0.734375 1.0 1.015625 2.671875l-2.875 0.390625q-0.1875 -1.328125 -1.125 -2.078125q-0.9375 -0.75 -2.640625 -0.75q-2.03125 0 -2.890625 0.671875q-0.859375 0.65625 -0.859375 1.5625q0 0.5625 0.359375 1.015625q0.359375 0.484375 1.125 0.78125q0.4375 0.171875 2.578125 0.75q3.109375 0.828125 4.34375 1.359375q1.234375 0.53125 1.921875 1.546875q0.703125 1.0 0.703125 2.5q0 1.46875 -0.859375 2.765625q-0.84375 1.28125 -2.453125 2.0q-1.609375 0.703125 -3.65625 0.703125q-3.359375 0 -5.125 -1.390625q-1.765625 -1.40625 -2.25 -4.15625zm24.226562 2.53125l0.421875 2.59375q-1.234375 0.265625 -2.21875 0.265625q-1.59375 0 -2.46875 -0.5q-0.875 -0.515625 -1.234375 -1.328125q-0.359375 -0.828125 -0.359375 -3.46875l0 -9.9375l-2.15625 0l0 -2.28125l2.15625 0l0 -4.28125l2.90625 -1.75l0 6.03125l2.953125 0l0 2.28125l-2.953125 0l0 10.109375q0 1.25 0.15625 1.609375q0.15625 0.359375 0.5 0.578125q0.359375 0.203125 1.015625 0.203125q0.484375 0 1.28125 -0.125zm1.775238 -6.015625q0 -4.796875 2.671875 -7.109375q2.21875 -1.921875 5.421875 -1.921875q3.578125 0 5.828125 2.34375q2.265625 2.328125 2.265625 6.4375q0 3.34375 -1.0 5.265625q-1.0 1.90625 -2.921875 2.96875q-1.90625 1.046875 -4.171875 1.046875q-3.625 0 -5.859375 -2.328125q-2.234375 -2.328125 -2.234375 -6.703125zm3.015625 0q0 3.3125 1.4375 4.96875q1.453125 1.65625 3.640625 1.65625q2.1875 0 3.625 -1.65625q1.453125 -1.671875 1.453125 -5.0625q0 -3.203125 -1.453125 -4.859375q-1.453125 -1.65625 -3.625 -1.65625q-2.1875 0 -3.640625 1.640625q-1.4375 1.640625 -1.4375 4.96875zm16.613647 8.640625l0 -17.28125l2.609375 0l0 2.421875q0.8125 -1.265625 2.15625 -2.03125q1.359375 -0.78125 3.09375 -0.78125q1.921875 0 3.140625 0.796875q1.234375 0.796875 1.734375 2.234375q2.046875 -3.03125 5.34375 -3.03125q2.5625 0 3.9375 1.421875q1.390625 1.421875 1.390625 4.390625l0 11.859375l-2.90625 0l0 -10.890625q0 -1.75 -0.296875 -2.515625q-0.28125 -0.78125 -1.03125 -1.25q-0.734375 -0.484375 -1.75 -0.484375q-1.828125 0 -3.03125 1.21875q-1.203125 1.21875 -1.203125 3.875l0 10.046875l-2.921875 0l0 -11.234375q0 -1.953125 -0.71875 -2.921875q-0.71875 -0.984375 -2.34375 -0.984375q-1.234375 0 -2.296875 0.65625q-1.046875 0.65625 -1.515625 1.90625q-0.46875 1.25 -0.46875 3.609375l0 8.96875l-2.921875 0zm39.59076 -5.5625l3.015625 0.375q-0.703125 2.65625 -2.640625 4.125q-1.9375 1.453125 -4.953125 1.453125q-3.796875 0 -6.015625 -2.328125q-2.21875 -2.34375 -2.21875 -6.5625q0 -4.359375 2.25 -6.765625q2.25 -2.40625 5.828125 -2.40625q3.46875 0 5.65625 2.359375q2.203125 2.359375 2.203125 6.640625q0 0.265625 -0.015625 0.78125l-12.890625 0q0.15625 2.84375 1.609375 4.359375q1.453125 1.515625 3.609375 1.515625q1.609375 0 2.75 -0.84375q1.140625 -0.84375 1.8125 -2.703125zm-9.625 -4.734375l9.65625 0q-0.203125 -2.1875 -1.109375 -3.28125q-1.40625 -1.6875 -3.625 -1.6875q-2.015625 0 -3.390625 1.359375q-1.375 1.34375 -1.53125 3.609375zm16.301147 10.296875l0 -17.28125l2.625 0l0 2.625q1.015625 -1.84375 1.859375 -2.421875q0.859375 -0.59375 1.890625 -0.59375q1.484375 0 3.0 0.9375l-1.0 2.71875q-1.078125 -0.625 -2.15625 -0.625q-0.953125 0 -1.71875 0.578125q-0.765625 0.578125 -1.09375 1.59375q-0.484375 1.5625 -0.484375 3.421875l0 9.046875l-2.921875 0zm9.957886 -5.15625l2.890625 -0.453125q0.25 1.734375 1.359375 2.671875q1.109375 0.921875 3.109375 0.921875q2.03125 0 3.0 -0.8125q0.984375 -0.828125 0.984375 -1.9375q0 -1.0 -0.875 -1.5625q-0.59375 -0.390625 -2.984375 -1.0q-3.234375 -0.8125 -4.484375 -1.40625q-1.234375 -0.59375 -1.875 -1.640625q-0.640625 -1.046875 -0.640625 -2.3125q0 -1.15625 0.53125 -2.140625q0.53125 -0.984375 1.4375 -1.640625q0.6875 -0.5 1.859375 -0.84375q1.1875 -0.359375 2.53125 -0.359375q2.03125 0 3.5625 0.59375q1.546875 0.578125 2.28125 1.578125q0.734375 1.0 1.015625 2.671875l-2.875 0.390625q-0.1875 -1.328125 -1.125 -2.078125q-0.9375 -0.75 -2.640625 -0.75q-2.03125 0 -2.890625 0.671875q-0.859375 0.65625 -0.859375 1.5625q0 0.5625 0.359375 1.015625q0.359375 0.484375 1.125 0.78125q0.4375 0.171875 2.578125 0.75q3.109375 0.828125 4.34375 1.359375q1.234375 0.53125 1.921875 1.546875q0.703125 1.0 0.703125 2.5q0 1.46875 -0.859375 2.765625q-0.84375 1.28125 -2.453125 2.0q-1.609375 0.703125 -3.65625 0.703125q-3.359375 0 -5.125 -1.390625q-1.765625 -1.40625 -2.25 -4.15625zm33.486206 2.53125l0.421875 2.59375q-1.234375 0.265625 -2.21875 0.265625q-1.59375 0 -2.46875 -0.5q-0.875 -0.515625 -1.234375 -1.328125q-0.359375 -0.828125 -0.359375 -3.46875l0 -9.9375l-2.15625 0l0 -2.28125l2.15625 0l0 -4.28125l2.90625 -1.75l0 6.03125l2.953125 0l0 2.28125l-2.953125 0l0 10.109375q0 1.25 0.15625 1.609375q0.15625 0.359375 0.5 0.578125q0.359375 0.203125 1.015625 0.203125q0.484375 0 1.28125 -0.125zm2.8377686 2.625l0 -17.28125l2.625 0l0 2.625q1.015625 -1.84375 1.859375 -2.421875q0.859375 -0.59375 1.890625 -0.59375q1.484375 0 3.0 0.9375l-1.0 2.71875q-1.078125 -0.625 -2.15625 -0.625q-0.953125 0 -1.71875 0.578125q-0.765625 0.578125 -1.09375 1.59375q-0.484375 1.5625 -0.484375 3.421875l0 9.046875l-2.921875 0zm22.44226 0l0 -2.53125q-2.015625 2.921875 -5.46875 2.921875q-1.53125 0 -2.859375 -0.578125q-1.328125 -0.59375 -1.96875 -1.484375q-0.640625 -0.890625 -0.90625 -2.171875q-0.1875 -0.859375 -0.1875 -2.734375l0 -10.703125l2.9375 0l0 9.578125q0 2.296875 0.171875 3.09375q0.28125 1.15625 1.171875 1.828125q0.90625 0.65625 2.21875 0.65625q1.3125 0 2.46875 -0.671875q1.15625 -0.6875 1.640625 -1.84375q0.484375 -1.171875 0.484375 -3.375l0 -9.265625l2.921875 0l0 17.28125l-2.625 0zm6.0511475 -5.15625l2.890625 -0.453125q0.25 1.734375 1.359375 2.671875q1.109375 0.921875 3.109375 0.921875q2.03125 0 3.0 -0.8125q0.984375 -0.828125 0.984375 -1.9375q0 -1.0 -0.875 -1.5625q-0.59375 -0.390625 -2.984375 -1.0q-3.234375 -0.8125 -4.484375 -1.40625q-1.234375 -0.59375 -1.875 -1.640625q-0.640625 -1.046875 -0.640625 -2.3125q0 -1.15625 0.53125 -2.140625q0.53125 -0.984375 1.4375 -1.640625q0.6875 -0.5 1.859375 -0.84375q1.1875 -0.359375 2.53125 -0.359375q2.03125 0 3.5625 0.59375q1.546875 0.578125 2.28125 1.578125q0.734375 1.0 1.015625 2.671875l-2.875 0.390625q-0.1875 -1.328125 -1.125 -2.078125q-0.9375 -0.75 -2.640625 -0.75q-2.03125 0 -2.890625 0.671875q-0.859375 0.65625 -0.859375 1.5625q0 0.5625 0.359375 1.015625q0.359375 0.484375 1.125 0.78125q0.4375 0.171875 2.578125 0.75q3.109375 0.828125 4.34375 1.359375q1.234375 0.53125 1.921875 1.546875q0.703125 1.0 0.703125 2.5q0 1.46875 -0.859375 2.765625q-0.84375 1.28125 -2.453125 2.0q-1.609375 0.703125 -3.65625 0.703125q-3.359375 0 -5.125 -1.390625q-1.765625 -1.40625 -2.25 -4.15625zm24.226562 2.53125l0.421875 2.59375q-1.234375 0.265625 -2.21875 0.265625q-1.59375 0 -2.46875 -0.5q-0.875 -0.515625 -1.234375 -1.328125q-0.359375 -0.828125 -0.359375 -3.46875l0 -9.9375l-2.15625 0l0 -2.28125l2.15625 0l0 -4.28125l2.90625 -1.75l0 6.03125l2.953125 0l0 2.28125l-2.953125 0l0 10.109375q0 1.25 0.15625 1.609375q0.15625 0.359375 0.5 0.578125q0.359375 0.203125 1.015625 0.203125q0.484375 0 1.28125 -0.125zm11.988037 9.28125l-0.328125 -2.75q0.96875 0.265625 1.6875 0.265625q0.96875 0 1.546875 -0.328125q0.59375 -0.328125 0.96875 -0.921875q0.28125 -0.4375 0.890625 -2.171875q0.09375 -0.25 0.265625 -0.71875l-6.5625 -17.3125l3.15625 0l3.609375 10.0q0.6875 1.90625 1.25 4.015625q0.5 -2.015625 1.203125 -3.9375l3.6875 -10.078125l2.9375 0l-6.578125 17.578125q-1.0625 2.84375 -1.640625 3.921875q-0.78125 1.4375 -1.796875 2.109375q-1.0 0.6875 -2.40625 0.6875q-0.84375 0 -1.890625 -0.359375zm15.7109375 -15.296875q0 -4.796875 2.671875 -7.109375q2.21875 -1.921875 5.421875 -1.921875q3.578125 0 5.828125 2.34375q2.265625 2.328125 2.265625 6.4375q0 3.34375 -1.0 5.265625q-1.0 1.90625 -2.921875 2.96875q-1.90625 1.046875 -4.171875 1.046875q-3.625 0 -5.859375 -2.328125q-2.234375 -2.328125 -2.234375 -6.703125zm3.015625 0q0 3.3125 1.4375 4.96875q1.453125 1.65625 3.640625 1.65625q2.1875 0 3.625 -1.65625q1.453125 -1.671875 1.453125 -5.0625q0 -3.203125 -1.453125 -4.859375q-1.453125 -1.65625 -3.625 -1.65625q-2.1875 0 -3.640625 1.640625q-1.4375 1.640625 -1.4375 4.96875zm27.926147 8.640625l0 -2.53125q-2.015625 2.921875 -5.46875 2.921875q-1.53125 0 -2.859375 -0.578125q-1.328125 -0.59375 -1.96875 -1.484375q-0.640625 -0.890625 -0.90625 -2.171875q-0.1875 -0.859375 -0.1875 -2.734375l0 -10.703125l2.9375 0l0 9.578125q0 2.296875 0.171875 3.09375q0.28125 1.15625 1.171875 1.828125q0.90625 0.65625 2.21875 0.65625q1.3125 0 2.46875 -0.671875q1.15625 -0.6875 1.640625 -1.84375q0.484375 -1.171875 0.484375 -3.375l0 -9.265625l2.921875 0l0 17.28125l-2.625 0zm8.051147 0l0 -3.34375l3.328125 0l0 3.34375l-3.328125 0z" fill-rule="nonzero"/></g></g></svg>