<svg version="1.1" viewBox="0.0 0.0 960.0 540.0" fill="none" stroke="none" stroke-linecap="square" stroke-miterlimit="10" xmlns:xlink="http://www.w3.org/1999/xlink" xmlns="http://www.w3.org/2000/svg"><clipPath id="slide_07.0"><path d="m0 0l960.0 0l0 540.0l-960.0 0l0 -540.0z" clip-rule="nonzero"/></clipPath><g clip-path="url(#slide_07.0)"><g id="slide_07"><path fill="#ffffff" d="m0 0l960.0 0l0 540.0l-960.0 0l0 -540.0z" fill-rule="nonzero"/><path fill="#ffffff" d="m0 0l960.0 0l0 540.0l-960.0 0z" fill-rule="evenodd"/><g id="a11y-dsl_t07" role="img" aria-label="Referrals are good.&#xa;" tabindex="0"><path fill="#000000" fill-opacity="0.0" d="m80.0 120.0l0 160.0l800.0 0l0 -160.0z" fill-rule="nonzero"/></g><path fill="#000000" fill-opacity="0.0" d="m80.0 120.0l800.0 0l0 160.0l-800.0 0z" fill-rule="evenodd"/><path fill="#000000" d="m244.72461 182.76l0 -40.09375l17.765625 0q5.359375 0 8.140625 1.09375q2.796875 1.078125 4.46875 3.8125q1.671875 2.734375 1.671875 6.03125q0 4.265625 -2.765625 7.203125q-2.765625 2.921875 -8.53125 3.71875q2.109375 1.0 3.203125 1.984375q2.328125 2.140625 4.40625 5.34375l6.96875 10.90625l-6.671875 0l-5.3125 -8.34375q-2.3125 -3.609375 -3.828125 -5.515625q-1.5 -1.921875 -2.6875 -2.6875q-1.1875 -0.765625 -2.421875 -1.0625q-0.90625 -0.1875 -2.953125 -0.1875l-6.15625 0l0 17.796875l-5.296875 0zm5.296875 -22.390625l11.40625 0q3.640625 0 5.6875 -0.75q2.046875 -0.765625 3.109375 -2.40625q1.078125 -1.65625 1.078125 -3.609375q0 -2.84375 -2.0625 -4.671875q-2.0625 -1.828125 -6.53125 -1.828125l-12.6875 0l0 13.265625zm54.316406 13.03125l5.078125 0.640625q-1.203125 4.453125 -4.453125 6.921875q-3.25 2.453125 -8.3125 2.453125q-6.375 0 -10.109375 -3.921875q-3.734375 -3.921875 -3.734375 -11.015625q0 -7.328125 3.765625 -11.375q3.78125 -4.046875 9.796875 -4.046875q5.828125 0 9.515625 3.96875q3.703125 3.96875 3.703125 11.15625q0 0.4375 -0.03125 1.3125l-21.65625 0q0.265625 4.78125 2.703125 7.328125q2.4375 2.546875 6.078125 2.546875q2.703125 0 4.609375 -1.421875q1.921875 -1.421875 3.046875 -4.546875zm-16.171875 -7.953125l16.21875 0q-0.328125 -3.65625 -1.859375 -5.5q-2.34375 -2.84375 -6.09375 -2.84375q-3.390625 0 -5.703125 2.28125q-2.3125 2.265625 -2.5625 6.0625zm28.613281 17.3125l0 -25.21875l-4.359375 0l0 -3.828125l4.359375 0l0 -3.078125q0 -2.9375 0.515625 -4.359375q0.703125 -1.90625 2.5 -3.09375q1.796875 -1.1875 5.015625 -1.1875q2.078125 0 4.59375 0.484375l-0.734375 4.296875q-1.53125 -0.28125 -2.90625 -0.28125q-2.234375 0 -3.171875 0.96875q-0.921875 0.953125 -0.921875 3.578125l0 2.671875l5.65625 0l0 3.828125l-5.65625 0l0 25.21875l-4.890625 0zm34.26172 -9.359375l5.078125 0.640625q-1.203125 4.453125 -4.453125 6.921875q-3.25 2.453125 -8.3125 2.453125q-6.375 0 -10.109375 -3.921875q-3.734375 -3.921875 -3.734375 -11.015625q0 -7.328125 3.765625 -11.375q3.78125 -4.046875 9.796875 -4.046875q5.828125 0 9.515625 3.96875q3.703125 3.96875 3.703125 11.15625q0 0.4375 -0.03125 1.3125l-21.65625 0q0.265625 4.78125 2.703125 7.328125q2.4375 2.546875 6.078125 2.546875q2.703125 0 4.609375 -1.421875q1.921875 -1.421875 3.046875 -4.546875zm-16.171875 -7.953125l16.21875 0q-0.328125 -3.65625 -1.859375 -5.5q-2.34375 -2.84375 -6.09375 -2.84375q-3.390625 0 -5.703125 2.28125q-2.3125 2.265625 -2.5625 6.0625zm27.378906 17.3125l0 -29.046875l4.421875 0l0 4.40625q1.703125 -3.09375 3.140625 -4.078125q1.4375 -0.984375 3.15625 -0.984375q2.484375 0 5.0625 1.59375l-1.703125 4.5625q-1.796875 -1.0625 -3.609375 -1.0625q-1.609375 0 -2.90625 0.96875q-1.28125 0.96875 -1.828125 2.6875q-0.8125 2.625 -0.8125 5.75l0 15.203125l-4.921875 0zm18.648438 0l0 -29.046875l4.421875 0l0 4.40625q1.703125 -3.09375 3.140625 -4.078125q1.4375 -0.984375 3.15625 -0.984375q2.484375 0 5.0625 1.59375l-1.703125 4.5625q-1.796875 -1.0625 -3.609375 -1.0625q-1.609375 0 -2.90625 0.96875q-1.28125 0.96875 -1.828125 2.6875q-0.8125 2.625 -0.8125 5.75l0 15.203125l-4.921875 0zm37.648438 -3.578125q-2.734375 2.3125 -5.265625 3.28125q-2.53125 0.953125 -5.421875 0.953125q-4.78125 0 -7.359375 -2.328125q-2.5625 -2.34375 -2.5625 -5.984375q0 -2.140625 0.96875 -3.890625q0.96875 -1.765625 2.53125 -2.828125q1.578125 -1.078125 3.546875 -1.625q1.453125 -0.375 4.375 -0.734375q5.96875 -0.71875 8.78125 -1.703125q0.03125 -1.0 0.03125 -1.28125q0 -3.0 -1.40625 -4.234375q-1.875 -1.671875 -5.59375 -1.671875q-3.484375 0 -5.140625 1.21875q-1.640625 1.21875 -2.4375 4.3125l-4.8125 -0.65625q0.65625 -3.09375 2.15625 -4.984375q1.5 -1.90625 4.34375 -2.9375q2.84375 -1.03125 6.59375 -1.03125q3.71875 0 6.046875 0.875q2.328125 0.875 3.421875 2.203125q1.09375 1.328125 1.53125 3.359375q0.234375 1.25 0.234375 4.53125l0 6.5625q0 6.859375 0.3125 8.6875q0.328125 1.8125 1.25 3.484375l-5.140625 0q-0.765625 -1.53125 -0.984375 -3.578125zm-0.40625 -11.0q-2.6875 1.09375 -8.046875 1.859375q-3.03125 0.4375 -4.296875 0.984375q-1.25 0.546875 -1.9375 1.609375q-0.671875 1.046875 -0.671875 2.328125q0 1.96875 1.484375 3.28125q1.484375 1.3125 4.359375 1.3125q2.84375 0 5.0625 -1.234375q2.21875 -1.25 3.25 -3.40625q0.796875 -1.671875 0.796875 -4.921875l0 -1.8125zm12.488281 14.578125l0 -40.09375l4.921875 0l0 40.09375l-4.921875 0zm10.582031 -8.671875l4.875 -0.765625q0.40625 2.921875 2.28125 4.484375q1.875 1.5625 5.234375 1.5625q3.390625 0 5.03125 -1.375q1.640625 -1.390625 1.640625 -3.25q0 -1.671875 -1.453125 -2.625q-1.0 -0.65625 -5.03125 -1.671875q-5.40625 -1.359375 -7.5 -2.359375q-2.09375 -1.0 -3.171875 -2.765625q-1.078125 -1.765625 -1.078125 -3.890625q0 -1.9375 0.890625 -3.59375q0.890625 -1.65625 2.421875 -2.75q1.140625 -0.84375 3.125 -1.4375q1.984375 -0.59375 4.25 -0.59375q3.421875 0 6.0 0.984375q2.59375 0.984375 3.8125 2.671875q1.234375 1.6875 1.703125 4.5l-4.8125 0.65625q-0.328125 -2.25 -1.90625 -3.5q-1.5625 -1.265625 -4.4375 -1.265625q-3.390625 0 -4.84375 1.125q-1.453125 1.125 -1.453125 2.625q0 0.953125 0.609375 1.71875q0.59375 0.796875 1.890625 1.3125q0.734375 0.28125 4.34375 1.265625q5.21875 1.390625 7.28125 2.28125q2.0625 0.890625 3.234375 2.59375q1.1875 1.6875 1.1875 4.203125q0 2.453125 -1.4375 4.640625q-1.4375 2.171875 -4.140625 3.359375q-2.703125 1.1875 -6.125 1.1875q-5.65625 0 -8.625 -2.34375q-2.96875 -2.359375 -3.796875 -6.984375zm64.48047 5.09375q-2.734375 2.3125 -5.265625 3.28125q-2.53125 0.953125 -5.421875 0.953125q-4.78125 0 -7.359375 -2.328125q-2.5625 -2.34375 -2.5625 -5.984375q0 -2.140625 0.96875 -3.890625q0.96875 -1.765625 2.53125 -2.828125q1.578125 -1.078125 3.546875 -1.625q1.453125 -0.375 4.375 -0.734375q5.96875 -0.71875 8.78125 -1.703125q0.03125 -1.0 0.03125 -1.28125q0 -3.0 -1.40625 -4.234375q-1.875 -1.671875 -5.59375 -1.671875q-3.484375 0 -5.140625 1.21875q-1.640625 1.21875 -2.4375 4.3125l-4.8125 -0.65625q0.65625 -3.09375 2.15625 -4.984375q1.5 -1.90625 4.34375 -2.9375q2.84375 -1.03125 6.59375 -1.03125q3.71875 0 6.046875 0.875q2.328125 0.875 3.421875 2.203125q1.09375 1.328125 1.53125 3.359375q0.234375 1.25 0.234375 4.53125l0 6.5625q0 6.859375 0.3125 8.6875q0.328125 1.8125 1.25 3.484375l-5.140625 0q-0.765625 -1.53125 -0.984375 -3.578125zm-0.40625 -11.0q-2.6875 1.09375 -8.046875 1.859375q-3.03125 0.4375 -4.296875 0.984375q-1.25 0.546875 -1.9375 1.609375q-0.671875 1.046875 -0.671875 2.328125q0 1.96875 1.484375 3.28125q1.484375 1.3125 4.359375 1.3125q2.84375 0 5.0625 -1.234375q2.21875 -1.25 3.25 -3.40625q0.796875 -1.671875 0.796875 -4.921875l0 -1.8125zm12.550781 14.578125l0 -29.046875l4.421875 0l0 4.40625q1.703125 -3.09375 3.140625 -4.078125q1.4375 -0.984375 3.15625 -0.984375q2.484375 0 5.0625 1.59375l-1.703125 4.5625q-1.796875 -1.0625 -3.609375 -1.0625q-1.609375 0 -2.90625 0.96875q-1.28125 0.96875 -1.828125 2.6875q-0.8125 2.625 -0.8125 5.75l0 15.203125l-4.921875 0zm38.585938 -9.359375l5.078125 0.640625q-1.203125 4.453125 -4.453125 6.921875q-3.25 2.453125 -8.3125 2.453125q-6.375 0 -10.109375 -3.921875q-3.734375 -3.921875 -3.734375 -11.015625q0 -7.328125 3.765625 -11.375q3.78125 -4.046875 9.796875 -4.046875q5.828125 0 9.515625 3.96875q3.703125 3.96875 3.703125 11.15625q0 0.4375 -0.03125 1.3125l-21.65625 0q0.265625 4.78125 2.703125 7.328125q2.4375 2.546875 6.078125 2.546875q2.703125 0 4.609375 -1.421875q1.921875 -1.421875 3.046875 -4.546875zm-16.171875 -7.953125l16.21875 0q-0.328125 -3.65625 -1.859375 -5.5q-2.34375 -2.84375 -6.09375 -2.84375q-3.390625 0 -5.703125 2.28125q-2.3125 2.265625 -2.5625 6.0625zm42.09375 19.71875l4.78125 0.71875q0.296875 2.203125 1.671875 3.21875q1.828125 1.375 5.0 1.375q3.421875 0 5.28125 -1.375q1.859375 -1.359375 2.515625 -3.828125q0.375 -1.5 0.34375 -6.3125q-3.21875 3.796875 -8.03125 3.796875q-5.984375 0 -9.265625 -4.3125q-3.28125 -4.328125 -3.28125 -10.375q0 -4.15625 1.5 -7.671875q1.5 -3.515625 4.359375 -5.421875q2.859375 -1.921875 6.71875 -1.921875q5.140625 0 8.46875 4.15625l0 -3.5l4.546875 0l0 25.109375q0 6.78125 -1.390625 9.609375q-1.375 2.828125 -4.375 4.46875q-2.984375 1.640625 -7.359375 1.640625q-5.203125 0 -8.40625 -2.34375q-3.1875 -2.328125 -3.078125 -7.03125zm4.0625 -17.453125q0 5.71875 2.265625 8.34375q2.28125 2.625 5.703125 2.625q3.390625 0 5.6875 -2.609375q2.296875 -2.609375 2.296875 -8.1875q0 -5.328125 -2.375 -8.03125q-2.359375 -2.71875 -5.703125 -2.71875q-3.28125 0 -5.578125 2.671875q-2.296875 2.65625 -2.296875 7.90625zm26.144531 0.53125q0 -8.078125 4.484375 -11.953125q3.75 -3.234375 9.140625 -3.234375q5.984375 0 9.78125 3.9375q3.796875 3.921875 3.796875 10.828125q0 5.609375 -1.6875 8.828125q-1.671875 3.203125 -4.890625 4.984375q-3.203125 1.78125 -7.0 1.78125q-6.109375 0 -9.875 -3.90625q-3.75 -3.921875 -3.75 -11.265625zm5.0625 0q0 5.578125 2.421875 8.359375q2.4375 2.765625 6.140625 2.765625q3.65625 0 6.09375 -2.78125q2.4375 -2.796875 2.4375 -8.515625q0 -5.390625 -2.453125 -8.15625q-2.453125 -2.78125 -6.078125 -2.78125q-3.703125 0 -6.140625 2.765625q-2.421875 2.765625 -2.421875 8.34375zm26.082031 0q0 -8.078125 4.484375 -11.953125q3.75 -3.234375 9.140625 -3.234375q5.984375 0 9.78125 3.9375q3.796875 3.921875 3.796875 10.828125q0 5.609375 -1.6875 8.828125q-1.671875 3.203125 -4.890625 4.984375q-3.203125 1.78125 -7.0 1.78125q-6.109375 0 -9.875 -3.90625q-3.75 -3.921875 -3.75 -11.265625zm5.0625 0q0 5.578125 2.421875 8.359375q2.4375 2.765625 6.140625 2.765625q3.65625 0 6.09375 -2.78125q2.4375 -2.796875 2.4375 -8.515625q0 -5.390625 -2.453125 -8.15625q-2.453125 -2.78125 -6.078125 -2.78125q-3.703125 0 -6.140625 2.765625q-2.421875 2.765625 -2.421875 8.34375zm46.753906 14.515625l0 -3.671875q-2.765625 4.328125 -8.125 4.328125q-3.46875 0 -6.390625 -1.90625q-2.90625 -1.921875 -4.5 -5.34375q-1.59375 -3.4375 -1.59375 -7.90625q0 -4.34375 1.4375 -7.875q1.453125 -3.546875 4.34375 -5.4375q2.90625 -1.890625 6.484375 -1.890625q2.625 0 4.671875 1.109375q2.0625 1.109375 3.34375 2.890625l0 -14.390625l4.890625 0l0 40.09375l-4.5625 0zm-15.5625 -14.5q0 5.578125 2.34375 8.34375q2.359375 2.765625 5.5625 2.765625q3.234375 0 5.484375 -2.640625q2.25 -2.640625 2.25 -8.046875q0 -5.96875 -2.296875 -8.75q-2.296875 -2.796875 -5.65625 -2.796875q-3.28125 0 -5.484375 2.6875q-2.203125 2.671875 -2.203125 8.4375zm29.269531 14.5l0 -5.609375l5.59375 0l0 5.609375l-5.59375 0z" fill-rule="nonzero"/><g id="a11y-dsl_b07" role="img" aria-label="But referrals are not controllable.&#xa;Feast.&#xa;Famine.&#xa;Repeat.&#xa;" tabindex="0"><path fill="#000000" fill-opacity="0.0" d="m106.666664 300.0l0 206.67715l746.6771 0l0 -206.67715z" fill-rule="nonzero"/></g><path fill="#000000" fill-opacity="0.0" d="m106.666664 300.0l746.6771 0l0 206.67715l-746.6771 0z" fill-rule="evenodd"/><path fill="#000000" d="m240.6917 341.0l0 -23.859375l8.953125 0q2.734375 0 4.375 0.734375q1.65625 0.71875 2.5937347 2.234375q0.9375 1.5 0.9375 3.140625q0 1.53125 -0.828125 2.890625q-0.82810974 1.34375 -2.4999847 2.171875q2.1562347 0.625 3.3124847 2.15625q1.171875 1.53125 1.171875 3.609375q0 1.6875 -0.703125 3.125q-0.703125 1.4375 -1.75 2.21875q-1.0468597 0.78125 -2.6249847 1.1875q-1.5625 0.390625 -3.84375 0.390625l-9.09375 0zm3.15625 -13.828125l5.15625 0q2.109375 0 3.015625 -0.28125q1.203125 -0.359375 1.8125 -1.1875q0.609375 -0.828125 0.609375 -2.078125q0 -1.1875 -0.578125 -2.09375q-0.5625 -0.90625 -1.625 -1.234375q-1.046875 -0.34375 -3.625 -0.34375l-4.765625 0l0 7.21875zm0 11.015625l5.9375 0q1.53125 0 2.15625 -0.109375q1.09375 -0.203125 1.8125 -0.65625q0.734375 -0.453125 1.203125 -1.328125q0.484375 -0.875 0.484375 -2.015625q0 -1.328125 -0.6875 -2.3125q-0.6875 -0.984375 -1.90625 -1.375q-1.203125 -0.40625 -3.484375 -0.40625l-5.515625 0l0 8.203125zm30.151474 2.8125l0 -2.53125q-2.015625 2.921875 -5.46875 2.921875q-1.53125 0 -2.859375 -0.578125q-1.328125 -0.59375 -1.96875 -1.484375q-0.640625 -0.890625 -0.90625 -2.171875q-0.1875 -0.859375 -0.1875 -2.734375l0 -10.703125l2.9375 0l0 9.578125q0 2.296875 0.171875 3.09375q0.28125 1.15625 1.171875 1.828125q0.90625 0.65625 2.21875 0.65625q1.3125 0 2.46875 -0.671875q1.15625 -0.6875 1.640625 -1.84375q0.484375 -1.171875 0.484375 -3.375l0 -9.265625l2.921875 0l0 17.28125l-2.625 0zm13.613647 -2.625l0.421875 2.59375q-1.234375 0.265625 -2.21875 0.265625q-1.59375 0 -2.46875 -0.5q-0.875 -0.515625 -1.234375 -1.328125q-0.359375 -0.828125 -0.359375 -3.46875l0 -9.9375l-2.15625 0l0 -2.28125l2.15625 0l0 -4.28125l2.90625 -1.75l0 6.03125l2.953125 0l0 2.28125l-2.953125 0l0 10.109375q0 1.25 0.15625 1.609375q0.15625 0.359375 0.5 0.578125q0.359375 0.203125 1.015625 0.203125q0.484375 0 1.28125 -0.125zm12.097382 2.625l0 -17.28125l2.625 0l0 2.625q1.015625 -1.84375 1.859375 -2.421875q0.859375 -0.59375 1.890625 -0.59375q1.484375 0 3.0 0.9375l-1.0 2.71875q-1.078125 -0.625 -2.15625 -0.625q-0.953125 0 -1.71875 0.578125q-0.765625 0.578125 -1.09375 1.59375q-0.484375 1.5625 -0.484375 3.421875l0 9.046875l-2.921875 0zm22.957886 -5.5625l3.015625 0.375q-0.703125 2.65625 -2.640625 4.125q-1.9375 1.453125 -4.953125 1.453125q-3.796875 0 -6.015625 -2.328125q-2.21875 -2.34375 -2.21875 -6.5625q0 -4.359375 2.25 -6.765625q2.25 -2.40625 5.828125 -2.40625q3.46875 0 5.65625 2.359375q2.203125 2.359375 2.203125 6.640625q0 0.265625 -0.015625 0.78125l-12.890625 0q0.15625 2.84375 1.609375 4.359375q1.453125 1.515625 3.609375 1.515625q1.609375 0 2.75 -0.84375q1.140625 -0.84375 1.8125 -2.703125zm-9.625 -4.734375l9.65625 0q-0.203125 -2.1875 -1.109375 -3.28125q-1.40625 -1.6875 -3.625 -1.6875q-2.015625 0 -3.390625 1.359375q-1.375 1.34375 -1.53125 3.609375zm17.019897 10.296875l0 -15.0l-2.578125 0l0 -2.28125l2.578125 0l0 -1.84375q0 -1.734375 0.3125 -2.578125q0.421875 -1.140625 1.484375 -1.84375q1.078125 -0.71875 3.0 -0.71875q1.234375 0 2.734375 0.296875l-0.453125 2.546875q-0.90625 -0.15625 -1.71875 -0.15625q-1.328125 0 -1.890625 0.578125q-0.546875 0.5625 -0.546875 2.125l0 1.59375l3.359375 0l0 2.28125l-3.359375 0l0 15.0l-2.921875 0zm20.400269 -5.5625l3.015625 0.375q-0.703125 2.65625 -2.640625 4.125q-1.9375 1.453125 -4.953125 1.453125q-3.796875 0 -6.015625 -2.328125q-2.21875 -2.34375 -2.21875 -6.5625q0 -4.359375 2.25 -6.765625q2.25 -2.40625 5.828125 -2.40625q3.46875 0 5.65625 2.359375q2.203125 2.359375 2.203125 6.640625q0 0.265625 -0.015625 0.78125l-12.890625 0q0.15625 2.84375 1.609375 4.359375q1.453125 1.515625 3.609375 1.515625q1.609375 0 2.75 -0.84375q1.140625 -0.84375 1.8125 -2.703125zm-9.625 -4.734375l9.65625 0q-0.203125 -2.1875 -1.109375 -3.28125q-1.40625 -1.6875 -3.625 -1.6875q-2.015625 0 -3.390625 1.359375q-1.375 1.34375 -1.53125 3.609375zm16.301147 10.296875l0 -17.28125l2.625 0l0 2.625q1.015625 -1.84375 1.859375 -2.421875q0.859375 -0.59375 1.8905945 -0.59375q1.484375 0 3.0 0.9375l-1.0 2.71875q-1.078125 -0.625 -2.15625 -0.625q-0.9530945 0 -1.7187195 0.578125q-0.765625 0.578125 -1.09375 1.59375q-0.484375 1.5625 -0.484375 3.421875l0 9.046875l-2.921875 0zm11.098511 0l0 -17.28125l2.625 0l0 2.625q1.015625 -1.84375 1.859375 -2.421875q0.859375 -0.59375 1.890625 -0.59375q1.484375 0 3.0 0.9375l-1.0 2.71875q-1.078125 -0.625 -2.15625 -0.625q-0.953125 0 -1.71875 0.578125q-0.765625 0.578125 -1.09375 1.59375q-0.484375 1.5625 -0.484375 3.421875l0 9.046875l-2.921875 0zm22.395416 -2.125q-1.625 1.375 -3.125 1.953125q-1.5 0.5625 -3.234375 0.5625q-2.84375 0 -4.375 -1.390625q-1.53125 -1.390625 -1.53125 -3.5625q0 -1.265625 0.578125 -2.3125q0.578125 -1.046875 1.515625 -1.671875q0.9375 -0.640625 2.109375 -0.96875q0.859375 -0.234375 2.59375 -0.4375q3.546875 -0.421875 5.234375 -1.015625q0.015625 -0.609375 0.015625 -0.765625q0 -1.78125 -0.828125 -2.515625q-1.125 -1.0 -3.34375 -1.0q-2.0625 0 -3.046875 0.734375q-0.984375 0.71875 -1.453125 2.546875l-2.875 -0.390625q0.390625 -1.828125 1.28125 -2.953125q0.90625 -1.140625 2.59375 -1.75q1.703125 -0.609375 3.921875 -0.609375q2.21875 0 3.59375 0.53125q1.390625 0.515625 2.03125 1.3125q0.65625 0.78125 0.921875 1.984375q0.140625 0.75 0.140625 2.703125l0 3.90625q0 4.078125 0.1875 5.15625q0.1875 1.078125 0.75 2.078125l-3.0625 0q-0.453125 -0.90625 -0.59375 -2.125zm-0.234375 -6.546875q-1.59375 0.65625 -4.78125 1.109375q-1.8125 0.25 -2.5625 0.578125q-0.75 0.328125 -1.15625 0.953125q-0.40625 0.625 -0.40625 1.390625q0 1.171875 0.890625 1.953125q0.890625 0.78125 2.59375 0.78125q1.6875 0 3.0 -0.734375q1.328125 -0.75 1.953125 -2.03125q0.46875 -0.984375 0.46875 -2.921875l0 -1.078125zm7.4261475 8.671875l0 -23.859375l2.9375 0l0 23.859375l-2.9375 0zm6.310669 -5.15625l2.890625 -0.453125q0.25 1.734375 1.359375 2.671875q1.109375 0.921875 3.109375 0.921875q2.03125 0 3.0 -0.8125q0.984375 -0.828125 0.984375 -1.9375q0 -1.0 -0.875 -1.5625q-0.59375 -0.390625 -2.984375 -1.0q-3.234375 -0.8125 -4.484375 -1.40625q-1.234375 -0.59375 -1.875 -1.640625q-0.640625 -1.046875 -0.640625 -2.3125q0 -1.15625 0.53125 -2.140625q0.53125 -0.984375 1.4375 -1.640625q0.6875 -0.5 1.859375 -0.84375q1.1875 -0.359375 2.53125 -0.359375q2.03125 0 3.5625 0.59375q1.546875 0.578125 2.28125 1.578125q0.734375 1.0 1.015625 2.671875l-2.875 0.390625q-0.1875 -1.328125 -1.125 -2.078125q-0.9375 -0.75 -2.640625 -0.75q-2.03125 0 -2.890625 0.671875q-0.859375 0.65625 -0.859375 1.5625q0 0.5625 0.359375 1.015625q0.359375 0.484375 1.125 0.78125q0.4375 0.171875 2.578125 0.75q3.109375 0.828125 4.34375 1.359375q1.234375 0.53125 1.921875 1.546875q0.703125 1.0 0.703125 2.5q0 1.46875 -0.859375 2.765625q-0.84375 1.28125 -2.453125 2.0q-1.609375 0.703125 -3.65625 0.703125q-3.359375 0 -5.125 -1.390625q-1.765625 -1.40625 -2.25 -4.15625zm38.361206 3.03125q-1.625 1.375 -3.125 1.953125q-1.5 0.5625 -3.234375 0.5625q-2.84375 0 -4.375 -1.390625q-1.53125 -1.390625 -1.53125 -3.5625q0 -1.265625 0.578125 -2.3125q0.578125 -1.046875 1.515625 -1.671875q0.9375 -0.640625 2.109375 -0.96875q0.859375 -0.234375 2.59375 -0.4375q3.546875 -0.421875 5.234375 -1.015625q0.015625 -0.609375 0.015625 -0.765625q0 -1.78125 -0.828125 -2.515625q-1.125 -1.0 -3.34375 -1.0q-2.0625 0 -3.046875 0.734375q-0.984375 0.71875 -1.453125 2.546875l-2.875 -0.390625q0.390625 -1.828125 1.28125 -2.953125q0.90625 -1.140625 2.59375 -1.75q1.703125 -0.609375 3.921875 -0.609375q2.21875 0 3.59375 0.53125q1.390625 0.515625 2.03125 1.3125q0.65625 0.78125 0.921875 1.984375q0.140625 0.75 0.140625 2.703125l0 3.90625q0 4.078125 0.1875 5.15625q0.1875 1.078125 0.75 2.078125l-3.0625 0q-0.453125 -0.90625 -0.59375 -2.125zm-0.234375 -6.546875q-1.59375 0.65625 -4.78125 1.109375q-1.8125 0.25 -2.5625 0.578125q-0.75 0.328125 -1.15625 0.953125q-0.40625 0.625 -0.40625 1.390625q0 1.171875 0.890625 1.953125q0.890625 0.78125 2.59375 0.78125q1.6875 0 3.0 -0.734375q1.328125 -0.75 1.953125 -2.03125q0.46875 -0.984375 0.46875 -2.921875l0 -1.078125zm7.4730225 8.671875l0 -17.28125l2.625 0l0 2.625q1.015625 -1.84375 1.859375 -2.421875q0.859375 -0.59375 1.890625 -0.59375q1.484375 0 3.0 0.9375l-1.0 2.71875q-1.078125 -0.625 -2.15625 -0.625q-0.953125 0 -1.71875 0.578125q-0.765625 0.578125 -1.09375 1.59375q-0.484375 1.5625 -0.484375 3.421875l0 9.046875l-2.921875 0zm22.957886 -5.5625l3.015625 0.375q-0.703125 2.65625 -2.640625 4.125q-1.9375 1.453125 -4.953125 1.453125q-3.796875 0 -6.015625 -2.328125q-2.21875 -2.34375 -2.21875 -6.5625q0 -4.359375 2.25 -6.765625q2.25 -2.40625 5.828125 -2.40625q3.46875 0 5.65625 2.359375q2.203125 2.359375 2.203125 6.640625q0 0.265625 -0.015625 0.78125l-12.890625 0q0.15625 2.84375 1.609375 4.359375q1.453125 1.515625 3.609375 1.515625q1.609375 0 2.75 -0.84375q1.140625 -0.84375 1.8125 -2.703125zm-9.625 -4.734375l9.65625 0q-0.203125 -2.1875 -1.109375 -3.28125q-1.40625 -1.6875 -3.625 -1.6875q-2.015625 0 -3.390625 1.359375q-1.375 1.34375 -1.53125 3.609375zm25.592041 10.296875l0 -17.28125l2.625 0l0 2.453125q1.90625 -2.84375 5.5 -2.84375q1.5625 0 2.875 0.5625q1.3125 0.5625 1.953125 1.46875q0.65625 0.90625 0.921875 2.171875q0.15625 0.8125 0.15625 2.84375l0 10.625l-2.921875 0l0 -10.515625q0 -1.78125 -0.34375 -2.671875q-0.34375 -0.890625 -1.21875 -1.421875q-0.859375 -0.53125 -2.03125 -0.53125q-1.875 0 -3.234375 1.1875q-1.359375 1.1875 -1.359375 4.515625l0 9.4375l-2.921875 0zm17.441772 -8.640625q0 -4.796875 2.671875 -7.109375q2.21875 -1.921875 5.4219055 -1.921875q3.578125 0 5.828125 2.34375q2.265625 2.328125 2.265625 6.4375q0 3.34375 -1.0 5.265625q-1.0 1.90625 -2.921875 2.96875q-1.90625 1.046875 -4.171875 1.046875q-3.6250305 0 -5.8594055 -2.328125q-2.234375 -2.328125 -2.234375 -6.703125zm3.015625 0q0 3.3125 1.4375 4.96875q1.4531555 1.65625 3.6406555 1.65625q2.1875 0 3.625 -1.65625q1.453125 -1.671875 1.453125 -5.0625q0 -3.203125 -1.453125 -4.859375q-1.453125 -1.65625 -3.625 -1.65625q-2.1875 0 -3.6406555 1.640625q-1.4375 1.640625 -1.4375 4.96875zm23.004303 6.015625l0.421875 2.59375q-1.234375 0.265625 -2.21875 0.265625q-1.59375 0 -2.46875 -0.5q-0.875 -0.515625 -1.234375 -1.328125q-0.359375 -0.828125 -0.359375 -3.46875l0 -9.9375l-2.15625 0l0 -2.28125l2.15625 0l0 -4.28125l2.90625 -1.75l0 6.03125l2.953125 0l0 2.28125l-2.953125 0l0 10.109375q0 1.25 0.15625 1.609375q0.15625 0.359375 0.5 0.578125q0.359375 0.203125 1.015625 0.203125q0.484375 0 1.28125 -0.125zm23.394287 -3.703125l2.890625 0.375q-0.46875 2.96875 -2.421875 4.65625q-1.9375 1.6875 -4.78125 1.6875q-3.546875 0 -5.703125 -2.3125q-2.15625 -2.328125 -2.15625 -6.65625q0 -2.796875 0.921875 -4.890625q0.9375 -2.109375 2.828125 -3.15625q1.90625 -1.046875 4.125 -1.046875q2.828125 0 4.609375 1.421875q1.796875 1.421875 2.296875 4.046875l-2.84375 0.4375q-0.40625 -1.734375 -1.453125 -2.609375q-1.03125 -0.890625 -2.484375 -0.890625q-2.21875 0 -3.609375 1.59375q-1.375 1.578125 -1.375 5.015625q0 3.484375 1.328125 5.0625q1.34375 1.578125 3.484375 1.578125q1.734375 0 2.890625 -1.0625q1.15625 -1.0625 1.453125 -3.25zm4.3046875 -2.3125q0 -4.796875 2.671875 -7.109375q2.21875 -1.921875 5.421875 -1.921875q3.578125 0 5.828125 2.34375q2.265625 2.328125 2.265625 6.4375q0 3.34375 -1.0 5.265625q-1.0 1.90625 -2.921875 2.96875q-1.90625 1.046875 -4.171875 1.046875q-3.625 0 -5.859375 -2.328125q-2.234375 -2.328125 -2.234375 -6.703125zm3.015625 0q0 3.3125 1.4375 4.96875q1.453125 1.65625 3.640625 1.65625q2.1875 0 3.625 -1.65625q1.453125 -1.671875 1.453125 -5.0625q0 -3.203125 -1.453125 -4.859375q-1.453125 -1.65625 -3.625 -1.65625q-2.1875 0 -3.640625 1.640625q-1.4375 1.640625 -1.4375 4.96875zm16.613647 8.640625l0 -17.28125l2.625 0l0 2.453125q1.90625 -2.84375 5.5 -2.84375q1.5625 0 2.875 0.5625q1.3125 0.5625 1.953125 1.46875q0.65625 0.90625 0.921875 2.171875q0.15625 0.8125 0.15625 2.84375l0 10.625l-2.921875 0l0 -10.515625q0 -1.78125 -0.34375 -2.671875q-0.34375 -0.890625 -1.21875 -1.421875q-0.859375 -0.53125 -2.03125 -0.53125q-1.875 0 -3.234375 1.1875q-1.359375 1.1875 -1.359375 4.515625l0 9.4375l-2.921875 0zm24.926147 -2.625l0.421875 2.59375q-1.234375 0.265625 -2.21875 0.265625q-1.59375 0 -2.46875 -0.5q-0.875 -0.515625 -1.234375 -1.328125q-0.359375 -0.828125 -0.359375 -3.46875l0 -9.9375l-2.15625 0l0 -2.28125l2.15625 0l0 -4.28125l2.90625 -1.75l0 6.03125l2.953125 0l0 2.28125l-2.953125 0l0 10.109375q0 1.25 0.15625 1.609375q0.15625 0.359375 0.5 0.578125q0.359375 0.203125 1.015625 0.203125q0.484375 0 1.28125 -0.125zm2.8377686 2.625l0 -17.28125l2.625 0l0 2.625q1.015625 -1.84375 1.859375 -2.421875q0.859375 -0.59375 1.890625 -0.59375q1.484375 0 3.0 0.9375l-1.0 2.71875q-1.078125 -0.625 -2.15625 -0.625q-0.953125 0 -1.71875 0.578125q-0.765625 0.578125 -1.09375 1.59375q-0.484375 1.5625 -0.484375 3.421875l0 9.046875l-2.921875 0zm10.036011 -8.640625q0 -4.796875 2.671875 -7.109375q2.21875 -1.921875 5.421875 -1.921875q3.578125 0 5.828125 2.34375q2.265625 2.328125 2.265625 6.4375q0 3.34375 -1.0 5.265625q-1.0 1.90625 -2.921875 2.96875q-1.90625 1.046875 -4.171875 1.046875q-3.625 0 -5.859375 -2.328125q-2.234375 -2.328125 -2.234375 -6.703125zm3.015625 0q0 3.3125 1.4375 4.96875q1.453125 1.65625 3.640625 1.65625q2.1875 0 3.625 -1.65625q1.453125 -1.671875 1.453125 -5.0625q0 -3.203125 -1.453125 -4.859375q-1.453125 -1.65625 -3.625 -1.65625q-2.1875 0 -3.640625 1.640625q-1.4375 1.640625 -1.4375 4.96875zm16.535522 8.640625l0 -23.859375l2.9375 0l0 23.859375l-2.9375 0zm7.404419 0l0 -23.859375l2.9375 0l0 23.859375l-2.9375 0zm18.74823 -2.125q-1.625 1.375 -3.125 1.953125q-1.5 0.5625 -3.234375 0.5625q-2.84375 0 -4.375 -1.390625q-1.53125 -1.390625 -1.53125 -3.5625q0 -1.265625 0.578125 -2.3125q0.578125 -1.046875 1.515625 -1.671875q0.9375 -0.640625 2.109375 -0.96875q0.859375 -0.234375 2.59375 -0.4375q3.546875 -0.421875 5.234375 -1.015625q0.015625 -0.609375 0.015625 -0.765625q0 -1.78125 -0.828125 -2.515625q-1.125 -1.0 -3.34375 -1.0q-2.0625 0 -3.046875 0.734375q-0.984375 0.71875 -1.453125 2.546875l-2.875 -0.390625q0.390625 -1.828125 1.28125 -2.953125q0.90625 -1.140625 2.59375 -1.75q1.703125 -0.609375 3.921875 -0.609375q2.21875 0 3.59375 0.53125q1.390625 0.515625 2.03125 1.3125q0.65625 0.78125 0.921875 1.984375q0.140625 0.75 0.140625 2.703125l0 3.90625q0 4.078125 0.1875 5.15625q0.1875 1.078125 0.75 2.078125l-3.0625 0q-0.453125 -0.90625 -0.59375 -2.125zm-0.234375 -6.546875q-1.59375 0.65625 -4.78125 1.109375q-1.8125 0.25 -2.5625 0.578125q-0.75 0.328125 -1.15625 0.953125q-0.40625 0.625 -0.40625 1.390625q0 1.171875 0.890625 1.953125q0.890625 0.78125 2.59375 0.78125q1.6875 0 3.0 -0.734375q1.328125 -0.75 1.953125 -2.03125q0.46875 -0.984375 0.46875 -2.921875l0 -1.078125zm10.191772 8.671875l-2.703125 0l0 -23.859375l2.921875 0l0 8.515625q1.859375 -2.328125 4.734375 -2.328125q1.59375 0 3.015625 0.640625q1.421875 0.640625 2.34375 1.8125q0.921875 1.15625 1.4375 2.8125q0.53125 1.640625 0.53125 3.5q0 4.453125 -2.203125 6.875q-2.1875 2.421875 -5.265625 2.421875q-3.0625 0 -4.8125 -2.5625l0 2.171875zm-0.03125 -8.765625q0 3.109375 0.859375 4.484375q1.375 2.265625 3.734375 2.265625q1.921875 0 3.3125 -1.671875q1.40625 -1.671875 1.40625 -4.96875q0 -3.390625 -1.34375 -5.0q-1.34375 -1.609375 -3.25 -1.609375q-1.90625 0 -3.3125 1.671875q-1.40625 1.671875 -1.40625 4.828125zm15.801147 8.765625l0 -23.859375l2.9375 0l0 23.859375l-2.9375 0zm19.31073 -5.5625l3.015625 0.375q-0.703125 2.65625 -2.640625 4.125q-1.9375 1.453125 -4.953125 1.453125q-3.796875 0 -6.015625 -2.328125q-2.21875 -2.34375 -2.21875 -6.5625q0 -4.359375 2.25 -6.765625q2.25 -2.40625 5.828125 -2.40625q3.46875 0 5.65625 2.359375q2.203125 2.359375 2.203125 6.640625q0 0.265625 -0.015625 0.78125l-12.890625 0q0.15625 2.84375 1.609375 4.359375q1.453125 1.515625 3.609375 1.515625q1.609375 0 2.75 -0.84375q1.140625 -0.84375 1.8125 -2.703125zm-9.625 -4.734375l9.65625 0q-0.203125 -2.1875 -1.109375 -3.28125q-1.40625 -1.6875 -3.625 -1.6875q-2.015625 0 -3.390625 1.359375q-1.375 1.34375 -1.53125 3.609375zm17.160522 10.296875l0 -3.34375l3.328125 0l0 3.34375l-3.328125 0z" fill-rule="nonzero"/><path fill="#000000" d="m436.43338 381.0l0 -23.859375l16.09375 0l0 2.8125l-12.9375 0l0 7.390625l11.203125 0l0 2.8125l-11.203125 0l0 10.84375l-3.15625 0zm31.65503 -5.5625l3.015625 0.375q-0.703125 2.65625 -2.640625 4.125q-1.9375 1.453125 -4.953125 1.453125q-3.796875 0 -6.015625 -2.328125q-2.21875 -2.34375 -2.21875 -6.5625q0 -4.359375 2.25 -6.765625q2.25 -2.40625 5.828125 -2.40625q3.46875 0 5.65625 2.359375q2.203125 2.359375 2.203125 6.640625q0 0.265625 -0.015625 0.78125l-12.890625 0q0.15625 2.84375 1.609375 4.359375q1.453125 1.515625 3.609375 1.515625q1.609375 0 2.75 -0.84375q1.140625 -0.84375 1.8125 -2.703125zm-9.625 -4.734375l9.65625 0q-0.203125 -2.1875 -1.109375 -3.28125q-1.40625 -1.6875 -3.625 -1.6875q-2.015625 0 -3.390625 1.359375q-1.375 1.34375 -1.53125 3.609375zm27.598022 8.171875q-1.625 1.375 -3.125 1.953125q-1.5 0.5625 -3.234375 0.5625q-2.84375 0 -4.375 -1.390625q-1.53125 -1.390625 -1.53125 -3.5625q0 -1.265625 0.578125 -2.3125q0.578125 -1.046875 1.515625 -1.671875q0.9375 -0.640625 2.109375 -0.96875q0.859375 -0.234375 2.59375 -0.4375q3.546875 -0.421875 5.234375 -1.015625q0.015625 -0.609375 0.015625 -0.765625q0 -1.78125 -0.828125 -2.515625q-1.125 -1.0 -3.34375 -1.0q-2.0625 0 -3.046875 0.734375q-0.984375 0.71875 -1.453125 2.546875l-2.875 -0.390625q0.390625 -1.828125 1.28125 -2.953125q0.90625 -1.140625 2.59375 -1.75q1.703125 -0.609375 3.921875 -0.609375q2.21875 0 3.59375 0.53125q1.390625 0.515625 2.03125 1.3125q0.65625 0.78125 0.921875 1.984375q0.140625 0.75 0.140625 2.703125l0 3.90625q0 4.078125 0.1875 5.15625q0.1875 1.078125 0.75 2.078125l-3.0625 0q-0.453125 -0.90625 -0.59375 -2.125zm-0.234375 -6.546875q-1.59375 0.65625 -4.78125 1.109375q-1.8125 0.25 -2.5625 0.578125q-0.75 0.328125 -1.15625 0.953125q-0.40625 0.625 -0.40625 1.390625q0 1.171875 0.890625 1.953125q0.890625 0.78125 2.59375 0.78125q1.6875 0 3.0 -0.734375q1.328125 -0.75 1.953125 -2.03125q0.46875 -0.984375 0.46875 -2.921875l0 -1.078125zm6.3323975 3.515625l2.890625 -0.453125q0.25 1.734375 1.359375 2.671875q1.109375 0.921875 3.109375 0.921875q2.03125 0 3.0 -0.8125q0.984375 -0.828125 0.984375 -1.9375q0 -1.0 -0.875 -1.5625q-0.59375 -0.390625 -2.984375 -1.0q-3.234375 -0.8125 -4.484375 -1.40625q-1.234375 -0.59375 -1.875 -1.640625q-0.640625 -1.046875 -0.640625 -2.3125q0 -1.15625 0.53125 -2.140625q0.53125 -0.984375 1.4375 -1.640625q0.6875 -0.5 1.859375 -0.84375q1.1875 -0.359375 2.53125 -0.359375q2.03125 0 3.5625 0.59375q1.546875 0.578125 2.28125 1.578125q0.734375 1.0 1.015625 2.671875l-2.875 0.390625q-0.1875 -1.328125 -1.125 -2.078125q-0.9375 -0.75 -2.640625 -0.75q-2.03125 0 -2.890625 0.671875q-0.859375 0.65625 -0.859375 1.5625q0 0.5625 0.359375 1.015625q0.359375 0.484375 1.125 0.78125q0.4375 0.171875 2.578125 0.75q3.109375 0.828125 4.34375 1.359375q1.234375 0.53125 1.921875 1.546875q0.703125 1.0 0.703125 2.5q0 1.46875 -0.859375 2.765625q-0.84375 1.28125 -2.453125 2.0q-1.609375 0.703125 -3.65625 0.703125q-3.359375 0 -5.125 -1.390625q-1.765625 -1.40625 -2.25 -4.15625zm24.226593 2.53125l0.421875 2.59375q-1.234375 0.265625 -2.21875 0.265625q-1.59375 0 -2.46875 -0.5q-0.8750305 -0.515625 -1.2344055 -1.328125q-0.359375 -0.828125 -0.359375 -3.46875l0 -9.9375l-2.15625 0l0 -2.28125l2.15625 0l0 -4.28125l2.9062805 -1.75l0 6.03125l2.953125 0l0 2.28125l-2.953125 0l0 10.109375q0 1.25 0.15625 1.609375q0.15625 0.359375 0.5 0.578125q0.359375 0.203125 1.015625 0.203125q0.484375 0 1.28125 -0.125zm3.6971436 2.625l0 -3.34375l3.328125 0l0 3.34375l-3.328125 0z" fill-rule="nonzero"/><path fill="#000000" d="m422.5439 421.0l0 -23.859375l16.09375 0l0 2.8125l-12.9375 0l0 7.390625l11.203125 0l0 2.8125l-11.203125 0l0 10.84375l-3.15625 0zm31.09253 -2.125q-1.625 1.375 -3.125 1.953125q-1.5 0.5625 -3.234375 0.5625q-2.84375 0 -4.375 -1.390625q-1.53125 -1.390625 -1.53125 -3.5625q0 -1.265625 0.578125 -2.3125q0.578125 -1.046875 1.515625 -1.671875q0.9375 -0.640625 2.109375 -0.96875q0.859375 -0.234375 2.59375 -0.4375q3.546875 -0.421875 5.234375 -1.015625q0.015625 -0.609375 0.015625 -0.765625q0 -1.78125 -0.828125 -2.515625q-1.125 -1.0 -3.34375 -1.0q-2.0625 0 -3.046875 0.734375q-0.984375 0.71875 -1.453125 2.546875l-2.875 -0.390625q0.390625 -1.828125 1.28125 -2.953125q0.90625 -1.140625 2.59375 -1.75q1.703125 -0.609375 3.921875 -0.609375q2.21875 0 3.59375 0.53125q1.390625 0.515625 2.03125 1.3125q0.65625 0.78125 0.921875 1.984375q0.140625 0.75 0.140625 2.703125l0 3.90625q0 4.078125 0.1875 5.15625q0.1875 1.078125 0.75 2.078125l-3.0625 0q-0.453125 -0.90625 -0.59375 -2.125zm-0.234375 -6.546875q-1.59375 0.65625 -4.78125 1.109375q-1.8125 0.25 -2.5625 0.578125q-0.75 0.328125 -1.15625 0.953125q-0.40625 0.625 -0.40625 1.390625q0 1.171875 0.890625 1.953125q0.890625 0.78125 2.59375 0.78125q1.6875 0 3.0 -0.734375q1.328125 -0.75 1.953125 -2.03125q0.46875 -0.984375 0.46875 -2.921875l0 -1.078125zm7.5042725 8.671875l0 -17.28125l2.609375 0l0 2.421875q0.8125 -1.265625 2.15625 -2.03125q1.359375 -0.78125 3.09375 -0.78125q1.921875 0 3.140625 0.796875q1.234375 0.796875 1.734375 2.234375q2.046875 -3.03125 5.34375 -3.03125q2.5625 0 3.9375 1.421875q1.390625 1.421875 1.390625 4.390625l0 11.859375l-2.90625 0l0 -10.890625q0 -1.75 -0.296875 -2.515625q-0.28125 -0.78125 -1.03125 -1.25q-0.734375 -0.484375 -1.75 -0.484375q-1.828125 0 -3.03125 1.21875q-1.203125 1.21875 -1.203125 3.875l0 10.046875l-2.921875 0l0 -11.234375q0 -1.953125 -0.71875 -2.921875q-0.71875 -0.984375 -2.34375 -0.984375q-1.234375 0 -2.296875 0.65625q-1.046875 0.65625 -1.515625 1.90625q-0.46875 1.25 -0.46875 3.609375l0 8.96875l-2.921875 0zm27.778198 -20.484375l0 -3.375l2.921875 0l0 3.375l-2.921875 0zm0 20.484375l0 -17.28125l2.921875 0l0 17.28125l-2.921875 0zm7.388855 0l0 -17.28125l2.625 0l0 2.453125q1.90625 -2.84375 5.5 -2.84375q1.5625 0 2.875 0.5625q1.3125 0.5625 1.953125 1.46875q0.65625 0.90625 0.921875 2.171875q0.15625 0.8125 0.15625 2.84375l0 10.625l-2.921875 0l0 -10.515625q0 -1.78125 -0.34375 -2.671875q-0.34375 -0.890625 -1.21875 -1.421875q-0.859375 -0.53125 -2.03125 -0.53125q-1.875 0 -3.234375 1.1875q-1.359375 1.1875 -1.359375 4.515625l0 9.4375l-2.921875 0zm30.363678 -5.5625l3.015625 0.375q-0.703125 2.65625 -2.640625 4.125q-1.9375 1.453125 -4.953125 1.453125q-3.796875 0 -6.015625 -2.328125q-2.21875 -2.34375 -2.21875 -6.5625q0 -4.359375 2.25 -6.765625q2.25 -2.40625 5.828125 -2.40625q3.46875 0 5.65625 2.359375q2.203125 2.359375 2.203125 6.640625q0 0.265625 -0.015625 0.78125l-12.890625 0q0.15625 2.84375 1.609375 4.359375q1.453125 1.515625 3.609375 1.515625q1.609375 0 2.75 -0.84375q1.140625 -0.84375 1.8125 -2.703125zm-9.625 -4.734375l9.65625 0q-0.203125 -2.1875 -1.109375 -3.28125q-1.40625 -1.6875 -3.625 -1.6875q-2.015625 0 -3.390625 1.359375q-1.375 1.34375 -1.53125 3.609375zm17.160522 10.296875l0 -3.34375l3.328125 0l0 3.34375l-3.328125 0z" fill-rule="nonzero"/><path fill="#000000" d="m424.26532 461.0l0 -23.859375l10.578125 0q3.1875 0 4.84375 0.640625q1.65625 0.640625 2.640625 2.28125q1.0 1.625 1.0 3.59375q0 2.53125 -1.640625 4.28125q-1.640625 1.734375 -5.078125 2.203125q1.25 0.609375 1.90625 1.1875q1.390625 1.28125 2.625 3.171875l4.140625 6.5l-3.96875 0l-3.15625 -4.96875q-1.375 -2.140625 -2.28125 -3.28125q-0.890625 -1.140625 -1.609375 -1.59375q-0.703125 -0.453125 -1.421875 -0.640625q-0.546875 -0.109375 -1.765625 -0.109375l-3.65625 0l0 10.59375l-3.15625 0zm3.15625 -13.328125l6.78125 0q2.171875 0 3.390625 -0.4375q1.21875 -0.453125 1.84375 -1.4375q0.640625 -0.984375 0.640625 -2.140625q0 -1.703125 -1.234375 -2.78125q-1.21875 -1.09375 -3.875 -1.09375l-7.546875 0l0 7.890625zm32.318512 7.765625l3.015625 0.375q-0.703125 2.65625 -2.640625 4.125q-1.9375 1.453125 -4.953125 1.453125q-3.796875 0 -6.015625 -2.328125q-2.21875 -2.34375 -2.21875 -6.5625q0 -4.359375 2.25 -6.765625q2.25 -2.40625 5.828125 -2.40625q3.46875 0 5.65625 2.359375q2.203125 2.359375 2.203125 6.640625q0 0.265625 -0.015625 0.78125l-12.890625 0q0.15625 2.84375 1.609375 4.359375q1.453125 1.515625 3.609375 1.515625q1.609375 0 2.75 -0.84375q1.140625 -0.84375 1.8125 -2.703125zm-9.625 -4.734375l9.65625 0q-0.203125 -2.1875 -1.109375 -3.28125q-1.40625 -1.6875 -3.625 -1.6875q-2.015625 0 -3.390625 1.359375q-1.375 1.34375 -1.53125 3.609375zm16.332397 16.921875l0 -23.90625l2.65625 0l0 2.25q0.953125 -1.328125 2.140625 -1.984375q1.1875 -0.65625 2.875 -0.65625q2.21875 0 3.90625 1.140625q1.6875 1.140625 2.546875 3.21875q0.875 2.0625 0.875 4.546875q0 2.640625 -0.953125 4.765625q-0.953125 2.125 -2.765625 3.265625q-1.8125 1.125 -3.8125 1.125q-1.46875 0 -2.640625 -0.609375q-1.15625 -0.625 -1.90625 -1.578125l0 8.421875l-2.921875 0zm2.640625 -15.171875q0 3.34375 1.34375 4.9375q1.359375 1.59375 3.28125 1.59375q1.953125 0 3.34375 -1.65625q1.390625 -1.65625 1.390625 -5.109375q0 -3.3125 -1.359375 -4.953125q-1.359375 -1.640625 -3.25 -1.640625q-1.859375 0 -3.3125 1.75q-1.4375 1.75 -1.4375 5.078125zm27.723022 2.984375l3.015625 0.375q-0.703125 2.65625 -2.640625 4.125q-1.9375 1.453125 -4.953125 1.453125q-3.796875 0 -6.015625 -2.328125q-2.21875 -2.34375 -2.21875 -6.5625q0 -4.359375 2.25 -6.765625q2.25 -2.40625 5.828125 -2.40625q3.46875 0 5.65625 2.359375q2.203125 2.359375 2.203125 6.640625q0 0.265625 -0.015625 0.78125l-12.890625 0q0.15625 2.84375 1.609375 4.359375q1.453125 1.515625 3.609375 1.515625q1.609375 0 2.75 -0.84375q1.140625 -0.84375 1.8125 -2.703125zm-9.625 -4.734375l9.65625 0q-0.203125 -2.1875 -1.109375 -3.28125q-1.40625 -1.6875 -3.625 -1.6875q-2.015625 0 -3.390625 1.359375q-1.375 1.34375 -1.53125 3.609375zm27.598053 8.171875q-1.625 1.375 -3.1250305 1.953125q-1.5 0.5625 -3.234375 0.5625q-2.84375 0 -4.375 -1.390625q-1.53125 -1.390625 -1.53125 -3.5625q0 -1.265625 0.578125 -2.3125q0.578125 -1.046875 1.515625 -1.671875q0.9375 -0.640625 2.109375 -0.96875q0.859375 -0.234375 2.59375 -0.4375q3.5469055 -0.421875 5.2344055 -1.015625q0.015625 -0.609375 0.015625 -0.765625q0 -1.78125 -0.828125 -2.515625q-1.125 -1.0 -3.3437805 -1.0q-2.0625 0 -3.046875 0.734375q-0.984375 0.71875 -1.453125 2.546875l-2.875 -0.390625q0.390625 -1.828125 1.28125 -2.953125q0.90625 -1.140625 2.59375 -1.75q1.703125 -0.609375 3.921875 -0.609375q2.2187805 0 3.5937805 0.53125q1.390625 0.515625 2.03125 1.3125q0.65625 0.78125 0.921875 1.984375q0.140625 0.75 0.140625 2.703125l0 3.90625q0 4.078125 0.1875 5.15625q0.1875 1.078125 0.75 2.078125l-3.0625 0q-0.453125 -0.90625 -0.59375 -2.125zm-0.234375 -6.546875q-1.59375 0.65625 -4.7812805 1.109375q-1.8125 0.25 -2.5625 0.578125q-0.75 0.328125 -1.15625 0.953125q-0.40625 0.625 -0.40625 1.390625q0 1.171875 0.890625 1.953125q0.890625 0.78125 2.59375 0.78125q1.6875 0 3.0000305 -0.734375q1.328125 -0.75 1.953125 -2.03125q0.46875 -0.984375 0.46875 -2.921875l0 -1.078125zm13.894897 6.046875l0.421875 2.59375q-1.234375 0.265625 -2.21875 0.265625q-1.59375 0 -2.46875 -0.5q-0.875 -0.515625 -1.234375 -1.328125q-0.359375 -0.828125 -0.359375 -3.46875l0 -9.9375l-2.15625 0l0 -2.28125l2.15625 0l0 -4.28125l2.90625 -1.75l0 6.03125l2.953125 0l0 2.28125l-2.953125 0l0 10.109375q0 1.25 0.15625 1.609375q0.15625 0.359375 0.5 0.578125q0.359375 0.203125 1.015625 0.203125q0.484375 0 1.28125 -0.125zm3.6971436 2.625l0 -3.34375l3.328125 0l0 3.34375l-3.328125 0z" fill-rule="nonzero"/></g></g></svg>