<svg version="1.1" viewBox="0.0 0.0 960.0 540.0" fill="none" stroke="none" stroke-linecap="square" stroke-miterlimit="10" xmlns:xlink="http://www.w3.org/1999/xlink" xmlns="http://www.w3.org/2000/svg"><clipPath id="slide_01.0"><path d="m0 0l960.0 0l0 540.0l-960.0 0l0 -540.0z" clip-rule="nonzero"/></clipPath><g clip-path="url(#slide_01.0)"><g id="slide_01"><path fill="#ffffff" d="m0 0l960.0 0l0 540.0l-960.0 0l0 -540.0z" fill-rule="nonzero"/><path fill="#ffffff" d="m0 0l960.0 0l0 540.0l-960.0 0z" fill-rule="evenodd"/><g id="a11y-dsl_t01" role="img" aria-label="The $99 Website That Gets 5-8 Referral-Quality Prospects Every Month&#xa;" tabindex="0"><path fill="#000000" fill-opacity="0.0" d="m80.0 96.0l0 200.0l800.0 0l0 -200.0z" fill-rule="nonzero"/></g><path fill="#000000" fill-opacity="0.0" d="m80.0 96.0l800.0 0l0 200.0l-800.0 0z" fill-rule="evenodd"/><path fill="#000000" d="m194.281 145.95999l0 -26.937492l-10.0625 0l0 -3.59375l24.203125 0l0 3.59375l-10.109375 0l0 26.937492l-4.03125 0zm17.806137 0l0 -30.531242l3.75 0l0 10.953125q2.625 -3.046875 6.625 -3.046875q2.453125 0 4.265625 0.96875q1.8125 0.96875 2.59375 2.6875q0.78125 1.7031174 0.78125 4.9531174l0 14.015625l-3.75 0l0 -14.015625q0 -2.8125 -1.21875 -4.0937424q-1.21875 -1.28125 -3.453125 -1.28125q-1.65625 0 -3.125 0.875q-1.46875 0.8593674 -2.09375 2.3437424q-0.625 1.46875 -0.625 4.078125l0 12.09375l-3.75 0zm38.864 -7.125l3.875 0.484375q-0.921875 3.390625 -3.40625 5.265625q-2.46875 1.875 -6.328125 1.875q-4.84375 0 -7.6875 -2.984375q-2.84375 -3.0 -2.84375 -8.390625q0 -5.578125 2.875 -8.656242q2.875 -3.09375 7.453125 -3.09375q4.4375 0 7.25 3.03125q2.8125 3.0156174 2.8125 8.499992q0 0.328125 -0.015625 0.984375l-16.5 0q0.203125 3.65625 2.0625 5.59375q1.859375 1.9375 4.625 1.9375q2.0625 0 3.515625 -1.078125q1.453125 -1.09375 2.3125 -3.46875zm-12.3125 -6.0625l12.359375 0q-0.25 -2.78125 -1.421875 -4.1875q-1.796875 -2.1562424 -4.640625 -2.1562424q-2.578125 0 -4.34375 1.7343674q-1.765625 1.71875 -1.953125 4.609375zm40.55902 17.578125l0 -3.75q-2.8125 -0.34375 -4.578125 -1.25q-1.75 -0.90625 -3.03125 -2.921875q-1.28125 -2.03125 -1.5 -4.953125l3.78125 -0.703125q0.4375 3.015625 1.53125 4.4375q1.59375 2.0 3.796875 2.234375l0 -11.9375q-2.3125 -0.4375 -4.734375 -1.796875q-1.78125 -1.0 -2.75 -2.7656174q-0.96875 -1.765625 -0.96875 -4.015625q0 -4.0 2.828125 -6.484375q1.890625 -1.671875 5.625 -2.046875l0 -1.78125l2.203125 0l0 1.78125q3.265625 0.3125 5.1875 1.921875q2.453125 2.046875 2.953125 5.609375l-3.875 0.578125q-0.328125 -2.203125 -1.390625 -3.375q-1.046875 -1.1875 -2.875 -1.5625l0 10.812492q2.828125 0.703125 3.75 1.109375q1.75 0.765625 2.84375 1.875q1.109375 1.09375 1.703125 2.625q0.59375 1.515625 0.59375 3.28125q0 3.890625 -2.484375 6.5q-2.46875 2.609375 -6.40625 2.796875l0 3.78125l-2.203125 0zm0 -32.828117q-2.1875 0.34375 -3.453125 1.765625q-1.25 1.40625 -1.25 3.34375q0 1.921875 1.0625 3.21875q1.078125 1.28125 3.640625 2.046875l0 -10.375zm2.203125 25.921867q2.1875 -0.28125 3.609375 -1.90625q1.4375 -1.625 1.4375 -4.015625q0 -2.046875 -1.015625 -3.28125q-1.015625 -1.234375 -4.03125 -2.21875l0 11.421875zm13.223358 -4.546875l3.609375 -0.328125q0.453125 2.53125 1.75 3.6875q1.296875 1.140625 3.3125 1.140625q1.71875 0 3.015625 -0.78125q1.3125 -0.796875 2.140625 -2.125q0.84375 -1.328125 1.40625 -3.5625q0.5625 -2.25 0.5625 -4.59375q0 -0.25 -0.03125 -0.75q-1.125 1.796875 -3.078125 2.90625q-1.9375 1.109375 -4.203125 1.109375q-3.796875 0 -6.421875 -2.734375q-2.625 -2.75 -2.625 -7.2499924q0 -4.65625 2.734375 -7.484375q2.75 -2.828125 6.875 -2.828125q2.96875 0 5.4375 1.609375q2.46875 1.59375 3.75 4.5625q1.28125 2.96875 1.28125 8.593742q0 5.84375 -1.265625 9.3125q-1.265625 3.46875 -3.78125 5.28125q-2.515625 1.8125 -5.890625 1.8125q-3.578125 0 -5.84375 -1.984375q-2.265625 -1.984375 -2.734375 -5.59375zm15.359375 -13.468742q0 -3.234375 -1.71875 -5.125q-1.71875 -1.90625 -4.140625 -1.90625q-2.5 0 -4.359375 2.046875q-1.84375 2.046875 -1.84375 5.296875q0 2.9062424 1.75 4.7343674q1.765625 1.828125 4.34375 1.828125q2.609375 0 4.28125 -1.828125q1.6875 -1.828125 1.6875 -5.0468674zm8.364014 13.468742l3.609375 -0.328125q0.453125 2.53125 1.75 3.6875q1.296875 1.140625 3.3125 1.140625q1.71875 0 3.015625 -0.78125q1.3125 -0.796875 2.140625 -2.125q0.84375 -1.328125 1.40625 -3.5625q0.5625 -2.25 0.5625 -4.59375q0 -0.25 -0.03125 -0.75q-1.125 1.796875 -3.078125 2.90625q-1.9375 1.109375 -4.203125 1.109375q-3.796875 0 -6.421875 -2.734375q-2.625 -2.75 -2.625 -7.2499924q0 -4.65625 2.734375 -7.484375q2.75 -2.828125 6.875 -2.828125q2.96875 0 5.4375 1.609375q2.46875 1.59375 3.75 4.5625q1.28125 2.96875 1.28125 8.593742q0 5.84375 -1.265625 9.3125q-1.265625 3.46875 -3.78125 5.28125q-2.515625 1.8125 -5.890625 1.8125q-3.578125 0 -5.84375 -1.984375q-2.265625 -1.984375 -2.734375 -5.59375zm15.359375 -13.468742q0 -3.234375 -1.71875 -5.125q-1.71875 -1.90625 -4.140625 -1.90625q-2.5 0 -4.359375 2.046875q-1.84375 2.046875 -1.84375 5.296875q0 2.9062424 1.75 4.7343674q1.765625 1.828125 4.34375 1.828125q2.609375 0 4.28125 -1.828125q1.6875 -1.828125 1.6875 -5.0468674zm26.512146 20.531242l-8.109375 -30.531242l4.15625 0l4.640625 20.015617q0.75 3.140625 1.296875 6.25q1.15625 -4.90625 1.359375 -5.65625l5.8125 -20.609367l4.875 0l4.375 15.453117q1.65625 5.75 2.375 10.8125q0.59375 -2.90625 1.53125 -6.640625l4.78125 -19.624992l4.0625 0l-8.375 30.531242l-3.890625 0l-6.4375 -23.265617q-0.8125 -2.921875 -0.953125 -3.578125q-0.484375 2.09375 -0.90625 3.578125l-6.46875 23.265617l-4.125 0zm48.8183 -7.125l3.875 0.484375q-0.921875 3.390625 -3.40625 5.265625q-2.46875 1.875 -6.328125 1.875q-4.84375 0 -7.6875 -2.984375q-2.84375 -3.0 -2.84375 -8.390625q0 -5.578125 2.875 -8.656242q2.875 -3.09375 7.453125 -3.09375q4.4375 0 7.25 3.03125q2.8125 3.0156174 2.8125 8.499992q0 0.328125 -0.015625 0.984375l-16.5 0q0.203125 3.65625 2.0625 5.59375q1.859375 1.9375 4.625 1.9375q2.0625 0 3.515625 -1.078125q1.453125 -1.09375 2.3125 -3.46875zm-12.3125 -6.0625l12.359375 0q-0.25 -2.78125 -1.421875 -4.1875q-1.796875 -2.1562424 -4.640625 -2.1562424q-2.578125 0 -4.34375 1.7343674q-1.765625 1.71875 -1.953125 4.609375zm24.348389 13.1875l-3.46875 0l0 -30.531242l3.75 0l0 10.890625q2.375 -2.984375 6.046875 -2.984375q2.046875 0 3.859375 0.828125q1.828125 0.828125 3.0 2.3125q1.1875 1.484375 1.84375 3.5937424q0.671875 2.109375 0.671875 4.5q0 5.6875 -2.8125 8.796875q-2.8125 3.09375 -6.75 3.09375q-3.90625 0 -6.140625 -3.265625l0 2.765625zm-0.03125 -11.21875q0 3.96875 1.078125 5.734375q1.765625 2.90625 4.78125 2.90625q2.46875 0 4.25 -2.140625q1.796875 -2.140625 1.796875 -6.359375q0 -4.328125 -1.71875 -6.390625q-1.71875 -2.0624924 -4.15625 -2.0624924q-2.453125 0 -4.25 2.1406174q-1.78125 2.125 -1.78125 6.171875zm18.801483 4.609375l3.703125 -0.578125q0.3125 2.234375 1.734375 3.421875q1.4375 1.1875 4.0 1.1875q2.578125 0 3.828125 -1.046875q1.25 -1.0625 1.25 -2.484375q0 -1.265625 -1.109375 -2.0q-0.765625 -0.5 -3.828125 -1.265625q-4.125 -1.046875 -5.71875 -1.796875q-1.59375 -0.765625 -2.421875 -2.109375q-0.8125 -1.34375 -0.8125 -2.96875q0 -1.46875 0.671875 -2.7343674q0.6875 -1.265625 1.84375 -2.09375q0.875 -0.640625 2.390625 -1.09375q1.515625 -0.453125 3.234375 -0.453125q2.609375 0 4.578125 0.75q1.96875 0.75 2.90625 2.03125q0.9375 1.28125 1.28125 3.4374924l-3.65625 0.5q-0.25 -1.71875 -1.453125 -2.6718674q-1.203125 -0.953125 -3.375 -0.953125q-2.59375 0 -3.703125 0.859375q-1.09375 0.8437424 -1.09375 1.9843674q0 0.734375 0.453125 1.3125q0.46875 0.609375 1.4375 1.0q0.5625 0.21875 3.3125 0.96875q3.984375 1.0625 5.546875 1.734375q1.578125 0.671875 2.46875 1.96875q0.90625 1.28125 0.90625 3.203125q0 1.875 -1.09375 3.53125q-1.09375 1.65625 -3.15625 2.5625q-2.0625 0.90625 -4.671875 0.90625q-4.3125 0 -6.578125 -1.78125q-2.25 -1.796875 -2.875 -5.328125zm22.84375 -19.609367l0 -4.3125l3.75 0l0 4.3125l-3.75 0zm0 26.218742l0 -22.124992l3.75 0l0 22.124992l-3.75 0zm17.648712 -3.359375l0.53125 3.3125q-1.578125 0.34375 -2.828125 0.34375q-2.03125 0 -3.15625 -0.640625q-1.125 -0.65625 -1.59375 -1.703125q-0.453125 -1.0625 -0.453125 -4.4375l0 -12.718742l-2.75 0l0 -2.921875l2.75 0l0 -5.46875l3.734375 -2.25l0 7.71875l3.765625 0l0 2.921875l-3.765625 0l0 12.937492q0 1.59375 0.1875 2.0625q0.203125 0.453125 0.640625 0.734375q0.453125 0.265625 1.296875 0.265625q0.625 0 1.640625 -0.15625zm18.804382 -3.765625l3.875 0.484375q-0.921875 3.390625 -3.40625 5.265625q-2.46875 1.875 -6.328125 1.875q-4.84375 0 -7.6875 -2.984375q-2.84375 -3.0 -2.84375 -8.390625q0 -5.578125 2.875 -8.656242q2.875 -3.09375 7.453125 -3.09375q4.4375 0 7.25 3.03125q2.8125 3.0156174 2.8125 8.499992q0 0.328125 -0.015625 0.984375l-16.5 0q0.203125 3.65625 2.0625 5.59375q1.859375 1.9375 4.625 1.9375q2.0625 0 3.515625 -1.078125q1.453125 -1.09375 2.3125 -3.46875zm-12.3125 -6.0625l12.359375 0q-0.25 -2.78125 -1.421875 -4.1875q-1.796875 -2.1562424 -4.640625 -2.1562424q-2.578125 0 -4.34375 1.7343674q-1.765625 1.71875 -1.953125 4.609375zm40.225708 13.1875l0 -26.937492l-10.0625 0l0 -3.59375l24.203125 0l0 3.59375l-10.109375 0l0 26.937492l-4.03125 0zm17.806152 0l0 -30.531242l3.75 0l0 10.953125q2.625 -3.046875 6.625 -3.046875q2.453125 0 4.265625 0.96875q1.8125 0.96875 2.59375 2.6875q0.78125 1.7031174 0.78125 4.9531174l0 14.015625l-3.75 0l0 -14.015625q0 -2.8125 -1.21875 -4.0937424q-1.21875 -1.28125 -3.453125 -1.28125q-1.65625 0 -3.125 0.875q-1.46875 0.8593674 -2.09375 2.3437424q-0.625 1.46875 -0.625 4.078125l0 12.09375l-3.75 0zm38.16089 -2.734375q-2.09375 1.78125 -4.015625 2.515625q-1.921875 0.71875 -4.125 0.71875q-3.65625 0 -5.609375 -1.78125q-1.953125 -1.78125 -1.953125 -4.546875q0 -1.625 0.734375 -2.96875q0.734375 -1.34375 1.9375 -2.15625q1.203125 -0.8125 2.703125 -1.234375q1.09375 -0.28125 3.328125 -0.5625q4.53125 -0.53125 6.6875 -1.28125q0.015625 -0.78125 0.015625 -0.984375q0 -2.296875 -1.0625 -3.2343674q-1.4375 -1.265625 -4.265625 -1.265625q-2.640625 0 -3.90625 0.9375q-1.265625 0.9218674 -1.859375 3.2656174l-3.671875 -0.5q0.5 -2.3437424 1.640625 -3.7968674q1.15625 -1.453125 3.3125 -2.234375q2.171875 -0.78125 5.015625 -0.78125q2.84375 0 4.609375 0.671875q1.765625 0.671875 2.59375 1.6875q0.84375 1.0 1.171875 2.5468674q0.1875 0.953125 0.1875 3.453125l0 5.0q0 5.21875 0.234375 6.609375q0.25 1.390625 0.953125 2.65625l-3.90625 0q-0.59375 -1.171875 -0.75 -2.734375zm-0.3125 -8.359375q-2.046875 0.828125 -6.125 1.40625q-2.3125 0.328125 -3.28125 0.75q-0.953125 0.421875 -1.46875 1.21875q-0.515625 0.796875 -0.515625 1.78125q0 1.5 1.125 2.5q1.140625 1.0 3.328125 1.0q2.15625 0 3.84375 -0.9375q1.6875 -0.953125 2.484375 -2.609375q0.609375 -1.265625 0.609375 -3.75l0 -1.359375zm17.785889 7.734375l0.53125 3.3125q-1.578125 0.34375 -2.828125 0.34375q-2.03125 0 -3.15625 -0.640625q-1.125 -0.65625 -1.59375 -1.703125q-0.453125 -1.0625 -0.453125 -4.4375l0 -12.718742l-2.75 0l0 -2.921875l2.75 0l0 -5.46875l3.734375 -2.25l0 7.71875l3.765625 0l0 2.921875l-3.765625 0l0 12.937492q0 1.59375 0.1875 2.0625q0.203125 0.453125 0.640625 0.734375q0.453125 0.265625 1.296875 0.265625q0.625 0 1.640625 -0.15625zm30.28064 -8.609375l0 -3.59375l12.9375 -0.015625l0 11.328125q-2.984375 2.375 -6.15625 3.578125q-3.15625 1.1875 -6.484375 1.1875q-4.5 0 -8.1875 -1.921875q-3.671875 -1.921875 -5.546875 -5.5625q-1.875 -3.65625 -1.875 -8.15625q0 -4.4531174 1.859375 -8.312492q1.875 -3.875 5.375 -5.75q3.5 -1.875 8.0625 -1.875q3.3125 0 5.984375 1.078125q2.671875 1.078125 4.1875 3.0q1.53125 1.90625 2.328125 4.984375l-3.65625 1.0q-0.6875 -2.328125 -1.703125 -3.65625q-1.015625 -1.34375 -2.921875 -2.140625q-1.890625 -0.796875 -4.203125 -0.796875q-2.765625 0 -4.796875 0.84375q-2.015625 0.84375 -3.25 2.21875q-1.234375 1.375 -1.921875 3.015625q-1.171875 2.828125 -1.171875 6.1406174q0 4.09375 1.40625 6.84375q1.40625 2.734375 4.09375 4.078125q2.6875 1.328125 5.703125 1.328125q2.625 0 5.125 -1.0q2.5 -1.015625 3.796875 -2.171875l0 -5.671875l-8.984375 0zm33.554382 4.84375l3.875 0.484375q-0.921875 3.390625 -3.40625 5.265625q-2.46875 1.875 -6.328125 1.875q-4.84375 0 -7.6875 -2.984375q-2.84375 -3.0 -2.84375 -8.390625q0 -5.578125 2.875 -8.656242q2.875 -3.09375 7.453125 -3.09375q4.4375 0 7.25 3.03125q2.8125 3.0156174 2.8125 8.499992q0 0.328125 -0.015625 0.984375l-16.5 0q0.203125 3.65625 2.0625 5.59375q1.859375 1.9375 4.625 1.9375q2.0625 0 3.515625 -1.078125q1.453125 -1.09375 2.3125 -3.46875zm-12.3125 -6.0625l12.359375 0q-0.25 -2.78125 -1.421875 -4.1875q-1.796875 -2.1562424 -4.640625 -2.1562424q-2.578125 0 -4.34375 1.7343674q-1.765625 1.71875 -1.953125 4.609375zm29.082764 9.828125l0.53125 3.3125q-1.578125 0.34375 -2.828125 0.34375q-2.03125 0 -3.15625 -0.640625q-1.125 -0.65625 -1.59375 -1.703125q-0.453125 -1.0625 -0.453125 -4.4375l0 -12.718742l-2.75 0l0 -2.921875l2.75 0l0 -5.46875l3.734375 -2.25l0 7.71875l3.765625 0l0 2.921875l-3.765625 0l0 12.937492q0 1.59375 0.1875 2.0625q0.203125 0.453125 0.640625 0.734375q0.453125 0.265625 1.296875 0.265625q0.625 0 1.640625 -0.15625zm2.1637573 -3.25l3.703125 -0.578125q0.3125 2.234375 1.734375 3.421875q1.4375 1.1875 4.0 1.1875q2.578125 0 3.828125 -1.046875q1.25 -1.0625 1.25 -2.484375q0 -1.265625 -1.109375 -2.0q-0.765625 -0.5 -3.828125 -1.265625q-4.125 -1.046875 -5.71875 -1.796875q-1.59375 -0.765625 -2.421875 -2.109375q-0.8125 -1.34375 -0.8125 -2.96875q0 -1.46875 0.671875 -2.7343674q0.6875 -1.265625 1.84375 -2.09375q0.875 -0.640625 2.390625 -1.09375q1.515625 -0.453125 3.234375 -0.453125q2.609375 0 4.578125 0.75q1.96875 0.75 2.90625 2.03125q0.9375 1.28125 1.28125 3.4374924l-3.65625 0.5q-0.25 -1.71875 -1.453125 -2.6718674q-1.203125 -0.953125 -3.375 -0.953125q-2.59375 0 -3.703125 0.859375q-1.09375 0.8437424 -1.09375 1.9843674q0 0.734375 0.453125 1.3125q0.46875 0.609375 1.4375 1.0q0.5625 0.21875 3.3125 0.96875q3.984375 1.0625 5.546875 1.734375q1.578125 0.671875 2.46875 1.96875q0.90625 1.28125 0.90625 3.203125q0 1.875 -1.09375 3.53125q-1.09375 1.65625 -3.15625 2.5625q-2.0625 0.90625 -4.671875 0.90625q-4.3125 0 -6.578125 -1.78125q-2.25 -1.796875 -2.875 -5.328125zm33.632507 -1.390625l3.9375 -0.328125q0.4375 2.875 2.03125 4.328125q1.59375 1.4375 3.84375 1.4375q2.703125 0 4.578125 -2.03125q1.875 -2.046875 1.875 -5.421875q0 -3.203125 -1.796875 -5.0625q-1.796875 -1.859375 -4.71875 -1.859375q-1.8125 0 -3.265625 0.828125q-1.453125 0.828125 -2.296875 2.140625l-3.515625 -0.46875l2.953125 -15.687492l15.1875 0l0 3.59375l-12.1875 0l-1.640625 8.203125q2.75 -1.921875 5.765625 -1.921875q4.0 0 6.75 2.7812424q2.75 2.765625 2.75 7.109375q0 4.15625 -2.421875 7.171875q-2.9375 3.703125 -8.015625 3.703125q-4.15625 0 -6.796875 -2.328125q-2.640625 -2.328125 -3.015625 -6.1875zm23.317139 -1.171875l0 -3.765625l11.515625 0l0 3.765625l-11.515625 0zm20.392334 -7.390625q-2.34375 -0.84375 -3.46875 -2.4218674q-1.125 -1.59375 -1.125 -3.796875q0 -3.34375 2.390625 -5.609375q2.40625 -2.265625 6.375 -2.265625q4.0 0 6.4375 2.328125q2.4375 2.3125 2.4375 5.640625q0 2.125 -1.109375 3.703125q-1.109375 1.5781174 -3.390625 2.4218674q2.8125 0.921875 4.28125 2.96875q1.46875 2.03125 1.46875 4.859375q0 3.921875 -2.765625 6.59375q-2.765625 2.65625 -7.296875 2.65625q-4.515625 0 -7.28125 -2.671875q-2.765625 -2.671875 -2.765625 -6.671875q0 -2.984375 1.5 -4.984375q1.515625 -2.015625 4.3125 -2.75zm-0.75 -6.3437424q0 2.15625 1.390625 3.53125q1.390625 1.375 3.625 1.375q2.15625 0 3.546875 -1.359375q1.390625 -1.359375 1.390625 -3.34375q0 -2.0625 -1.4375 -3.46875q-1.421875 -1.40625 -3.546875 -1.40625q-2.140625 0 -3.5625 1.375q-1.40625 1.375 -1.40625 3.296875zm-1.21875 14.093742q0 1.609375 0.765625 3.109375q0.765625 1.5 2.265625 2.328125q1.5 0.8125 3.21875 0.8125q2.6875 0 4.4375 -1.71875q1.75 -1.734375 1.75 -4.40625q0 -2.703125 -1.8125 -4.46875q-1.796875 -1.78125 -4.5 -1.78125q-2.640625 0 -4.390625 1.75q-1.734375 1.75 -1.734375 4.375z" fill-rule="nonzero"/><path fill="#000000" d="m107.61777 196.95999l0 -30.53125l13.53125 0q4.078125 0 6.203125 0.828125q2.125 0.8125 3.390625 2.90625q1.28125 2.078125 1.28125 4.59375q0 3.25 -2.109375 5.484375q-2.09375 2.21875 -6.5 2.828125q1.609375 0.765625 2.4375 1.515625q1.78125 1.625 3.359375 4.0625l5.3125 8.3125l-5.078125 0l-4.046875 -6.359375q-1.765625 -2.75 -2.921875 -4.203125q-1.140625 -1.453125 -2.046875 -2.03125q-0.90625 -0.59375 -1.84375 -0.8125q-0.6875 -0.15625 -2.25 -0.15625l-4.6875 0l0 13.5625l-4.03125 0zm4.03125 -17.0625l8.6875 0q2.765625 0 4.328125 -0.5625q1.5625 -0.578125 2.375 -1.828125q0.8125 -1.265625 0.8125 -2.75q0 -2.171875 -1.578125 -3.5625q-1.5625 -1.390625 -4.953125 -1.390625l-9.671875 0l0 10.09375zm41.367477 9.9375l3.875 0.484375q-0.921875 3.390625 -3.40625 5.265625q-2.46875 1.875 -6.328125 1.875q-4.84375 0 -7.6875 -2.984375q-2.84375 -3.0 -2.84375 -8.390625q0 -5.578125 2.875 -8.65625q2.875 -3.09375 7.453125 -3.09375q4.4375 0 7.25 3.03125q2.8125 3.015625 2.8125 8.5q0 0.328125 -0.015625 0.984375l-16.5 0q0.203125 3.65625 2.0625 5.59375q1.859375 1.9375 4.625 1.9375q2.0625 0 3.515625 -1.078125q1.453125 -1.09375 2.3125 -3.46875zm-12.3125 -6.0625l12.359375 0q-0.25 -2.78125 -1.421875 -4.1875q-1.796875 -2.15625 -4.640625 -2.15625q-2.578125 0 -4.34375 1.734375q-1.765625 1.71875 -1.953125 4.609375zm21.785873 13.1875l0 -19.203125l-3.3125 0l0 -2.921875l3.3125 0l0 -2.34375q0 -2.234375 0.40625 -3.3125q0.53125 -1.46875 1.890625 -2.375q1.375 -0.90625 3.828125 -0.90625q1.578125 0 3.5 0.375l-0.5625 3.28125q-1.171875 -0.21875 -2.203125 -0.21875q-1.703125 0 -2.421875 0.734375q-0.703125 0.734375 -0.703125 2.734375l0 2.03125l4.3125 0l0 2.921875l-4.3125 0l0 19.203125l-3.734375 0zm26.101273 -7.125l3.875 0.484375q-0.921875 3.390625 -3.40625 5.265625q-2.46875 1.875 -6.328125 1.875q-4.84375 0 -7.6875 -2.984375q-2.84375 -3.0 -2.84375 -8.390625q0 -5.578125 2.875 -8.65625q2.875 -3.09375 7.453125 -3.09375q4.4375 0 7.25 3.03125q2.8125 3.015625 2.8125 8.5q0 0.328125 -0.015625 0.984375l-16.5 0q0.203125 3.65625 2.0625 5.59375q1.859375 1.9375 4.625 1.9375q2.0625 0 3.515625 -1.078125q1.453125 -1.09375 2.3125 -3.46875zm-12.3125 -6.0625l12.359375 0q-0.25 -2.78125 -1.421875 -4.1875q-1.796875 -2.15625 -4.640625 -2.15625q-2.578125 0 -4.34375 1.734375q-1.765625 1.71875 -1.953125 4.609375zm20.848373 13.1875l0 -22.125l3.375 0l0 3.359375q1.296875 -2.359375 2.390625 -3.109375q1.09375 -0.75 2.40625 -0.75q1.890625 0 3.84375 1.21875l-1.28125 3.46875q-1.375 -0.8125 -2.75 -0.8125q-1.234375 0 -2.21875 0.75q-0.96875 0.734375 -1.390625 2.046875q-0.625 2.0 -0.625 4.375l0 11.578125l-3.75 0zm14.2048645 0l0 -22.125l3.375 0l0 3.359375q1.296875 -2.359375 2.390625 -3.109375q1.09375 -0.75 2.40625 -0.75q1.890625 0 3.84375 1.21875l-1.28125 3.46875q-1.375 -0.8125 -2.75 -0.8125q-1.234375 0 -2.21875 0.75q-0.96875 0.734375 -1.390625 2.046875q-0.625 2.0 -0.625 4.375l0 11.578125l-3.75 0zm28.68924 -2.734375q-2.09375 1.78125 -4.015625 2.515625q-1.921875 0.71875 -4.125 0.71875q-3.65625 0 -5.609375 -1.78125q-1.953125 -1.78125 -1.953125 -4.546875q0 -1.625 0.734375 -2.96875q0.734375 -1.34375 1.9375 -2.15625q1.203125 -0.8125 2.703125 -1.234375q1.09375 -0.28125 3.328125 -0.5625q4.53125 -0.53125 6.6875 -1.28125q0.015625 -0.78125 0.015625 -0.984375q0 -2.296875 -1.0625 -3.234375q-1.4375 -1.265625 -4.265625 -1.265625q-2.640625 0 -3.90625 0.9375q-1.265625 0.921875 -1.859375 3.265625l-3.671875 -0.5q0.5 -2.34375 1.640625 -3.796875q1.15625 -1.453125 3.3125 -2.234375q2.171875 -0.78125 5.015625 -0.78125q2.84375 0 4.609375 0.671875q1.765625 0.671875 2.59375 1.6875q0.84375 1.0 1.171875 2.546875q0.1875 0.953125 0.1875 3.453125l0 5.0q0 5.21875 0.234375 6.609375q0.25 1.390625 0.953125 2.65625l-3.90625 0q-0.59375 -1.171875 -0.75 -2.734375zm-0.3125 -8.359375q-2.046875 0.828125 -6.125 1.40625q-2.3125 0.328125 -3.28125 0.75q-0.953125 0.421875 -1.46875 1.21875q-0.515625 0.796875 -0.515625 1.78125q0 1.5 1.125 2.5q1.140625 1.0 3.328125 1.0q2.15625 0 3.84375 -0.9375q1.6875 -0.953125 2.484375 -2.609375q0.609375 -1.265625 0.609375 -3.75l0 -1.359375zm9.520248 11.09375l0 -30.53125l3.75 0l0 30.53125l-3.75 0zm8.101852 -9.171875l0 -3.765625l11.515625 0l0 3.765625l-11.515625 0zm39.28299 5.90625q2.8125 1.9375 5.1875 2.828125l-1.1875 2.8125q-3.296875 -1.1875 -6.5625 -3.75q-3.40625 1.890625 -7.5 1.890625q-4.15625 0 -7.53125 -2.0q-3.359375 -2.0 -5.1875 -5.609375q-1.828125 -3.625 -1.828125 -8.171875q0 -4.515625 1.828125 -8.21875q1.84375 -3.71875 5.21875 -5.65625q3.390625 -1.9375 7.578125 -1.9375q4.234375 0 7.625 2.015625q3.390625 2.0 5.171875 5.625q1.78125 3.609375 1.78125 8.15625q0 3.765625 -1.140625 6.78125q-1.140625 3.0 -3.453125 5.234375zm-8.90625 -5.171875q3.5 0.984375 5.78125 2.921875q3.5625 -3.25 3.5625 -9.765625q0 -3.71875 -1.265625 -6.484375q-1.265625 -2.765625 -3.6875 -4.296875q-2.421875 -1.53125 -5.453125 -1.53125q-4.515625 0 -7.5 3.09375q-2.96875 3.09375 -2.96875 9.234375q0 5.953125 2.9375 9.140625q2.953125 3.1875 7.53125 3.1875q2.171875 0 4.09375 -0.8125q-1.90625 -1.234375 -4.0 -1.75l0.96875 -2.9375zm32.960632 8.4375l0 -3.25q-2.59375 3.75 -7.015625 3.75q-1.96875 0 -3.671875 -0.75q-1.6875 -0.75 -2.515625 -1.875q-0.8125 -1.140625 -1.15625 -2.796875q-0.21875 -1.09375 -0.21875 -3.5l0 -13.703125l3.75 0l0 12.265625q0 2.9375 0.21875 3.96875q0.359375 1.46875 1.5 2.3125q1.15625 0.84375 2.828125 0.84375q1.6875 0 3.171875 -0.859375q1.484375 -0.859375 2.09375 -2.34375q0.609375 -1.5 0.609375 -4.328125l0 -11.859375l3.75 0l0 22.125l-3.34375 0zm23.660889 -2.734375q-2.09375 1.78125 -4.015625 2.515625q-1.921875 0.71875 -4.125 0.71875q-3.65625 0 -5.609375 -1.78125q-1.953125 -1.78125 -1.953125 -4.546875q0 -1.625 0.734375 -2.96875q0.734375 -1.34375 1.9375 -2.15625q1.203125 -0.8125 2.703125 -1.234375q1.09375 -0.28125 3.328125 -0.5625q4.53125 -0.53125 6.6875 -1.28125q0.015625 -0.78125 0.015625 -0.984375q0 -2.296875 -1.0625 -3.234375q-1.4375 -1.265625 -4.265625 -1.265625q-2.640625 0 -3.90625 0.9375q-1.265625 0.921875 -1.859375 3.265625l-3.671875 -0.5q0.5 -2.34375 1.640625 -3.796875q1.15625 -1.453125 3.3125 -2.234375q2.171875 -0.78125 5.015625 -0.78125q2.84375 0 4.609375 0.671875q1.765625 0.671875 2.59375 1.6875q0.84375 1.0 1.171875 2.546875q0.1875 0.953125 0.1875 3.453125l0 5.0q0 5.21875 0.234375 6.609375q0.25 1.390625 0.953125 2.65625l-3.90625 0q-0.59375 -1.171875 -0.75 -2.734375zm-0.3125 -8.359375q-2.046875 0.828125 -6.125 1.40625q-2.3125 0.328125 -3.28125 0.75q-0.953125 0.421875 -1.46875 1.21875q-0.515625 0.796875 -0.515625 1.78125q0 1.5 1.125 2.5q1.140625 1.0 3.328125 1.0q2.15625 0 3.84375 -0.9375q1.6875 -0.953125 2.484375 -2.609375q0.609375 -1.265625 0.609375 -3.75l0 -1.359375zm9.520264 11.09375l0 -30.53125l3.75 0l0 30.53125l-3.75 0zm9.570587 -26.21875l0 -4.3125l3.75 0l0 4.3125l-3.75 0zm0 26.21875l0 -22.125l3.75 0l0 22.125l-3.75 0zm17.648743 -3.359375l0.53125 3.3125q-1.578125 0.34375 -2.828125 0.34375q-2.03125 0 -3.15625 -0.640625q-1.125 -0.65625 -1.59375 -1.703125q-0.453125 -1.0625 -0.453125 -4.4375l0 -12.71875l-2.75 0l0 -2.921875l2.75 0l0 -5.46875l3.734375 -2.25l0 7.71875l3.765625 0l0 2.921875l-3.765625 0l0 12.9375q0 1.59375 0.1875 2.0625q0.203125 0.453125 0.640625 0.734375q0.453125 0.265625 1.296875 0.265625q0.625 0 1.640625 -0.15625zm3.4918823 11.875l-0.40625 -3.515625q1.21875 0.328125 2.140625 0.328125q1.25 0 2.0 -0.421875q0.75 -0.40625 1.234375 -1.15625q0.34375 -0.5625 1.140625 -2.796875q0.109375 -0.3125 0.328125 -0.90625l-8.390625 -22.171875l4.046875 0l4.59375 12.8125q0.90625 2.4375 1.609375 5.125q0.640625 -2.578125 1.53125 -5.046875l4.734375 -12.890625l3.75 0l-8.421875 22.5q-1.34375 3.640625 -2.09375 5.015625q-1.0 1.859375 -2.296875 2.71875q-1.28125 0.875 -3.078125 0.875q-1.078125 0 -2.421875 -0.46875zm33.835632 -8.515625l0 -30.53125l11.515625 0q3.03125 0 4.640625 0.28125q2.25 0.375 3.765625 1.4375q1.53125 1.046875 2.453125 2.953125q0.921875 1.890625 0.921875 4.15625q0 3.890625 -2.484375 6.59375q-2.46875 2.703125 -8.953125 2.703125l-7.828125 0l0 12.40625l-4.03125 0zm4.03125 -16.015625l7.890625 0q3.921875 0 5.5625 -1.453125q1.65625 -1.46875 1.65625 -4.109375q0 -1.921875 -0.96875 -3.28125q-0.96875 -1.359375 -2.5625 -1.796875q-1.015625 -0.28125 -3.765625 -0.28125l-7.8125 0l0 10.921875zm23.888885 16.015625l0 -22.125l3.375 0l0 3.359375q1.296875 -2.359375 2.390625 -3.109375q1.09375 -0.75 2.40625 -0.75q1.890625 0 3.84375 1.21875l-1.28125 3.46875q-1.375 -0.8125 -2.75 -0.8125q-1.234375 0 -2.21875 0.75q-0.96875 0.734375 -1.390625 2.046875q-0.625 2.0 -0.625 4.375l0 11.578125l-3.75 0zm12.8611145 -11.0625q0 -6.140625 3.40625 -9.09375q2.859375 -2.46875 6.953125 -2.46875q4.5625 0 7.453125 3.0q2.90625 2.984375 2.90625 8.25q0 4.265625 -1.28125 6.71875q-1.28125 2.453125 -3.734375 3.8125q-2.4375 1.34375 -5.34375 1.34375q-4.640625 0 -7.5 -2.96875q-2.859375 -2.984375 -2.859375 -8.59375zm3.84375 0q0 4.25 1.859375 6.375q1.859375 2.109375 4.65625 2.109375q2.796875 0 4.640625 -2.125q1.859375 -2.125 1.859375 -6.484375q0 -4.09375 -1.859375 -6.203125q-1.859375 -2.125 -4.640625 -2.125q-2.796875 0 -4.65625 2.109375q-1.859375 2.09375 -1.859375 6.34375zm19.770264 4.453125l3.703125 -0.578125q0.3125 2.234375 1.734375 3.421875q1.4375 1.1875 4.0 1.1875q2.578125 0 3.828125 -1.046875q1.25 -1.0625 1.25 -2.484375q0 -1.265625 -1.109375 -2.0q-0.765625 -0.5 -3.828125 -1.265625q-4.125 -1.046875 -5.71875 -1.796875q-1.59375 -0.765625 -2.421875 -2.109375q-0.8125 -1.34375 -0.8125 -2.96875q0 -1.46875 0.671875 -2.734375q0.6875 -1.265625 1.84375 -2.09375q0.875 -0.640625 2.390625 -1.09375q1.515625 -0.453125 3.234375 -0.453125q2.609375 0 4.578125 0.75q1.96875 0.75 2.90625 2.03125q0.9375 1.28125 1.28125 3.4375l-3.65625 0.5q-0.25 -1.71875 -1.453125 -2.671875q-1.203125 -0.953125 -3.375 -0.953125q-2.59375 0 -3.703125 0.859375q-1.09375 0.84375 -1.09375 1.984375q0 0.734375 0.453125 1.3125q0.46875 0.609375 1.4375 1.0q0.5625 0.21875 3.3125 0.96875q3.984375 1.0625 5.546875 1.734375q1.578125 0.671875 2.46875 1.96875q0.90625 1.28125 0.90625 3.203125q0 1.875 -1.09375 3.53125q-1.09375 1.65625 -3.15625 2.5625q-2.0625 0.90625 -4.671875 0.90625q-4.3125 0 -6.578125 -1.78125q-2.25 -1.796875 -2.875 -5.328125zm22.828125 15.09375l0 -30.609375l3.421875 0l0 2.875q1.203125 -1.6875 2.71875 -2.53125q1.5312805 -0.84375 3.6875305 -0.84375q2.828125 0 5.0 1.46875q2.171875 1.453125 3.265625 4.109375q1.109375 2.65625 1.109375 5.828125q0 3.390625 -1.21875 6.109375q-1.21875 2.71875 -3.546875 4.171875q-2.3125 1.4375 -4.875 1.4375q-1.875 0 -3.3750305 -0.78125q-1.484375 -0.796875 -2.4375 -2.015625l0 10.78125l-3.75 0zm3.390625 -19.421875q0 4.265625 1.734375 6.3125q1.7344055 2.046875 4.1875305 2.046875q2.5 0 4.28125 -2.109375q1.78125 -2.125 1.78125 -6.5625q0 -4.21875 -1.75 -6.328125q-1.734375 -2.109375 -4.15625 -2.109375q-2.390625 0 -4.2344055 2.25q-1.84375 2.234375 -1.84375 6.5zm35.47342 3.8125l3.875 0.484375q-0.921875 3.390625 -3.40625 5.265625q-2.46875 1.875 -6.328125 1.875q-4.84375 0 -7.6875 -2.984375q-2.84375 -3.0 -2.84375 -8.390625q0 -5.578125 2.875 -8.65625q2.875 -3.09375 7.453125 -3.09375q4.4375 0 7.25 3.03125q2.8125 3.015625 2.8125 8.5q0 0.328125 -0.015625 0.984375l-16.5 0q0.203125 3.65625 2.0625 5.59375q1.859375 1.9375 4.625 1.9375q2.0625 0 3.515625 -1.078125q1.453125 -1.09375 2.3125 -3.46875zm-12.3125 -6.0625l12.359375 0q-0.25 -2.78125 -1.421875 -4.1875q-1.796875 -2.15625 -4.640625 -2.15625q-2.578125 0 -4.34375 1.734375q-1.765625 1.71875 -1.953125 4.609375zm35.332764 5.078125l3.6875 0.484375q-0.609375 3.8125 -3.109375 5.96875q-2.484375 2.15625 -6.109375 2.15625q-4.53125 0 -7.296875 -2.96875q-2.75 -2.96875 -2.75 -8.5q0 -3.59375 1.1875 -6.28125q1.1875 -2.6875 3.609375 -4.03125q2.421875 -1.34375 5.28125 -1.34375q3.59375 0 5.890625 1.828125q2.296875 1.828125 2.9375 5.171875l-3.640625 0.5625q-0.53125 -2.21875 -1.859375 -3.34375q-1.3125 -1.125 -3.1875 -1.125q-2.828125 0 -4.609375 2.03125q-1.765625 2.03125 -1.765625 6.421875q0 4.453125 1.703125 6.484375q1.71875 2.015625 4.46875 2.015625q2.203125 0 3.671875 -1.359375q1.484375 -1.359375 1.890625 -4.171875zm15.078125 4.75l0.53125 3.3125q-1.578125 0.34375 -2.828125 0.34375q-2.03125 0 -3.15625 -0.640625q-1.125 -0.65625 -1.59375 -1.703125q-0.453125 -1.0625 -0.453125 -4.4375l0 -12.71875l-2.75 0l0 -2.921875l2.75 0l0 -5.46875l3.734375 -2.25l0 7.71875l3.765625 0l0 2.921875l-3.765625 0l0 12.9375q0 1.59375 0.1875 2.0625q0.203125 0.453125 0.640625 0.734375q0.453125 0.265625 1.296875 0.265625q0.625 0 1.640625 -0.15625zm2.1636963 -3.25l3.703125 -0.578125q0.3125 2.234375 1.734375 3.421875q1.4375 1.1875 4.0 1.1875q2.578125 0 3.828125 -1.046875q1.25 -1.0625 1.25 -2.484375q0 -1.265625 -1.109375 -2.0q-0.765625 -0.5 -3.828125 -1.265625q-4.125 -1.046875 -5.71875 -1.796875q-1.59375 -0.765625 -2.421875 -2.109375q-0.8125 -1.34375 -0.8125 -2.96875q0 -1.46875 0.671875 -2.734375q0.6875 -1.265625 1.84375 -2.09375q0.875 -0.640625 2.390625 -1.09375q1.515625 -0.453125 3.234375 -0.453125q2.609375 0 4.578125 0.75q1.96875 0.75 2.90625 2.03125q0.9375 1.28125 1.28125 3.4375l-3.65625 0.5q-0.25 -1.71875 -1.453125 -2.671875q-1.203125 -0.953125 -3.375 -0.953125q-2.59375 0 -3.703125 0.859375q-1.09375 0.84375 -1.09375 1.984375q0 0.734375 0.453125 1.3125q0.46875 0.609375 1.4375 1.0q0.5625 0.21875 3.3125 0.96875q3.984375 1.0625 5.546875 1.734375q1.578125 0.671875 2.46875 1.96875q0.90625 1.28125 0.90625 3.203125q0 1.875 -1.09375 3.53125q-1.09375 1.65625 -3.15625 2.5625q-2.0625 0.90625 -4.671875 0.90625q-4.3125 0 -6.578125 -1.78125q-2.25 -1.796875 -2.875 -5.328125zm35.241943 6.609375l0 -30.53125l22.078125 0l0 3.59375l-18.03125 0l0 9.359375l16.890625 0l0 3.578125l-16.890625 0l0 10.390625l18.734375 0l0 3.609375l-22.78125 0zm34.02954 0l-8.40625 -22.125l3.953125 0l4.75 13.25q0.765625 2.140625 1.421875 4.453125q0.484375 -1.75 1.390625 -4.203125l4.90625 -13.5l3.859375 0l-8.375 22.125l-3.5 0zm30.328125 -7.125l3.875 0.484375q-0.921875 3.390625 -3.40625 5.265625q-2.46875 1.875 -6.328125 1.875q-4.84375 0 -7.6875 -2.984375q-2.84375 -3.0 -2.84375 -8.390625q0 -5.578125 2.875 -8.65625q2.875 -3.09375 7.453125 -3.09375q4.4375 0 7.25 3.03125q2.8125 3.015625 2.8125 8.5q0 0.328125 -0.015625 0.984375l-16.5 0q0.203125 3.65625 2.0625 5.59375q1.859375 1.9375 4.625 1.9375q2.0625 0 3.515625 -1.078125q1.453125 -1.09375 2.3125 -3.46875zm-12.3125 -6.0625l12.359375 0q-0.25 -2.78125 -1.421875 -4.1875q-1.796875 -2.15625 -4.640625 -2.15625q-2.578125 0 -4.34375 1.734375q-1.765625 1.71875 -1.953125 4.609375zm20.848389 13.1875l0 -22.125l3.375 0l0 3.359375q1.296875 -2.359375 2.390625 -3.109375q1.09375 -0.75 2.40625 -0.75q1.890625 0 3.84375 1.21875l-1.28125 3.46875q-1.375 -0.8125 -2.75 -0.8125q-1.234375 0 -2.21875 0.75q-0.96875 0.734375 -1.390625 2.046875q-0.625 2.0 -0.625 4.375l0 11.578125l-3.75 0zm14.079834 8.515625l-0.40625 -3.515625q1.21875 0.328125 2.140625 0.328125q1.25 0 2.0 -0.421875q0.75 -0.40625 1.234375 -1.15625q0.34375 -0.5625 1.140625 -2.796875q0.109375 -0.3125 0.328125 -0.90625l-8.390625 -22.171875l4.046875 0l4.59375 12.8125q0.90625 2.4375 1.609375 5.125q0.640625 -2.578125 1.53125 -5.046875l4.734375 -12.890625l3.75 0l-8.421875 22.5q-1.34375 3.640625 -2.09375 5.015625q-1.0 1.859375 -2.296875 2.71875q-1.28125 0.875 -3.078125 0.875q-1.078125 0 -2.421875 -0.46875zm33.71057 -8.515625l0 -30.53125l6.078125 0l7.21875 21.609375q1.0 3.03125 1.46875 4.53125q0.515625 -1.671875 1.625 -4.90625l7.3125 -21.234375l5.421875 0l0 30.53125l-3.890625 0l0 -25.5625l-8.875 25.5625l-3.640625 0l-8.828125 -26.0l0 26.0l-3.890625 0zm33.78308 -11.0625q0 -6.140625 3.40625 -9.09375q2.859375 -2.46875 6.953125 -2.46875q4.5625 0 7.453125 3.0q2.90625 2.984375 2.90625 8.25q0 4.265625 -1.28125 6.71875q-1.28125 2.453125 -3.734375 3.8125q-2.4375 1.34375 -5.34375 1.34375q-4.640625 0 -7.5 -2.96875q-2.859375 -2.984375 -2.859375 -8.59375zm3.84375 0q0 4.25 1.859375 6.375q1.859375 2.109375 4.65625 2.109375q2.796875 0 4.640625 -2.125q1.859375 -2.125 1.859375 -6.484375q0 -4.09375 -1.859375 -6.203125q-1.859375 -2.125 -4.640625 -2.125q-2.796875 0 -4.65625 2.109375q-1.859375 2.09375 -1.859375 6.34375zm21.270264 11.0625l0 -22.125l3.375 0l0 3.15625q2.4375 -3.65625 7.03125 -3.65625q2.0 0 3.671875 0.71875q1.6875 0.71875 2.515625 1.890625q0.84375 1.171875 1.171875 2.765625q0.203125 1.046875 0.203125 3.65625l0 13.59375l-3.75 0l0 -13.453125q0 -2.296875 -0.4375 -3.421875q-0.4375 -1.140625 -1.546875 -1.8125q-1.109375 -0.6875 -2.609375 -0.6875q-2.390625 0 -4.140625 1.53125q-1.734375 1.515625 -1.734375 5.765625l0 12.078125l-3.75 0zm31.910889 -3.359375l0.53125 3.3125q-1.578125 0.34375 -2.828125 0.34375q-2.03125 0 -3.15625 -0.640625q-1.125 -0.65625 -1.59375 -1.703125q-0.453125 -1.0625 -0.453125 -4.4375l0 -12.71875l-2.75 0l0 -2.921875l2.75 0l0 -5.46875l3.734375 -2.25l0 7.71875l3.765625 0l0 2.921875l-3.765625 0l0 12.9375q0 1.59375 0.1875 2.0625q0.203125 0.453125 0.640625 0.734375q0.453125 0.265625 1.296875 0.265625q0.625 0 1.640625 -0.15625zm3.6636963 3.359375l0 -30.53125l3.75 0l0 10.953125q2.625 -3.046875 6.625 -3.046875q2.453125 0 4.265625 0.96875q1.8125 0.96875 2.59375 2.6875q0.78125 1.703125 0.78125 4.953125l0 14.015625l-3.75 0l0 -14.015625q0 -2.8125 -1.21875 -4.09375q-1.21875 -1.28125 -3.453125 -1.28125q-1.65625 0 -3.125 0.875q-1.46875 0.859375 -2.09375 2.34375q-0.625 1.46875 -0.625 4.078125l0 12.09375l-3.75 0z" fill-rule="nonzero"/><g id="a11y-dsl_b01" role="img" aria-label="Without shared leads.&#xa;Without waiting months for SEO.&#xa;Without running ads.&#xa;Or get your money back and keep the site.&#xa;" tabindex="0"><path fill="#000000" fill-opacity="0.0" d="m106.666664 304.0l0 200.0l746.6771 0l0 -200.0z" fill-rule="nonzero"/></g><path fill="#000000" fill-opacity="0.0" d="m106.666664 304.0l746.6771 0l0 200.0l-746.6771 0z" fill-rule="evenodd"/><path fill="#000000" d="m344.09808 341.16l-5.5625 -21.0l2.84375 0l3.203125 13.765625q0.515625 2.171875 0.890625 4.296875q0.796875 -3.359375 0.9375 -3.875l4.0 -14.1875l3.34375 0l3.015625 10.625q1.125 3.953125 1.625 7.4375q0.40625 -1.984375 1.046875 -4.5625l3.296875 -13.5l2.796875 0l-5.765625 21.0l-2.671875 0l-4.421875 -16.0q-0.5625 -2.0 -0.671875 -2.453125q-0.328125 1.4375 -0.609375 2.453125l-4.453125 16.0l-2.84375 0zm23.712555 -18.03125l0 -2.96875l2.578125 0l0 2.96875l-2.578125 0zm0 18.03125l0 -15.203125l2.578125 0l0 15.203125l-2.578125 0zm12.125122 -2.3125l0.375 2.28125q-1.09375 0.234375 -1.953125 0.234375q-1.40625 0 -2.1875 -0.4375q-0.765625 -0.453125 -1.078125 -1.171875q-0.3125 -0.734375 -0.3125 -3.046875l0 -8.75l-1.890625 0l0 -2.0l1.890625 0l0 -3.765625l2.5625 -1.546875l0 5.3125l2.59375 0l0 2.0l-2.59375 0l0 8.890625q0 1.109375 0.125 1.421875q0.140625 0.3125 0.453125 0.5q0.3125 0.1875 0.890625 0.1875q0.421875 0 1.125 -0.109375zm2.5233154 2.3125l0 -21.0l2.578125 0l0 7.53125q1.796875 -2.078125 4.546875 -2.078125q1.6875 0 2.9375 0.671875q1.25 0.65625 1.78125 1.828125q0.546875 1.171875 0.546875 3.40625l0 9.640625l-2.578125 0l0 -9.640625q0 -1.9375 -0.84375 -2.8125q-0.84375 -0.875 -2.375 -0.875q-1.140625 0 -2.15625 0.59375q-1.0 0.59375 -1.4375 1.609375q-0.421875 1.015625 -0.421875 2.8125l0 8.3125l-2.578125 0zm15.342163 -7.609375q0 -4.21875 2.359375 -6.25q1.953125 -1.6875 4.78125 -1.6875q3.125 0 5.109375 2.0625q2.0 2.046875 2.0 5.671875q0 2.921875 -0.875 4.609375q-0.875 1.6875 -2.5625 2.625q-1.6875 0.921875 -3.671875 0.921875q-3.203125 0 -5.171875 -2.046875q-1.96875 -2.046875 -1.96875 -5.90625zm2.65625 0q0 2.921875 1.265625 4.375q1.28125 1.453125 3.21875 1.453125q1.921875 0 3.1875 -1.453125q1.28125 -1.46875 1.28125 -4.453125q0 -2.828125 -1.28125 -4.28125q-1.28125 -1.453125 -3.1875 -1.453125q-1.9375 0 -3.21875 1.453125q-1.265625 1.4375 -1.265625 4.359375zm24.592163 7.609375l0 -2.234375q-1.78125 2.578125 -4.828125 2.578125q-1.34375 0 -2.515625 -0.515625q-1.171875 -0.515625 -1.734375 -1.296875q-0.5625 -0.78125 -0.796875 -1.90625q-0.15625 -0.765625 -0.15625 -2.40625l0 -9.421875l2.578125 0l0 8.421875q0 2.03125 0.15625 2.734375q0.25 1.015625 1.03125 1.59375q0.796875 0.578125 1.953125 0.578125q1.15625 0 2.171875 -0.59375q1.015625 -0.59375 1.4375 -1.609375q0.421875 -1.03125 0.421875 -2.984375l0 -8.140625l2.578125 0l0 15.203125l-2.296875 0zm11.967163 -2.3125l0.375 2.28125q-1.09375 0.234375 -1.953125 0.234375q-1.40625 0 -2.1875 -0.4375q-0.765625 -0.453125 -1.078125 -1.171875q-0.3125 -0.734375 -0.3125 -3.046875l0 -8.75l-1.890625 0l0 -2.0l1.890625 0l0 -3.765625l2.5625 -1.546875l0 5.3125l2.59375 0l0 2.0l-2.59375 0l0 8.890625q0 1.109375 0.125 1.421875q0.140625 0.3125 0.453125 0.5q0.3125 0.1875 0.890625 0.1875q0.421875 0 1.125 -0.109375zm9.64035 -2.234375l2.546875 -0.390625q0.21875 1.53125 1.1875 2.34375q0.984375 0.8125 2.75 0.8125q1.78125 0 2.640625 -0.71875q0.859375 -0.71875 0.859375 -1.703125q0 -0.859375 -0.765625 -1.375q-0.53125 -0.34375 -2.640625 -0.859375q-2.828125 -0.71875 -3.921875 -1.234375q-1.09375 -0.53125 -1.671875 -1.453125q-0.5625 -0.921875 -0.5625 -2.046875q0 -1.015625 0.46875 -1.875q0.46875 -0.875 1.265625 -1.453125q0.609375 -0.4375 1.640625 -0.734375q1.046875 -0.3125 2.234375 -0.3125q1.78125 0 3.125 0.515625q1.359375 0.515625 2.0 1.390625q0.65625 0.875 0.890625 2.359375l-2.515625 0.34375q-0.171875 -1.171875 -1.0 -1.828125q-0.8125 -0.671875 -2.3125 -0.671875q-1.78125 0 -2.546875 0.59375q-0.75 0.578125 -0.75 1.375q0 0.5 0.3125 0.90625q0.3125 0.40625 0.984375 0.6875q0.390625 0.140625 2.28125 0.65625q2.734375 0.734375 3.8125 1.203125q1.078125 0.453125 1.6875 1.34375q0.625 0.890625 0.625 2.203125q0 1.296875 -0.75 2.4375q-0.75 1.125 -2.171875 1.75q-1.421875 0.625 -3.203125 0.625q-2.96875 0 -4.53125 -1.234375q-1.546875 -1.234375 -1.96875 -3.65625zm15.6953125 4.546875l0 -21.0l2.578125 0l0 7.53125q1.796875 -2.078125 4.546875 -2.078125q1.6875 0 2.9375 0.671875q1.25 0.65625 1.78125 1.828125q0.546875 1.171875 0.546875 3.40625l0 9.640625l-2.578125 0l0 -9.640625q0 -1.9375 -0.84375 -2.8125q-0.84375 -0.875 -2.375 -0.875q-1.140625 0 -2.15625 0.59375q-1.0 0.59375 -1.4375 1.609375q-0.421875 1.015625 -0.421875 2.8125l0 8.3125l-2.578125 0zm26.232788 -1.875q-1.4375 1.21875 -2.765625 1.71875q-1.3125 0.5 -2.828125 0.5q-2.515625 0 -3.859375 -1.21875q-1.34375 -1.234375 -1.34375 -3.140625q0 -1.109375 0.5 -2.03125q0.515625 -0.921875 1.328125 -1.484375q0.828125 -0.5625 1.859375 -0.84375q0.765625 -0.203125 2.296875 -0.390625q3.125 -0.375 4.59375 -0.890625q0.015625 -0.53125 0.015625 -0.671875q0 -1.578125 -0.734375 -2.21875q-0.984375 -0.875 -2.9375 -0.875q-1.8125 0 -2.6875 0.640625q-0.859375 0.640625 -1.265625 2.25l-2.53125 -0.34375q0.34375 -1.609375 1.125 -2.609375q0.796875 -1.0 2.28125 -1.53125q1.5 -0.53125 3.453125 -0.53125q1.953125 0 3.171875 0.453125q1.21875 0.453125 1.78125 1.15625q0.578125 0.6875 0.8125 1.75q0.125 0.65625 0.125 2.375l0 3.4375q0 3.59375 0.15625 4.546875q0.171875 0.953125 0.65625 1.828125l-2.6875 0q-0.40625 -0.796875 -0.515625 -1.875zm-0.21875 -5.75q-1.40625 0.5625 -4.203125 0.96875q-1.59375 0.21875 -2.25 0.515625q-0.65625 0.28125 -1.015625 0.84375q-0.359375 0.546875 -0.359375 1.21875q0 1.03125 0.78125 1.71875q0.78125 0.6875 2.28125 0.6875q1.484375 0 2.640625 -0.65625q1.171875 -0.65625 1.71875 -1.78125q0.40625 -0.875 0.40625 -2.578125l0 -0.9375zm6.576538 7.625l0 -15.203125l2.3125 0l0 2.296875q0.890625 -1.609375 1.640625 -2.125q0.75 -0.515625 1.65625 -0.515625q1.3125 0 2.65625 0.828125l-0.890625 2.390625q-0.953125 -0.5625 -1.890625 -0.5625q-0.84375 0 -1.515625 0.515625q-0.671875 0.5 -0.96875 1.40625q-0.421875 1.375 -0.421875 3.0l0 7.96875l-2.578125 0zm20.20404 -4.890625l2.65625 0.328125q-0.625 2.328125 -2.328125 3.625q-1.703125 1.28125 -4.3594055 1.28125q-3.328125 0 -5.28125 -2.046875q-1.953125 -2.0625 -1.953125 -5.765625q0 -3.84375 1.96875 -5.953125q1.984375 -2.125 5.125 -2.125q3.0625305 0 4.9844055 2.078125q1.9375 2.0625 1.9375 5.84375q0 0.21875 -0.015625 0.671875l-11.3437805 0q0.140625 2.515625 1.421875 3.84375q1.28125 1.328125 3.171875 1.328125q1.4219055 0 2.4219055 -0.734375q1.0 -0.75 1.59375 -2.375zm-8.4687805 -4.171875l8.5000305 0q-0.171875 -1.921875 -0.96875 -2.875q-1.234375 -1.5 -3.2031555 -1.5q-1.765625 0 -2.984375 1.1875q-1.203125 1.1875 -1.34375 3.1875zm24.232819 9.0625l0 -1.921875q-1.4375 2.265625 -4.25 2.265625q-1.8125 0 -3.34375 -1.0q-1.53125 -1.0 -2.375 -2.796875q-0.828125 -1.796875 -0.828125 -4.140625q0 -2.265625 0.75 -4.125q0.765625 -1.859375 2.28125 -2.84375q1.53125 -0.984375 3.40625 -0.984375q1.375 0 2.4375 0.578125q1.078125 0.578125 1.75 1.5l0 -7.53125l2.5625 0l0 21.0l-2.390625 0zm-8.140625 -7.59375q0 2.921875 1.21875 4.375q1.234375 1.4375 2.921875 1.4375q1.6875 0 2.859375 -1.375q1.1875 -1.390625 1.1875 -4.21875q0 -3.125 -1.203125 -4.578125q-1.203125 -1.46875 -2.96875 -1.46875q-1.71875 0 -2.875 1.40625q-1.140625 1.40625 -1.140625 4.421875zm22.677917 7.59375l0 -21.0l2.578125 0l0 21.0l-2.578125 0zm16.984558 -4.890625l2.65625 0.328125q-0.625 2.328125 -2.328125 3.625q-1.703125 1.28125 -4.359375 1.28125q-3.328125 0 -5.28125 -2.046875q-1.953125 -2.0625 -1.953125 -5.765625q0 -3.84375 1.96875 -5.953125q1.984375 -2.125 5.125 -2.125q3.0625 0 4.984375 2.078125q1.9375 2.0625 1.9375 5.84375q0 0.21875 -0.015625 0.671875l-11.34375 0q0.140625 2.515625 1.421875 3.84375q1.28125 1.328125 3.171875 1.328125q1.421875 0 2.421875 -0.734375q1.0 -0.75 1.59375 -2.375zm-8.46875 -4.171875l8.5 0q-0.171875 -1.921875 -0.96875 -2.875q-1.234375 -1.5 -3.203125 -1.5q-1.765625 0 -2.984375 1.1875q-1.203125 1.1875 -1.34375 3.1875zm24.295288 7.1875q-1.4375 1.21875 -2.765625 1.71875q-1.3125 0.5 -2.828125 0.5q-2.515625 0 -3.859375 -1.21875q-1.34375 -1.234375 -1.34375 -3.140625q0 -1.109375 0.5 -2.03125q0.515625 -0.921875 1.328125 -1.484375q0.828125 -0.5625 1.859375 -0.84375q0.765625 -0.203125 2.296875 -0.390625q3.125 -0.375 4.59375 -0.890625q0.015625 -0.53125 0.015625 -0.671875q0 -1.578125 -0.734375 -2.21875q-0.984375 -0.875 -2.9375 -0.875q-1.8125 0 -2.6875 0.640625q-0.859375 0.640625 -1.265625 2.25l-2.53125 -0.34375q0.34375 -1.609375 1.125 -2.609375q0.796875 -1.0 2.28125 -1.53125q1.5 -0.53125 3.453125 -0.53125q1.953125 0 3.171875 0.453125q1.21875 0.453125 1.78125 1.15625q0.578125 0.6875 0.8125 1.75q0.125 0.65625 0.125 2.375l0 3.4375q0 3.59375 0.15625 4.546875q0.171875 0.953125 0.65625 1.828125l-2.6875 0q-0.40625 -0.796875 -0.515625 -1.875zm-0.21875 -5.75q-1.40625 0.5625 -4.203125 0.96875q-1.59375 0.21875 -2.25 0.515625q-0.65625 0.28125 -1.015625 0.84375q-0.359375 0.546875 -0.359375 1.21875q0 1.03125 0.78125 1.71875q0.78125 0.6875 2.28125 0.6875q1.484375 0 2.640625 -0.65625q1.171875 -0.65625 1.71875 -1.78125q0.40625 -0.875 0.40625 -2.578125l0 -0.9375zm16.467163 7.625l0 -1.921875q-1.4375 2.265625 -4.25 2.265625q-1.8125 0 -3.34375 -1.0q-1.53125 -1.0 -2.375 -2.796875q-0.828125 -1.796875 -0.828125 -4.140625q0 -2.265625 0.75 -4.125q0.765625 -1.859375 2.28125 -2.84375q1.53125 -0.984375 3.40625 -0.984375q1.375 0 2.4375 0.578125q1.078125 0.578125 1.75 1.5l0 -7.53125l2.5625 0l0 21.0l-2.390625 0zm-8.140625 -7.59375q0 2.921875 1.21875 4.375q1.234375 1.4375 2.921875 1.4375q1.6875 0 2.859375 -1.375q1.1875 -1.390625 1.1875 -4.21875q0 -3.125 -1.203125 -4.578125q-1.203125 -1.46875 -2.96875 -1.46875q-1.71875 0 -2.875 1.40625q-1.140625 1.40625 -1.140625 4.421875zm13.560913 3.046875l2.546875 -0.390625q0.21875 1.53125 1.1875 2.34375q0.984375 0.8125 2.75 0.8125q1.78125 0 2.640625 -0.71875q0.859375 -0.71875 0.859375 -1.703125q0 -0.859375 -0.765625 -1.375q-0.53125 -0.34375 -2.640625 -0.859375q-2.828125 -0.71875 -3.921875 -1.234375q-1.09375 -0.53125 -1.671875 -1.453125q-0.5625 -0.921875 -0.5625 -2.046875q0 -1.015625 0.46875 -1.875q0.46875 -0.875 1.265625 -1.453125q0.609375 -0.4375 1.640625 -0.734375q1.046875 -0.3125 2.234375 -0.3125q1.78125 0 3.125 0.515625q1.359375 0.515625 2.0 1.390625q0.65625 0.875 0.890625 2.359375l-2.515625 0.34375q-0.171875 -1.171875 -1.0 -1.828125q-0.8125 -0.671875 -2.3125 -0.671875q-1.78125 0 -2.546875 0.59375q-0.75 0.578125 -0.75 1.375q0 0.5 0.3125 0.90625q0.3125 0.40625 0.984375 0.6875q0.390625 0.140625 2.28125 0.65625q2.734375 0.734375 3.8125 1.203125q1.078125 0.453125 1.6875 1.34375q0.625 0.890625 0.625 2.203125q0 1.296875 -0.75 2.4375q-0.75 1.125 -2.171875 1.75q-1.421875 0.625 -3.203125 0.625q-2.96875 0 -4.53125 -1.234375q-1.546875 -1.234375 -1.96875 -3.65625zm16.414062 4.546875l0 -2.9375l2.9375 0l0 2.9375l-2.9375 0z" fill-rule="nonzero"/><path fill="#000000" d="m274.0284 376.16l-5.5625 -21.0l2.84375 0l3.203125 13.765625q0.515625 2.171875 0.890625 4.296875q0.796875 -3.359375 0.9375 -3.875l4.0 -14.1875l3.34375 0l3.015625 10.625q1.125 3.953125 1.625 7.4375q0.40625 -1.984375 1.046875 -4.5625l3.296875 -13.5l2.796875 0l-5.765625 21.0l-2.671875 0l-4.421875 -16.0q-0.5625 -2.0 -0.671875 -2.453125q-0.328125 1.4375 -0.609375 2.453125l-4.453125 16.0l-2.84375 0zm23.712555 -18.03125l0 -2.96875l2.578125 0l0 2.96875l-2.578125 0zm0 18.03125l0 -15.203125l2.578125 0l0 15.203125l-2.578125 0zm12.125153 -2.3125l0.375 2.28125q-1.09375 0.234375 -1.953125 0.234375q-1.40625 0 -2.1875 -0.4375q-0.765625 -0.453125 -1.078125 -1.171875q-0.3125 -0.734375 -0.3125 -3.046875l0 -8.75l-1.890625 0l0 -2.0l1.890625 0l0 -3.765625l2.5625 -1.546875l0 5.3125l2.59375 0l0 2.0l-2.59375 0l0 8.890625q0 1.109375 0.125 1.421875q0.140625 0.3125 0.453125 0.5q0.3125 0.1875 0.890625 0.1875q0.421875 0 1.125 -0.109375zm2.523285 2.3125l0 -21.0l2.578125 0l0 7.53125q1.796875 -2.078125 4.546875 -2.078125q1.6875 0 2.9375 0.671875q1.25 0.65625 1.78125 1.828125q0.546875 1.171875 0.546875 3.40625l0 9.640625l-2.578125 0l0 -9.640625q0 -1.9375 -0.84375 -2.8125q-0.84375 -0.875 -2.375 -0.875q-1.140625 0 -2.15625 0.59375q-1.0 0.59375 -1.4375 1.609375q-0.421875 1.015625 -0.421875 2.8125l0 8.3125l-2.578125 0zm15.342163 -7.609375q0 -4.21875 2.359375 -6.25q1.953125 -1.6875 4.78125 -1.6875q3.125 0 5.109375 2.0625q2.0 2.046875 2.0 5.671875q0 2.921875 -0.875 4.609375q-0.875 1.6875 -2.5625 2.625q-1.6875 0.921875 -3.671875 0.921875q-3.203125 0 -5.171875 -2.046875q-1.96875 -2.046875 -1.96875 -5.90625zm2.65625 0q0 2.921875 1.265625 4.375q1.28125 1.453125 3.21875 1.453125q1.921875 0 3.1875 -1.453125q1.28125 -1.46875 1.28125 -4.453125q0 -2.828125 -1.28125 -4.28125q-1.28125 -1.453125 -3.1875 -1.453125q-1.9375 0 -3.21875 1.453125q-1.265625 1.4375 -1.265625 4.359375zm24.592163 7.609375l0 -2.234375q-1.78125 2.578125 -4.828125 2.578125q-1.34375 0 -2.515625 -0.515625q-1.171875 -0.515625 -1.734375 -1.296875q-0.5625 -0.78125 -0.796875 -1.90625q-0.15625 -0.765625 -0.15625 -2.40625l0 -9.421875l2.578125 0l0 8.421875q0 2.03125 0.15625 2.734375q0.25 1.015625 1.03125 1.59375q0.796875 0.578125 1.953125 0.578125q1.15625 0 2.171875 -0.59375q1.015625 -0.59375 1.4375 -1.609375q0.421875 -1.03125 0.421875 -2.984375l0 -8.140625l2.578125 0l0 15.203125l-2.296875 0zm11.967163 -2.3125l0.375 2.28125q-1.09375 0.234375 -1.953125 0.234375q-1.40625 0 -2.1875 -0.4375q-0.765625 -0.453125 -1.078125 -1.171875q-0.3125 -0.734375 -0.3125 -3.046875l0 -8.75l-1.890625 0l0 -2.0l1.890625 0l0 -3.765625l2.5625 -1.546875l0 5.3125l2.59375 0l0 2.0l-2.59375 0l0 8.890625q0 1.109375 0.125 1.421875q0.140625 0.3125 0.453125 0.5q0.3125 0.1875 0.890625 0.1875q0.421875 0 1.125 -0.109375zm13.468475 2.3125l-4.65625 -15.203125l2.671875 0l2.421875 8.765625l0.90625 3.265625q0.046875 -0.234375 0.78125 -3.125l2.421875 -8.90625l2.640625 0l2.28125 8.8125l0.765625 2.90625l0.875 -2.9375l2.59375 -8.78125l2.515625 0l-4.75 15.203125l-2.6875 0l-2.421875 -9.109375l-0.578125 -2.59375l-3.078125 11.703125l-2.703125 0zm28.30484 -1.875q-1.4375 1.21875 -2.765625 1.71875q-1.3125 0.5 -2.828125 0.5q-2.515625 0 -3.859375 -1.21875q-1.34375 -1.234375 -1.34375 -3.140625q0 -1.109375 0.5 -2.03125q0.515625 -0.921875 1.328125 -1.484375q0.828125 -0.5625 1.859375 -0.84375q0.765625 -0.203125 2.296875 -0.390625q3.125 -0.375 4.59375 -0.890625q0.015625 -0.53125 0.015625 -0.671875q0 -1.578125 -0.734375 -2.21875q-0.984375 -0.875 -2.9375 -0.875q-1.8125 0 -2.6875 0.640625q-0.859375 0.640625 -1.265625 2.25l-2.53125 -0.34375q0.34375 -1.609375 1.125 -2.609375q0.796875 -1.0 2.28125 -1.53125q1.5 -0.53125 3.453125 -0.53125q1.953125 0 3.171875 0.453125q1.21875 0.453125 1.78125 1.15625q0.578125 0.6875 0.8125 1.75q0.125 0.65625 0.125 2.375l0 3.4375q0 3.59375 0.15625 4.546875q0.171875 0.953125 0.65625 1.828125l-2.6875 0q-0.40625 -0.796875 -0.515625 -1.875zm-0.21875 -5.75q-1.40625 0.5625 -4.203125 0.96875q-1.59375 0.21875 -2.25 0.515625q-0.65625 0.28125 -1.015625 0.84375q-0.359375 0.546875 -0.359375 1.21875q0 1.03125 0.78125 1.71875q0.78125 0.6875 2.28125 0.6875q1.484375 0 2.640625 -0.65625q1.171875 -0.65625 1.71875 -1.78125q0.40625 -0.875 0.40625 -2.578125l0 -0.9375zm6.623413 -10.40625l0 -2.96875l2.578125 0l0 2.96875l-2.578125 0zm0 18.03125l0 -15.203125l2.578125 0l0 15.203125l-2.578125 0zm12.125153 -2.3125l0.375 2.28125q-1.09375 0.234375 -1.953125 0.234375q-1.40625 0 -2.1875 -0.4375q-0.765625 -0.453125 -1.078125 -1.171875q-0.3125 -0.734375 -0.3125 -3.046875l0 -8.75l-1.890625 0l0 -2.0l1.890625 0l0 -3.765625l2.5625 -1.546875l0 5.3125l2.59375 0l0 2.0l-2.59375 0l0 8.890625q0 1.109375 0.125 1.421875q0.140625 0.3125 0.453125 0.5q0.3125 0.1875 0.890625 0.1875q0.421875 0 1.125 -0.109375zm2.5389404 -15.71875l0 -2.96875l2.578125 0l0 2.96875l-2.578125 0zm0 18.03125l0 -15.203125l2.578125 0l0 15.203125l-2.578125 0zm6.500122 0l0 -15.203125l2.3125 0l0 2.15625q1.671875 -2.5 4.84375 -2.5q1.375 0 2.53125 0.5q1.15625 0.484375 1.71875 1.296875q0.578125 0.796875 0.8125 1.890625q0.140625 0.71875 0.140625 2.515625l0 9.34375l-2.578125 0l0 -9.25q0 -1.578125 -0.3125 -2.359375q-0.296875 -0.78125 -1.0625 -1.234375q-0.765625 -0.46875 -1.796875 -0.46875q-1.640625 0 -2.84375 1.046875q-1.1875 1.03125 -1.1875 3.953125l0 8.3125l-2.578125 0zm15.826538 1.265625l2.515625 0.359375q0.15625 1.171875 0.875 1.703125q0.953125 0.703125 2.609375 0.703125q1.796875 0 2.765625 -0.71875q0.984375 -0.703125 1.328125 -2.0q0.203125 -0.78125 0.1875 -3.296875q-1.703125 1.984375 -4.21875 1.984375q-3.140625 0 -4.859375 -2.265625q-1.71875 -2.265625 -1.71875 -5.421875q0 -2.171875 0.78125 -4.015625q0.796875 -1.84375 2.296875 -2.84375q1.5 -1.0 3.515625 -1.0q2.6875 0 4.4375 2.171875l0 -1.828125l2.375 0l0 13.140625q0 3.546875 -0.71875 5.03125q-0.71875 1.484375 -2.296875 2.34375q-1.5625 0.859375 -3.859375 0.859375q-2.71875 0 -4.390625 -1.234375q-1.671875 -1.21875 -1.625 -3.671875zm2.140625 -9.140625q0 2.984375 1.1875 4.359375q1.1875 1.375 2.984375 1.375q1.765625 0 2.96875 -1.359375q1.203125 -1.375 1.203125 -4.296875q0 -2.78125 -1.234375 -4.203125q-1.234375 -1.421875 -2.984375 -1.421875q-1.71875 0 -2.921875 1.40625q-1.203125 1.390625 -1.203125 4.140625zm22.802979 7.875l0 -15.203125l2.296875 0l0 2.125q0.71875 -1.109375 1.90625 -1.78125q1.1875 -0.6875 2.703125 -0.6875q1.703125 0 2.78125 0.703125q1.078125 0.6875 1.515625 1.953125q1.8125 -2.65625 4.703125 -2.65625q2.265625 0 3.484375 1.25q1.21875 1.25 1.21875 3.859375l0 10.4375l-2.5625 0l0 -9.578125q0 -1.546875 -0.265625 -2.21875q-0.25 -0.6875 -0.90625 -1.09375q-0.65625 -0.421875 -1.546875 -0.421875q-1.59375 0 -2.65625 1.0625q-1.0625 1.0625 -1.0625 3.421875l0 8.828125l-2.578125 0l0 -9.875q0 -1.71875 -0.640625 -2.578125q-0.625 -0.859375 -2.046875 -0.859375q-1.09375 0 -2.015625 0.578125q-0.921875 0.5625 -1.34375 1.671875q-0.40625 1.09375 -0.40625 3.171875l0 7.890625l-2.578125 0zm23.461792 -7.609375q0 -4.21875 2.359375 -6.25q1.953125 -1.6875 4.78125 -1.6875q3.125 0 5.1094055 2.0625q2.0 2.046875 2.0 5.671875q0 2.921875 -0.875 4.609375q-0.875 1.6875 -2.5625305 2.625q-1.6875 0.921875 -3.671875 0.921875q-3.203125 0 -5.171875 -2.046875q-1.96875 -2.046875 -1.96875 -5.90625zm2.65625 0q0 2.921875 1.265625 4.375q1.28125 1.453125 3.21875 1.453125q1.921875 0 3.1875 -1.453125q1.2812805 -1.46875 1.2812805 -4.453125q0 -2.828125 -1.2812805 -4.28125q-1.28125 -1.453125 -3.1875 -1.453125q-1.9375 0 -3.21875 1.453125q-1.265625 1.4375 -1.265625 4.359375zm14.623444 7.609375l0 -15.203125l2.3125 0l0 2.15625q1.671875 -2.5 4.84375 -2.5q1.375 0 2.53125 0.5q1.15625 0.484375 1.71875 1.296875q0.578125 0.796875 0.8125 1.890625q0.140625 0.71875 0.140625 2.515625l0 9.34375l-2.578125 0l0 -9.25q0 -1.578125 -0.3125 -2.359375q-0.296875 -0.78125 -1.0625 -1.234375q-0.765625 -0.46875 -1.796875 -0.46875q-1.640625 0 -2.84375 1.046875q-1.1875 1.03125 -1.1875 3.953125l0 8.3125l-2.578125 0zm21.935913 -2.3125l0.375 2.28125q-1.09375 0.234375 -1.953125 0.234375q-1.40625 0 -2.1875 -0.4375q-0.765625 -0.453125 -1.078125 -1.171875q-0.3125 -0.734375 -0.3125 -3.046875l0 -8.75l-1.890625 0l0 -2.0l1.890625 0l0 -3.765625l2.5625 -1.546875l0 5.3125l2.59375 0l0 2.0l-2.59375 0l0 8.890625q0 1.109375 0.125 1.421875q0.140625 0.3125 0.453125 0.5q0.3125 0.1875 0.890625 0.1875q0.421875 0 1.125 -0.109375zm2.5233154 2.3125l0 -21.0l2.578125 0l0 7.53125q1.796875 -2.078125 4.546875 -2.078125q1.6875 0 2.9375 0.671875q1.25 0.65625 1.78125 1.828125q0.546875 1.171875 0.546875 3.40625l0 9.640625l-2.578125 0l0 -9.640625q0 -1.9375 -0.84375 -2.8125q-0.84375 -0.875 -2.375 -0.875q-1.140625 0 -2.15625 0.59375q-1.0 0.59375 -1.4375 1.609375q-0.421875 1.015625 -0.421875 2.8125l0 8.3125l-2.578125 0zm15.279663 -4.546875l2.546875 -0.390625q0.21875 1.53125 1.1875 2.34375q0.984375 0.8125 2.75 0.8125q1.78125 0 2.640625 -0.71875q0.859375 -0.71875 0.859375 -1.703125q0 -0.859375 -0.765625 -1.375q-0.53125 -0.34375 -2.640625 -0.859375q-2.828125 -0.71875 -3.921875 -1.234375q-1.09375 -0.53125 -1.671875 -1.453125q-0.5625 -0.921875 -0.5625 -2.046875q0 -1.015625 0.46875 -1.875q0.46875 -0.875 1.265625 -1.453125q0.609375 -0.4375 1.640625 -0.734375q1.046875 -0.3125 2.234375 -0.3125q1.78125 0 3.125 0.515625q1.359375 0.515625 2.0 1.390625q0.65625 0.875 0.890625 2.359375l-2.515625 0.34375q-0.171875 -1.171875 -1.0 -1.828125q-0.8125 -0.671875 -2.3125 -0.671875q-1.78125 0 -2.546875 0.59375q-0.75 0.578125 -0.75 1.375q0 0.5 0.3125 0.90625q0.3125 0.40625 0.984375 0.6875q0.390625 0.140625 2.28125 0.65625q2.734375 0.734375 3.8125 1.203125q1.078125 0.453125 1.6875 1.34375q0.625 0.890625 0.625 2.203125q0 1.296875 -0.75 2.4375q-0.75 1.125 -2.171875 1.75q-1.421875 0.625 -3.203125 0.625q-2.96875 0 -4.53125 -1.234375q-1.546875 -1.234375 -1.96875 -3.65625zm24.453003 4.546875l0 -13.203125l-2.28125 0l0 -2.0l2.28125 0l0 -1.625q0 -1.53125 0.28125 -2.28125q0.359375 -1.0 1.296875 -1.625q0.9375 -0.625 2.640625 -0.625q1.078125 0 2.40625 0.265625l-0.390625 2.25q-0.8125 -0.140625 -1.515625 -0.140625q-1.171875 0 -1.671875 0.5q-0.484375 0.5 -0.484375 1.875l0 1.40625l2.96875 0l0 2.0l-2.96875 0l0 13.203125l-2.5625 0zm6.5701904 -7.609375q0 -4.21875 2.359375 -6.25q1.953125 -1.6875 4.78125 -1.6875q3.125 0 5.109375 2.0625q2.0 2.046875 2.0 5.671875q0 2.921875 -0.875 4.609375q-0.875 1.6875 -2.5625 2.625q-1.6875 0.921875 -3.671875 0.921875q-3.203125 0 -5.171875 -2.046875q-1.96875 -2.046875 -1.96875 -5.90625zm2.65625 0q0 2.921875 1.265625 4.375q1.28125 1.453125 3.21875 1.453125q1.921875 0 3.1875 -1.453125q1.28125 -1.46875 1.28125 -4.453125q0 -2.828125 -1.28125 -4.28125q-1.28125 -1.453125 -3.1875 -1.453125q-1.9375 0 -3.21875 1.453125q-1.265625 1.4375 -1.265625 4.359375zm14.592163 7.609375l0 -15.203125l2.3125 0l0 2.296875q0.890625 -1.609375 1.640625 -2.125q0.75 -0.515625 1.65625 -0.515625q1.3125 0 2.65625 0.828125l-0.890625 2.390625q-0.953125 -0.5625 -1.890625 -0.5625q-0.84375 0 -1.515625 0.515625q-0.671875 0.5 -0.96875 1.40625q-0.421875 1.375 -0.421875 3.0l0 7.96875l-2.578125 0zm17.321045 -6.75l2.625 -0.21875q0.1875 1.5625 0.859375 2.578125q0.6875 1.015625 2.109375 1.640625q1.4375 0.609375 3.234375 0.609375q1.59375 0 2.796875 -0.46875q1.21875 -0.46875 1.8125 -1.28125q0.59375 -0.828125 0.59375 -1.8125q0 -0.984375 -0.578125 -1.71875q-0.5625 -0.734375 -1.875 -1.234375q-0.84375 -0.34375 -3.734375 -1.03125q-2.890625 -0.6875 -4.0625 -1.3125q-1.5 -0.78125 -2.234375 -1.953125q-0.734375 -1.171875 -0.734375 -2.609375q0 -1.59375 0.890625 -2.96875q0.90625 -1.390625 2.640625 -2.109375q1.734375 -0.71875 3.859375 -0.71875q2.328125 0 4.109375 0.765625q1.78125 0.75 2.734375 2.21875q0.96875 1.453125 1.046875 3.296875l-2.671875 0.203125q-0.21875 -2.0 -1.453125 -3.015625q-1.234375 -1.015625 -3.65625 -1.015625q-2.515625 0 -3.671875 0.921875q-1.15625 0.921875 -1.15625 2.234375q0 1.125 0.8125 1.859375q0.8125 0.734375 4.1875 1.5q3.390625 0.765625 4.65625 1.328125q1.828125 0.859375 2.703125 2.15625q0.875 1.28125 0.875 2.984375q0 1.671875 -0.96875 3.15625q-0.953125 1.484375 -2.75 2.3125q-1.796875 0.8125 -4.046875 0.8125q-2.84375 0 -4.78125 -0.828125q-1.921875 -0.828125 -3.015625 -2.5q-1.09375 -1.671875 -1.15625 -3.78125zm20.561646 6.75l0 -21.0l15.1875 0l0 2.484375l-12.40625 0l0 6.421875l11.625 0l0 2.46875l-11.625 0l0 7.140625l12.890625 0l0 2.484375l-15.671875 0zm18.67102 -10.21875q0 -5.234375 2.796875 -8.1875q2.8125 -2.953125 7.25 -2.953125q2.90625 0 5.234375 1.390625q2.34375 1.375 3.5625 3.859375q1.234375 2.484375 1.234375 5.640625q0 3.1875 -1.296875 5.71875q-1.28125 2.515625 -3.65625 3.8125q-2.359375 1.296875 -5.09375 1.296875q-2.96875 0 -5.296875 -1.421875q-2.328125 -1.4375 -3.53125 -3.90625q-1.203125 -2.484375 -1.203125 -5.25zm2.859375 0.03125q0 3.796875 2.03125 5.984375q2.046875 2.1875 5.125 2.1875q3.140625 0 5.15625 -2.203125q2.03125 -2.21875 2.03125 -6.265625q0 -2.5625 -0.875 -4.46875q-0.859375 -1.921875 -2.53125 -2.96875q-1.65625 -1.046875 -3.734375 -1.046875q-2.953125 0 -5.078125 2.03125q-2.125 2.015625 -2.125 6.75zm21.187378 10.1875l0 -2.9375l2.9375 0l0 2.9375l-2.9375 0z" fill-rule="nonzero"/><path fill="#000000" d="m351.4301 411.16l-5.5625 -21.0l2.84375 0l3.203125 13.765625q0.515625 2.171875 0.890625 4.296875q0.796875 -3.359375 0.9375 -3.875l4.0 -14.1875l3.34375 0l3.015625 10.625q1.125 3.953125 1.625 7.4375q0.40625 -1.984375 1.046875 -4.5625l3.296875 -13.5l2.796875 0l-5.765625 21.0l-2.671875 0l-4.421875 -16.0q-0.5625 -2.0 -0.671875 -2.453125q-0.328125 1.4375 -0.609375 2.453125l-4.453125 16.0l-2.84375 0zm23.712555 -18.03125l0 -2.96875l2.578125 0l0 2.96875l-2.578125 0zm0 18.03125l0 -15.203125l2.578125 0l0 15.203125l-2.578125 0zm12.125122 -2.3125l0.375 2.28125q-1.09375 0.234375 -1.953125 0.234375q-1.40625 0 -2.1875 -0.4375q-0.765625 -0.453125 -1.078125 -1.171875q-0.3125 -0.734375 -0.3125 -3.046875l0 -8.75l-1.890625 0l0 -2.0l1.890625 0l0 -3.765625l2.5625 -1.546875l0 5.3125l2.59375 0l0 2.0l-2.59375 0l0 8.890625q0 1.109375 0.125 1.421875q0.140625 0.3125 0.453125 0.5q0.3125 0.1875 0.890625 0.1875q0.421875 0 1.125 -0.109375zm2.5233154 2.3125l0 -21.0l2.578125 0l0 7.53125q1.796875 -2.078125 4.546875 -2.078125q1.6875 0 2.9375 0.671875q1.25 0.65625 1.78125 1.828125q0.546875 1.171875 0.546875 3.40625l0 9.640625l-2.578125 0l0 -9.640625q0 -1.9375 -0.84375 -2.8125q-0.84375 -0.875 -2.375 -0.875q-1.140625 0 -2.15625 0.59375q-1.0 0.59375 -1.4375 1.609375q-0.421875 1.015625 -0.421875 2.8125l0 8.3125l-2.578125 0zm15.342163 -7.609375q0 -4.21875 2.359375 -6.25q1.953125 -1.6875 4.78125 -1.6875q3.125 0 5.109375 2.0625q2.0 2.046875 2.0 5.671875q0 2.921875 -0.875 4.609375q-0.875 1.6875 -2.5625 2.625q-1.6875 0.921875 -3.671875 0.921875q-3.203125 0 -5.171875 -2.046875q-1.96875 -2.046875 -1.96875 -5.90625zm2.65625 0q0 2.921875 1.265625 4.375q1.28125 1.453125 3.21875 1.453125q1.921875 0 3.1875 -1.453125q1.28125 -1.46875 1.28125 -4.453125q0 -2.828125 -1.28125 -4.28125q-1.28125 -1.453125 -3.1875 -1.453125q-1.9375 0 -3.21875 1.453125q-1.265625 1.4375 -1.265625 4.359375zm24.592163 7.609375l0 -2.234375q-1.78125 2.578125 -4.828125 2.578125q-1.34375 0 -2.515625 -0.515625q-1.171875 -0.515625 -1.734375 -1.296875q-0.5625 -0.78125 -0.796875 -1.90625q-0.15625 -0.765625 -0.15625 -2.40625l0 -9.421875l2.578125 0l0 8.421875q0 2.03125 0.15625 2.734375q0.25 1.015625 1.03125 1.59375q0.796875 0.578125 1.953125 0.578125q1.15625 0 2.171875 -0.59375q1.015625 -0.59375 1.4375 -1.609375q0.421875 -1.03125 0.421875 -2.984375l0 -8.140625l2.578125 0l0 15.203125l-2.296875 0zm11.967163 -2.3125l0.375 2.28125q-1.09375 0.234375 -1.953125 0.234375q-1.40625 0 -2.1875 -0.4375q-0.765625 -0.453125 -1.078125 -1.171875q-0.3125 -0.734375 -0.3125 -3.046875l0 -8.75l-1.890625 0l0 -2.0l1.890625 0l0 -3.765625l2.5625 -1.546875l0 5.3125l2.59375 0l0 2.0l-2.59375 0l0 8.890625q0 1.109375 0.125 1.421875q0.140625 0.3125 0.453125 0.5q0.3125 0.1875 0.890625 0.1875q0.421875 0 1.125 -0.109375zm10.64035 2.3125l0 -15.203125l2.3125 0l0 2.296875q0.890625 -1.609375 1.640625 -2.125q0.75 -0.515625 1.65625 -0.515625q1.3125 0 2.65625 0.828125l-0.890625 2.390625q-0.953125 -0.5625 -1.890625 -0.5625q-0.84375 0 -1.515625 0.515625q-0.671875 0.5 -0.96875 1.40625q-0.421875 1.375 -0.421875 3.0l0 7.96875l-2.578125 0zm19.76651 0l0 -2.234375q-1.78125 2.578125 -4.828125 2.578125q-1.34375 0 -2.515625 -0.515625q-1.171875 -0.515625 -1.734375 -1.296875q-0.5625 -0.78125 -0.796875 -1.90625q-0.15625 -0.765625 -0.15625 -2.40625l0 -9.421875l2.578125 0l0 8.421875q0 2.03125 0.15625 2.734375q0.25 1.015625 1.03125 1.59375q0.796875 0.578125 1.953125 0.578125q1.15625 0 2.171875 -0.59375q1.015625 -0.59375 1.4375 -1.609375q0.421875 -1.03125 0.421875 -2.984375l0 -8.140625l2.578125 0l0 15.203125l-2.296875 0zm6.342163 0l0 -15.203125l2.3125 0l0 2.15625q1.671875 -2.5 4.84375 -2.5q1.375 0 2.53125 0.5q1.15625 0.484375 1.71875 1.296875q0.578125 0.796875 0.8125 1.890625q0.140625 0.71875 0.140625 2.515625l0 9.34375l-2.578125 0l0 -9.25q0 -1.578125 -0.3125 -2.359375q-0.296875 -0.78125 -1.0625 -1.234375q-0.765625 -0.46875 -1.796875 -0.46875q-1.640625 0 -2.84375 1.046875q-1.1875 1.03125 -1.1875 3.953125l0 8.3125l-2.578125 0zm16.310913 0l0 -15.203125l2.3125 0l0 2.15625q1.671875 -2.5 4.84375 -2.5q1.375 0 2.53125 0.5q1.15625 0.484375 1.71875 1.296875q0.578125 0.796875 0.8125 1.890625q0.140625 0.71875 0.140625 2.515625l0 9.34375l-2.578125 0l0 -9.25q0 -1.578125 -0.3125 -2.359375q-0.296875 -0.78125 -1.0625 -1.234375q-0.765625 -0.46875 -1.796875 -0.46875q-1.640625 0 -2.84375 1.046875q-1.1875 1.03125 -1.1875 3.953125l0 8.3125l-2.578125 0zm16.326569 -18.03125l0 -2.96875l2.578125 0l0 2.96875l-2.578125 0zm0 18.03125l0 -15.203125l2.578125 0l0 15.203125l-2.578125 0zm6.500122 0l0 -15.203125l2.3125 0l0 2.15625q1.671875 -2.5 4.84375 -2.5q1.375 0 2.53125 0.5q1.15625 0.484375 1.71875 1.296875q0.578125 0.796875 0.8125 1.890625q0.140625 0.71875 0.140625 2.515625l0 9.34375l-2.578125 0l0 -9.25q0 -1.578125 -0.3125 -2.359375q-0.296875 -0.78125 -1.0625 -1.234375q-0.765625 -0.46875 -1.796875 -0.46875q-1.640625 0 -2.84375 1.046875q-1.1875 1.03125 -1.1875 3.953125l0 8.3125l-2.578125 0zm15.826538 1.265625l2.515625 0.359375q0.15625 1.171875 0.875 1.703125q0.953125 0.703125 2.609375 0.703125q1.796875 0 2.765625 -0.71875q0.984375 -0.703125 1.328125 -2.0q0.203125 -0.78125 0.1875 -3.296875q-1.703125 1.984375 -4.21875 1.984375q-3.140625 0 -4.859375 -2.265625q-1.71875 -2.265625 -1.71875 -5.421875q0 -2.171875 0.78125 -4.015625q0.796875 -1.84375 2.296875 -2.84375q1.5 -1.0 3.515625 -1.0q2.6875 0 4.4375 2.171875l0 -1.828125l2.375 0l0 13.140625q0 3.546875 -0.71875 5.03125q-0.71875 1.484375 -2.296875 2.34375q-1.5625 0.859375 -3.859375 0.859375q-2.71875 0 -4.390625 -1.234375q-1.671875 -1.21875 -1.625 -3.671875zm2.140625 -9.140625q0 2.984375 1.1875 4.359375q1.1875 1.375 2.984375 1.375q1.765625 0 2.96875 -1.359375q1.203125 -1.375 1.203125 -4.296875q0 -2.78125 -1.234375 -4.203125q-1.234375 -1.421875 -2.984375 -1.421875q-1.71875 0 -2.921875 1.40625q-1.203125 1.390625 -1.203125 4.140625zm32.724854 6.0q-1.4375 1.21875 -2.765625 1.71875q-1.3125 0.5 -2.828125 0.5q-2.515625 0 -3.859375 -1.21875q-1.34375 -1.234375 -1.34375 -3.140625q0 -1.109375 0.5 -2.03125q0.515625 -0.921875 1.328125 -1.484375q0.828125 -0.5625 1.859375 -0.84375q0.765625 -0.203125 2.296875 -0.390625q3.125 -0.375 4.59375 -0.890625q0.015625 -0.53125 0.015625 -0.671875q0 -1.578125 -0.734375 -2.21875q-0.984375 -0.875 -2.9375 -0.875q-1.8125 0 -2.6875 0.640625q-0.859375 0.640625 -1.265625 2.25l-2.53125 -0.34375q0.34375 -1.609375 1.125 -2.609375q0.796875 -1.0 2.28125 -1.53125q1.5 -0.53125 3.453125 -0.53125q1.953125 0 3.171875 0.453125q1.21875 0.453125 1.78125 1.15625q0.578125 0.6875 0.8125 1.75q0.125 0.65625 0.125 2.375l0 3.4375q0 3.59375 0.15625 4.546875q0.171875 0.953125 0.65625 1.828125l-2.6875 0q-0.40625 -0.796875 -0.515625 -1.875zm-0.21875 -5.75q-1.40625 0.5625 -4.203125 0.96875q-1.59375 0.21875 -2.25 0.515625q-0.65625 0.28125 -1.015625 0.84375q-0.359375 0.546875 -0.359375 1.21875q0 1.03125 0.78125 1.71875q0.78125 0.6875 2.28125 0.6875q1.484375 0 2.640625 -0.65625q1.171875 -0.65625 1.71875 -1.78125q0.40625 -0.875 0.40625 -2.578125l0 -0.9375zm16.467163 7.625l0 -1.921875q-1.4375 2.265625 -4.25 2.265625q-1.8125 0 -3.34375 -1.0q-1.53125 -1.0 -2.375 -2.796875q-0.828125 -1.796875 -0.828125 -4.140625q0 -2.265625 0.75 -4.125q0.765625 -1.859375 2.28125 -2.84375q1.53125 -0.984375 3.40625 -0.984375q1.375 0 2.4375 0.578125q1.078125 0.578125 1.75 1.5l0 -7.53125l2.5625 0l0 21.0l-2.390625 0zm-8.140625 -7.59375q0 2.921875 1.21875 4.375q1.234375 1.4375 2.921875 1.4375q1.6875 0 2.859375 -1.375q1.1875 -1.390625 1.1875 -4.21875q0 -3.125 -1.203125 -4.578125q-1.203125 -1.46875 -2.96875 -1.46875q-1.71875 0 -2.875 1.40625q-1.140625 1.40625 -1.140625 4.421875zm13.560913 3.046875l2.546875 -0.390625q0.21875 1.53125 1.1875 2.34375q0.984375 0.8125 2.75 0.8125q1.78125 0 2.640625 -0.71875q0.859375 -0.71875 0.859375 -1.703125q0 -0.859375 -0.765625 -1.375q-0.53125 -0.34375 -2.640625 -0.859375q-2.828125 -0.71875 -3.921875 -1.234375q-1.09375 -0.53125 -1.671875 -1.453125q-0.5625 -0.921875 -0.5625 -2.046875q0 -1.015625 0.46875 -1.875q0.46875 -0.875 1.265625 -1.453125q0.609375 -0.4375 1.640625 -0.734375q1.046875 -0.3125 2.234375 -0.3125q1.78125 0 3.125 0.515625q1.359375 0.515625 2.0 1.390625q0.65625 0.875 0.890625 2.359375l-2.515625 0.34375q-0.171875 -1.171875 -1.0 -1.828125q-0.8125 -0.671875 -2.3125 -0.671875q-1.78125 0 -2.546875 0.59375q-0.75 0.578125 -0.75 1.375q0 0.5 0.3125 0.90625q0.3125 0.40625 0.984375 0.6875q0.390625 0.140625 2.28125 0.65625q2.734375 0.734375 3.8125 1.203125q1.078125 0.453125 1.6875 1.34375q0.625 0.890625 0.625 2.203125q0 1.296875 -0.75 2.4375q-0.75 1.125 -2.171875 1.75q-1.421875 0.625 -3.203125 0.625q-2.96875 0 -4.53125 -1.234375q-1.546875 -1.234375 -1.96875 -3.65625zm16.414062 4.546875l0 -2.9375l2.9375 0l0 2.9375l-2.9375 0z" fill-rule="nonzero"/><path fill="#000000" d="m205.10103 435.94125q0 -5.234375 2.796875 -8.1875q2.8125 -2.953125 7.25 -2.953125q2.90625 0 5.234375 1.390625q2.34375 1.375 3.5625 3.859375q1.234375 2.484375 1.234375 5.640625q0 3.1875 -1.296875 5.71875q-1.28125 2.515625 -3.65625 3.8125q-2.359375 1.296875 -5.09375 1.296875q-2.96875 0 -5.296875 -1.421875q-2.328125 -1.4375 -3.53125 -3.90625q-1.203125 -2.484375 -1.203125 -5.25zm2.859375 0.03125q0 3.796875 2.03125 5.984375q2.046875 2.1875 5.125 2.1875q3.140625 0 5.15625 -2.203125q2.03125 -2.21875 2.03125 -6.265625q0 -2.5625 -0.875 -4.46875q-0.859375 -1.921875 -2.53125 -2.96875q-1.65625 -1.046875 -3.734375 -1.046875q-2.953125 0 -5.078125 2.03125q-2.125 2.015625 -2.125 6.75zm20.437363 10.1875l0 -15.203125l2.3125 0l0 2.296875q0.890625 -1.609375 1.640625 -2.125q0.75 -0.515625 1.65625 -0.515625q1.3125 0 2.65625 0.828125l-0.890625 2.390625q-0.953125 -0.5625 -1.890625 -0.5625q-0.84375 0 -1.515625 0.515625q-0.671875 0.5 -0.96875 1.40625q-0.421875 1.375 -0.421875 3.0l0 7.96875l-2.578125 0zm17.46167 1.265625l2.515625 0.359375q0.15625 1.171875 0.875 1.703125q0.953125 0.703125 2.609375 0.703125q1.796875 0 2.765625 -0.71875q0.984375 -0.703125 1.328125 -2.0q0.203125 -0.78125 0.1875 -3.296875q-1.703125 1.984375 -4.21875 1.984375q-3.140625 0 -4.859375 -2.265625q-1.71875 -2.265625 -1.71875 -5.421875q0 -2.171875 0.78125 -4.015625q0.796875 -1.84375 2.296875 -2.84375q1.5 -1.0 3.515625 -1.0q2.6875 0 4.4375 2.171875l0 -1.828125l2.375 0l0 13.140625q0 3.546875 -0.71875 5.03125q-0.71875 1.484375 -2.296875 2.34375q-1.5625 0.859375 -3.859375 0.859375q-2.71875 0 -4.390625 -1.234375q-1.671875 -1.21875 -1.625 -3.671875zm2.140625 -9.140625q0 2.984375 1.1875 4.359375q1.1875 1.375 2.984375 1.375q1.765625 0 2.96875 -1.359375q1.203125 -1.375 1.203125 -4.296875q0 -2.78125 -1.234375 -4.203125q-1.234375 -1.421875 -2.984375 -1.421875q-1.71875 0 -2.921875 1.40625q-1.203125 1.390625 -1.203125 4.140625zm25.060913 2.984375l2.65625 0.328125q-0.625 2.328125 -2.328125 3.625q-1.703125 1.28125 -4.359375 1.28125q-3.328125 0 -5.28125 -2.046875q-1.953125 -2.0625 -1.953125 -5.765625q0 -3.84375 1.96875 -5.953125q1.984375 -2.125 5.125 -2.125q3.0625 0 4.984375 2.078125q1.9375 2.0625 1.9375 5.84375q0 0.21875 -0.015625 0.671875l-11.34375 0q0.140625 2.515625 1.421875 3.84375q1.28125 1.328125 3.171875 1.328125q1.421875 0 2.421875 -0.734375q1.0 -0.75 1.59375 -2.375zm-8.46875 -4.171875l8.5 0q-0.171875 -1.921875 -0.96875 -2.875q-1.234375 -1.5 -3.203125 -1.5q-1.765625 0 -2.984375 1.1875q-1.203125 1.1875 -1.34375 3.1875zm19.998413 6.75l0.375 2.28125q-1.09375 0.234375 -1.953125 0.234375q-1.40625 0 -2.1875 -0.4375q-0.765625 -0.453125 -1.078125 -1.171875q-0.3125 -0.734375 -0.3125 -3.046875l0 -8.75l-1.890625 0l0 -2.0l1.890625 0l0 -3.765625l2.5625 -1.546875l0 5.3125l2.59375 0l0 2.0l-2.59375 0l0 8.890625q0 1.109375 0.125 1.421875q0.140625 0.3125 0.453125 0.5q0.3125 0.1875 0.890625 0.1875q0.421875 0 1.125 -0.109375zm10.5466 8.171875l-0.28125 -2.421875q0.84375 0.234375 1.46875 0.234375q0.859375 0 1.375 -0.296875q0.515625 -0.28125 0.859375 -0.796875q0.234375 -0.390625 0.78125 -1.921875q0.078125 -0.21875 0.234375 -0.625l-5.78125 -15.234375l2.78125 0l3.171875 8.796875q0.609375 1.6875 1.09375 3.53125q0.453125 -1.78125 1.0625 -3.46875l3.25 -8.859375l2.578125 0l-5.78125 15.453125q-0.9375 2.515625 -1.453125 3.453125q-0.6875 1.28125 -1.578125 1.875q-0.875 0.59375 -2.109375 0.59375q-0.75 0 -1.671875 -0.3125zm13.8203125 -13.46875q0 -4.21875 2.359375 -6.25q1.953125 -1.6875 4.78125 -1.6875q3.125 0 5.109375 2.0625q2.0 2.046875 2.0 5.671875q0 2.921875 -0.875 4.609375q-0.875 1.6875 -2.5625 2.625q-1.6875 0.921875 -3.671875 0.921875q-3.203125 0 -5.171875 -2.046875q-1.96875 -2.046875 -1.96875 -5.90625zm2.65625 0q0 2.921875 1.265625 4.375q1.28125 1.453125 3.21875 1.453125q1.921875 0 3.1875 -1.453125q1.28125 -1.46875 1.28125 -4.453125q0 -2.828125 -1.28125 -4.28125q-1.28125 -1.453125 -3.1875 -1.453125q-1.9375 0 -3.21875 1.453125q-1.265625 1.4375 -1.265625 4.359375zm24.592163 7.609375l0 -2.234375q-1.78125 2.578125 -4.828125 2.578125q-1.34375 0 -2.515625 -0.515625q-1.171875 -0.515625 -1.734375 -1.296875q-0.5625 -0.78125 -0.796875 -1.90625q-0.15625 -0.765625 -0.15625 -2.40625l0 -9.421875l2.578125 0l0 8.421875q0 2.03125 0.15625 2.734375q0.25 1.015625 1.03125 1.59375q0.796875 0.578125 1.953125 0.578125q1.15625 0 2.171875 -0.59375q1.015625 -0.59375 1.4375 -1.609375q0.421875 -1.03125 0.421875 -2.984375l0 -8.140625l2.578125 0l0 15.203125l-2.296875 0zm6.310913 0l0 -15.203125l2.3125 0l0 2.296875q0.890625 -1.609375 1.640625 -2.125q0.75 -0.515625 1.65625 -0.515625q1.3125 0 2.65625 0.828125l-0.890625 2.390625q-0.953125 -0.5625 -1.890625 -0.5625q-0.84375 0 -1.515625 0.515625q-0.671875 0.5 -0.96875 1.40625q-0.421875 1.375 -0.421875 3.0l0 7.96875l-2.578125 0zm17.946045 0l0 -15.203125l2.296875 0l0 2.125q0.71875 -1.109375 1.90625 -1.78125q1.1875 -0.6875 2.703125 -0.6875q1.703125 0 2.78125 0.703125q1.078125 0.6875 1.515625 1.953125q1.8125 -2.65625 4.703125 -2.65625q2.265625 0 3.484375 1.25q1.21875 1.25 1.21875 3.859375l0 10.4375l-2.5625 0l0 -9.578125q0 -1.546875 -0.265625 -2.21875q-0.25 -0.6875 -0.90625 -1.09375q-0.65625 -0.421875 -1.546875 -0.421875q-1.59375 0 -2.65625 1.0625q-1.0625 1.0625 -1.0625 3.421875l0 8.828125l-2.578125 0l0 -9.875q0 -1.71875 -0.640625 -2.578125q-0.625 -0.859375 -2.046875 -0.859375q-1.09375 0 -2.015625 0.578125q-0.921875 0.5625 -1.34375 1.671875q-0.40625 1.09375 -0.40625 3.171875l0 7.890625l-2.578125 0zm23.461792 -7.609375q0 -4.21875 2.359375 -6.25q1.953125 -1.6875 4.78125 -1.6875q3.125 0 5.109375 2.0625q2.0 2.046875 2.0 5.671875q0 2.921875 -0.875 4.609375q-0.875 1.6875 -2.5625 2.625q-1.6875 0.921875 -3.671875 0.921875q-3.203125 0 -5.171875 -2.046875q-1.96875 -2.046875 -1.96875 -5.90625zm2.65625 0q0 2.921875 1.265625 4.375q1.28125 1.453125 3.21875 1.453125q1.921875 0 3.1875 -1.453125q1.28125 -1.46875 1.28125 -4.453125q0 -2.828125 -1.28125 -4.28125q-1.28125 -1.453125 -3.1875 -1.453125q-1.9375 0 -3.21875 1.453125q-1.265625 1.4375 -1.265625 4.359375zm14.623413 7.609375l0 -15.203125l2.3125 0l0 2.15625q1.671875 -2.5 4.84375 -2.5q1.375 0 2.53125 0.5q1.15625 0.484375 1.71875 1.296875q0.578125 0.796875 0.8125 1.890625q0.140625 0.71875 0.140625 2.515625l0 9.34375l-2.578125 0l0 -9.25q0 -1.578125 -0.3125 -2.359375q-0.296875 -0.78125 -1.0625 -1.234375q-0.765625 -0.46875 -1.796875 -0.46875q-1.640625 0 -2.84375 1.046875q-1.1875 1.03125 -1.1875 3.953125l0 8.3125l-2.578125 0zm26.717163 -4.890625l2.65625 0.328125q-0.625 2.328125 -2.328125 3.625q-1.703125 1.28125 -4.359375 1.28125q-3.328125 0 -5.28125 -2.046875q-1.953125 -2.0625 -1.953125 -5.765625q0 -3.84375 1.96875 -5.953125q1.984375 -2.125 5.125 -2.125q3.0625 0 4.984375 2.078125q1.9375 2.0625 1.9375 5.84375q0 0.21875 -0.015625 0.671875l-11.34375 0q0.140625 2.515625 1.421875 3.84375q1.28125 1.328125 3.171875 1.328125q1.421875 0 2.421875 -0.734375q1.0 -0.75 1.59375 -2.375zm-8.46875 -4.171875l8.5 0q-0.171875 -1.921875 -0.96875 -2.875q-1.234375 -1.5 -3.203125 -1.5q-1.765625 0 -2.984375 1.1875q-1.203125 1.1875 -1.34375 3.1875zm14.248413 14.921875l-0.28125 -2.421875q0.84375 0.234375 1.46875 0.234375q0.859375 0 1.375 -0.296875q0.515625 -0.28125 0.859375 -0.796875q0.234375 -0.390625 0.78125 -1.921875q0.078125 -0.21875 0.234375 -0.625l-5.78125 -15.234375l2.78125 0l3.171875 8.796875q0.609375 1.6875 1.09375 3.53125q0.453125 -1.78125 1.0625 -3.46875l3.25 -8.859375l2.578125 0l-5.78125 15.453125q-0.9375 2.515625 -1.453125 3.453125q-0.6875 1.28125 -1.578125 1.875q-0.875 0.59375 -2.109375 0.59375q-0.75 0 -1.671875 -0.3125zm25.312378 -5.859375l-2.390625 0l0 -21.0l2.578125 0l0 7.5q1.625 -2.046875 4.15625 -2.046875q1.40625 0 2.65625 0.5625q1.265625 0.5625 2.0625 1.59375q0.8125 1.015625 1.265625 2.46875q0.46875 1.4375 0.46875 3.09375q0 3.90625 -1.9375 6.046875q-1.9375 2.125 -4.640625 2.125q-2.6875 0 -4.21875 -2.25l0 1.90625zm-0.03125 -7.71875q0 2.734375 0.75 3.953125q1.21875 1.984375 3.28125 1.984375q1.703125 0 2.921875 -1.46875q1.234375 -1.46875 1.234375 -4.375q0 -2.96875 -1.1875 -4.390625q-1.171875 -1.421875 -2.84375 -1.421875q-1.6875 0 -2.921875 1.46875q-1.234375 1.46875 -1.234375 4.25zm23.889008 5.84375q-1.4375 1.21875 -2.765625 1.71875q-1.3125 0.5 -2.828125 0.5q-2.515625 0 -3.859375 -1.21875q-1.34375 -1.234375 -1.34375 -3.140625q0 -1.109375 0.5 -2.03125q0.515625 -0.921875 1.328125 -1.484375q0.828125 -0.5625 1.859375 -0.84375q0.765625 -0.203125 2.296875 -0.390625q3.125 -0.375 4.59375 -0.890625q0.015625 -0.53125 0.015625 -0.671875q0 -1.578125 -0.734375 -2.21875q-0.984375 -0.875 -2.9375 -0.875q-1.8125 0 -2.6875 0.640625q-0.859375 0.640625 -1.265625 2.25l-2.53125 -0.34375q0.34375 -1.609375 1.125 -2.609375q0.796875 -1.0 2.28125 -1.53125q1.5 -0.53125 3.453125 -0.53125q1.953125 0 3.171875 0.453125q1.21875 0.453125 1.78125 1.15625q0.578125 0.6875 0.8125 1.75q0.125 0.65625 0.125 2.375l0 3.4375q0 3.59375 0.15625 4.546875q0.171875 0.953125 0.65625 1.828125l-2.6875 0q-0.40625 -0.796875 -0.515625 -1.875zm-0.21875 -5.75q-1.40625 0.5625 -4.203125 0.96875q-1.59375 0.21875 -2.25 0.515625q-0.65625 0.28125 -1.015625 0.84375q-0.359375 0.546875 -0.359375 1.21875q0 1.03125 0.78125 1.71875q0.78125 0.6875 2.28125 0.6875q1.484375 0 2.640625 -0.65625q1.171875 -0.65625 1.71875 -1.78125q0.40625 -0.875 0.40625 -2.578125l0 -0.9375zm16.529663 2.046875l2.53125 0.34375q-0.40625 2.609375 -2.125 4.09375q-1.71875 1.484375 -4.203125 1.484375q-3.125 0 -5.03125 -2.03125q-1.890625 -2.046875 -1.890625 -5.859375q0 -2.46875 0.8125 -4.3125q0.828125 -1.84375 2.484375 -2.765625q1.671875 -0.921875 3.640625 -0.921875q2.46875 0 4.046875 1.25q1.578125 1.25 2.03125 3.5625l-2.515625 0.375q-0.359375 -1.53125 -1.265625 -2.296875q-0.90625 -0.78125 -2.203125 -0.78125q-1.9375 0 -3.15625 1.40625q-1.21875 1.390625 -1.21875 4.40625q0 3.078125 1.171875 4.46875q1.171875 1.375 3.0625 1.375q1.515625 0 2.53125 -0.921875q1.015625 -0.9375 1.296875 -2.875zm4.7578125 5.578125l0 -21.0l2.578125 0l0 11.984375l6.09375 -6.1875l3.34375 0l-5.828125 5.640625l6.40625 9.5625l-3.171875 0l-5.03125 -7.78125l-1.8125 1.75l0 6.03125l-2.578125 0zm32.718628 -1.875q-1.4375 1.21875 -2.765625 1.71875q-1.3125 0.5 -2.828125 0.5q-2.515625 0 -3.859375 -1.21875q-1.34375 -1.234375 -1.34375 -3.140625q0 -1.109375 0.5 -2.03125q0.515625 -0.921875 1.328125 -1.484375q0.828125 -0.5625 1.859375 -0.84375q0.765625 -0.203125 2.296875 -0.390625q3.125 -0.375 4.59375 -0.890625q0.015625 -0.53125 0.015625 -0.671875q0 -1.578125 -0.734375 -2.21875q-0.984375 -0.875 -2.9375 -0.875q-1.8125 0 -2.6875 0.640625q-0.859375 0.640625 -1.265625 2.25l-2.53125 -0.34375q0.34375 -1.609375 1.125 -2.609375q0.796875 -1.0 2.28125 -1.53125q1.5 -0.53125 3.453125 -0.53125q1.953125 0 3.171875 0.453125q1.21875 0.453125 1.78125 1.15625q0.578125 0.6875 0.8125 1.75q0.125 0.65625 0.125 2.375l0 3.4375q0 3.59375 0.15625 4.546875q0.171875 0.953125 0.65625 1.828125l-2.6875 0q-0.40625 -0.796875 -0.515625 -1.875zm-0.21875 -5.75q-1.40625 0.5625 -4.203125 0.96875q-1.59375 0.21875 -2.25 0.515625q-0.65625 0.28125 -1.015625 0.84375q-0.359375 0.546875 -0.359375 1.21875q0 1.03125 0.78125 1.71875q0.78125 0.6875 2.28125 0.6875q1.484375 0 2.640625 -0.65625q1.171875 -0.65625 1.71875 -1.78125q0.40625 -0.875 0.40625 -2.578125l0 -0.9375zm6.607788 7.625l0 -15.203125l2.3125 0l0 2.15625q1.671875 -2.5 4.84375 -2.5q1.375 0 2.53125 0.5q1.15625 0.484375 1.71875 1.296875q0.578125 0.796875 0.8125 1.890625q0.140625 0.71875 0.140625 2.515625l0 9.34375l-2.578125 0l0 -9.25q0 -1.578125 -0.3125 -2.359375q-0.296875 -0.78125 -1.0625 -1.234375q-0.765625 -0.46875 -1.796875 -0.46875q-1.640625 0 -2.84375 1.046875q-1.1875 1.03125 -1.1875 3.953125l0 8.3125l-2.578125 0zm26.170288 0l0 -1.921875q-1.4375 2.265625 -4.25 2.265625q-1.8125 0 -3.34375 -1.0q-1.53125 -1.0 -2.375 -2.796875q-0.828125 -1.796875 -0.828125 -4.140625q0 -2.265625 0.75 -4.125q0.765625 -1.859375 2.28125 -2.84375q1.53125 -0.984375 3.40625 -0.984375q1.375 0 2.4375 0.578125q1.078125 0.578125 1.75 1.5l0 -7.53125l2.5625 0l0 21.0l-2.390625 0zm-8.140625 -7.59375q0 2.921875 1.21875 4.375q1.234375 1.4375 2.921875 1.4375q1.6875 0 2.859375 -1.375q1.1875 -1.390625 1.1875 -4.21875q0 -3.125 -1.203125 -4.578125q-1.203125 -1.46875 -2.96875 -1.46875q-1.71875 0 -2.875 1.40625q-1.140625 1.40625 -1.140625 4.421875zm22.756104 7.59375l0 -21.0l2.578125 0l0 11.984375l6.09375 -6.1875l3.34375 0l-5.828125 5.640625l6.40625 9.5625l-3.171875 0l-5.03125 -7.78125l-1.8125 1.75l0 6.03125l-2.578125 0zm25.054688 -4.890625l2.65625 0.328125q-0.625 2.328125 -2.328125 3.625q-1.703125 1.28125 -4.359375 1.28125q-3.328125 0 -5.28125 -2.046875q-1.953125 -2.0625 -1.953125 -5.765625q0 -3.84375 1.96875 -5.953125q1.984375 -2.125 5.125 -2.125q3.0625 0 4.984375 2.078125q1.9375 2.0625 1.9375 5.84375q0 0.21875 -0.015625 0.671875l-11.34375 0q0.140625 2.515625 1.421875 3.84375q1.28125 1.328125 3.171875 1.328125q1.421875 0 2.421875 -0.734375q1.0 -0.75 1.59375 -2.375zm-8.46875 -4.171875l8.5 0q-0.171875 -1.921875 -0.96875 -2.875q-1.234375 -1.5 -3.203125 -1.5q-1.765625 0 -2.984375 1.1875q-1.203125 1.1875 -1.34375 3.1875zm24.779724 4.171875l2.65625 0.328125q-0.625 2.328125 -2.328125 3.625q-1.703125 1.28125 -4.359375 1.28125q-3.328186 0 -5.281311 -2.046875q-1.953125 -2.0625 -1.953125 -5.765625q0 -3.84375 1.96875 -5.953125q1.984375 -2.125 5.125061 -2.125q3.0625 0 4.984375 2.078125q1.9375 2.0625 1.9375 5.84375q0 0.21875 -0.015625 0.671875l-11.343811 0q0.140625 2.515625 1.421875 3.84375q1.281311 1.328125 3.171936 1.328125q1.421875 0 2.421875 -0.734375q1.0 -0.75 1.59375 -2.375zm-8.468811 -4.171875l8.500061 0q-0.171875 -1.921875 -0.96875 -2.875q-1.234375 -1.5 -3.203125 -1.5q-1.765625 0 -2.984436 1.1875q-1.203125 1.1875 -1.34375 3.1875zm14.373474 14.890625l0 -21.03125l2.34375 0l0 1.96875q0.828125 -1.15625 1.875 -1.734375q1.046875 -0.578125 2.53125 -0.578125q1.953125 0 3.4375 1.0q1.5 1.0 2.25 2.828125q0.765625 1.828125 0.765625 4.0q0 2.328125 -0.84375 4.203125q-0.828125 1.875 -2.4375 2.875q-1.59375 0.984375 -3.359375 0.984375q-1.28125 0 -2.3125 -0.546875q-1.015625 -0.546875 -1.671875 -1.375l0 7.40625l-2.578125 0zm2.328125 -13.34375q0 2.9375 1.1875 4.34375q1.1875 1.390625 2.875 1.390625q1.71875 0 2.9375 -1.453125q1.234375 -1.453125 1.234375 -4.5q0 -2.90625 -1.203125 -4.34375q-1.1875 -1.453125 -2.84375 -1.453125q-1.65625 0 -2.921875 1.546875q-1.265625 1.53125 -1.265625 4.46875zm27.756104 5.203125l0.375 2.28125q-1.09375 0.234375 -1.953125 0.234375q-1.40625 0 -2.1875 -0.4375q-0.765625 -0.453125 -1.078125 -1.171875q-0.3125 -0.734375 -0.3125 -3.046875l0 -8.75l-1.890625 0l0 -2.0l1.890625 0l0 -3.765625l2.5625 -1.546875l0 5.3125l2.59375 0l0 2.0l-2.59375 0l0 8.890625q0 1.109375 0.125 1.421875q0.140625 0.3125 0.453125 0.5q0.3125 0.1875 0.890625 0.1875q0.421875 0 1.125 -0.109375zm2.5233154 2.3125l0 -21.0l2.578125 0l0 7.53125q1.796875 -2.078125 4.546875 -2.078125q1.6875 0 2.9375 0.671875q1.25 0.65625 1.78125 1.828125q0.546875 1.171875 0.546875 3.40625l0 9.640625l-2.578125 0l0 -9.640625q0 -1.9375 -0.84375 -2.8125q-0.84375 -0.875 -2.375 -0.875q-1.140625 0 -2.15625 0.59375q-1.0 0.59375 -1.4375 1.609375q-0.421875 1.015625 -0.421875 2.8125l0 8.3125l-2.578125 0zm26.717163 -4.890625l2.65625 0.328125q-0.625 2.328125 -2.328125 3.625q-1.703125 1.28125 -4.359375 1.28125q-3.328125 0 -5.28125 -2.046875q-1.953125 -2.0625 -1.953125 -5.765625q0 -3.84375 1.96875 -5.953125q1.984375 -2.125 5.125 -2.125q3.0625 0 4.984375 2.078125q1.9375 2.0625 1.9375 5.84375q0 0.21875 -0.015625 0.671875l-11.34375 0q0.140625 2.515625 1.421875 3.84375q1.28125 1.328125 3.171875 1.328125q1.421875 0 2.421875 -0.734375q1.0 -0.75 1.59375 -2.375zm-8.46875 -4.171875l8.5 0q-0.171875 -1.921875 -0.96875 -2.875q-1.234375 -1.5 -3.203125 -1.5q-1.765625 0 -2.984375 1.1875q-1.203125 1.1875 -1.34375 3.1875zm21.490479 4.515625l2.546875 -0.390625q0.21875 1.53125 1.1875 2.34375q0.984375 0.8125 2.75 0.8125q1.78125 0 2.640625 -0.71875q0.859375 -0.71875 0.859375 -1.703125q0 -0.859375 -0.765625 -1.375q-0.53125 -0.34375 -2.640625 -0.859375q-2.828125 -0.71875 -3.921875 -1.234375q-1.09375 -0.53125 -1.671875 -1.453125q-0.5625 -0.921875 -0.5625 -2.046875q0 -1.015625 0.46875 -1.875q0.46875 -0.875 1.265625 -1.453125q0.609375 -0.4375 1.640625 -0.734375q1.046875 -0.3125 2.234375 -0.3125q1.78125 0 3.125 0.515625q1.359375 0.515625 2.0 1.390625q0.65625 0.875 0.890625 2.359375l-2.515625 0.34375q-0.171875 -1.171875 -1.0 -1.828125q-0.8125 -0.671875 -2.3125 -0.671875q-1.78125 0 -2.546875 0.59375q-0.75 0.578125 -0.75 1.375q0 0.5 0.3125 0.90625q0.3125 0.40625 0.984375 0.6875q0.390625 0.140625 2.28125 0.65625q2.734375 0.734375 3.8125 1.203125q1.078125 0.453125 1.6875 1.34375q0.625 0.890625 0.625 2.203125q0 1.296875 -0.75 2.4375q-0.75 1.125 -2.171875 1.75q-1.421875 0.625 -3.203125 0.625q-2.96875 0 -4.53125 -1.234375q-1.546875 -1.234375 -1.96875 -3.65625zm15.7109375 -13.484375l0 -2.96875l2.578125 0l0 2.96875l-2.578125 0zm0 18.03125l0 -15.203125l2.578125 0l0 15.203125l-2.578125 0zm12.125122 -2.3125l0.375 2.28125q-1.09375 0.234375 -1.953125 0.234375q-1.40625 0 -2.1875 -0.4375q-0.765625 -0.453125 -1.078125 -1.171875q-0.3125 -0.734375 -0.3125 -3.046875l0 -8.75l-1.890625 0l0 -2.0l1.890625 0l0 -3.765625l2.5625 -1.546875l0 5.3125l2.59375 0l0 2.0l-2.59375 0l0 8.890625q0 1.109375 0.125 1.421875q0.140625 0.3125 0.453125 0.5q0.3125 0.1875 0.890625 0.1875q0.421875 0 1.125 -0.109375zm12.929565 -2.578125l2.65625 0.328125q-0.625 2.328125 -2.328125 3.625q-1.703125 1.28125 -4.359375 1.28125q-3.328125 0 -5.28125 -2.046875q-1.953125 -2.0625 -1.953125 -5.765625q0 -3.84375 1.96875 -5.953125q1.984375 -2.125 5.125 -2.125q3.0625 0 4.984375 2.078125q1.9375 2.0625 1.9375 5.84375q0 0.21875 -0.015625 0.671875l-11.34375 0q0.140625 2.515625 1.421875 3.84375q1.28125 1.328125 3.171875 1.328125q1.421875 0 2.421875 -0.734375q1.0 -0.75 1.59375 -2.375zm-8.46875 -4.171875l8.5 0q-0.171875 -1.921875 -0.96875 -2.875q-1.234375 -1.5 -3.203125 -1.5q-1.765625 0 -2.984375 1.1875q-1.203125 1.1875 -1.34375 3.1875zm15.092163 9.0625l0 -2.9375l2.9375 0l0 2.9375l-2.9375 0z" fill-rule="nonzero"/></g></g></svg>